<svg xmlns="http://www.w3.org/2000/svg" version="1.1" xmlns:xlink="http://www.w3.org/1999/xlink" xmlns:svgjs="http://svgjs.com/svgjs" width="1440" height="560" preserveAspectRatio="none" viewBox="0 0 1440 560"><g mask="url(&quot;#SvgjsMask1046&quot;)" fill="none"><path d="M1536 560L0 560 L0 324.92Q81.82 286.74, 120 368.56Q149.04 325.6, 192 354.64Q249.64 340.28, 264 397.92Q316.34 330.26, 384 382.6Q398.28 324.88, 456 339.16Q499.88 311.04, 528 354.91Q586.95 341.87, 600 400.82Q650.58 331.39, 720 381.97Q752.38 294.35, 840 326.72Q884.31 299.03, 912 343.34Q958.15 317.5, 984 363.65Q1059.59 319.24, 1104 394.83Q1110.99 329.81, 1176 336.8Q1244.13 284.93, 1296 353.06Q1365.8 302.86, 1416 372.65Q1460.01 296.65, 1536 340.66z" fill="rgba(196, 199, 236, 1)"></path><path d="M1536 560L0 560 L0 410.85Q54.79 393.64, 72 448.43Q99.7 404.13, 144 431.84Q194.02 361.86, 264 411.88Q310.49 338.37, 384 384.86Q427.29 356.15, 456 399.44Q524.32 395.76, 528 464.08Q582.41 398.5, 648 452.91Q690.07 374.99, 768 417.06Q851.05 380.11, 888 463.16Q911.4 414.56, 960 437.96Q989.67 395.63, 1032 425.31Q1079.49 352.8, 1152 400.29Q1206.34 382.63, 1224 436.97Q1259.35 352.32, 1344 387.66Q1395.72 367.38, 1416 419.11Q1489.08 372.19, 1536 445.27z" fill="rgba(24, 47, 93, 1)"></path><path d="M1536 560L0 560 L0 473.58Q28.38 429.96, 72 458.34Q130.02 444.36, 144 502.38Q211.59 449.97, 264 517.56Q294.89 428.45, 384 459.34Q455.53 410.87, 504 482.4Q552.93 459.32, 576 508.25Q606.59 418.84, 696 449.42Q741.59 423.01, 768 468.6Q841.85 422.45, 888 496.3Q955.61 443.9, 1008 511.51Q1055.22 438.73, 1128 485.95Q1152.25 438.2, 1200 462.45Q1253.76 444.21, 1272 497.97Q1319.82 473.79, 1344 521.6Q1351.28 456.88, 1416 464.15Q1468.43 396.58, 1536 449.01z" fill="rgba(37, 70, 125, 1)"></path><path d="M1464 560L0 560 L0 510.58Q85.94 476.51, 120 562.45Q163.5 533.95, 192 577.45Q226.8 492.25, 312 527.06Q383.38 478.44, 432 549.83Q474.3 520.13, 504 562.43Q520.44 506.87, 576 523.31Q603.93 479.24, 648 507.16Q701.94 489.1, 720 543.04Q786.9 489.94, 840 556.85Q879.38 476.24, 960 515.62Q1053.28 488.9, 1080 582.19Q1118.85 501.04, 1200 539.88Q1273.47 493.36, 1320 566.83Q1330.15 504.99, 1392 515.14Q1421.09 472.23, 1464 501.32z" fill="#356cb1"></path></g><defs><mask id="SvgjsMask1046"><rect width="1440" height="560" fill="#ffffff"></rect></mask></defs></svg>