<svg xmlns="http://www.w3.org/2000/svg" version="1.1" xmlns:xlink="http://www.w3.org/1999/xlink" xmlns:svgjs="http://svgjs.com/svgjs" width="1440" height="560" preserveAspectRatio="none" viewBox="0 0 1440 560"><g mask="url(&quot;#SvgjsMask1003&quot;)" fill="none"><path d="M207 449.34a2.26 2.26 0 1 0 3.71-2.58z" fill="#037b0b"></path><path d="M928.55 149.33L950.98 149.33L950.98 171.76L928.55 171.76z" fill="#d3b714"></path><path d="M204.43 319.6L236.54 319.6L236.54 330.56L204.43 330.56z" stroke="#037b0b"></path><path d="M84.21 22.84L109.98 22.84L109.98 56.14L84.21 56.14z" stroke="#e73635"></path><path d="M930.66 242.78L935.72 242.78L935.72 269.36L930.66 269.36z" stroke="#037b0b"></path><path d="M909.03 122.06 a30.05 30.05 0 1 0 60.1 0 a30.05 30.05 0 1 0 -60.1 0z" fill="#d3b714"></path><path d="M107.36 111.36 a13.45 13.45 0 1 0 26.9 0 a13.45 13.45 0 1 0 -26.9 0z" fill="#d3b714"></path><path d="M170.08 20.94 a30.37 30.37 0 1 0 60.74 0 a30.37 30.37 0 1 0 -60.74 0z" fill="#037b0b"></path><path d="M720.5 421.29L771.32 421.29L771.32 472.11L720.5 472.11z" stroke="#037b0b"></path><path d="M889.44 455.28 a38.11 38.11 0 1 0 76.22 0 a38.11 38.11 0 1 0 -76.22 0z" stroke="#e73635"></path><path d="M716.74 171.31a32.52 32.52 0 1 0 23.97-60.46z" stroke="#d3b714"></path><path d="M346.73 177.15L394.32 177.15L394.32 224.74L346.73 224.74z" fill="#d3b714"></path><path d="M1233.78 485.63L1271.71 485.63L1271.71 523.56L1233.78 523.56z" stroke="#037b0b"></path><path d="M203.63 295.99L208.64 295.99L208.64 301L203.63 301z" stroke="#d3b714"></path><path d="M1095.06 321.34a14.95 14.95 0 1 0 18.53 23.46z" fill="#d3b714"></path><path d="M130.56 449.43L174.75 449.43L174.75 493.62L130.56 493.62z" fill="#e73635"></path><path d="M261.95 109.27L264.91 109.27L264.91 160.49L261.95 160.49z" stroke="#d3b714"></path><path d="M61.64 56.93 a48.91 48.91 0 1 0 97.82 0 a48.91 48.91 0 1 0 -97.82 0z" stroke="#037b0b"></path><path d="M1335.16 226.05a49.85 49.85 0 1 0-76.95 63.38z" stroke="#037b0b"></path><path d="M522.81 177.17a38.27 38.27 0 1 0 76.52-1.62z" stroke="#d3b714"></path><path d="M109.76 517.21L142.01 517.21L142.01 549.46L109.76 549.46z" fill="#d3b714"></path><path d="M961.68 553.3 a0.5 0.5 0 1 0 1 0 a0.5 0.5 0 1 0 -1 0z" fill="#e73635"></path><path d="M804.22 7.32 a0.5 0.5 0 1 0 1 0 a0.5 0.5 0 1 0 -1 0z" fill="#d3b714"></path><path d="M1192.83 546.09a14.83 14.83 0 1 0 0.11-29.66z" stroke="#037b0b"></path><path d="M899.15 241.89 a3.81 3.81 0 1 0 7.62 0 a3.81 3.81 0 1 0 -7.62 0z" fill="#e73635"></path><path d="M1357.88 50.11a30.43 30.43 0 1 0-0.98 60.86z" stroke="#e73635"></path><path d="M444.59 67.76 a31.59 31.59 0 1 0 63.18 0 a31.59 31.59 0 1 0 -63.18 0z" fill="#d3b714"></path><path d="M365.94 538L396.06 538L396.06 568.12L365.94 568.12z" stroke="#e73635"></path><path d="M223.04 425.98a23.84 23.84 0 1 0-6.11-47.28z" fill="#e73635"></path><path d="M110.29 486.34L112.16 486.34L112.16 519.74L110.29 519.74z" stroke="#d3b714"></path><path d="M1365.21 345.88L1391.45 345.88L1391.45 367.21L1365.21 367.21z" fill="#037b0b"></path><path d="M499.53 182.8 a43.79 43.79 0 1 0 87.58 0 a43.79 43.79 0 1 0 -87.58 0z" fill="#037b0b"></path><path d="M1015.81 173.24L1065.76 173.24L1065.76 223.19L1015.81 223.19z" fill="#037b0b"></path></g><defs><mask id="SvgjsMask1003"><rect width="1440" height="560" fill="#ffffff"></rect></mask></defs></svg>