<svg xmlns="http://www.w3.org/2000/svg" version="1.1" xmlns:xlink="http://www.w3.org/1999/xlink" xmlns:svgjs="http://svgjs.com/svgjs" width="1440" height="560" preserveAspectRatio="none" viewBox="0 0 1440 560"><g mask="url(&quot;#SvgjsMask1976&quot;)" fill="none"><use xlink:href="#SvgjsG1985" transform="translate(0, 0)" fill="#0f457b"></use><use xlink:href="#SvgjsG1985" transform="translate(0, 348)" fill="#0f457b"></use><use xlink:href="#SvgjsG1985" transform="translate(348, 0)" fill="#0f457b"></use><use xlink:href="#SvgjsG1985" transform="translate(348, 348)" fill="#0f457b"></use><use xlink:href="#SvgjsG1985" transform="translate(696, 0)" fill="#0f457b"></use><use xlink:href="#SvgjsG1985" transform="translate(696, 348)" fill="#0f457b"></use><use xlink:href="#SvgjsG1985" transform="translate(1044, 0)" fill="#0f457b"></use><use xlink:href="#SvgjsG1985" transform="translate(1044, 348)" fill="#0f457b"></use><use xlink:href="#SvgjsG1985" transform="translate(1392, 0)" fill="#0f457b"></use><use xlink:href="#SvgjsG1985" transform="translate(1392, 348)" fill="#0f457b"></use></g><defs><mask id="SvgjsMask1976"><rect width="1440" height="560" fill="#ffffff"></rect></mask><g id="SvgjsG1978"><path d="M6.498 9.304L12.139 3.663l1.565 1.566-5.641 5.641z"></path><path d="M6.8 0.457h2.541v8.028H6.8z"></path><path d="M8.072 10.876L2.429 5.238l1.563-1.566L9.636 9.313zM1.2 13.277h13.733v2.266H1.2z"></path><path d="M0.733 9.143h2.267v6.4h-2.267z m12.267 0h2.267v6.4h-2.267z"></path></g><g id="SvgjsG1982"><path d="M7.713 15.485C3.459 15.485 0 12.025 0 7.768 0 3.513 3.459 0.051 7.713 0.051S15.432 3.513 15.432 7.768c0 4.257-3.465 7.716-7.719 7.717z m0-1.91c3.201 0 5.81-2.604 5.81-5.809 0-3.199-2.61-5.807-5.81-5.807-3.202 0-5.804 2.609-5.804 5.807-0.001 3.206 2.602 5.809 5.804 5.809z"></path><path d="M7.753 8.787a0.574 0.574 0 0 1-0.554-0.042 0.578 0.578 0 0 1-0.259-0.399L6.931 3.862a0.58 0.58 0 0 1 1.162 0v3.478l2.975-1.4a0.578 0.578 0 0 1 0.773 0.275c0.138 0.292 0.011 0.637-0.276 0.774l-3.81 1.798z"></path></g><g id="SvgjsG1984"><path d="M15.233 9.431c0.295 0 0.569-0.239 0.61-0.532 0 0 0.056-0.411 0.056-0.899s-0.056-0.899-0.056-0.899c-0.041-0.292-0.315-0.531-0.61-0.53h-1.524c-0.295 0-0.602-0.188-0.681-0.418s-0.188-0.967 0.021-1.176l1.078-1.077c0.209-0.209 0.225-0.565 0.036-0.792l-1.268-1.268c-0.227-0.189-0.583-0.173-0.792 0.036l-1.078 1.077c-0.208 0.209-0.556 0.293-0.772 0.187s-0.822-0.552-0.821-0.847V0.767c0-0.295-0.239-0.569-0.531-0.61 0 0-0.411-0.057-0.9-0.056s-0.899 0.057-0.899 0.056c-0.293 0.04-0.532 0.315-0.532 0.61v1.524c0 0.295-0.188 0.601-0.418 0.681s-0.967 0.188-1.176-0.021l-1.078-1.078C3.689 1.665 3.333 1.649 3.107 1.837l-1.268 1.268c-0.189 0.227-0.173 0.583 0.036 0.792l1.077 1.078c0.209 0.209 0.293 0.556 0.187 0.772s-0.552 0.822-0.847 0.822H0.767c-0.295 0-0.569 0.239-0.61 0.531 0 0-0.057 0.411-0.056 0.899s0.057 0.899 0.056 0.9c0.04 0.293 0.315 0.532 0.61 0.532h1.525c0.295 0 0.601 0.188 0.681 0.417 0.079 0.23 0.188 0.967-0.02 1.176l-1.078 1.077C1.667 12.311 1.651 12.667 1.84 12.893l1.267 1.268c0.227 0.189 0.583 0.173 0.792-0.036l1.077-1.077c0.209-0.208 0.556-0.292 0.772-0.187s0.821 0.553 0.822 0.848v1.524c0 0.295 0.239 0.569 0.532 0.61 0 0 0.411 0.057 0.899 0.057s0.899-0.056 0.899-0.057c0.293-0.04 0.531-0.315 0.532-0.609v-1.524c0-0.295 0.188-0.602 0.418-0.681 0.23-0.079 0.967-0.188 1.176 0.021l1.077 1.077c0.209 0.209 0.565 0.225 0.792 0.036l1.268-1.267c0.189-0.227 0.173-0.583-0.036-0.792l-1.078-1.077c-0.209-0.209-0.293-0.557-0.186-0.773 0.106-0.216 0.552-0.822 0.847-0.822h1.525zM8 10.892c-1.597 0-2.891-1.294-2.891-2.892 0-1.596 1.295-2.891 2.891-2.891S10.892 6.404 10.892 8 9.597 10.892 8 10.892z"></path></g><g id="SvgjsG1979"><path d="M15.819 2.872L8 9.063 0.182 2.872z m0 8.863L11.116 8l4.703-3.734zM0.161 4.266l4.702 3.734L0.161 11.735z"></path><path d="M10.255 8.663L8.011 10.434 5.766 8.663 0.182 13.068h15.656z"></path></g><g id="SvgjsG1981"><path d="M8 1.076C3.594 1.076 0.023 3.767 0.023 7.088c0 1.625 0.857 3.099 2.248 4.181l0.003 3.607 4.168-1.892c0.504 0.075 1.025 0.115 1.558 0.116 4.406 0 7.976-2.692 7.976-6.012C15.976 3.767 12.406 1.076 8 1.076z" fill-rule="evenodd"></path></g><g id="SvgjsG1977"><path d="M8 2.022C3.815 2.022 0.422 4.579 0.422 7.733c0 1.544 0.814 2.944 2.135 3.972l0.003 3.427 3.961-1.798c0.479 0.071 0.973 0.11 1.48 0.11 4.185 0 7.578-2.557 7.578-5.711 0-3.154-3.392-5.711-7.577-5.711zM4.81 8.933a1.067 1.067 0 1 1 0-2.133 1.067 1.067 0 0 1 0 2.133z m3.186 0a1.067 1.067 0 1 1 0-2.133 1.067 1.067 0 0 1 0 2.133z m3.143 0c-0.589 0-1.067-0.478-1.067-1.066s0.477-1.067 1.067-1.067 1.067 0.478 1.067 1.067a1.067 1.067 0 0 1-1.067 1.066z"></path></g><g id="SvgjsG1983"><path d="M5.534 5.272L8.008 0l2.474 5.272 5.534 0.845-4.004 4.103 0.945 5.795L8.008 13.279 3.06 16.015l0.945-5.795L0.001 6.117z"></path></g><g id="SvgjsG1980"><path d="M8.655 0C5.901 0 3.36 2.069 2.833 4.347 2.715 4.854 2.582 6.177 2.582 6.177L1.318 9.37A0.469 0.469 0 0 0 1.28 9.561a0.488 0.488 0 0 0 0.489 0.488h0.814v1.697c0 1.324 1.07 2.396 2.392 2.396h0.952V16h3.535v-0.829h1.44V16h1.503V10.847c1.413-1.111 2.322-2.838 2.322-4.774C14.726 2.718 12.01 0 8.655 0zM4.077 7.387a0.682 0.682 0 0 1-0.682-0.682c0-0.375 0.306-0.68 0.682-0.68a0.681 0.681 0 0 1 0.679 0.68c0 0.377-0.306 0.682-0.68 0.682z m5.385 4.46h1.44v0.779h-1.44v-0.779z m0-1.108h1.44v0.778h-1.44V10.739z m0 2.215h1.44v0.78h-1.44v-0.78z m0 1.109h1.44v0.78h-1.44V14.062z m0-4.431h1.448c-0.003 0.057-0.009 0.113-0.009 0.172v0.607h-1.44V9.632z m3.986-4.488a1.557 1.557 0 0 1-0.427 1.071c-0.045 0.592-0.42 1.091-0.942 1.316v0.005c-0.637 0.372-1.019 1.005-1.135 1.766H10.354v-1.765c0.004-0.55 0.177-0.902 0.539-1.119a1.907 1.907 0 0 0 0.356-0.26 1.229 1.229 0 0 1 0.659 0.556c0.032 0.053 0.088 0.083 0.144 0.082 0.027 0 0.055-0.007 0.08-0.021a0.163 0.163 0 0 0 0.064-0.224h-0.001a1.563 1.563 0 0 0-0.721-0.657c0.15-0.231 0.234-0.506 0.23-0.837 0-0.002 0.002-0.003 0.003-0.006 0-0.149-0.022-0.294-0.062-0.431a1.572 1.572 0 0 0 0.871-0.486 0.164 0.164 0 0 0-0.011-0.234 0.164 0.164 0 0 0-0.232 0.011 1.248 1.248 0 0 1-0.755 0.396c-0.24-0.444-0.686-0.76-1.209-0.818a1.235 1.235 0 0 1 0.353-0.724 0.166 0.166 0 0 0 0-0.233 0.166 0.166 0 0 0-0.234 0 1.572 1.572 0 0 0-0.45 0.937 1.244 1.244 0 0 1-1.088-1.234c0-0.09-0.075-0.165-0.163-0.165-0.093 0-0.166 0.075-0.167 0.165 0 0.107 0.01 0.21 0.031 0.31a1.24 1.24 0 0 1-1.235 0.229s-0.002 0-0.003-0.001a1.225 1.225 0 0 1-0.453-0.289c-0.063-0.064-0.168-0.064-0.233 0-0.065 0.064-0.065 0.168 0 0.233a1.59 1.59 0 0 0 0.452 0.316c-0.033 0.411-0.271 0.764-0.605 0.963a1.578 1.578 0 0 0-0.84-0.639 0.166 0.166 0 0 0-0.209 0.107c-0.024 0.087 0.02 0.179 0.108 0.207a1.247 1.247 0 0 1 0.63 0.455 1.221 1.221 0 0 1-0.32 0.042h-0.02a1.568 1.568 0 0 0-1.096 0.444 0.161 0.161 0 0 0-0.003 0.233 0.162 0.162 0 0 0 0.231 0.003 1.236 1.236 0 0 1 0.868-0.35h0.019c0.794 0 1.453-0.591 1.557-1.358 0.113 0.024 0.226 0.038 0.34 0.038A1.574 1.574 0 0 0 8.699 2.88a1.558 1.558 0 0 0 0.45 0.583 1.556 1.556 0 0 0-0.341 0.82 1.622 1.622 0 0 0-0.256-0.021 1.557 1.557 0 0 0-0.736 0.185c-0.08 0.043-0.111 0.142-0.068 0.224 0.03 0.055 0.088 0.087 0.147 0.087a0.144 0.144 0 0 0 0.075-0.02 1.25 1.25 0 0 1 0.583-0.146c0.087 0 0.173 0.01 0.256 0.027a1.576 1.576 0 0 0 0.428 0.92c0.033 0.034 0.076 0.051 0.118 0.051 0.04 0 0.082-0.015 0.115-0.046 0.067-0.063 0.069-0.167 0.005-0.232h-0.001a1.253 1.253 0 0 1-0.345-0.829c0-0.004 0.001-0.008 0-0.013v-0.018a1.237 1.237 0 0 1 0.299-0.81 1.57 1.57 0 0 0 0.701 0.166s0.001 0 0.003 0h0.003a1.244 1.244 0 0 1 1.241 1.24 1.566 1.566 0 0 0-0.401-0.052c-0.196 0-0.395 0.036-0.587 0.114a0.164 0.164 0 0 0-0.091 0.215c0.035 0.084 0.129 0.125 0.214 0.09a1.247 1.247 0 0 1 0.464-0.091c0.124 0 0.248 0.019 0.363 0.055a0.953 0.953 0 0 1-0.242 0.464 0.14 0.14 0 0 0-0.025 0.029c-0.094 0.092-0.207 0.177-0.346 0.262-0.477 0.278-0.706 0.784-0.701 1.403V9.301h-0.563V7.624c0-0.616-0.386-1.201-0.873-1.409-0.232-0.09-0.474-0.241-0.65-0.438a1.558 1.558 0 0 1-0.878 0.271 1.555 1.555 0 0 1-0.877-0.269 1.581 1.581 0 0 1-0.87 0.26c-0.883 0-1.596-0.715-1.597-1.597 0-0.659 0.398-1.224 0.969-1.467 0.154-0.703 0.777-1.229 1.527-1.23 0.04 0 0.076 0.003 0.113 0.006a1.567 1.567 0 0 1 1.295-0.684c0.266 0 0.516 0.066 0.736 0.185a1.558 1.558 0 0 1 1.925 0.158 1.553 1.553 0 0 1 0.365-0.044c0.633 0 1.18 0.381 1.424 0.926 0.642 0.195 1.11 0.79 1.11 1.496a1.576 1.576 0 0 1-0.054 0.408 1.561 1.561 0 0 1 0.321 0.948z"></path></g><g id="SvgjsG1985"><use xlink:href="#SvgjsG1977" transform="translate(0, 0) scale(1.2)" fill="#0f457b"></use><use xlink:href="#SvgjsG1978" transform="translate(0, 34.8) scale(1.2)" fill="#0f457b"></use><use xlink:href="#SvgjsG1978" transform="translate(0, 69.6) scale(1.2)" fill="#0f457b"></use><use xlink:href="#SvgjsG1978" transform="translate(0, 104.39999999999999) scale(1.2)" fill="#0f457b"></use><use xlink:href="#SvgjsG1979" transform="translate(0, 139.2) scale(1.2)" fill="#0f457b"></use><use xlink:href="#SvgjsG1980" transform="translate(0, 174) scale(1.2)" fill="#0f457b"></use><use xlink:href="#SvgjsG1977" transform="translate(0, 208.79999999999998) scale(1.2)" fill="#0f457b"></use><use xlink:href="#SvgjsG1980" transform="translate(0, 243.59999999999997) scale(1.2)" fill="#0f457b"></use><use xlink:href="#SvgjsG1977" transform="translate(0, 278.4) scale(1.2)" fill="#0f457b"></use><use xlink:href="#SvgjsG1980" transform="translate(0, 313.2) scale(1.2)" fill="#0f457b"></use><use xlink:href="#SvgjsG1979" transform="translate(34.8, 0) scale(1.2)" fill="#0f457b"></use><use xlink:href="#SvgjsG1981" transform="translate(34.8, 34.8) scale(1.2)" fill="#0f457b"></use><use xlink:href="#SvgjsG1979" transform="translate(34.8, 69.6) scale(1.2)" fill="#0f457b"></use><use xlink:href="#SvgjsG1982" transform="translate(34.8, 104.39999999999999) scale(1.2)" fill="#0f457b"></use><use xlink:href="#SvgjsG1983" transform="translate(34.8, 139.2) scale(1.2)" fill="#0f457b"></use><use xlink:href="#SvgjsG1978" transform="translate(34.8, 174) scale(1.2)" fill="#0f457b"></use><use xlink:href="#SvgjsG1981" transform="translate(34.8, 208.79999999999998) scale(1.2)" fill="#0f457b"></use><use xlink:href="#SvgjsG1981" transform="translate(34.8, 243.59999999999997) scale(1.2)" fill="#0f457b"></use><use xlink:href="#SvgjsG1983" transform="translate(34.8, 278.4) scale(1.2)" fill="#0f457b"></use><use xlink:href="#SvgjsG1982" transform="translate(34.8, 313.2) scale(1.2)" fill="#0f457b"></use><use xlink:href="#SvgjsG1984" transform="translate(69.6, 0) scale(1.2)" fill="#0f457b"></use><use xlink:href="#SvgjsG1979" transform="translate(69.6, 34.8) scale(1.2)" fill="#0f457b"></use><use xlink:href="#SvgjsG1978" transform="translate(69.6, 69.6) scale(1.2)" fill="#0f457b"></use><use xlink:href="#SvgjsG1981" transform="translate(69.6, 104.39999999999999) scale(1.2)" fill="#0f457b"></use><use xlink:href="#SvgjsG1978" transform="translate(69.6, 139.2) scale(1.2)" fill="#0f457b"></use><use xlink:href="#SvgjsG1984" transform="translate(69.6, 174) scale(1.2)" fill="#0f457b"></use><use xlink:href="#SvgjsG1980" transform="translate(69.6, 208.79999999999998) scale(1.2)" fill="#0f457b"></use><use xlink:href="#SvgjsG1978" transform="translate(69.6, 243.59999999999997) scale(1.2)" fill="#0f457b"></use><use xlink:href="#SvgjsG1981" transform="translate(69.6, 278.4) scale(1.2)" fill="#0f457b"></use><use xlink:href="#SvgjsG1978" transform="translate(69.6, 313.2) scale(1.2)" fill="#0f457b"></use><use xlink:href="#SvgjsG1984" transform="translate(104.39999999999999, 0) scale(1.2)" fill="#0f457b"></use><use xlink:href="#SvgjsG1984" transform="translate(104.39999999999999, 34.8) scale(1.2)" fill="#0f457b"></use><use xlink:href="#SvgjsG1977" transform="translate(104.39999999999999, 69.6) scale(1.2)" fill="#0f457b"></use><use xlink:href="#SvgjsG1984" transform="translate(104.39999999999999, 104.39999999999999) scale(1.2)" fill="#0f457b"></use><use xlink:href="#SvgjsG1983" transform="translate(104.39999999999999, 139.2) scale(1.2)" fill="#0f457b"></use><use xlink:href="#SvgjsG1979" transform="translate(104.39999999999999, 174) scale(1.2)" fill="#0f457b"></use><use xlink:href="#SvgjsG1979" transform="translate(104.39999999999999, 208.79999999999998) scale(1.2)" fill="#0f457b"></use><use xlink:href="#SvgjsG1980" transform="translate(104.39999999999999, 243.59999999999997) scale(1.2)" fill="#0f457b"></use><use xlink:href="#SvgjsG1978" transform="translate(104.39999999999999, 278.4) scale(1.2)" fill="#0f457b"></use><use xlink:href="#SvgjsG1978" transform="translate(104.39999999999999, 313.2) scale(1.2)" fill="#0f457b"></use><use xlink:href="#SvgjsG1978" transform="translate(139.2, 0) scale(1.2)" fill="#0f457b"></use><use xlink:href="#SvgjsG1981" transform="translate(139.2, 34.8) scale(1.2)" fill="#0f457b"></use><use xlink:href="#SvgjsG1977" transform="translate(139.2, 69.6) scale(1.2)" fill="#0f457b"></use><use xlink:href="#SvgjsG1979" transform="translate(139.2, 104.39999999999999) scale(1.2)" fill="#0f457b"></use><use xlink:href="#SvgjsG1983" transform="translate(139.2, 139.2) scale(1.2)" fill="#0f457b"></use><use xlink:href="#SvgjsG1982" transform="translate(139.2, 174) scale(1.2)" fill="#0f457b"></use><use xlink:href="#SvgjsG1984" transform="translate(139.2, 208.79999999999998) scale(1.2)" fill="#0f457b"></use><use xlink:href="#SvgjsG1979" transform="translate(139.2, 243.59999999999997) scale(1.2)" fill="#0f457b"></use><use xlink:href="#SvgjsG1981" transform="translate(139.2, 278.4) scale(1.2)" fill="#0f457b"></use><use xlink:href="#SvgjsG1983" transform="translate(139.2, 313.2) scale(1.2)" fill="#0f457b"></use><use xlink:href="#SvgjsG1982" transform="translate(174, 0) scale(1.2)" fill="#0f457b"></use><use xlink:href="#SvgjsG1984" transform="translate(174, 34.8) scale(1.2)" fill="#0f457b"></use><use xlink:href="#SvgjsG1978" transform="translate(174, 69.6) scale(1.2)" fill="#0f457b"></use><use xlink:href="#SvgjsG1983" transform="translate(174, 104.39999999999999) scale(1.2)" fill="#0f457b"></use><use xlink:href="#SvgjsG1984" transform="translate(174, 139.2) scale(1.2)" fill="#0f457b"></use><use xlink:href="#SvgjsG1984" transform="translate(174, 174) scale(1.2)" fill="#0f457b"></use><use xlink:href="#SvgjsG1978" transform="translate(174, 208.79999999999998) scale(1.2)" fill="#0f457b"></use><use xlink:href="#SvgjsG1981" transform="translate(174, 243.59999999999997) scale(1.2)" fill="#0f457b"></use><use xlink:href="#SvgjsG1983" transform="translate(174, 278.4) scale(1.2)" fill="#0f457b"></use><use xlink:href="#SvgjsG1983" transform="translate(174, 313.2) scale(1.2)" fill="#0f457b"></use><use xlink:href="#SvgjsG1980" transform="translate(208.79999999999998, 0) scale(1.2)" fill="#0f457b"></use><use xlink:href="#SvgjsG1983" transform="translate(208.79999999999998, 34.8) scale(1.2)" fill="#0f457b"></use><use xlink:href="#SvgjsG1983" transform="translate(208.79999999999998, 69.6) scale(1.2)" fill="#0f457b"></use><use xlink:href="#SvgjsG1984" transform="translate(208.79999999999998, 104.39999999999999) scale(1.2)" fill="#0f457b"></use><use xlink:href="#SvgjsG1983" transform="translate(208.79999999999998, 139.2) scale(1.2)" fill="#0f457b"></use><use xlink:href="#SvgjsG1984" transform="translate(208.79999999999998, 174) scale(1.2)" fill="#0f457b"></use><use xlink:href="#SvgjsG1983" transform="translate(208.79999999999998, 208.79999999999998) scale(1.2)" fill="#0f457b"></use><use xlink:href="#SvgjsG1977" transform="translate(208.79999999999998, 243.59999999999997) scale(1.2)" fill="#0f457b"></use><use xlink:href="#SvgjsG1982" transform="translate(208.79999999999998, 278.4) scale(1.2)" fill="#0f457b"></use><use xlink:href="#SvgjsG1980" transform="translate(208.79999999999998, 313.2) scale(1.2)" fill="#0f457b"></use><use xlink:href="#SvgjsG1984" transform="translate(243.59999999999997, 0) scale(1.2)" fill="#0f457b"></use><use xlink:href="#SvgjsG1977" transform="translate(243.59999999999997, 34.8) scale(1.2)" fill="#0f457b"></use><use xlink:href="#SvgjsG1978" transform="translate(243.59999999999997, 69.6) scale(1.2)" fill="#0f457b"></use><use xlink:href="#SvgjsG1977" transform="translate(243.59999999999997, 104.39999999999999) scale(1.2)" fill="#0f457b"></use><use xlink:href="#SvgjsG1982" transform="translate(243.59999999999997, 139.2) scale(1.2)" fill="#0f457b"></use><use xlink:href="#SvgjsG1977" transform="translate(243.59999999999997, 174) scale(1.2)" fill="#0f457b"></use><use xlink:href="#SvgjsG1983" transform="translate(243.59999999999997, 208.79999999999998) scale(1.2)" fill="#0f457b"></use><use xlink:href="#SvgjsG1984" transform="translate(243.59999999999997, 243.59999999999997) scale(1.2)" fill="#0f457b"></use><use xlink:href="#SvgjsG1977" transform="translate(243.59999999999997, 278.4) scale(1.2)" fill="#0f457b"></use><use xlink:href="#SvgjsG1977" transform="translate(243.59999999999997, 313.2) scale(1.2)" fill="#0f457b"></use><use xlink:href="#SvgjsG1981" transform="translate(278.4, 0) scale(1.2)" fill="#0f457b"></use><use xlink:href="#SvgjsG1978" transform="translate(278.4, 34.8) scale(1.2)" fill="#0f457b"></use><use xlink:href="#SvgjsG1984" transform="translate(278.4, 69.6) scale(1.2)" fill="#0f457b"></use><use xlink:href="#SvgjsG1984" transform="translate(278.4, 104.39999999999999) scale(1.2)" fill="#0f457b"></use><use xlink:href="#SvgjsG1980" transform="translate(278.4, 139.2) scale(1.2)" fill="#0f457b"></use><use xlink:href="#SvgjsG1980" transform="translate(278.4, 174) scale(1.2)" fill="#0f457b"></use><use xlink:href="#SvgjsG1979" transform="translate(278.4, 208.79999999999998) scale(1.2)" fill="#0f457b"></use><use xlink:href="#SvgjsG1978" transform="translate(278.4, 243.59999999999997) scale(1.2)" fill="#0f457b"></use><use xlink:href="#SvgjsG1983" transform="translate(278.4, 278.4) scale(1.2)" fill="#0f457b"></use><use xlink:href="#SvgjsG1981" transform="translate(278.4, 313.2) scale(1.2)" fill="#0f457b"></use><use xlink:href="#SvgjsG1978" transform="translate(313.2, 0) scale(1.2)" fill="#0f457b"></use><use xlink:href="#SvgjsG1984" transform="translate(313.2, 34.8) scale(1.2)" fill="#0f457b"></use><use xlink:href="#SvgjsG1982" transform="translate(313.2, 69.6) scale(1.2)" fill="#0f457b"></use><use xlink:href="#SvgjsG1977" transform="translate(313.2, 104.39999999999999) scale(1.2)" fill="#0f457b"></use><use xlink:href="#SvgjsG1979" transform="translate(313.2, 139.2) scale(1.2)" fill="#0f457b"></use><use xlink:href="#SvgjsG1982" transform="translate(313.2, 174) scale(1.2)" fill="#0f457b"></use><use xlink:href="#SvgjsG1978" transform="translate(313.2, 208.79999999999998) scale(1.2)" fill="#0f457b"></use><use xlink:href="#SvgjsG1984" transform="translate(313.2, 243.59999999999997) scale(1.2)" fill="#0f457b"></use><use xlink:href="#SvgjsG1983" transform="translate(313.2, 278.4) scale(1.2)" fill="#0f457b"></use><use xlink:href="#SvgjsG1979" transform="translate(313.2, 313.2) scale(1.2)" fill="#0f457b"></use></g></defs></svg>