<svg xmlns="http://www.w3.org/2000/svg" version="1.1" xmlns:xlink="http://www.w3.org/1999/xlink" xmlns:svgjs="http://svgjs.com/svgjs" width="1440" height="560" preserveAspectRatio="none" viewBox="0 0 1440 560"><g mask="url(&quot;#SvgjsMask1001&quot;)" fill="none"><path d="M388.24 627.52C514.11 607.27 574.36 305.1 780.72 301.91 987.07 298.72 976.95 371.91 1173.19 371.91 1369.43 371.91 1466 302.18 1565.67 301.91" stroke="rgba(51,121,194,0.58)" stroke-width="2"></path><path d="M466.41 661.8C592.13 644.97 659.7 356.82 870.05 354.38 1080.41 351.94 1071.88 424.38 1273.7 424.38 1475.52 424.38 1574.92 354.64 1677.34 354.38" stroke="rgba(51,121,194,0.58)" stroke-width="2"></path><path d="M750.81 636.32C870.73 540.48 796.98 83.8 1003.68 76.76 1210.37 69.72 1370.66 301.07 1509.41 306.36" stroke="rgba(51,121,194,0.58)" stroke-width="2"></path><path d="M701.14 657.03C780 650.17 743.78 499.7 968.95 488.1 1194.11 476.5 1357.85 252.75 1504.56 247.3" stroke="rgba(51,121,194,0.58)" stroke-width="2"></path><path d="M883.85 582.82C1033.48 525.18 1061.02 77.16 1270.13 70.82 1479.24 64.48 1548.87 256.14 1656.41 261.22" stroke="rgba(51,121,194,0.58)" stroke-width="2"></path></g><defs><mask id="SvgjsMask1001"><rect width="1440" height="560" fill="#ffffff"></rect></mask></defs></svg>