<svg version="1.2" xmlns="http://www.w3.org/2000/svg" viewBox="0 0 1000 1000" width="1000" height="1000">
	<title>20602935_6333201-ai</title>
	<style>
		.s0 { fill: #fafafa } 
		.s1 { fill: #ffffff } 
		.s2 { fill: #ebebeb } 
		.s3 { fill: #e0e0e0 } 
		.s4 { fill: #f5f5f5 } 
		.s5 { fill: #f0f0f0 } 
		.s6 { fill: #e6e6e6 } 
		.s7 { fill: #ba68c8 } 
		.s8 { opacity: .3;fill: #ffffff } 
		.s9 { opacity: .1;fill: #000000 } 
		.s10 { fill: #455a64 } 
		.s11 { fill: #263238 } 
		.s12 { fill: #37474f } 
		.s13 { fill: #000000 } 
		.s14 { opacity: .2;fill: #000000 } 
		.s15 { opacity: .4;fill: #000000 } 
		.s16 { opacity: .5;fill: #ba68c8 } 
		.s17 { opacity: .2;fill: #ffffff } 
		.s18 { fill: #c8856a } 
		.s19 { fill: #af6152 } 
		.s20 { fill: #f28f8f } 
		.s21 { opacity: .7;fill: #ffffff } 
		.s22 { opacity: .4;fill: #ffffff } 
	</style>
	<g id="Floor">
		<path id="Floor 00000127751806494356932650000007035371365606452130 " class="s0" d="m844.7 497.3c190.3 109.9 190.3 288.1 0 398-190.4 109.9-499 109.9-689.4 0-190.3-109.9-190.3-288.1 0-398 190.4-109.9 499-109.9 689.4 0z"/>
	</g>
	<g id="Picture">
		<g id="Picture 1 ">
			<g id="Frame 3 ">
				<path id="&lt;Path&gt;" class="s0" d="m390.6 208.4l3.5 2-70.2 40.5-3.4-2z"/>
				<g id="&lt;Group&gt;">
					<g id="&lt;Group&gt;">
						<g id="&lt;Group&gt;">
							<path id="&lt;Path&gt;" class="s1" d="m390.6 208.4l-66.7 38.5v-69.9l66.7-38.5z"/>
						</g>
					</g>
				</g>
				<path id="&lt;Compound Path&gt;" fill-rule="evenodd" class="s2" d="m400.5 214.1l-83.1 48v-88.8l83.1-48zm-6.4-77.6l-70.2 40.5v73.9l70.2-40.5z"/>
				<path id="&lt;Path&gt;" class="s3" d="m394.1 210.4l-3.5-2v-69.9l3.5-2z"/>
				<path id="&lt;Path&gt;" class="s4" d="m317.4 173.3l-3.4-2 83-48 3.5 2z"/>
				<path id="&lt;Path&gt;" class="s3" d="m314 171.3l3.4 2v88.8l-3.4-2z"/>
			</g>
			<g id="Land 1 ">
				<path id="&lt;Path&gt;" class="s5" d="m388 206.3l-61.5 35.5v-17.7l15.4-35.6 9.6 8.9-3.5 14.9 21.3-45.4 18.7 21.6z"/>
				<path id="&lt;Path&gt;" class="s5" d="m355.4 174c0 2.9-2 6.4-4.5 7.9-2.5 1.4-4.6 0.3-4.6-2.6 0-2.9 2.1-6.5 4.6-7.9 2.5-1.5 4.5-0.3 4.5 2.6z"/>
			</g>
		</g>
		<g id="Picture 2 ">
			<g id="Frame 4 ">
				<path id="&lt;Path&gt;" class="s0" d="m500.7 144.8l3.4 2.1-70.2 40.5-3.4-2.1z"/>
				<g id="&lt;Group&gt;">
					<g id="&lt;Group&gt;">
						<g id="&lt;Group&gt;">
							<path id="&lt;Path&gt;" class="s1" d="m500.7 144.8l-66.8 38.5v-69.9l66.8-38.5z"/>
						</g>
					</g>
				</g>
				<path id="&lt;Compound Path&gt;" fill-rule="evenodd" class="s2" d="m510.6 150.6l-83.1 47.9v-88.8l83.1-47.9zm-6.5-77.7l-70.2 40.5v73.9l70.2-40.5z"/>
				<path id="&lt;Path&gt;" class="s3" d="m504.1 146.9l-3.4-2.1v-69.9l3.4-2z"/>
				<path id="&lt;Path&gt;" class="s4" d="m427.5 109.7l-3.5-2 83.1-47.9 3.5 2z"/>
				<path id="&lt;Path&gt;" class="s3" d="m424 107.7l3.5 2v88.8l-3.5-1.9z"/>
			</g>
			<g id="Land 2 ">
				<path id="&lt;Path&gt;" class="s5" d="m498.1 142.7l-61.5 35.6v-17.8l15.3-35.5 9.6 8.8-3.4 14.9 21.2-45.4 18.8 21.7z"/>
				<path id="&lt;Path&gt;" class="s5" d="m465.5 110.4c0 2.9-2 6.5-4.6 7.9-2.5 1.5-4.5 0.3-4.5-2.6 0-2.9 2-6.4 4.5-7.9 2.6-1.4 4.6-0.3 4.6 2.6z"/>
			</g>
		</g>
	</g>
	<g id="Window">
		<g id="Window 3 ">
			<path id="&lt;Path&gt;" class="s6" d="m958.9 517l-8.4 4.9-151.1-87.3v-275.2c0-29.2 11-49 28.1-56.1 13.9-10.7 33.7-10.9 55.8 1.9 41.8 24.1 75.6 85.3 75.6 136.7z"/>
			<path id="&lt;Path&gt;" class="s4" d="m799.4 434.6v-275.2c0-51.3 33.8-73.5 75.5-49.4 41.8 24.1 75.6 85.3 75.6 136.7v275.2z"/>
			<path id="&lt;Path&gt;" class="s3" d="m942.2 246.7v260.8l-134.6-77.7v-270.4c0-25.6 9.1-43.3 24.3-48.9 3.3-1.3 7-1.9 11-1.9 8.6 0 18 2.9 27.9 8.6 39.4 22.7 71.4 80.8 71.4 129.5z"/>
			<path id="&lt;Path&gt;" class="s2" d="m807.6 429.8l8.6-4.9 126 72.8v9.8z"/>
			<path id="&lt;Path&gt;" class="s1" d="m942.2 246.7v251l-126-72.8-0.1-270.4c0-20.4 5.8-35.8 15.8-44 3.3-1.3 7-1.9 11-1.9 8.6 0 18 2.9 27.9 8.6 39.4 22.7 71.4 80.8 71.4 129.5z"/>
			<path id="&lt;Path&gt;" class="s4" d="m879.1 471.1l-8.3-4.8v-352.1h8.3z"/>
			<path id="&lt;Path&gt;" class="s3" d="m887.3 129.2v337.1l-8.2 4.7v-348.4q4.2 3 8.2 6.6z"/>
			<g id="&lt;Group&gt;">
				<path id="&lt;Path&gt;" class="s4" d="m807.6 371.5l63.2 36.5v9.7l-63.2-36.5z"/>
				<path id="&lt;Path&gt;" class="s2" d="m870.8 398.3v9.7l-63.2-36.5 8.6-4.9z"/>
			</g>
			<g id="&lt;Group&gt;">
				<path id="&lt;Path&gt;" class="s4" d="m879.1 412.7l63.1 36.5v9.7l-63.1-36.5z"/>
				<path id="&lt;Path&gt;" class="s2" d="m942.2 439.5v9.7l-63.1-36.5 8.5-4.9z"/>
			</g>
			<g id="&lt;Group&gt;">
				<path id="&lt;Path&gt;" class="s4" d="m807.6 177.8l63.2 36.5v9.7l-63.2-36.4z"/>
				<path id="&lt;Path&gt;" class="s2" d="m870.8 204.6v9.7l-63.2-36.5 8.6-4.9z"/>
			</g>
			<g id="&lt;Group&gt;">
				<path id="&lt;Path&gt;" class="s4" d="m879.1 219.1l63.1 36.5v9.7l-63.1-36.5z"/>
				<path id="&lt;Path&gt;" class="s2" d="m942.2 245.9v9.7l-63.1-36.5 8.5-4.9z"/>
			</g>
		</g>
	</g>
	<g id="Shadows">
		<path id="Shadow 7 " class="s3" d="m184.7 885.5c-0.7 3.5-2.1 6.9-4.3 10.2-3.6 5.3-9.1 10.3-16.5 14.6-28.4 16.4-74.4 16.4-102.8 0-7.5-4.3-12.9-9.3-16.5-14.6-2.2-3.3-3.6-6.7-4.3-10.2-2.6-12.3 4.4-25.1 20.8-34.6 28.4-16.4 74.4-16.4 102.8 0 16.4 9.5 23.4 22.3 20.8 34.6z"/>
		<path id="Shadow 24 " class="s3" d="m226.1 912.7l-174-99.4c-2.5-1.5-2.5-3.8 0-5.3l554-319.9c2.6-1.4 6.7-1.4 9.2 0l174 99.5c2.5 1.4 2.5 3.8 0 5.3l-554 319.8c-2.6 1.5-6.7 1.5-9.2 0z"/>
		<path id="Shadow 00000132052528971137944850000017066176276789869964 " fill-rule="evenodd" class="s3" d="m415.6 930.1l-28.4-16.2 133.5-77.7c-4.3-7.2-6.1-15-4.9-22.8 1.7-12.4 10.7-23.9 25.1-32.3 15.2-8.9 35.4-13.8 56.7-13.8 20.9 0 40.7 4.8 55.8 13.4 16.5 9.5 25.7 22.6 25.8 37 0 14.3-9.1 27.5-25.5 37.1-15.3 8.9-35.4 13.8-56.7 13.8q0 0 0 0c-9.1 0-18.1-0.9-26.6-2.7l-24.8 14.5-19.2-4.3-6.5 3.8-0.7 15.8-12.3 7.2-17.7 1.6-7.6 4.3 1.1 8.2-22.3 13zm211.8-125.7c-2.7-1.5-6.6-2.4-10.7-2.4-4.2 0-8.2 0.9-10.9 2.5-1.2 0.7-1.8 1.3-2 1.6 0.2 0.3 0.8 1 2 1.7 2.7 1.5 6.6 2.4 10.7 2.4 4.2 0 8.2-0.9 11-2.5 1.2-0.7 1.8-1.3 2-1.7-0.2-0.3-0.8-0.9-2.1-1.6z"/>
		<path id="Shadow 00000181066709247660928030000016249956350757559683 " class="s3" d="m911 702.8c45.1 26 45.1 68.2 0 94.2-45 26-118.1 26-163.1 0-45.1-26-45.1-68.2 0-94.2 45-26 118.1-26 163.1 0z"/>
	</g>
	<g id="Device">
		<g id="Device 6 ">
			<g id="Case">
				<g id="&lt;Group&gt;">
					<path id="&lt;Path&gt;" class="s7" d="m730.9 576.2l-528.4 305.1-115-66.6c-3.3-2-5.1-5.8-4.3-9.5 0 0 48.6-161.3 57.2-178.1 8.6-16.7 11.6-24.4 21.3-30l505.2-291.3c9.7-5.6 18.8-0.4 13.7 9.8-5 10.2-58.8 185.7-58.8 185.7l-10.1 5.9z"/>
					<path id="&lt;Path&gt;" class="s8" d="m730.9 576.2l-528.4 305.1-115-66.6c-3.3-2-5.1-5.8-4.3-9.5 0 0 48.6-161.3 57.2-178.1 8.6-16.7 11.6-24.4 21.3-30l505.2-291.3c9.7-5.6 18.8-0.4 13.7 9.8-5 10.2-58.8 185.7-58.8 185.7l-10.1 5.9z"/>
					<path id="&lt;Path&gt;" class="s7" d="m168.1 601.2l505.1-291.3c9.7-5.6 19.1-0.8 13.8 9.7-5.4 10.6-58.8 178-58.8 178l-538.6 311c0 0 50.6-164.7 57.1-177.4 6.6-12.7 11.7-24.5 21.4-30z"/>
					<path id="&lt;Path&gt;" class="s9" d="m168.1 601.2l505.1-291.3c9.7-5.6 19.1-0.8 13.8 9.7-5.4 10.6-58.8 178-58.8 178l-538.6 311c0 0 50.6-164.7 57.1-177.4 6.6-12.7 11.7-24.5 21.4-30z"/>
					<path id="&lt;Path&gt;" class="s7" d="m735 571.1l-528.4 305.1-117-67.6 528.4-305z"/>
				</g>
				<path id="&lt;Path&gt;" class="s7" d="m678.5 132.1l60 421.1c2 13.8-5.5 30.1-16.6 36.6l-504.6 291.2c-11.1 6.4-22.1-1.6-24.1-15.4l-60.2-422.8c-2-13.7 1.5-24.1 12.7-30.6l509-293.4c11.2-6.4 21.9-0.5 23.8 13.3z"/>
				<path id="&lt;Path&gt;" class="s8" d="m678.5 132.1l60 421.1c2 13.8-5.5 30.1-16.6 36.6l-504.6 291.2c-11.1 6.4-22.1-1.6-24.1-15.4l-60.2-422.8c-2-13.7 1.5-24.1 12.7-30.6l509-293.4c11.2-6.4 21.9-0.5 23.8 13.3z"/>
			</g>
			<g id="Tablet">
				<g id="&lt;Group&gt;">
					<path id="&lt;Path&gt;" class="s10" d="m689.1 127.8c-4-1.5-8.8-1.1-13.8 1.7l-504.5 291.2c-5.4 3.1-9.9 8.5-12.9 14.8l-16.3-6.9c3.6-7.8 9.8-10.7 15.2-13.8l504.5-291.2c5.2-2.9 10.2-3.3 14.3-1.5z"/>
				</g>
				<g id="&lt;Group&gt;">
					<path id="&lt;Path&gt;" class="s11" d="m209.6 885.2c-5-2.1-8.7-7.3-9.8-14.8l-59.7-419c-1.2-8.6-1.6-16.3 1.5-22.8l16.3 6.9q-0.6 1.3-1.2 2.8-0.5 1.1-0.8 2.2-0.1 0.2-0.1 0.4-0.5 1.3-0.8 2.6-0.4 1.4-0.6 2.8-0.2 1-0.3 2.1c-0.4 2.9-0.4 6 0 8.9l60 421.1c1.1 7.7 4.9 12.9 10 14.9z"/>
				</g>
				<g id="&lt;Group&gt;">
					<path id="&lt;Path&gt;" class="s12" d="m699.1 142.8l60 421.1c2 13.8-5.5 30.1-16.6 36.6l-504.6 291.2c-11.2 6.4-21.8 0.5-23.8-13.3l-60.5-424.9c-2-13.7 1.5-24.1 12.7-30.6l509-293.4c11.2-6.4 21.8-0.5 23.8 13.3z"/>
				</g>
				<g id="&lt;Group&gt;">
					<path id="&lt;Path&gt;" class="s11" d="m711.5 598.5l-450.4 259.9c-5.8 3.4-11.3 0.3-12.3-6.8l-59.4-416.8c-1-7.1 2.8-15.6 8.6-18.9l450.4-259.9c5.8-3.4 11.3-0.3 12.3 6.8l59.4 416.8c1 7.1-2.8 15.6-8.6 18.9z"/>
					<path id="&lt;Path&gt;" class="s0" d="m198 415.9l450.4-259.9 59.5 417.6c1.1 7.1-2.8 15.6-8.6 18.9l-450.4 259.9q0-0.4-0.1-0.8l-59.4-416.8c-1-7.1 2.8-15.6 8.6-18.9z"/>
				</g>
				<g id="&lt;Group&gt;">
					<path id="&lt;Path&gt;" class="s11" d="m212.3 692.9c0.6 3.6-1.4 7.8-4.3 9.5-2.9 1.7-5.7 0.2-6.2-3.4-0.5-3.6 1.4-7.9 4.4-9.6 2.9-1.6 5.6-0.1 6.1 3.5z"/>
					<path id="&lt;Path&gt;" class="s11" d="m197.5 598l9.8 68.6c0.4 2.8-1.1 6.1-3.4 7.4-2.2 1.3-4.4 0.1-4.8-2.7l-9.8-68.6c-0.4-2.8 1.1-6.1 3.4-7.4 2.2-1.3 4.4-0.1 4.8 2.7z"/>
				</g>
			</g>
			<g id="Articles 1 ">
				<g id="&lt;Group&gt;">
					<path id="&lt;Path&gt;" class="s7" d="m652.2 182.7l-460.9 265.9-1.9-13.8c-1-7.1 2.8-15.6 8.6-18.9l450.4-259.9z"/>
					<g id="&lt;Group&gt;">
						<path id="&lt;Path&gt;" class="s1" d="m612.4 195.7c-1.7 0.9-3.3 0-3.6-2.1l-0.2-1.1c-0.3-2.1 0.8-4.6 2.5-5.6 1.8-1 3.4-0.1 3.7 2l0.1 1.2c0.4 2.1-0.8 4.6-2.5 5.6z"/>
						<path id="&lt;Path&gt;" class="s1" d="m624.8 188.5c-1.7 1-3.3 0.1-3.6-2l-0.2-1.2c-0.3-2.1 0.8-4.6 2.5-5.6 1.7-1 3.4-0.1 3.7 2l0.1 1.2c0.3 2.1-0.8 4.6-2.5 5.6z"/>
						<path id="&lt;Path&gt;" class="s1" d="m637.2 181.4c-1.7 0.9-3.3 0-3.6-2.1l-0.2-1.1c-0.3-2.1 0.8-4.6 2.5-5.6 1.7-1 3.4-0.1 3.7 2l0.1 1.2c0.3 2.1-0.8 4.6-2.5 5.6z"/>
					</g>
				</g>
			</g>
		</g>
		<g id="Tab">
			<g id="Box 00000039849560965566770900000013924116042559169925 ">
				<g id="&lt;Group&gt;" style="opacity: .2">
					<path id="&lt;Path&gt;" class="s13" d="m390.6 390.4l208.6-120.4c1-0.6 1.9-0.2 2.1 0.9l28.3 197.6c0.1 1-0.6 2.3-1.5 2.9l-208.6 120.4c-1 0.6-1.9 0.2-2.1-0.9l-28.3-197.6c-0.2-1 0.5-2.4 1.5-2.9z"/>
				</g>
				<g id="&lt;Group&gt;">
					<path id="&lt;Path&gt;" class="s7" d="m613.6 276.3c-0.7-0.2-1.4-0.1-2.2 0.4l-205.9 118.8c-1.8 1-3 3.3-2.7 5.2l27.9 194.9c0.2 0.9 0.6 1.5 1.2 1.8-0.6-0.3-6.1-2.6-6.8-2.9-0.6-0.3-1.1-0.9-1.2-1.8l-27.9-194.9c-0.3-1.9 0.9-4.2 2.6-5.2l205.9-118.9c0.9-0.5 1.8-0.5 2.4-0.2 0.6 0.2 5.4 2.2 6.7 2.8z"/>
					<g id="&lt;Group&gt;" style="opacity: .2">
						<path id="&lt;Path&gt;" class="s1" d="m611.4 276.7l-205.9 118.8c-0.9 0.5-1.6 1.3-2.1 2.2l-6.9-2.9c0.5-0.9 1.3-1.7 2.1-2.2l205.9-118.9c0.9-0.5 1.8-0.5 2.4-0.2 0.6 0.2 5.4 2.2 6.7 2.8-0.7-0.2-1.4-0.1-2.2 0.4z"/>
					</g>
					<g id="&lt;Group&gt;">
						<path id="&lt;Path&gt;" class="s7" d="m405.5 395.5l205.8-118.8c1.8-1.1 3.4-0.4 3.7 1.5l27.9 194.9c0.3 1.9-0.9 4.2-2.7 5.2l-205.8 118.8c-1.8 1-3.4 0.3-3.7-1.5l-27.9-194.9c-0.3-1.9 0.9-4.2 2.7-5.2z"/>
					</g>
					<g id="&lt;Group&gt;" style="opacity: .7">
						<path id="&lt;Path&gt;" class="s1" d="m405.5 395.5l205.8-118.8c1.8-1.1 3.4-0.4 3.7 1.5l27.9 194.9c0.3 1.9-0.9 4.2-2.7 5.2l-205.8 118.8c-1.8 1-3.4 0.3-3.7-1.5l-27.9-194.9c-0.3-1.9 0.9-4.2 2.7-5.2z"/>
					</g>
					<path id="&lt;Path&gt;" class="s7" d="m402.8 400.7l27.9 194.9c0.2 0.9 0.6 1.5 1.2 1.8-0.6-0.3-6.1-2.6-6.8-2.9-0.6-0.3-1.1-0.9-1.2-1.8l-27.9-194.9c-0.2-1 0.1-2 0.5-3l6.9 2.9c-0.5 1-0.7 2-0.6 3z"/>
					<path id="&lt;Path&gt;" class="s9" d="m402.8 400.7l27.9 194.9c0.2 0.9 0.6 1.5 1.2 1.8-0.6-0.3-6.1-2.6-6.8-2.9-0.6-0.3-1.1-0.9-1.2-1.8l-27.9-194.9c-0.2-1 0.1-2 0.5-3l6.9 2.9c-0.5 1-0.7 2-0.6 3z"/>
				</g>
				<path id="&lt;Compound Path&gt;" fill-rule="evenodd" class="s7" d="m615 278.2l27.9 194.9c0.3 1.9-0.9 4.2-2.7 5.2l-205.8 118.8q-0.8 0.5-1.5 0.5c-1.1 0-2-0.7-2.2-2l-27.9-194.9c-0.3-1.9 0.9-4.2 2.7-5.2l205.8-118.8q0.8-0.5 1.5-0.5c1.1-0.1 2 0.7 2.2 2zm-2.7-0.4l-205.9 118.8c-1.3 0.7-2.2 2.6-2 4l27.9 194.9c0 0.1 0.1 0.7 0.4 0.7 0.1 0 0.3 0 0.7-0.2l205.9-118.8c1.3-0.8 2.2-2.6 2-4l-27.9-194.9c0-0.1-0.1-0.8-0.4-0.8-0.1 0-0.3 0.1-0.7 0.3z"/>
			</g>
			<g id="&lt;Group&gt;">
				<g id="&lt;Group&gt;">
					<path id="&lt;Compound Path&gt;" class="s10" d="m469.8 382.5q1.9-1.1 3.5-1.4 1.5-0.2 2.6 0.2 1.1 0.4 1.8 1.3 0.6 0.8 0.8 1.8 0.1 0.4-0.1 0.8-0.2 0.4-0.5 0.6l-2 1.1q-0.5 0.3-0.7 0.2-0.3-0.1-0.6-0.3-0.5-0.7-1.5-0.8-0.9-0.2-2.6 0.8-0.8 0.5-1.4 1-0.7 0.6-1.1 1.3-0.4 0.6-0.7 1.3-0.2 0.7-0.1 1.4 0.2 0.8 0.5 1.1 0.3 0.4 1 0.4 0.7 0 1.8-0.3 1.1-0.3 2.7-0.8 1.8-0.5 3.1-0.6 1.4-0.1 2.3 0.3 0.9 0.4 1.4 1.3 0.5 0.9 0.8 2.3 0.2 1.6-0.2 3.3-0.4 1.6-1.3 3.2-0.9 1.6-2.4 3-1.4 1.5-3.3 2.6-1.6 0.9-3.1 1.2-1.5 0.4-2.8 0.2-1.2-0.3-2.1-1.1-0.9-0.9-1.2-2.4-0.1-0.4 0.2-0.8 0.2-0.4 0.5-0.6l2-1.1q0.4-0.3 0.7-0.3 0.3 0.1 0.5 0.4 0.3 0.4 0.7 0.7 0.3 0.2 0.8 0.3 0.6 0.1 1.3-0.1 0.8-0.2 1.9-0.8 0.8-0.5 1.6-1.1 0.8-0.6 1.3-1.4 0.5-0.7 0.8-1.4 0.3-0.8 0.2-1.6-0.1-0.7-0.6-1-0.4-0.3-1.3-0.2-0.8 0.2-2.1 0.5-1.2 0.4-2.9 0.8-1.4 0.4-2.6 0.5-1.1 0-2-0.4-0.8-0.5-1.3-1.4-0.5-1-0.7-2.5-0.2-1.6 0.2-3.3 0.3-1.6 1.2-3.1 0.9-1.6 2.1-2.9 1.3-1.3 2.9-2.2z"/>
					<path id="&lt;Compound Path&gt;" class="s10" d="m485.8 400.2q-0.4 0.1-0.6 0-0.3-0.2-0.3-0.5l-3.3-22.6q0-0.4 0.1-0.8 0.2-0.5 0.5-0.6l2.3-1.4q0.4-0.1 0.6 0 0.3 0.2 0.3 0.5l3.3 22.6q0 0.4-0.1 0.8-0.2 0.4-0.5 0.6z"/>
					<path id="&lt;Compound Path&gt;" class="s10" d="m490.3 380.8q-0.2-2.1 0.1-4.2 0.3-2 1.2-3.9 0.9-1.9 2.4-3.5 1.5-1.6 3.6-2.8 2.5-1.4 4.2-1.5 1.7-0.2 2.8 0.4 1.1 0.5 1.7 1.5 0.5 0.9 0.7 1.7 0.1 0.4-0.1 0.8-0.2 0.4-0.5 0.6l-2.3 1.3q-0.4 0.2-0.6 0.1-0.2-0.1-0.3-0.2-0.1-0.1-0.4-0.5-0.3-0.3-0.9-0.5-0.6-0.2-1.5-0.1-0.9 0.1-2.2 0.8-2.1 1.2-3.2 3.4-1.1 2.1-0.8 4.6 0.1 1.3 0.3 2.9 0.3 1.5 0.5 2.8 0.5 2.8 2 3.4 1.4 0.6 3.6-0.7 1-0.6 1.9-1.4 0.8-0.7 1.4-1.7 0.5-1 0.7-2.3 0.2-1.2 0-2.7v-0.3l-3.5 2q-0.3 0.2-0.6 0-0.2-0.1-0.3-0.5l-0.4-2.5q0-0.4 0.2-0.8 0.2-0.4 0.5-0.6l6.5-3.7q0.3-0.2 0.6-0.1 0.3 0.2 0.3 0.6l0.6 3.8q0.3 2.1 0 4.2-0.3 2.1-1.2 4-0.9 1.9-2.4 3.5-1.5 1.7-3.7 2.9-2.2 1.3-3.9 1.5-1.6 0.2-2.9-0.5-1.2-0.6-2-2.1-0.8-1.4-1.2-3.5-0.1-0.6-0.2-1.4-0.2-0.8-0.3-1.6-0.1-0.9-0.2-1.7-0.1-0.8-0.2-1.5z"/>
					<path id="&lt;Compound Path&gt;" class="s10" d="m526.3 376.8q-0.5 0.2-0.8 0.1-0.3-0.2-0.5-0.3l-10-10 2.1 14.5q0 0.3-0.2 0.8-0.2 0.4-0.5 0.5l-2.3 1.4q-0.3 0.2-0.5 0-0.3-0.1-0.4-0.5l-3.2-22.6q-0.1-0.4 0.1-0.8 0.2-0.4 0.5-0.6l2-1.2q0.5-0.2 0.8-0.1 0.3 0.2 0.4 0.3l10.1 10-2.1-14.5q0-0.3 0.1-0.8 0.2-0.4 0.5-0.5l2.3-1.4q0.4-0.1 0.6 0 0.3 0.1 0.3 0.5l3.3 22.6q0 0.4-0.1 0.8-0.2 0.4-0.5 0.6z"/>
					<path id="&lt;Compound Path&gt;" class="s10" d="m540.7 368.4q-0.3 0.2-0.6 0.1-0.3-0.2-0.3-0.6l-3.2-22.6q-0.1-0.4 0.1-0.8 0.2-0.4 0.5-0.6l2.3-1.3q0.3-0.2 0.6 0 0.2 0.1 0.3 0.5l3.2 22.6q0.1 0.4-0.1 0.8-0.2 0.4-0.5 0.6z"/>
					<path id="&lt;Compound Path&gt;" class="s10" d="m561.1 356.7q-0.5 0.2-0.8 0.1-0.3-0.2-0.4-0.3l-10.1-10 2.1 14.4q0 0.4-0.1 0.8-0.2 0.5-0.5 0.6l-2.3 1.4q-0.4 0.1-0.6 0-0.3-0.2-0.3-0.5l-3.3-22.6q0-0.4 0.2-0.8 0.1-0.4 0.5-0.6l1.9-1.2q0.5-0.3 0.8-0.1 0.3 0.2 0.5 0.3l10 10-2.1-14.5q0-0.3 0.2-0.8 0.2-0.4 0.5-0.5l2.3-1.4q0.3-0.2 0.6 0 0.2 0.1 0.3 0.5l3.2 22.6q0.1 0.4-0.1 0.8-0.2 0.4-0.5 0.6z"/>
				</g>
				<g id="&lt;Group&gt;">
					<path id="&lt;Compound Path&gt;" fill-rule="evenodd" class="s7" d="m488.2 506.2q1.5-0.9 2.4-0.5 0.8 0.4 1.1 1.9 0.1 1.1-0.2 2.1-0.3 1-1 1.8l2.2 2.7q0 0 0 0.1 0.1 0.2 0 0.3-0.1 0.1-0.2 0.2l-1 0.6q-0.2 0.1-0.4 0-0.1 0-0.2-0.1l-2-2.5-1.6 0.9 0.5 3.4q0 0.2-0.1 0.3 0 0.2-0.2 0.3l-0.9 0.5q-0.2 0.1-0.3 0-0.1 0-0.1-0.2l-1.4-9.5q0-0.1 0.1-0.3 0.1-0.2 0.2-0.2zm-1.1 5.6l1.7-1q0.7-0.4 1-0.9 0.4-0.5 0.3-1.4-0.1-0.8-0.6-0.8-0.4-0.1-1.1 0.3l-1.7 1z"/>
					<path id="&lt;Compound Path&gt;" fill-rule="evenodd" class="s7" d="m493.2 510.3q-0.2-0.8-0.1-1.7 0.1-0.8 0.4-1.6 0.4-0.7 0.8-1.3 0.5-0.7 1.2-1.1 0.7-0.3 1.3-0.4 0.6 0 1 0.3 0.5 0.3 0.8 0.9 0.3 0.5 0.4 1.3l0.1 0.6q0 0.2-0.1 0.4-0.1 0.1-0.2 0.2l-4 2.3q0.1 0.4 0.2 0.5 0.2 0.2 0.4 0.3 0.2 0.1 0.5 0 0.2 0 0.5-0.2 0.4-0.2 0.6-0.4 0.2-0.3 0.4-0.5 0.1-0.2 0.2-0.3 0-0.1 0.2-0.2l0.9-0.5q0.2-0.1 0.3 0 0.1 0 0.1 0.2 0 0.2-0.1 0.6-0.1 0.4-0.4 1-0.3 0.5-0.8 1-0.5 0.5-1.2 0.9-0.6 0.4-1.2 0.4-0.6 0-1-0.3-0.5-0.3-0.8-0.9-0.3-0.6-0.4-1.5zm2.6-3.9q-0.4 0.2-0.6 0.5-0.2 0.2-0.4 0.5-0.1 0.3-0.2 0.6 0 0.3 0 0.5l2.7-1.5q-0.1-0.2-0.2-0.4-0.1-0.2-0.3-0.3-0.1-0.1-0.4-0.1-0.3 0-0.6 0.2z"/>
					<path id="&lt;Compound Path&gt;" class="s7" d="m503.9 505.8q0-0.1-0.1-0.2-0.1 0-0.3 0-0.2 0-0.6 0.2-0.4 0.1-0.9 0.2-0.6 0.2-0.9 0.2-0.4-0.1-0.7-0.2-0.2-0.2-0.4-0.5-0.1-0.4-0.2-0.8 0-0.4 0.1-1 0.1-0.5 0.4-1 0.2-0.5 0.7-1 0.4-0.4 1-0.8 0.5-0.3 1-0.4 0.5-0.1 0.9 0 0.3 0 0.6 0.3 0.2 0.2 0.3 0.6 0 0.1-0.1 0.3-0.1 0.2-0.2 0.2l-0.9 0.6q-0.2 0.1-0.3 0-0.1 0-0.2 0-0.2-0.1-0.3 0-0.2 0-0.6 0.2-0.3 0.2-0.6 0.5-0.3 0.3-0.2 0.6 0 0.2 0.1 0.2 0.1 0.1 0.3 0.1 0.2 0 0.5-0.1 0.4-0.1 0.9-0.3 1.1-0.3 1.6 0 0.5 0.4 0.7 1.3 0 0.4-0.1 0.9-0.1 0.5-0.4 1.1-0.3 0.5-0.8 1-0.4 0.5-1 0.8-0.7 0.4-1.2 0.5-0.5 0.1-0.9 0-0.3-0.1-0.6-0.4-0.2-0.3-0.3-0.6 0-0.2 0.1-0.3 0.1-0.2 0.2-0.3l0.9-0.5q0.2-0.1 0.3-0.1 0.1 0.1 0.2 0.1 0.2 0.1 0.4 0.1 0.2 0 0.6-0.3 0.2-0.1 0.4-0.2 0.2-0.1 0.3-0.3 0.2-0.1 0.2-0.3 0.1-0.2 0.1-0.4z"/>
					<path id="&lt;Compound Path&gt;" fill-rule="evenodd" class="s7" d="m506.2 502.8q-0.1-0.9 0-1.7 0.1-0.8 0.4-1.6 0.3-0.8 0.8-1.4 0.5-0.6 1.1-1 0.7-0.4 1.3-0.4 0.6 0 1 0.3 0.5 0.3 0.8 0.8 0.3 0.6 0.4 1.4l0.1 0.6q0 0.2-0.1 0.3 0 0.2-0.2 0.3l-3.9 2.3q0 0.3 0.2 0.5 0.1 0.2 0.3 0.3 0.2 0 0.5 0 0.3-0.1 0.5-0.2 0.4-0.2 0.6-0.5 0.3-0.2 0.4-0.4 0.1-0.2 0.2-0.3 0.1-0.1 0.2-0.2l1-0.5q0.1-0.1 0.2-0.1 0.1 0.1 0.1 0.3 0.1 0.2-0.1 0.6-0.1 0.4-0.4 0.9-0.3 0.5-0.8 1-0.5 0.6-1.1 0.9-0.7 0.4-1.3 0.5-0.6 0-1-0.3-0.5-0.3-0.8-0.9-0.3-0.7-0.4-1.5zm2.6-3.9q-0.3 0.2-0.6 0.4-0.2 0.3-0.3 0.6-0.2 0.3-0.2 0.6-0.1 0.3-0.1 0.5l2.7-1.5q0-0.2-0.1-0.4-0.1-0.2-0.3-0.4-0.2-0.1-0.5-0.1-0.2 0.1-0.6 0.3z"/>
					<path id="&lt;Compound Path&gt;" class="s7" d="m515.6 498.5q0 0.4 0.3 0.6 0.2 0.2 0.7-0.1l0.8-0.5q0.1 0 0.2 0 0.1 0.1 0.2 0.2l0.1 1q0 0.2-0.1 0.3 0 0.2-0.2 0.3l-0.9 0.5q-1.1 0.7-1.8 0.3-0.7-0.3-0.9-1.7l-0.4-3.1-0.8 0.4q-0.1 0.1-0.2 0-0.2 0-0.2-0.2l-0.1-0.9q0-0.2 0-0.4 0.1-0.2 0.2-0.2l0.8-0.5-0.3-2.4q0-0.1 0-0.3 0.1-0.2 0.3-0.3l0.9-0.5q0.1-0.1 0.2 0 0.1 0.1 0.1 0.2l0.4 2.4 1.5-0.9q0.1 0 0.3 0 0.1 0.1 0.1 0.2l0.1 1q0.1 0.2 0 0.3-0.1 0.2-0.2 0.3l-1.6 0.9z"/>
					<path id="&lt;Compound Path&gt;" fill-rule="evenodd" class="s7" d="m524 485.5q1.4-0.8 2.3-0.4 1 0.3 1.2 1.9 0.2 1.7-0.5 3-0.6 1.3-2.1 2.1l-1.9 1.1 0.5 3.3q0 0.1-0.1 0.3 0 0.2-0.2 0.3l-0.9 0.5q-0.2 0.1-0.3 0-0.1 0-0.1-0.2l-1.4-9.5q0-0.1 0.1-0.3 0.1-0.2 0.2-0.2zm-1.2 5.8l1.8-1q0.7-0.4 1.1-1 0.3-0.6 0.2-1.4-0.1-0.8-0.6-0.9-0.4-0.1-1.1 0.3l-1.9 1.1z"/>
					<path id="&lt;Compound Path&gt;" fill-rule="evenodd" class="s7" d="m528.7 487.7q0-0.4 0.2-0.8 0.1-0.5 0.3-1 0.3-0.5 0.8-0.9 0.4-0.5 1-0.8 0.6-0.4 1.1-0.5 0.5-0.1 0.9 0.1 0.4 0.2 0.7 0.7 0.3 0.4 0.4 1.2l0.6 4.3q0 0.2 0 0.3-0.1 0.2-0.3 0.3l-0.9 0.5q-0.1 0.1-0.2 0-0.1 0-0.1-0.2l-0.1-0.5q-0.2 0.6-0.6 1.2-0.5 0.5-1.2 0.9-0.5 0.3-0.9 0.4-0.4 0.1-0.8-0.1-0.3-0.1-0.5-0.5-0.2-0.3-0.3-0.8-0.1-1 0.4-1.9 0.5-0.9 1.4-1.7l1.9-1.5q-0.1-0.6-0.4-0.7-0.4 0-0.9 0.2-0.3 0.2-0.4 0.4-0.2 0.2-0.3 0.5-0.1 0.1-0.2 0.2 0 0.1-0.2 0.2l-1.1 0.6q-0.1 0.1-0.2 0.1-0.1-0.1-0.1-0.2zm2.6 2.9q0.4-0.2 0.7-0.5 0.3-0.3 0.5-0.7 0.2-0.3 0.2-0.7 0.1-0.4 0.1-0.7l-0.1-0.1-1.5 1.3q-0.5 0.4-0.7 0.7-0.2 0.3-0.1 0.6 0 0.4 0.3 0.4 0.3-0.1 0.6-0.3z"/>
					<path id="&lt;Compound Path&gt;" class="s7" d="m539.4 485.4q0-0.2-0.1-0.3-0.1 0-0.3 0-0.2 0-0.6 0.2-0.4 0.1-0.9 0.2-0.6 0.2-0.9 0.2-0.4-0.1-0.7-0.2-0.2-0.2-0.4-0.5-0.1-0.4-0.2-0.8 0-0.4 0.1-1 0.1-0.5 0.4-1 0.2-0.5 0.6-1 0.5-0.4 1.1-0.8 0.5-0.3 1-0.4 0.5-0.1 0.9 0 0.3 0 0.5 0.3 0.3 0.2 0.4 0.6 0 0.1-0.1 0.3-0.1 0.2-0.2 0.2l-0.9 0.6q-0.2 0.1-0.3 0.1-0.1-0.1-0.2-0.1-0.2-0.1-0.3 0-0.2 0-0.6 0.2-0.3 0.2-0.6 0.5-0.3 0.3-0.2 0.6 0 0.2 0.1 0.2 0.1 0.1 0.3 0.1 0.2 0 0.5-0.1 0.4-0.1 0.9-0.3 1.1-0.3 1.6 0 0.5 0.4 0.7 1.3 0 0.4-0.1 0.9-0.1 0.5-0.4 1.1-0.3 0.5-0.8 1-0.4 0.5-1.1 0.8-0.6 0.4-1.1 0.5-0.5 0.1-0.9 0-0.4-0.1-0.6-0.4-0.2-0.3-0.3-0.6 0-0.2 0.1-0.3 0.1-0.2 0.2-0.3l0.9-0.5q0.2-0.1 0.3-0.1 0.1 0.1 0.2 0.2 0.2 0 0.4 0 0.2 0 0.6-0.2 0.2-0.1 0.4-0.3 0.1-0.1 0.3-0.3 0.2-0.1 0.2-0.3 0.1-0.2 0.1-0.3z"/>
					<path id="&lt;Compound Path&gt;" class="s7" d="m545.6 481.8q0-0.2-0.1-0.2-0.1-0.1-0.3-0.1-0.3 0.1-0.6 0.2-0.4 0.1-0.9 0.3-0.6 0.1-1 0.1-0.3 0-0.6-0.2-0.2-0.2-0.4-0.5-0.1-0.3-0.2-0.8 0-0.4 0.1-0.9 0.1-0.5 0.4-1.1 0.2-0.5 0.6-0.9 0.5-0.5 1.1-0.8 0.5-0.4 1-0.5 0.5-0.1 0.9 0 0.3 0.1 0.5 0.3 0.3 0.3 0.3 0.6 0.1 0.1 0 0.3-0.1 0.2-0.2 0.3l-0.9 0.5q-0.2 0.1-0.3 0.1-0.1-0.1-0.2-0.1-0.2 0-0.4 0-0.1 0-0.5 0.2-0.4 0.2-0.6 0.5-0.3 0.3-0.2 0.6 0 0.2 0.1 0.3 0.1 0 0.3 0 0.2 0 0.5-0.1 0.3-0.1 0.9-0.3 1.1-0.3 1.6 0.1 0.5 0.3 0.7 1.2 0 0.4-0.1 0.9-0.1 0.6-0.4 1.1-0.3 0.5-0.8 1-0.4 0.5-1.1 0.8-0.6 0.4-1.1 0.5-0.5 0.1-0.9 0-0.4-0.1-0.6-0.4-0.2-0.2-0.3-0.6 0-0.1 0.1-0.3 0.1-0.2 0.2-0.3l0.9-0.5q0.2-0.1 0.3 0 0.1 0 0.2 0.1 0.2 0 0.4 0 0.2 0 0.6-0.2 0.2-0.1 0.4-0.3 0.1-0.1 0.3-0.3 0.1-0.1 0.2-0.3 0.1-0.2 0.1-0.3z"/>
					<path id="&lt;Compound Path&gt;" class="s7" d="m554.2 475.8l0.5-4.8q0-0.1 0-0.3 0.1-0.1 0.3-0.2l0.9-0.5q0.1-0.1 0.2 0 0.1 0 0.1 0.2 0 0 0 0.1l-0.8 7.8q0 0.1-0.1 0.3 0 0.2-0.2 0.3l-0.9 0.5q-0.2 0.1-0.2 0-0.1-0.1-0.2-0.2l-1.7-3.2-0.6 4.5q0 0.2-0.1 0.4 0 0.1-0.2 0.2l-0.9 0.5q-0.2 0.1-0.3 0.1 0-0.1-0.1-0.2l-2.8-5.8q0 0 0-0.1 0-0.1 0.1-0.3 0-0.2 0.2-0.2l0.9-0.6q0.1-0.1 0.2 0 0.1 0.1 0.2 0.2l1.6 3.6 0.6-4.9q0-0.1 0.1-0.3 0-0.1 0.2-0.2l0.9-0.5q0.1-0.1 0.2-0.1 0.1 0.1 0.2 0.2z"/>
					<path id="&lt;Compound Path&gt;" fill-rule="evenodd" class="s7" d="m559.9 467.5q0.7-0.4 1.2-0.5 0.6 0 1 0.2 0.5 0.2 0.8 0.7 0.3 0.4 0.5 1.1 0 0.1 0 0.3 0.1 0.2 0.1 0.4 0 0.2 0 0.4 0.1 0.2 0.1 0.4 0 0.7-0.1 1.4-0.2 0.7-0.5 1.3-0.3 0.7-0.8 1.3-0.5 0.5-1.2 0.9-0.6 0.4-1.2 0.4-0.5 0.1-1-0.1-0.4-0.2-0.8-0.7-0.3-0.5-0.4-1.1 0-0.1-0.1-0.3 0-0.2 0-0.4-0.1-0.2-0.1-0.4 0-0.2 0-0.4-0.1-0.7 0.1-1.4 0.1-0.7 0.4-1.4 0.4-0.6 0.9-1.2 0.5-0.6 1.1-0.9zm1.9 2.4q-0.1-0.4-0.3-0.6-0.1-0.2-0.4-0.3-0.2-0.1-0.4 0-0.3 0.1-0.5 0.2-0.3 0.2-0.5 0.4-0.2 0.2-0.4 0.5-0.2 0.3-0.3 0.6-0.1 0.4-0.1 0.9 0 0.1 0.1 0.3 0 0.2 0 0.4 0 0.2 0.1 0.3 0 0.2 0 0.3 0.1 0.5 0.3 0.7 0.2 0.2 0.4 0.3 0.2 0 0.5-0.1 0.2 0 0.5-0.2 0.2-0.1 0.5-0.3 0.2-0.2 0.4-0.5 0.2-0.3 0.2-0.7 0.1-0.4 0.1-0.8 0-0.2 0-0.3 0-0.2-0.1-0.4 0-0.2 0-0.4 0-0.2-0.1-0.3z"/>
					<path id="&lt;Compound Path&gt;" class="s7" d="m567.4 465.2q-0.7 0.4-0.9 1-0.3 0.5-0.2 1.4l0.6 3.8q0 0.2-0.1 0.4-0.1 0.1-0.2 0.2l-0.9 0.5q-0.1 0.1-0.2 0.1-0.2-0.1-0.2-0.3l-1-6.8q0-0.2 0.1-0.3 0.1-0.2 0.2-0.3l0.9-0.5q0.1-0.1 0.3 0 0.1 0 0.1 0.2v0.3q0.3-0.5 0.6-0.9 0.4-0.4 0.9-0.7l0.6-0.3q0.1-0.1 0.2 0 0.1 0 0.1 0.2l0.2 1q0 0.1-0.1 0.3-0.1 0.2-0.2 0.2z"/>
					<path id="&lt;Compound Path&gt;" fill-rule="evenodd" class="s7" d="m571.5 460.8q0.4-0.3 0.7-0.3 0.3-0.1 0.6-0.1 0.2 0 0.4 0.1 0.1 0 0.3 0.1l-0.5-3.1q0-0.2 0.1-0.4 0-0.1 0.2-0.2l0.9-0.5q0.1-0.1 0.2 0 0.1 0 0.2 0.2l1.3 9.6q0.1 0.2 0 0.3-0.1 0.2-0.2 0.3l-0.9 0.5q-0.2 0.1-0.3 0-0.1 0-0.1-0.2l-0.1-0.3q0 0.1-0.2 0.4-0.1 0.2-0.3 0.5-0.2 0.3-0.5 0.5-0.3 0.3-0.6 0.5-0.6 0.3-1.1 0.3-0.6 0-1-0.3-0.4-0.3-0.7-0.8-0.3-0.5-0.4-1.1 0-0.2-0.1-0.5 0-0.3 0-0.6-0.1-0.7 0-1.4 0.1-0.7 0.4-1.4 0.3-0.7 0.7-1.2 0.4-0.6 1-0.9zm-0.6 4.1q0.1 0.5 0.2 0.9 0.2 0.9 0.6 1.1 0.5 0.1 1.1-0.2 0.6-0.3 0.9-1 0.3-0.6 0.3-1.5 0-0.2-0.1-0.5 0-0.4-0.1-0.6-0.1-0.7-0.6-0.9-0.5-0.2-1.1 0.1-0.5 0.3-0.9 1-0.3 0.6-0.3 1.6z"/>
				</g>
				<g id="&lt;Group&gt;">
					<path id="&lt;Compound Path&gt;" class="s7" d="m502 523.9q0.8-0.5 1.5-0.6 0.6 0 1.1 0.1 0.5 0.2 0.7 0.5 0.3 0.4 0.4 0.8 0 0.2-0.1 0.3 0 0.2-0.2 0.3l-0.8 0.5q-0.2 0.1-0.3 0.1-0.1-0.1-0.2-0.2-0.3-0.3-0.7-0.3-0.4-0.1-1.1 0.3-0.3 0.2-0.6 0.5-0.2 0.2-0.4 0.5-0.2 0.2-0.3 0.5-0.1 0.3 0 0.6 0 0.3 0.1 0.5 0.2 0.1 0.5 0.1 0.3 0 0.7-0.1 0.5-0.1 1.2-0.3 0.7-0.2 1.3-0.3 0.5 0 0.9 0.1 0.4 0.2 0.6 0.6 0.2 0.4 0.3 1 0.1 0.6 0 1.3-0.2 0.7-0.6 1.4-0.4 0.7-1 1.3-0.6 0.6-1.4 1-0.6 0.4-1.3 0.6-0.6 0.1-1.1 0-0.6-0.1-0.9-0.5-0.4-0.3-0.5-0.9-0.1-0.2 0-0.4 0.1-0.1 0.2-0.2l0.9-0.5q0.2-0.1 0.3-0.1 0.1 0 0.2 0.2 0.1 0.1 0.3 0.2 0.1 0.2 0.3 0.2 0.3 0 0.6-0.1 0.3 0 0.8-0.3 0.3-0.2 0.6-0.5 0.4-0.2 0.6-0.5 0.2-0.3 0.3-0.6 0.2-0.4 0.1-0.7 0-0.3-0.2-0.4-0.2-0.1-0.6-0.1-0.3 0.1-0.9 0.2-0.5 0.2-1.2 0.3-0.6 0.2-1.1 0.2-0.5 0-0.8-0.1-0.3-0.2-0.5-0.6-0.3-0.4-0.4-1.1 0-0.6 0.1-1.3 0.2-0.7 0.5-1.4 0.4-0.6 0.9-1.2 0.6-0.5 1.2-0.9z"/>
					<path id="&lt;Compound Path&gt;" class="s7" d="m508.1 520.4q0.1-0.1 0.2 0 0.1 0.1 0.2 0.2l0.1 1.2q0.1 0.1 0 0.3-0.1 0.2-0.2 0.2l-1.1 0.6q-0.1 0.1-0.2 0.1-0.1-0.1-0.1-0.3l-0.2-1.1q0-0.2 0.1-0.4 0-0.1 0.2-0.2zm1.7 9.9q0 0.1-0.1 0.3-0.1 0.2-0.2 0.2l-0.9 0.6q-0.1 0-0.3 0-0.1-0.1-0.1-0.2l-1-6.9q0-0.1 0.1-0.3 0.1-0.2 0.2-0.3l0.9-0.5q0.1-0.1 0.2 0 0.2 0.1 0.2 0.2z"/>
					<path id="&lt;Compound Path&gt;" fill-rule="evenodd" class="s7" d="m514.4 529.6q0.2-0.1 0.5-0.4 0.2-0.2 0.4-0.5 0.2-0.4 0.3-0.8 0.1-0.4 0-0.8v-0.5q-0.1 0.2-0.3 0.4-0.1 0.3-0.3 0.5-0.2 0.3-0.5 0.5-0.2 0.3-0.6 0.5-0.6 0.3-1.1 0.3-0.6 0-1-0.3-0.4-0.2-0.7-0.7-0.2-0.6-0.4-1.2 0-0.2 0-0.5-0.1-0.3-0.1-0.5-0.1-0.7 0-1.5 0.1-0.7 0.4-1.4 0.3-0.7 0.7-1.2 0.5-0.6 1.1-0.9 0.3-0.2 0.6-0.3 0.3-0.1 0.6-0.1 0.2 0 0.4 0.1 0.2 0 0.3 0.1l-0.1-0.3q0-0.2 0.1-0.4 0.1-0.1 0.2-0.2l0.9-0.5q0.1-0.1 0.2 0 0.2 0 0.2 0.2l1 6.9q0.2 1.7-0.5 3.1-0.6 1.4-2.1 2.2-0.6 0.3-1.1 0.4-0.6 0.1-1 0-0.4-0.1-0.7-0.4-0.3-0.3-0.4-0.7 0-0.1 0.1-0.3 0.1-0.2 0.2-0.3l0.8-0.4q0.2-0.1 0.3-0.1 0.2 0.1 0.3 0.2 0.1 0.1 0.4 0.2 0.3 0 0.9-0.4zm-2.2-4.8q0 0.4 0.1 0.8 0.2 0.9 0.6 1.1 0.5 0.2 1.1-0.2 0.6-0.3 0.9-1 0.4-0.6 0.3-1.4 0-0.3-0.1-0.6 0-0.4-0.1-0.6-0.1-0.7-0.6-0.9-0.5-0.2-1 0.1-0.6 0.4-1 1-0.3 0.7-0.2 1.7z"/>
					<path id="&lt;Compound Path&gt;" class="s7" d="m524.6 521.7q0 0.2 0 0.3-0.1 0.2-0.3 0.3l-0.9 0.5q-0.1 0.1-0.2 0-0.1 0-0.1-0.2l-0.6-3.7q-0.1-0.9-0.5-1.2-0.4-0.4-1.1 0-0.6 0.4-0.9 1.1-0.3 0.8-0.2 1.7l0.5 3.7q0.1 0.1 0 0.3-0.1 0.2-0.2 0.3l-0.9 0.5q-0.2 0.1-0.3 0-0.1-0.1-0.1-0.2l-1-6.9q0-0.1 0.1-0.3 0.1-0.2 0.2-0.2l0.9-0.6q0.1 0 0.2 0 0.1 0.1 0.2 0.2v0.4q0.3-0.6 0.7-1.1 0.3-0.5 0.9-0.8 0.7-0.4 1.3-0.4 0.5 0 0.9 0.3 0.3 0.3 0.5 0.8 0.2 0.6 0.3 1.3z"/>
					<path id="&lt;Compound Path&gt;" class="s7" d="m527.9 512.4q0-0.1 0-0.3 0.1-0.2 0.2-0.3l0.9-0.5q0.2 0 0.3 0 0.1 0.1 0.1 0.2l0.6 3.8q0.1 0.8 0.5 1.2 0.3 0.3 1-0.1 0.7-0.3 0.9-1 0.3-0.8 0.2-1.6l-0.6-3.8q0-0.1 0.1-0.3 0.1-0.2 0.2-0.2l0.9-0.6q0.1 0 0.2 0 0.1 0.1 0.2 0.2l0.9 6.9q0.1 0.1 0 0.3-0.1 0.2-0.2 0.3l-0.9 0.5q-0.2 0.1-0.3 0-0.1-0.1-0.1-0.2v-0.4q-0.3 0.5-0.6 1-0.4 0.5-1 0.9-0.7 0.4-1.2 0.4-0.5 0-0.9-0.3-0.3-0.3-0.6-0.9-0.2-0.5-0.3-1.2z"/>
					<path id="&lt;Compound Path&gt;" fill-rule="evenodd" class="s7" d="m539.6 513.6q-0.4 0.3-0.7 0.3-0.3 0.1-0.5 0.1-0.2 0-0.4-0.1-0.2 0-0.3-0.1l0.4 3.1q0.1 0.2 0 0.4-0.1 0.1-0.2 0.2l-0.9 0.5q-0.2 0.1-0.3 0-0.1 0-0.1-0.2l-1.4-9.6q0-0.2 0.1-0.3 0-0.2 0.2-0.3l0.9-0.5q0.1-0.1 0.2 0 0.1 0 0.2 0.2v0.3q0.1-0.2 0.2-0.4 0.1-0.2 0.4-0.5 0.2-0.3 0.4-0.5 0.3-0.3 0.7-0.5 0.6-0.3 1.1-0.3 0.5 0 0.9 0.3 0.4 0.2 0.7 0.8 0.3 0.5 0.4 1.1 0.1 0.2 0.1 0.5 0.1 0.3 0.1 0.6 0.1 0.6-0.1 1.4-0.1 0.7-0.3 1.4-0.3 0.7-0.7 1.2-0.5 0.6-1.1 0.9zm0.6-4.1q0-0.5-0.1-0.9-0.2-0.9-0.7-1.1-0.4-0.2-1 0.2-0.6 0.3-0.9 1-0.4 0.6-0.3 1.5 0 0.2 0 0.5 0.1 0.4 0.1 0.6 0.2 0.7 0.7 0.9 0.4 0.2 1-0.1 0.6-0.4 0.9-1 0.4-0.7 0.3-1.6z"/>
					<path id="&lt;Compound Path&gt;" class="s7" d="m552.1 505.8q0 0.2-0.1 0.4 0 0.2-0.2 0.2l-0.9 0.6q-0.1 0-0.2 0-0.1-0.1-0.2-0.3l-0.5-3.7q-0.1-0.9-0.5-1.2-0.4-0.3-1.1 0.1-0.7 0.3-0.9 1.1-0.3 0.7-0.2 1.6l0.5 3.7q0.1 0.2 0 0.3-0.1 0.2-0.2 0.3l-0.9 0.5q-0.2 0.1-0.3 0-0.1 0-0.1-0.2l-1-6.8q0-0.2 0.1-0.4 0-0.1 0.2-0.2l0.9-0.5q0.1-0.1 0.2 0 0.1 0 0.1 0.2l0.1 0.3q0.3-0.5 0.6-1 0.4-0.5 1-0.9 0.7-0.4 1.2-0.4 0.6 0 0.9 0.3 0.4 0.3 0.6 0.9 0.2 0.5 0.3 1.2z"/>
					<path id="&lt;Compound Path&gt;" fill-rule="evenodd" class="s7" d="m555.3 496q0.7-0.4 1.3-0.5 0.5 0 1 0.2 0.4 0.2 0.8 0.7 0.3 0.4 0.4 1.1 0 0.1 0.1 0.3 0 0.2 0 0.4 0 0.2 0.1 0.4 0 0.2 0 0.4 0.1 0.7-0.1 1.4-0.1 0.7-0.4 1.4-0.4 0.6-0.9 1.2-0.5 0.5-1.1 0.9-0.7 0.4-1.2 0.4-0.6 0.1-1.1-0.1-0.4-0.2-0.7-0.7-0.3-0.4-0.5-1.1 0-0.1 0-0.3-0.1-0.2-0.1-0.4 0-0.2-0.1-0.4 0-0.2 0-0.4 0-0.7 0.1-1.4 0.2-0.7 0.5-1.4 0.3-0.6 0.8-1.2 0.5-0.5 1.1-0.9zm2 2.4q-0.1-0.4-0.3-0.6-0.2-0.2-0.4-0.3-0.3 0-0.5 0-0.3 0.1-0.5 0.2-0.3 0.2-0.5 0.4-0.2 0.2-0.4 0.5-0.2 0.3-0.3 0.7 0 0.3 0 0.8 0 0.1 0 0.3 0 0.2 0 0.4 0.1 0.2 0.1 0.4 0 0.1 0.1 0.2 0.1 0.5 0.2 0.7 0.2 0.2 0.5 0.3 0.2 0 0.4 0 0.3-0.1 0.5-0.3 0.3-0.1 0.5-0.3 0.2-0.2 0.4-0.5 0.2-0.3 0.3-0.7 0.1-0.4 0.1-0.8-0.1-0.1-0.1-0.3 0-0.2 0-0.4-0.1-0.2-0.1-0.4 0-0.1 0-0.3z"/>
					<path id="&lt;Compound Path&gt;" class="s7" d="m566.3 494.8l0.4-4.8q0-0.2 0.1-0.3 0-0.2 0.2-0.3l0.9-0.5q0.1-0.1 0.3 0 0.1 0 0.1 0.2 0 0.1 0 0.1l-0.8 7.8q-0.1 0.2-0.1 0.3-0.1 0.2-0.2 0.3l-0.9 0.5q-0.2 0.1-0.3 0-0.1-0.1-0.1-0.2l-1.7-3.2-0.6 4.6q-0.1 0.1-0.1 0.3-0.1 0.1-0.2 0.2l-0.9 0.6q-0.2 0-0.3 0-0.1-0.1-0.1-0.2l-2.8-5.7q0-0.1 0-0.1-0.1-0.2 0-0.4 0.1-0.1 0.2-0.2l0.9-0.5q0.2-0.1 0.3-0.1 0.1 0.1 0.1 0.2l1.7 3.6 0.5-4.9q0-0.1 0.1-0.3 0.1-0.1 0.2-0.2l0.9-0.5q0.2-0.1 0.3 0 0.1 0 0.1 0.1z"/>
				</g>
				<path id="&lt;Path&gt;" class="s1" d="m613.4 374.1l-183.5 106c-1.1 0.6-2.1 0.1-2.2-1.2l-2.8-19.6c-0.2-1.2 0.5-2.8 1.5-3.4l183.6-105.9c1-0.6 2-0.1 2.2 1.2l2.8 19.5c0.2 1.3-0.5 2.8-1.6 3.4z"/>
				<g id="&lt;Group&gt;">
					<path id="&lt;Compound Path&gt;" class="s3" d="m439.9 464.7q0.1-0.1 0.2-0.1 0.1 0.1 0.2 0.3l0.1 1.1q0.1 0.2 0 0.4-0.1 0.2-0.3 0.2l-5.6 3.3q-0.1 0.1-0.3 0-0.1-0.1-0.1-0.2l-1.5-10.3q0-0.1 0.1-0.3 0.1-0.2 0.2-0.3l5.6-3.2q0.1-0.1 0.2 0 0.1 0.1 0.2 0.2l0.1 1.2q0 0.1 0 0.3-0.1 0.2-0.3 0.3l-4.1 2.4 0.3 2.5 3.9-2.2q0.2-0.1 0.3 0 0.1 0 0.1 0.2l0.2 1.1q0 0.2-0.1 0.4-0.1 0.2-0.2 0.3l-3.9 2.2 0.4 2.6z"/>
					<path id="&lt;Compound Path&gt;" class="s3" d="m441.5 461.7q-0.1 0.1-0.2 0-0.2 0-0.2-0.2l-0.1-1q-0.1-0.2 0-0.4 0.1-0.2 0.3-0.3l3.9-2.2q0.1-0.1 0.2-0.1 0.2 0.1 0.2 0.3l0.1 1q0.1 0.2 0 0.4-0.1 0.2-0.3 0.3z"/>
					<path id="&lt;Compound Path&gt;" class="s3" d="m448.6 453.7q0.3-0.7 0.7-1.2 0.4-0.5 0.9-0.7 0.8-0.5 1.3-0.4 0.6 0 1 0.5 0.1-0.4 0.3-0.8 0.2-0.4 0.5-0.8 0.2-0.3 0.5-0.6 0.3-0.2 0.6-0.4 0.7-0.4 1.3-0.4 0.5 0 0.9 0.4 0.3 0.3 0.6 0.9 0.2 0.6 0.3 1.4l0.6 4.2q0 0.2-0.1 0.4-0.1 0.2-0.2 0.2l-1 0.6q-0.1 0.1-0.2 0-0.2 0-0.2-0.2l-0.6-4.2q-0.1-1.1-0.5-1.3-0.4-0.2-1 0.1-0.5 0.3-0.9 0.9-0.3 0.6-0.1 1.7l0.6 4.3q0 0.1-0.1 0.3-0.1 0.2-0.2 0.3l-1 0.5q-0.1 0.1-0.3 0.1-0.1-0.1-0.1-0.3l-0.6-4.2q-0.2-1-0.6-1.3-0.4-0.2-1 0.1-0.5 0.3-0.8 1-0.3 0.6-0.2 1.7l0.6 4.2q0.1 0.2 0 0.3-0.1 0.2-0.2 0.3l-1 0.6q-0.2 0.1-0.3 0-0.1-0.1-0.1-0.2l-1.1-7.4q0-0.2 0.1-0.4 0.1-0.2 0.2-0.3l1-0.5q0.1-0.1 0.2 0 0.2 0 0.2 0.2z"/>
					<path id="&lt;Compound Path&gt;" fill-rule="evenodd" class="s3" d="m459 449q0-0.3 0.1-0.8 0.1-0.5 0.4-1 0.3-0.5 0.8-1.1 0.5-0.5 1.1-0.8 0.7-0.4 1.2-0.5 0.6-0.1 1 0.1 0.5 0.2 0.8 0.7 0.2 0.5 0.4 1.3l0.6 4.7q0.1 0.1 0 0.3-0.1 0.2-0.3 0.3l-0.9 0.6q-0.2 0-0.3 0-0.1-0.1-0.1-0.3l-0.1-0.5q-0.2 0.6-0.7 1.2-0.4 0.7-1.2 1.1-0.6 0.3-1 0.4-0.5 0.1-0.9-0.1-0.3-0.1-0.5-0.5-0.2-0.4-0.3-0.9-0.2-1.1 0.4-2.1 0.5-1 1.5-1.8l2.1-1.6q-0.1-0.7-0.5-0.8-0.4 0-0.9 0.3-0.3 0.2-0.5 0.4-0.2 0.2-0.3 0.5-0.1 0.2-0.2 0.3-0.1 0.1-0.2 0.1l-1.2 0.7q-0.1 0.1-0.2 0.1-0.1-0.1-0.1-0.3zm2.8 3.3q0.4-0.3 0.7-0.6 0.3-0.4 0.5-0.8 0.2-0.4 0.3-0.7 0.1-0.4 0-0.7v-0.2l-1.7 1.4q-0.5 0.4-0.7 0.7-0.2 0.4-0.2 0.8 0.1 0.3 0.4 0.3 0.3 0 0.7-0.2z"/>
					<path id="&lt;Compound Path&gt;" class="s3" d="m467 439q0.1-0.1 0.2 0 0.2 0 0.2 0.2l0.2 1.2q0 0.2-0.1 0.4-0.1 0.2-0.2 0.3l-1.1 0.6q-0.2 0.1-0.3 0-0.1-0.1-0.1-0.2l-0.2-1.3q0-0.1 0-0.3 0.1-0.2 0.3-0.3zm1.8 10.7q0 0.1-0.1 0.3 0 0.2-0.2 0.3l-1 0.6q-0.1 0-0.2 0-0.1-0.1-0.2-0.3l-1-7.4q0-0.1 0-0.3 0.1-0.2 0.3-0.3l0.9-0.5q0.2-0.1 0.3-0.1 0.1 0.1 0.2 0.3z"/>
					<path id="&lt;Compound Path&gt;" class="s3" d="m472.3 447.6q0 0.2-0.1 0.4-0.1 0.2-0.2 0.3l-1 0.5q-0.1 0.1-0.3 0-0.1 0-0.1-0.2l-1.5-10.4q0-0.2 0.1-0.4 0-0.1 0.2-0.2l1-0.6q0.1-0.1 0.2 0 0.1 0.1 0.2 0.2z"/>
				</g>
				<path id="&lt;Path&gt;" class="s1" d="m619.2 414.3l-183.6 106c-1 0.6-2 0.1-2.2-1.2l-2.8-19.6c-0.1-1.2 0.5-2.8 1.6-3.4l183.6-105.9c1-0.6 2-0.1 2.2 1.2l2.8 19.5c0.1 1.3-0.6 2.8-1.6 3.4z"/>
				<g id="&lt;Group&gt;">
					<path id="&lt;Compound Path&gt;" fill-rule="evenodd" class="s3" d="m442.1 497q1.6-0.9 2.6-0.5 1 0.4 1.2 2.2 0.3 1.7-0.5 3.1-0.7 1.4-2.3 2.3l-2 1.2 0.5 3.6q0 0.1-0.1 0.3-0.1 0.2-0.2 0.3l-1 0.6q-0.2 0.1-0.3 0-0.1-0.1-0.1-0.2l-1.5-10.3q0-0.1 0-0.3 0.1-0.2 0.3-0.3zm-1.3 6.3l1.9-1.1q0.8-0.4 1.2-1 0.4-0.6 0.2-1.5-0.1-0.9-0.6-1-0.5-0.1-1.2 0.3l-2 1.2z"/>
					<path id="&lt;Compound Path&gt;" fill-rule="evenodd" class="s3" d="m447.2 499.3q0-0.3 0.2-0.8 0.1-0.5 0.4-1 0.3-0.6 0.8-1.1 0.4-0.5 1.1-0.8 0.6-0.4 1.2-0.5 0.6-0.1 1 0.1 0.4 0.2 0.7 0.7 0.3 0.5 0.4 1.3l0.7 4.7q0 0.1-0.1 0.3 0 0.2-0.2 0.3l-1 0.6q-0.1 0-0.2 0-0.1-0.1-0.2-0.3v-0.5q-0.2 0.6-0.7 1.2-0.5 0.7-1.3 1.1-0.5 0.3-1 0.4-0.4 0.1-0.8-0.1-0.3-0.1-0.5-0.5-0.3-0.4-0.3-0.9-0.2-1.1 0.3-2.1 0.6-1 1.6-1.8l2-1.6q-0.1-0.7-0.4-0.8-0.4 0-0.9 0.3-0.4 0.2-0.5 0.4-0.2 0.2-0.3 0.5-0.1 0.2-0.2 0.3-0.1 0.1-0.2 0.1l-1.2 0.7q-0.2 0.1-0.3 0.1-0.1-0.1-0.1-0.3zm2.8 3.3q0.5-0.3 0.8-0.6 0.3-0.4 0.5-0.8 0.2-0.4 0.3-0.7 0-0.4 0-0.8v-0.1l-1.7 1.4q-0.5 0.4-0.7 0.7-0.2 0.4-0.2 0.8 0.1 0.3 0.4 0.3 0.3 0 0.6-0.2z"/>
					<path id="&lt;Compound Path&gt;" class="s3" d="m458.8 496.8q0-0.1-0.2-0.2-0.1 0-0.3 0-0.2 0-0.6 0.1-0.4 0.2-1 0.3-0.6 0.2-1 0.2-0.4 0-0.7-0.2-0.3-0.2-0.4-0.6-0.1-0.3-0.2-0.8-0.1-0.5 0-1 0.1-0.6 0.4-1.1 0.3-0.6 0.8-1.1 0.4-0.5 1.1-0.9 0.6-0.3 1.1-0.4 0.5-0.2 0.9-0.1 0.4 0.1 0.7 0.4 0.2 0.2 0.3 0.6 0 0.2-0.1 0.4-0.1 0.1-0.2 0.2l-1 0.6q-0.2 0.1-0.3 0.1-0.1 0-0.2-0.1-0.2 0-0.4 0-0.2 0-0.6 0.2-0.3 0.3-0.6 0.6-0.3 0.3-0.2 0.6 0 0.2 0.1 0.3 0.1 0.1 0.3 0.1 0.2-0.1 0.6-0.2 0.3-0.1 0.9-0.3 1.2-0.3 1.8 0.1 0.5 0.3 0.7 1.3 0 0.5-0.1 1-0.1 0.6-0.5 1.1-0.3 0.6-0.8 1.1-0.5 0.6-1.1 0.9-0.7 0.4-1.3 0.5-0.5 0.1-0.9 0-0.4-0.1-0.7-0.4-0.2-0.2-0.3-0.6 0-0.2 0.1-0.4 0-0.2 0.2-0.2l1-0.6q0.2-0.1 0.3-0.1 0.1 0.1 0.2 0.2 0.2 0 0.4 0 0.2 0 0.7-0.3 0.2-0.1 0.4-0.2 0.2-0.2 0.3-0.3 0.2-0.2 0.3-0.4 0.1-0.2 0.1-0.4z"/>
					<path id="&lt;Compound Path&gt;" class="s3" d="m465.5 493q-0.1-0.2-0.2-0.2-0.1-0.1-0.3-0.1-0.2 0.1-0.6 0.2-0.4 0.1-1 0.3-0.6 0.1-1 0.1-0.4 0-0.7-0.2-0.3-0.2-0.4-0.5-0.2-0.4-0.2-0.8-0.1-0.5 0-1.1 0.1-0.6 0.4-1.1 0.3-0.6 0.8-1.1 0.4-0.5 1.1-0.8 0.6-0.4 1.1-0.5 0.5-0.1 0.9 0 0.4 0.1 0.7 0.3 0.2 0.3 0.3 0.6 0 0.2-0.1 0.4-0.1 0.2-0.2 0.3l-1 0.5q-0.2 0.2-0.3 0.1-0.1 0-0.2-0.1-0.2 0-0.4 0-0.2 0-0.6 0.3-0.4 0.2-0.6 0.5-0.3 0.3-0.3 0.7 0.1 0.2 0.2 0.2 0 0.1 0.3 0.1 0.2 0 0.5-0.1 0.4-0.1 1-0.3 1.2-0.4 1.7 0 0.6 0.4 0.7 1.3 0.1 0.5 0 1.1-0.1 0.5-0.5 1.1-0.3 0.6-0.8 1.1-0.5 0.5-1.2 0.9-0.6 0.4-1.2 0.5-0.5 0.1-0.9 0-0.4-0.1-0.7-0.4-0.2-0.3-0.3-0.7-0.1-0.1 0-0.3 0.1-0.2 0.3-0.3l1-0.6q0.2-0.1 0.3 0 0.1 0 0.2 0.1 0.2 0.1 0.4 0.1 0.2-0.1 0.7-0.3 0.2-0.1 0.4-0.3 0.2-0.1 0.3-0.3 0.2-0.2 0.3-0.4 0.1-0.1 0.1-0.3z"/>
					<path id="&lt;Compound Path&gt;" class="s3" d="m474.7 486.6l0.6-5.2q0-0.2 0-0.3 0.1-0.2 0.3-0.3l0.9-0.6q0.2 0 0.3 0 0.1 0.1 0.1 0.3 0.1 0 0 0.1l-0.8 8.4q-0.1 0.2-0.1 0.3-0.1 0.2-0.3 0.3l-0.9 0.6q-0.2 0.1-0.3 0-0.1-0.1-0.2-0.2l-1.8-3.5-0.7 4.9q0 0.2 0 0.4-0.1 0.1-0.3 0.2l-1 0.6q-0.1 0.1-0.2 0-0.1 0-0.2-0.2l-3-6.1q0-0.1 0-0.2 0-0.1 0.1-0.3 0-0.2 0.2-0.3l1-0.5q0.1-0.1 0.2-0.1 0.1 0.1 0.2 0.2l1.8 3.9 0.6-5.3q0-0.1 0.1-0.3 0-0.2 0.2-0.2l0.9-0.6q0.2-0.1 0.3 0 0.1 0.1 0.2 0.2z"/>
					<path id="&lt;Compound Path&gt;" fill-rule="evenodd" class="s3" d="m480.9 477.5q0.7-0.4 1.3-0.4 0.6-0.1 1.1 0.1 0.5 0.3 0.9 0.8 0.3 0.5 0.4 1.2 0.1 0.1 0.1 0.3 0 0.2 0.1 0.5 0 0.2 0 0.4 0.1 0.2 0.1 0.4 0 0.7-0.1 1.5-0.2 0.8-0.5 1.5-0.4 0.7-0.9 1.3-0.6 0.6-1.3 1-0.7 0.4-1.3 0.5-0.6 0-1.1-0.2-0.5-0.2-0.8-0.7-0.3-0.5-0.5-1.2 0-0.2-0.1-0.4 0-0.2 0-0.4-0.1-0.2-0.1-0.4 0-0.3 0-0.4-0.1-0.8 0.1-1.5 0.1-0.8 0.5-1.5 0.3-0.8 0.9-1.4 0.5-0.6 1.2-1zm2.1 2.7q-0.1-0.5-0.3-0.7-0.2-0.2-0.5-0.3-0.2-0.1-0.5 0-0.2 0.1-0.5 0.2-0.3 0.2-0.5 0.4-0.3 0.2-0.5 0.5-0.2 0.4-0.3 0.8-0.1 0.4 0 0.9 0 0.1 0 0.3 0 0.2 0 0.4 0.1 0.2 0.1 0.4 0 0.2 0.1 0.3 0.1 0.5 0.3 0.7 0.2 0.3 0.4 0.3 0.3 0.1 0.5 0 0.3-0.1 0.6-0.2 0.2-0.2 0.5-0.4 0.2-0.2 0.4-0.5 0.2-0.3 0.3-0.8 0.1-0.4 0.1-0.9 0-0.1 0-0.3-0.1-0.2-0.1-0.4 0-0.2-0.1-0.4 0-0.2 0-0.3z"/>
					<path id="&lt;Compound Path&gt;" class="s3" d="m489 475.1q-0.7 0.4-1 1-0.3 0.7-0.2 1.6l0.6 4.1q0.1 0.2 0 0.4-0.1 0.2-0.3 0.2l-0.9 0.6q-0.2 0.1-0.3 0-0.1 0-0.1-0.2l-1.1-7.4q0-0.2 0.1-0.4 0-0.1 0.2-0.2l1-0.6q0.1-0.1 0.2 0 0.2 0.1 0.2 0.2v0.4q0.3-0.6 0.7-1 0.3-0.4 0.9-0.8l0.6-0.3q0.1-0.1 0.3 0 0.1 0 0.1 0.2l0.2 1.1q0 0.1-0.1 0.3-0.1 0.2-0.2 0.3z"/>
					<path id="&lt;Compound Path&gt;" fill-rule="evenodd" class="s3" d="m493.5 470.3q0.4-0.2 0.7-0.3 0.3-0.1 0.6-0.1 0.2 0 0.4 0.1 0.2 0 0.3 0.1l-0.4-3.4q-0.1-0.1 0-0.3 0.1-0.2 0.2-0.3l1-0.6q0.2 0 0.3 0 0.1 0.1 0.1 0.3l1.5 10.4q0 0.1 0 0.3-0.1 0.2-0.3 0.3l-0.9 0.6q-0.2 0-0.3 0-0.1-0.1-0.2-0.3v-0.3q-0.1 0.2-0.2 0.4-0.2 0.3-0.4 0.6-0.2 0.3-0.5 0.5-0.3 0.3-0.7 0.5-0.7 0.4-1.2 0.4-0.6 0-1-0.3-0.5-0.3-0.8-0.9-0.3-0.5-0.4-1.2-0.1-0.3-0.1-0.6 0-0.3-0.1-0.5 0-0.8 0.1-1.6 0.1-0.8 0.4-1.5 0.3-0.7 0.7-1.3 0.5-0.6 1.2-1zm-0.7 4.5q0 0.5 0.1 0.9 0.3 1 0.8 1.2 0.5 0.2 1.1-0.2 0.6-0.3 1-1.1 0.4-0.7 0.3-1.6 0-0.2-0.1-0.6 0-0.3-0.1-0.6-0.1-0.7-0.6-1-0.5-0.2-1.2 0.2-0.6 0.3-1 1-0.4 0.7-0.3 1.8z"/>
				</g>
				<g id="Eye 00000029731664635753849670000001526091733690823851 ">
					<g id="&lt;Group&gt;">
						<path id="&lt;Compound Path&gt;" fill-rule="evenodd" class="s3" d="m606.5 415.2c-5.1 3-9.2-0.9-9.3-1l-0.1-0.1 0.1-0.3c0-0.1 2.4-7.9 7.5-10.8 5.1-3 9.3 1 9.3 1.1l0.1 0.1v0.3c-0.1 0.1-2.6 7.8-7.6 10.7zm-8.9-1.5c0.8 0.7 4.4 3.4 8.8 0.9 4.3-2.5 6.7-8.7 7.2-10-0.8-0.7-4.5-3.5-8.8-1-4.3 2.5-6.7 8.8-7.2 10.1z"/>
					</g>
					<path id="&lt;Compound Path&gt;" fill-rule="evenodd" class="s3" d="m609.4 406.9c0.4 2.6-1 5.7-3.1 6.9-2.1 1.2-4.1 0.1-4.5-2.5-0.4-2.6 1-5.7 3.1-6.9 2.1-1.2 4.1-0.1 4.5 2.5zm-2 1.1c-0.1-1.2-1.1-1.7-2.1-1.2-1 0.6-1.7 2.1-1.5 3.4 0.1 1.2 1.1 1.8 2.1 1.2 1-0.6 1.7-2.1 1.5-3.4z"/>
				</g>
			</g>
		</g>
		<g id="Button">
			<g id="Shadow 00000132049904998912279580000001158249809654001026 " style="opacity: .2">
				<path id="&lt;Path&gt;" class="s13" d="m273.2 717.8l377.3-217.7c1.6-0.9 3-0.3 3.3 1.4l6.4 44.6c0.2 1.6-0.9 3.7-2.4 4.6l-377.3 217.8c-1.6 0.9-3.1 0.3-3.3-1.4l-6.4-44.6c-0.2-1.7 0.9-3.8 2.4-4.7z"/>
			</g>
			<g id="Speech Bubble 00000031199487694649047190000012510271927297041817 ">
				<path id="&lt;Path&gt;" class="s7" d="m654.5 511.4l6.9 2.8c1.9 0.8 3.8 3 4 4.8l5.7 39.6c0.3 1.8-0.9 4.1-2.6 5.1l-365.6 211c-1.7 1-4.7 1.1-6.7 0.3l-6.8-2.9c-2-0.8-3.8-2.9-4.1-4.8l-5.7-39.5c-0.2-1.9 0.9-4.2 2.7-5.1l365.5-211c1.8-1 4.8-1.1 6.7-0.3z"/>
				<path id="&lt;Path&gt;" class="s14" d="m302.9 774.7c-1.7 0.9-4.9 1.1-6.7 0.3l-6.8-2.9c-2-0.8-3.8-2.9-4.1-4.8l-5.7-39.5c-0.1-1 0.2-2.1 0.7-3l13.9 5.9c-0.5 0.9-0.7 2-0.6 2.9l5.7 39.6c0.2 1.6 1.8 2.5 3.6 1.5z"/>
				<g id="&lt;Group&gt;" style="opacity: .2">
					<path id="&lt;Path&gt;" class="s1" d="m665.3 518.5c-0.5-1.4-1.9-1.9-3.5-1l-365.5 211c-0.9 0.5-1.6 1.3-2.1 2.2l-13.9-5.9c0.4-0.9 1.1-1.7 2-2.2l365.6-210.9c1.7-1 4.7-1.1 6.6-0.3l6.9 2.8c1.8 0.8 3.4 2.6 3.9 4.3z"/>
				</g>
				<path id="&lt;Path&gt;" class="s7" d="m665.4 519l5.7 39.6c0.3 1.8-0.9 4.1-2.6 5.1l-365.6 211c-1.7 1-3.3 0.3-3.6-1.5l-4.5-31.6-1.2-8c-0.2-1.9 1-4.1 2.7-5.1l365.5-211c1.8-1 3.4-0.3 3.6 1.5z"/>
			</g>
			<g id="&lt;Group&gt;">
				<path id="&lt;Compound Path&gt;" class="s1" d="m462.8 663.6q0.3-0.2 0.5-0.1 0.3 0.2 0.3 0.5l0.4 2.3q0 0.3-0.2 0.7-0.1 0.4-0.4 0.5l-11.3 6.5q-0.3 0.2-0.5 0.1-0.2-0.2-0.3-0.5l-2.9-20.5q-0.1-0.3 0.1-0.7 0.2-0.4 0.4-0.5l2.1-1.2q0.3-0.2 0.6-0.1 0.2 0.2 0.2 0.5l2.5 17.4z"/>
				<path id="&lt;Compound Path&gt;" fill-rule="evenodd" class="s1" d="m469.8 645.6q1.4-0.8 2.6-0.9 1.3-0.1 2.2 0.4 1 0.4 1.7 1.4 0.7 1 1 2.4 0 0.3 0.1 0.7 0.1 0.4 0.1 0.9 0.1 0.4 0.1 0.9 0.1 0.4 0.1 0.7 0.1 1.5-0.2 3.1-0.3 1.5-1 2.9-0.7 1.4-1.8 2.6-1 1.2-2.4 2.1-1.5 0.8-2.7 0.9-1.2 0.1-2.2-0.3-0.9-0.5-1.6-1.5-0.7-1-1-2.4-0.1-0.2-0.1-0.6-0.1-0.5-0.2-0.9 0-0.5-0.1-0.9 0-0.5-0.1-0.8-0.1-1.5 0.2-3 0.4-1.6 1.1-3 0.7-1.4 1.7-2.6 1.1-1.2 2.5-2.1zm4.1 5.4q-0.2-1-0.6-1.4-0.4-0.5-0.8-0.6-0.5-0.2-1.1 0-0.5 0.1-1 0.4-0.6 0.4-1.1 0.8-0.5 0.4-0.9 1.1-0.3 0.6-0.5 1.4-0.2 0.8-0.2 1.9 0 0.2 0.1 0.6 0 0.4 0.1 0.8 0 0.4 0.1 0.8 0.1 0.4 0.1 0.6 0.2 1 0.6 1.4 0.4 0.5 0.9 0.6 0.5 0.2 1 0 0.6-0.1 1.1-0.4 0.6-0.4 1-0.8 0.5-0.4 0.9-1.1 0.4-0.6 0.6-1.4 0.2-0.8 0.1-1.9 0-0.2 0-0.6-0.1-0.4-0.1-0.8-0.1-0.4-0.1-0.8-0.1-0.4-0.2-0.6z"/>
				<path id="&lt;Compound Path&gt;" fill-rule="evenodd" class="s1" d="m487.9 656.8q0.6-0.3 1.1-0.8 0.5-0.6 0.9-1.3 0.4-0.7 0.6-1.6 0.2-0.8 0.1-1.7l-0.2-1.2q-0.1 0.4-0.4 0.9-0.3 0.6-0.7 1.1-0.5 0.6-1.1 1.1-0.6 0.6-1.4 1-1.3 0.8-2.4 0.8-1.1 0-2-0.6-0.9-0.7-1.5-1.8-0.6-1.1-0.9-2.5-0.1-0.4-0.2-1.1-0.1-0.6-0.1-1.1-0.2-1.5 0.1-3.1 0.2-1.6 0.8-3 0.6-1.5 1.5-2.7 1-1.2 2.3-2 0.8-0.4 1.4-0.6 0.7-0.2 1.2-0.2 0.5 0.1 0.9 0.2 0.4 0.1 0.6 0.3l-0.1-0.7q0-0.4 0.1-0.8 0.2-0.3 0.5-0.5l1.9-1.1q0.3-0.2 0.6 0 0.2 0.1 0.3 0.4l2.1 14.9q0.5 3.8-0.9 6.8-1.5 2.9-4.5 4.7-1.3 0.8-2.5 1-1.2 0.2-2.1 0-1-0.3-1.6-0.9-0.6-0.6-0.8-1.5-0.1-0.4 0.1-0.8 0.2-0.3 0.5-0.5l1.7-1q0.4-0.2 0.7-0.1 0.3 0.2 0.5 0.3 0.4 0.4 1.1 0.4 0.6 0 1.8-0.7zm-4.8-10.5q0 0.9 0.2 1.8 0.5 1.9 1.5 2.3 1 0.4 2.2-0.3 1.3-0.7 2-2.1 0.8-1.5 0.7-3.2-0.1-0.5-0.2-1.3-0.1-0.7-0.2-1.2-0.4-1.5-1.4-2-1-0.4-2.2 0.3-1.3 0.7-2 2.1-0.8 1.4-0.6 3.6z"/>
				<path id="&lt;Compound Path&gt;" class="s1" d="m497.1 623.7q0.3-0.2 0.5 0 0.3 0.1 0.3 0.5l0.4 2.4q0 0.4-0.1 0.8-0.2 0.3-0.5 0.5l-2.2 1.3q-0.3 0.1-0.5 0-0.3-0.1-0.3-0.5l-0.4-2.5q0-0.3 0.1-0.7 0.2-0.4 0.5-0.5zm3.7 21.3q0 0.3-0.2 0.7-0.1 0.4-0.4 0.6l-2 1.1q-0.2 0.1-0.5 0-0.2-0.1-0.3-0.5l-2.1-14.7q0-0.4 0.1-0.8 0.2-0.3 0.5-0.5l1.9-1.1q0.3-0.2 0.6 0 0.2 0.1 0.2 0.4z"/>
				<path id="&lt;Compound Path&gt;" class="s1" d="m516.9 635.7q0 0.4-0.1 0.7-0.2 0.4-0.5 0.6l-1.9 1.1q-0.3 0.2-0.6 0-0.2-0.1-0.3-0.4l-1.1-8.1q-0.3-1.9-1.2-2.6-0.9-0.7-2.3 0.1-1.4 0.8-2 2.4-0.7 1.6-0.4 3.5l1.2 8q0 0.4-0.1 0.8-0.2 0.3-0.5 0.5l-2 1.1q-0.2 0.2-0.5 0.1-0.2-0.2-0.3-0.5l-2.1-14.8q0-0.3 0.1-0.7 0.2-0.4 0.5-0.5l1.9-1.2q0.3-0.1 0.6 0 0.2 0.1 0.3 0.5l0.1 0.7q0.5-1.2 1.3-2.3 0.9-1 2.1-1.7 1.6-0.9 2.7-0.9 1.1-0.1 1.9 0.6 0.8 0.6 1.3 1.8 0.4 1.2 0.7 2.7z"/>
			</g>
		</g>
		<g id="Icon">
			<path id="&lt;Path&gt;" class="s11" d="m262.5 662.3l-3.5-41.3c-0.7-25.5 13.4-52.8 33-64.2l42.7-24.6c9.8-5.6 19.4-6.4 27.5-3.1 3.6 1.6 7.1 3.1 10.8 4.6 8 3.4 14.4 11.1 17.5 22.3l7.9 38.7-125.1 72.2z"/>
			<g id="&lt;Group&gt;">
				<g id="&lt;Group&gt;">
					<path id="&lt;Path&gt;" class="s10" d="m398.4 594.7l-125.1 72.2-3.5-41.3c-0.7-25.5 13.4-52.9 33-64.2l42.7-24.6c9.8-5.7 19.5-6.5 27.5-3.1 8 3.4 14.4 11.1 17.5 22.3z"/>
				</g>
			</g>
			<g id="&lt;Group&gt;">
				<path id="&lt;Path&gt;" class="s11" d="m336.9 451.9c7.6 3.2 13 10.5 14.6 21.2 3 21.4-10.7 48.2-30.8 59.8-10.1 5.8-19.8 6.7-27.3 3.5-4.6-2-5.9-2.5-10.5-4.5-7.6-3.2-13-10.5-14.5-21.2-3.1-21.4 10.7-48.2 30.8-59.8 10-5.8 19.7-6.7 27.3-3.4 4.6 1.9 5.8 2.4 10.4 4.4z"/>
				<path id="&lt;Path&gt;" class="s10" d="m320.7 532.9c-10.1 5.8-19.8 6.7-27.3 3.5-7.6-3.2-13.1-10.6-14.6-21.3-3.1-21.4 10.7-48.2 30.8-59.7 10-5.8 19.7-6.7 27.3-3.5 7.6 3.2 13 10.5 14.6 21.2 3 21.4-10.7 48.2-30.8 59.8z"/>
			</g>
		</g>
	</g>
	<g id="Plant">
		<g id="Plant 00000118377366709855210660000011447699959036873885 ">
			<g id="Pot 00000029754012283289297050000010972749429158412678 ">
				<path id="&lt;Path&gt;" class="s12" d="m158.7 878.4c-0.4 6.5-4.9 12.9-13.5 17.9-18.1 10.4-47.3 10.4-65.4 0-8-4.6-12.5-10.5-13.4-16.6l-12-50h116.2z"/>
				<path id="&lt;Path&gt;" class="s11" d="m72.3 865.6c0 0 2.1 10.3 3.3 14.9 3 11.7 22.8 24.3 51.8 22.2-16.2 3.1-34.7 1-47.6-6.4-8-4.6-12.5-10.5-13.4-16.6l-12-50h16.7l0.9 1.3-3 11.9c25.4 13.4 64.7 13 89.2-1.1 4.8-2.9 8.7-6 11.7-9.4l-6.5 26.8c-2.1 1.7-4.4 3.3-7 4.8-23.1 13.3-59.9 13.8-84.1 1.6z"/>
				<path id="&lt;Path&gt;" class="s10" d="m176.6 814.9c-0.6 3.1-1.9 6.1-3.9 9.1-3.1 4.7-8 9.1-14.5 12.9-25.3 14.6-66.2 14.6-91.4 0-6.5-3.8-11.4-8.2-14.5-12.9-2-3-3.3-6-3.9-9.1-2.3-10.9 3.9-22.3 18.4-30.7 25.2-14.6 66.1-14.6 91.4 0 14.5 8.4 20.7 19.8 18.4 30.7z"/>
				<path id="&lt;Path&gt;" class="s12" d="m176.6 814.9l-2.8 19-0.1 1c-1.4 7.8-7.3 15.4-17.7 21.4-24 13.9-63 13.9-87 0-10.5-6-16.4-13.8-17.8-21.7l-2.8-19.7c0.6 3.1 1.9 6.1 3.9 9.1 3.1 4.7 8 9.1 14.5 12.9 25.2 14.6 66.1 14.6 91.4 0 6.5-3.8 11.4-8.2 14.5-12.9 2-3 3.3-6 3.9-9.1z"/>
				<path id="&lt;Path&gt;" class="s11" d="m166 813.7c-1.2 6.9-6.3 13.5-15.4 18.8-21.1 12.1-55.1 12.1-76.1 0-9.2-5.3-14.3-11.9-15.5-18.8-1.6-9 3.6-18.3 15.5-25.1 21-12.2 55-12.2 76.1 0 11.8 6.8 17 16.1 15.4 25.1z"/>
				<path id="&lt;Path&gt;" class="s0" d="m77.2 801.9c19.5-11.2 51.1-11.2 70.7 0 9.6 5.6 14.4 12.8 14.6 20.1-2.6 3.8-6.6 7.4-11.9 10.5-21.1 12.1-55.1 12.1-76.1 0-5.4-3.1-9.4-6.7-12-10.5 0.2-7.3 5-14.5 14.7-20.1z"/>
			</g>
			<g id="&lt;Group&gt;">
				<path id="&lt;Path&gt;" class="s7" d="m116.5 799.4c-9.6-2.6-11.3-23.5-5.9-45.6 5.3-21.5 22.1-53.7 25.7-53 3.6 0.7 8.1 35.7 5.6 58.8-3.1 28.1-15.7 42.4-25.4 39.8z"/>
				<path id="&lt;Path&gt;" class="s15" d="m116.5 799.4c-9.6-2.6-11.3-23.5-5.9-45.6 5.3-21.5 22.1-53.7 25.7-53 3.6 0.7 8.1 35.7 5.6 58.8-3.1 28.1-15.7 42.4-25.4 39.8z"/>
				<path id="&lt;Compound Path&gt;" class="s16" d="m119.1 729.8q0.4-0.9 0.7-1.7c1.1 0.6 2 1.5 2.6 2.6 1.2 2 1.9 4.9 4.2 5.9 2.1 0.8 4-0.9 5.5-2.1 1.4-1.1 2.8-2.1 4.6-2.1 2.1-0.1 4 0.9 5.6 2q0.1 1.2 0.2 2.5c-1.9-1.3-4.2-2.6-6.5-2-3 0.8-4.7 4.3-7.9 4.3-4.1-0.1-5.1-4.7-6.9-7.4-0.5-0.9-1.3-1.5-2.1-2zm6.8-11.4q-0.3-0.9-0.5-1.9 0.4-0.8 0.8-1.5c0.3 0.9 0.5 1.9 0.9 2.8 0.7 2.1 2.7 4.8 5.3 3.3 1.4-0.8 2.1-2.5 3.4-3.4 1.2-0.9 2.7-1.1 4.1-0.9q0.5 0.1 0.9 0.2 0.1 1.1 0.3 2.2-0.1 0-0.2-0.1c-1.7-0.6-3.6-0.3-5 1-1 1-1.8 2.4-3.2 3-3.3 1.6-5.9-2-6.8-4.7zm11.9 31.5c1.8 0.2 3.3 1 4.6 2q0 1.2-0.1 2.3c-1.1-0.9-2.3-1.7-3.8-2-2.5-0.5-4.7 0.4-6.7 1.8-1.4 1-2.9 2.3-4.6 2.6-4 0.8-6-3.3-7.6-6.1-1-1.9-2.3-3.4-4.4-3.9-0.8-0.2-1.7-0.2-2.5 0q0.3-0.9 0.6-1.8c1.5-0.1 3.1 0.2 4.5 1.2 3.2 2.3 4.3 10 9.3 8.5 2-0.5 3.5-2.3 5.3-3.4 1.6-1 3.5-1.4 5.4-1.2zm2.1 21.2q-0.3 1.2-0.6 2.3c-0.5-0.8-1-1.5-1.4-1.8-2.2-1.9-5.3-1.8-7.9-0.7-2.3 1-3.9 3.1-6.2 4.2-4.3 2-6.7-0.8-8.6-4.2-1.2-2.3-2.8-3.9-5.4-4.2q-0.8-0.1-1.5-0.1 0.1-0.9 0.2-1.8c1.4-0.1 2.7 0.2 4 0.8 3.8 1.9 4.7 9.5 9.9 7.5 2.4-0.9 4.1-3.1 6.4-4.3 2-1 4.4-1.4 6.6-0.8 1.9 0.4 3.3 1.6 4.5 3.1z"/>
				<path id="&lt;Path&gt;" class="s9" d="m110.6 753.8c1.5-6 3.9-12.9 6.6-19.6 4.2 7.6 9.4 21.1 9.4 21.1 0 0 7.9-13.2 15.8-19.7 0.4 8.3 0.3 16.7-0.5 24-3.1 28.1-15.7 42.4-25.4 39.8-9.6-2.6-11.3-23.5-5.9-45.6z"/>
			</g>
			<g id="&lt;Group&gt;">
				<path id="&lt;Path&gt;" class="s7" d="m108.6 811c-12.7 8.2-24.5-20.8-30.8-42.7-6.3-21.9-2.2-79.1 4.2-82.3 4.5-2.2 28.5 49.1 33.2 74.1 3.4 18 3.6 44.4-6.6 50.9z"/>
				<path id="&lt;Path&gt;" class="s14" d="m108.6 811c-12.7 8.2-24.5-20.8-30.8-42.7-6.3-21.9-2.2-79.1 4.2-82.3 4.5-2.2 28.5 49.1 33.2 74.1 3.4 18 3.6 44.4-6.6 50.9z"/>
				<path id="&lt;Compound Path&gt;" class="s7" d="m74.9 725.2q0-1.3 0.1-2.6 0.2-0.1 0.4-0.1c4.9-0.3 9.4 5 13.7 1 2.7-2.6 4.5-6.7 8.4-7.8q1.1-0.3 2.2-0.2 0.7 1.5 1.3 3c-4.5-0.5-6.6 3.4-9.5 6.6-3.1 3.3-6.3 3.3-10.3 1.3-2-1-4.2-1.4-6.3-1.2zm41.6 43.6c-2.4-0.9-4.8-1.3-7 0.4-3 2.4-3.5 7.2-7.9 7.9-5.3 0.9-9.3-4.5-14.7-3.2-2.3 0.6-4.3 2.1-6.2 3.9q-0.3-1.1-0.7-2.2c1.4-1.4 2.9-2.6 4.6-3.5 5-2.4 8.5 0.7 13.2 1.9 6.2 1.7 6.4-4.6 10.3-7.4 1.7-1.3 3.9-1.8 6-1.4q1.1 0.2 2.1 0.6 0.2 1.5 0.3 3zm-39.1-66.2q-0.3 0-0.6 0 0.2-0.8 0.3-1.7c0.7-0.1 1.5 0.1 2.3 0.5 2.3 1.1 3.4 5.2 6.1 5.4 3.6 0.2 4.5-5.2 6.3-7.6q0.5 0.9 1.1 1.9c-1.9 2.4-2.2 5.9-5.1 7.5-2.8 1.4-4.9-0.9-6.3-2.9-1.1-1.4-2.2-3.1-4.1-3.1zm5.8 44.2c-2.8 0-6.1 0.8-8.2 2.8q-0.1-1.8-0.2-3.7 1.2-0.7 2.4-1.1c2.5-0.9 5.1-1.2 7.7-0.7 2.8 0.5 6 3.3 8.6 1.5 2.4-1.5 3.6-4.5 5.1-6.8 1.5-2.1 3.2-4.2 5.5-5.5 0.8-0.5 1.7-0.8 2.6-1q0.5 1.4 1 2.7c-2.7 0.9-5.3 3.4-6.9 5.9-2.3 3.3-4.8 9.3-9.8 8.2-2.7-0.6-4.9-2.2-7.8-2.3z"/>
				<path id="&lt;Path&gt;" class="s9" d="m115.2 760.1c3.4 18 3.6 44.4-6.6 50.9-12.7 8.2-24.5-20.8-30.8-42.7-2.8-9.5-3.5-25.8-3-41.3 9.7 8.5 23.5 27.2 23.5 27.2 0 0 3.5-8.8 10.3-16.9 3 8.4 5.4 16.4 6.6 22.8z"/>
			</g>
			<g id="&lt;Group&gt;">
				<path id="&lt;Path&gt;" class="s7" d="m107.8 825.9c-23.3 1.3-45-12.8-59-30.5-14.1-17.8-25.1-54.4-21.9-56.6 3.1-2.3 40.6 20.8 54.7 37.5 18.5 21.9 26.2 49.6 26.2 49.6z"/>
				<path id="&lt;Path&gt;" class="s15" d="m107.8 825.9c-23.3 1.3-45-12.8-59-30.5-14.1-17.8-25.1-54.4-21.9-56.6 3.1-2.3 40.6 20.8 54.7 37.5 18.5 21.9 26.2 49.6 26.2 49.6z"/>
				<path id="&lt;Compound Path&gt;" class="s7" d="m51.3 770.1c-2.5-0.2-4.9-1.4-7.5-1-3.6 0.6-2.6 4.1-2.9 6.8-0.2 1.4-0.8 2.8-1.7 3.9q-0.7-1.3-1.3-2.6c0.5-0.9 0.8-1.9 0.8-2.8 0.1-2.2-0.5-4.6 1-6.5 3.2-3.9 8.6-0.4 12.5-0.9 3.6-0.5 2.9-3.8 2.5-6.5-0.3-2.2-0.2-4.4 1-6.3q1.3 0.9 2.6 1.8c-0.8 1.3-1.2 2.8-0.9 4.5 0.3 2.4 1 5-0.3 7.2-1.3 2.1-3.6 2.5-5.8 2.4zm-10.7-14.4c-0.8 0.9-1.8 1.4-3 1.5-1.8 0.2-3.4-0.8-5.2-0.7-0.9 0-1.7 0.3-2.4 0.7q-0.3-0.9-0.6-1.7 0.5-0.3 1-0.6c1.6-0.7 3.2-0.5 4.8-0.2 1.8 0.4 3.3 0.3 4.4-1.2 1.7-2.2 1.7-5.3 3.4-7.5q1.1 0.6 2.1 1.2c-0.3 0.3-0.7 0.7-1 1.1-1.5 2.3-1.6 5.3-3.5 7.4zm22.2 25.5c-8.2 0-5.1 9.2-9 13.8-0.9 1.1-2.1 1.9-3.3 2.5q-0.9-1-1.7-2.1 0.8-0.2 1.6-0.7c3-1.8 3.5-4.8 4-8.1 0.3-2.2 0.8-4.5 2.3-6.2 1.7-1.8 3.9-2 6.2-2 3.2 0 5.6-0.8 7.3-3.8 1.4-2.5 1.1-5.3 1.6-8q1.1 1 2.2 2c-0.2 1.6-0.2 3.3-0.6 4.9-0.6 2.2-1.7 4.5-3.5 6-2.2 1.7-4.5 1.7-7.1 1.7zm12.9 15.9c-2.6 1.8-6 1.5-8.5 3.8-2.5 2.4-2.9 5.8-3.5 9.1q0 0.1 0 0.3-1.3-1-2.5-2c0.3-2 0.5-4 1.3-5.9 0.9-2.4 2.6-4.5 4.9-5.8 2.7-1.4 5.9-1.2 7.9-3.8 2-2.4 2.3-5.7 3.1-8.6 0.6-2.8 1.7-5.3 3.7-7.3q1 1.2 2 2.5c-0.7 0.7-1.3 1.5-1.8 2.4-2.5 4.9-1.6 11.7-6.6 15.3zm18.4-2.7q-1.4 1.2-2.5 2.9c-3 4.8-1.9 10.8-4.3 15.8-1 2-2.4 3.8-4.4 4.9-1.2 0.5-2.4 0.7-3.7 0.8-0.6 0.1-1.3 0.1-1.9 0.2q-1.8-0.8-3.5-1.8 0.1-0.1 0.2-0.2c1.9-1.8 4.4-0.9 6.7-1.8 2.7-1.1 4.2-3.9 4.9-6.6 1.5-5.4 1-11 4.9-15.4q0.9-0.9 1.9-1.7 0.9 1.5 1.7 2.9z"/>
				<path id="&lt;Path&gt;" class="s14" d="m81.6 776.3c18.5 21.9 26.2 49.6 26.2 49.6-39.9-0.9-50.2-52.6-52.3-71.9 10 7 20.1 15.2 26.1 22.3z"/>
			</g>
			<g id="&lt;Group&gt;">
				<path id="&lt;Path&gt;" class="s7" d="m107.8 825.9c-18.3-2.6-34-14.2-42-48.6-8.1-34.5-9.3-50-3.8-53.4 6.4-3.9 31.3 30.7 39.4 46 20.1 38.3 6.4 56 6.4 56z"/>
				<path id="&lt;Compound Path&gt;" class="s17" d="m64.4 761.9q-1 0.3-1.9 0.8c-0.2-1-0.4-2.1-0.6-3.1 1.3-0.8 2.8-1.3 4.4-1.5 2.9-0.4 5.6 0.4 8.4 1.2 2.6 0.8 5.8 1.7 8.4 0.3 3.6-1.8 3.5-6.6 5.5-9.8q1.3 1.7 2.5 3.5c-1.2 2.3-1.7 5.3-3.3 7.5-3.4 4.5-9.4 3-13.9 1.5-3.2-1-6.3-1.7-9.5-0.4zm0-18.2c-1.8 0.1-3.4 0.7-4.9 1.5q-0.2-1.2-0.3-2.4c1.1-0.7 2.3-1.2 3.6-1.4q2-0.4 3.9 0.1c1.6 0.3 3 1.3 4.6 1.3 3.2-0.1 4.7-4.3 6.4-6.4q0.2-0.2 0.4-0.4 0.8 1 1.7 2.1c-0.6 0.5-1 1.2-1.4 1.8-1.5 2.2-2.9 4.8-5.7 5.4-1.5 0.3-2.8-0.2-4.2-0.8-1.3-0.5-2.7-0.8-4.1-0.8zm8.3 42q-2.6-0.7-4.9-0.7-0.5-1.7-0.9-3.5 1.8-0.1 3.6 0.3c4.2 0.8 9.2 3.8 12.9 0.4 2-1.9 3.1-4.6 4.7-6.8 1.7-2.4 4.1-4.2 6.9-5.1 2.2-0.6 4.3-0.6 6.4-0.4q1 2 1.9 3.9c-3.3-0.4-6.3-0.5-9.3 1.7-2.6 1.8-3.8 4.7-5.6 7.2-4.1 6.1-9.5 5-15.7 3zm37.9 8.2c-1.4 0.6-2.7 1.6-3.7 2.9-1.8 2.1-2.7 4.9-4.3 7.2-3.2 4.7-7.6 6-12.9 3.9-2.1-0.9-4-1.5-6.3-0.8-1.4 0.4-2.8 1.3-3.9 2.3q-1-1.3-1.9-2.6c1.4-1.5 3.1-2.6 5.1-3.2 2.8-0.9 5.3-0.3 8 0.6 3.1 1 5.3 0.3 7.3-2.5 1.6-2.3 2.6-5.1 4.4-7.4 1.6-2 3.7-3.7 6.1-4.6 0.4-0.1 0.7-0.2 1-0.3q0.6 2.3 1.1 4.5z"/>
				<path id="&lt;Path&gt;" class="s9" d="m107.8 825.9c-22.7-5.8-20.2-41.4-12.3-65.8 2.4 3.6 4.4 7 5.9 9.8 20.1 38.3 6.4 56 6.4 56z"/>
			</g>
			<g id="&lt;Group&gt;">
				<path id="&lt;Path&gt;" class="s7" d="m143.4 776.3c14.1-16.7 51.6-39.8 54.7-37.5 3.2 2.2-7.8 38.8-21.9 56.6-14 17.7-35.8 31.8-59 30.5 0 0 7.7-27.7 26.2-49.6z"/>
				<path id="&lt;Path&gt;" class="s15" d="m143.4 776.3c14.1-16.7 51.6-39.8 54.7-37.5 3.2 2.2-7.8 38.8-21.9 56.6-14 17.7-35.8 31.8-59 30.5 0 0 7.7-27.7 26.2-49.6z"/>
				<path id="&lt;Compound Path&gt;" class="s7" d="m167.9 767.7c-1.3-2.2-0.6-4.8-0.3-7.2 0.3-1.7-0.1-3.2-0.9-4.5q1.3-0.9 2.6-1.8c1.2 1.9 1.3 4.1 1 6.3-0.4 2.7-1.1 6 2.5 6.5 3.9 0.5 9.3-3 12.5 0.9 1.5 1.9 0.9 4.3 1 6.5 0 0.9 0.3 1.9 0.8 2.8q-0.6 1.3-1.3 2.6c-0.9-1.1-1.5-2.5-1.7-3.9-0.4-2.7 0.7-6.2-2.9-6.8-2.6-0.4-5 0.8-7.5 1-2.2 0.1-4.5-0.3-5.8-2.4zm13-19.4c-0.3-0.4-0.7-0.8-1-1.1q1-0.6 2-1.2c1.8 2.2 1.8 5.3 3.5 7.5 1.1 1.5 2.6 1.6 4.4 1.2 1.6-0.3 3.2-0.5 4.8 0.2q0.5 0.3 1 0.6-0.3 0.8-0.6 1.7c-0.7-0.4-1.5-0.7-2.4-0.7-1.8-0.1-3.4 0.9-5.2 0.7-1.2-0.1-2.2-0.6-3-1.5-1.9-2.1-2-5.1-3.5-7.4zm-25.8 31.2c-1.8-1.5-2.9-3.8-3.5-6-0.4-1.6-0.4-3.3-0.6-4.9q1.1-1 2.2-2c0.5 2.7 0.2 5.5 1.6 8 1.7 3 4.1 3.8 7.3 3.8 2.3 0 4.5 0.2 6.2 2 1.5 1.7 2 4 2.3 6.2 0.5 3.3 1 6.3 4 8.1q0.8 0.5 1.6 0.7-0.8 1.1-1.7 2.1c-1.2-0.6-2.4-1.4-3.3-2.5-3.9-4.6-0.8-13.8-9-13.8-2.6 0-4.9 0-7.1-1.7zm-12.4 2.3c-0.5-0.9-1.1-1.7-1.8-2.4q1-1.3 2-2.5c2 2 3.1 4.5 3.7 7.3 0.8 2.9 1.1 6.2 3.1 8.6 2 2.6 5.2 2.4 7.9 3.8 2.3 1.3 4 3.4 4.9 5.8 0.8 1.9 1 3.9 1.3 5.9q-1.2 1-2.5 2 0-0.2-0.1-0.3c-0.5-3.3-0.9-6.7-3.4-9.1-2.5-2.3-5.9-2-8.5-3.8-5-3.6-4.1-10.4-6.6-15.3zm-10.1 9.7q1 0.8 1.9 1.7c3.9 4.4 3.4 10 4.9 15.4 0.7 2.7 2.2 5.5 4.9 6.6 2.3 0.9 4.8 0 6.7 1.8q0.1 0.1 0.2 0.2-1.8 1-3.5 1.8c-0.6-0.1-1.3-0.1-1.9-0.2-1.3-0.1-2.5-0.3-3.7-0.8-2-1.1-3.4-2.9-4.4-4.9-2.4-5-1.3-11-4.3-15.8q-1.1-1.7-2.5-2.9 0.8-1.4 1.7-2.9z"/>
				<path id="&lt;Path&gt;" class="s14" d="m169.5 754c-2.2 19.3-12.4 71-52.3 71.9 0 0 7.7-27.7 26.2-49.6 6-7.1 16.1-15.3 26.1-22.3z"/>
			</g>
			<g id="&lt;Group&gt;">
				<path id="&lt;Path&gt;" class="s7" d="m123.6 769.9c8.1-15.3 33-49.9 39.4-46 5.5 3.4 4.3 18.9-3.8 53.4-8 34.4-23.7 46-42 48.6 0 0-13.7-17.7 6.4-56z"/>
				<path id="&lt;Compound Path&gt;" class="s17" d="m151.1 762.3c-4.5 1.5-10.5 3-13.9-1.5-1.6-2.2-2.1-5.2-3.3-7.5q1.2-1.8 2.5-3.5c2 3.2 1.9 8 5.5 9.8 2.6 1.4 5.7 0.5 8.4-0.3 2.8-0.8 5.5-1.6 8.4-1.2 1.6 0.2 3.1 0.7 4.4 1.5-0.2 1-0.4 2.1-0.6 3.1q-0.9-0.5-1.9-0.8c-3.2-1.3-6.3-0.6-9.5 0.4zm5.4-17.8c-1.4 0.6-2.7 1.1-4.2 0.8-2.8-0.6-4.3-3.2-5.7-5.4-0.4-0.6-0.8-1.3-1.4-1.8q0.9-1.1 1.7-2.1 0.2 0.2 0.4 0.4c1.7 2.1 3.2 6.3 6.4 6.4 1.6 0 3-1 4.6-1.3q1.9-0.5 3.9-0.1c1.3 0.2 2.5 0.7 3.6 1.4q-0.1 1.2-0.3 2.4c-1.5-0.8-3.1-1.4-4.9-1.5-1.4 0-2.8 0.3-4.1 0.8zm-19.9 38.2c-1.8-2.5-3-5.4-5.6-7.2-3-2.2-6-2.1-9.3-1.7q0.9-1.9 1.9-3.9c2.1-0.2 4.2-0.2 6.3 0.4 2.9 0.9 5.3 2.7 7 5.1 1.6 2.2 2.7 4.9 4.7 6.8 3.7 3.4 8.7 0.4 12.9-0.4q1.8-0.4 3.6-0.3-0.4 1.8-0.9 3.5-2.3 0-4.9 0.7c-6.2 2-11.6 3.1-15.7-3zm-21.1 6.7c0.3 0.1 0.6 0.2 1 0.3 2.4 0.9 4.5 2.6 6.1 4.6 1.8 2.3 2.8 5.1 4.4 7.4 2 2.8 4.2 3.5 7.3 2.5 2.7-0.9 5.2-1.5 8-0.6 2 0.6 3.7 1.7 5.1 3.2q-0.9 1.3-1.9 2.6c-1.1-1-2.5-1.9-3.9-2.3-2.3-0.7-4.2-0.1-6.3 0.8-5.3 2.1-9.7 0.8-12.9-3.9-1.6-2.3-2.5-5.1-4.3-7.2-1-1.3-2.3-2.3-3.7-2.9q0.5-2.2 1.1-4.5z"/>
				<path id="&lt;Path&gt;" class="s9" d="m123.6 769.9c1.5-2.8 3.5-6.2 5.9-9.8 7.9 24.4 10.4 60-12.3 65.8 0 0-13.7-17.7 6.4-56z"/>
			</g>
			<g id="&lt;Group&gt;">
				<path id="&lt;Path&gt;" class="s7" d="m93.5 791.9c1.5-16.9 12.2-49.1 19-49.1 6.8 0 17.4 32.2 19 49.1 1.5 16.8-3.6 37.8-19 37.8-15.4 0-20.5-21-19-37.8z"/>
				<path id="&lt;Path&gt;" class="s8" d="m93.5 791.9c1.5-16.9 12.2-49.1 19-49.1 6.8 0 17.4 32.2 19 49.1 1.5 16.8-3.6 37.8-19 37.8-15.4 0-20.5-21-19-37.8z"/>
				<path id="&lt;Compound Path&gt;" class="s17" d="m107 762.6c-1.6-1.7-3.5-2.7-5.4-3q0.5-1.3 0.9-2.5 0.1 0 0.2 0c2.1 0.5 3.6 1.6 5.1 3.1 1.2 1.2 2.3 2.2 4.2 1.5 1.3-0.4 2.3-1.4 3.2-2.4 2-1.9 4.1-3.3 6.5-4q0.6 1.4 1.2 2.9c-1.7 0.4-3.4 1.2-4.8 2.5-1.7 1.6-3.2 3.6-5.7 4.1-2.2 0.5-4-0.6-5.4-2.2zm-11 15.3q0.3-1.3 0.6-2.5 0 0 0.1 0c2.1 1.5 3.1 4.1 5.1 5.6 3.4 2.6 6.8-1.6 8.9-4 3.7-4.1 7.8-5.7 12.4-2 2.1 1.8 3.8 3.6 6.2 4.2q0.4 1.5 0.7 2.9-0.9-0.1-1.8-0.4c-2.3-0.9-4-2.7-5.9-4.3-3.1-2.6-6-2-8.7 0.8-3.3 3.4-7.6 9.1-12.7 5.1-1.9-1.5-2.9-4.1-4.9-5.4zm-2.8 20.4q0-1.3 0.1-2.6c2.2-1.1 4.8-1.4 7.4-0.8 2.2 0.6 4.3 1.8 5.9 3.4 1.3 1.3 2.4 3.5 4.1 4.2 1.5 0.5 3.3-0.6 4.5-1.4 2.1-1.7 3.4-4.1 5.6-5.6 2-1.4 4.3-1.8 6.6-1.4 1.5 0.3 2.9 0.8 4.3 1.4q0.1 1.3 0 2.7c-3-1.2-6.3-2.2-9.3-0.2-2.1 1.4-3.3 3.7-5.2 5.3-4 3.3-7.6 2.3-10.5-1.5-3.5-4.6-8.8-5.6-13.5-3.5zm34.4 15.1q1.1-0.4 2.2-0.5-0.5 1.8-1.2 3.5-0.9 0.3-1.8 0.8c-2.1 1.2-3.7 3.2-5.9 4.4-2 1-4.2 1.6-6.4 1.6-2.1 0-4.2-0.4-6-1.6-2-1.2-2.9-3.5-4.7-4.9-2.5-1.8-5.1-1.9-7.7-1q-0.5-1.4-0.9-2.8c1.6-0.5 3.2-0.6 4.9-0.4 2.2 0.3 4.2 1.3 5.8 2.9 0.8 0.8 1.5 1.9 2.3 2.8 1.2 1.2 2.7 1.7 4.4 1.9 3.1 0.3 6.2-0.7 8.7-2.6 2.1-1.6 3.8-3.3 6.3-4.1z"/>
			</g>
		</g>
	</g>
	<g id="Key">
		<g id="Key 00000003078175053318973530000013170796231431423623 ">
			<path id="&lt;Compound Path&gt;" fill-rule="evenodd" class="s7" d="m671.2 807.9v9.3c0.1 11-7.1 22-21.5 30.4-21.8 12.6-53.8 15.8-80.6 9.5l-24.8 14.5-19.2-4.3-13 7.6-0.6 15.8-7.1 4-17.6 1.7-12.7 7.1v8.9l-15.8 9.2-40.6 0.2-14.5-8.3v-9.4l129.3-65.9c-6-6.3-9-13.3-9.1-20.3v-9.5c1.9-9.1 9.5-13.8 21.5-20.8 28.8-16.8 75.6-16.9 104.6-0.4 13 7.5 20.3 10.9 21.7 20.7zm-39.7-10.7c-8.2-4.7-21.5-4.7-29.6 0.1-8.2 4.7-8.2 12.4 0 17.1 8.2 4.7 21.5 4.6 29.6-0.1 8.2-4.8 8.2-12.4 0-17.1z"/>
			<path id="&lt;Compound Path&gt;" fill-rule="evenodd" class="s14" d="m671.2 807.9v9.3c0.1 11-7.1 22-21.5 30.4-21.8 12.6-53.8 15.8-80.6 9.5l-24.8 14.5-19.2-4.3-13 7.6-0.6 15.8-7.1 4-17.6 1.7-12.7 7.1v8.9l-15.8 9.2-40.6 0.2-14.5-8.3v-9.4l129.3-65.9c-6-6.3-9-13.3-9.1-20.3v-9.5c1.9-9.1 9.5-13.8 21.5-20.8 28.8-16.8 75.6-16.9 104.6-0.4 13 7.5 20.3 10.9 21.7 20.7zm-39.7-10.7c-8.2-4.7-21.5-4.7-29.6 0.1-8.2 4.7-8.2 12.4 0 17.1 8.2 4.7 21.5 4.6 29.6-0.1 8.2-4.8 8.2-12.4 0-17.1z"/>
			<path id="&lt;Compound Path&gt;" fill-rule="evenodd" class="s7" d="m649.6 838.2c-21.7 12.6-53.7 15.8-80.5 9.5l-24.9 14.5-19.1-4.3-13 7.6-0.7 15.8-7 4-17.7 1.7-13.7 7.7 1.1 8.3-15.9 9.2-40.5 0.2-14.5-8.3 129.2-75.3c-15.3-16.1-11.2-36.8 12.5-50.6 28.8-16.8 75.6-16.9 104.5-0.4 28.9 16.6 29 43.6 0.2 60.4zm-18.2-50.4c-8.2-4.7-21.4-4.7-29.6 0.1-8.1 4.7-8.1 12.4 0.1 17.1 8.2 4.7 21.4 4.6 29.6-0.1 8.2-4.8 8.1-12.4-0.1-17.1z"/>
			<path id="&lt;Compound Path&gt;" fill-rule="evenodd" class="s8" d="m649.6 838.2c-21.7 12.6-53.7 15.8-80.5 9.5l-24.9 14.5-19.1-4.3-13 7.6-0.7 15.8-7 4-17.7 1.7-13.7 7.7 1.1 8.3-15.9 9.2-40.5 0.2-14.5-8.3 129.2-75.3c-15.3-16.1-11.2-36.8 12.5-50.6 28.8-16.8 75.6-16.9 104.5-0.4 28.9 16.6 29 43.6 0.2 60.4zm-18.2-50.4c-8.2-4.7-21.4-4.7-29.6 0.1-8.1 4.7-8.1 12.4 0.1 17.1 8.2 4.7 21.4 4.6 29.6-0.1 8.2-4.8 8.1-12.4-0.1-17.1z"/>
			<g id="&lt;Group&gt;" style="opacity: .2">
				<path id="&lt;Path&gt;" class="s1" d="m526.9 795.4l119.9-18.9c0.9 0.4 1.8 0.8 2.6 1.3 5.9 3.4 10.6 7.2 14.1 11.3l-26.6 4.2c-0.9-2-2.7-4-5.5-5.5-8.2-4.7-21.4-4.7-29.6 0.1-5.5 3.2-7.3 7.7-5.3 11.8l-72.9 11.5c-0.6-5.3 0.5-10.7 3.3-15.8z"/>
				<path id="&lt;Path&gt;" class="s1" d="m498.2 848.7l34.2-19.9c-3.6-3.8-6.1-7.9-7.5-12l76.6-12.1q0.2 0.1 0.4 0.3c8.2 4.7 21.4 4.6 29.6-0.1 2.8-1.7 4.6-3.7 5.5-5.8l30.3-4.8c5.2 9 5.2 18.8-0.2 27.8z"/>
			</g>
			<g id="&lt;Group&gt;">
				<path id="&lt;Compound Path&gt;" fill-rule="evenodd" class="s7" d="m597.4 842.4c-18.3 0-35.3-4-48.1-11.2-11-6.4-17.4-14.7-17.4-22.8-0.1-8.1 6.2-16.4 17.3-22.9 12.6-7.3 29.7-11.4 47.9-11.5 18.3-0.1 35.4 3.9 48.1 11.2 11.1 6.3 17.5 14.6 17.5 22.7 0 8.2-6.3 16.5-17.3 22.9-12.7 7.4-29.7 11.5-48 11.6zm-0.2-65.7c-17.9 0-34.4 4-46.7 11.1-10.2 6-16 13.5-16 20.6 0 7.1 5.9 14.6 16.2 20.5 12.3 7 28.9 10.9 46.7 10.8 17.8-0.1 34.4-4 46.6-11.2 10.2-5.9 16.1-13.4 16-20.5 0-7.2-5.9-14.6-16.1-20.5-12.3-7.1-28.9-10.9-46.7-10.8z"/>
			</g>
			<path id="&lt;Path&gt;" class="s9" d="m624 847.9l0.1 9.4c-17.7 4-37.4 3.9-55-0.2v-9.4c17.5 4.1 37.3 4.2 54.9 0.2z"/>
			<path id="&lt;Path&gt;" class="s9" d="m544.2 862.2l0.1 9.4-19.2-4.3v-9.4z"/>
			<path id="&lt;Path&gt;" class="s9" d="m512.1 865.5v9.4l-0.6 15.8-0.1-9.4z"/>
			<path id="&lt;Path&gt;" class="s9" d="m504.4 885.3v9.4l-17.6 1.7-0.1-9.4z"/>
			<path id="&lt;Path&gt;" class="s9" d="m458.2 912.2l0.1 9.4-40.6 0.2v-9.4z"/>
			<path id="&lt;Path&gt;" class="s9" d="m407.8 906.7v4.1l3.6 2-0.1-4.1 6.4 3.7v9.4l-14.5-8.3v-9.4z"/>
			<path id="&lt;Path&gt;" class="s7" d="m407.8 906.7l3.5 2 0.1 4.1-3.6-2z"/>
			<path id="&lt;Path&gt;" class="s8" d="m407.8 906.7l3.5 2 0.1 4.1-3.6-2z"/>
			<path id="&lt;Path&gt;" class="s7" d="m536.9 831.5l3.5 2.1-132.6 77.2v-4.1z"/>
			<path id="&lt;Path&gt;" class="s9" d="m540.4 833.6l-3.5 2v-4.1z"/>
		</g>
	</g>
	<g id="Character">
		<g id="Chartacter 5 ">
			<g id="Bottom 00000117634346516026586950000002072688584383322500 ">
				<path id="&lt;Path&gt;" class="s18" d="m813.6 645.6c-3.2 13.5-6.3 28.1-8.5 47-0.4 3.1-3.5 7.2-3.7 10.3-0.1 0.9-2.5 3.6-10.7 4.5-8.2 0.8-16.5-5.4-16.4-6.6 1.2-13.2-0.8-34.7 0-57.4z"/>
				<path id="&lt;Path&gt;" class="s18" d="m907.8 700.3l0.8 11.8c-4 13.8-24.2 12.8-26 4.1 0 0-1.5-3.5-3.3-11.8-3-13.4-7.1-33.3-11-52.4l37.3 3.2c0.7 16.2 1.6 34.2 2.2 45.1z"/>
				<g id="&lt;Group&gt;">
					<g id="&lt;Group&gt;">
						<path id="&lt;Path&gt;" class="s11" d="m810.3 721.7c0 0 0.3 7.4-1.4 9.1-1.7 1.7-9.7 3.9-15 5.1-5.7 1.3-10.3 5.8-15.3 10.1-5 4.3-8.5 6.9-21.1 8.6-12.5 1.7-22-3.1-25.2-5.9-2.8-2.5-2.1-8.4-1.5-8.4z"/>
						<path id="&lt;Path&gt;" class="s12" d="m805.5 689.4c0 0 1.8 0 2.2 1.8 0.3 2 0.8 8 1.6 11.4 1.1 4.7 1.5 17.8 0.8 21.7-0.7 3.8-11.6 6.1-17.1 8.3-5.6 2.2-9.6 5.2-15.3 10-5.9 5-15 8.8-23.2 8.7-9.7-0.1-20.6-3.3-23.1-7.9-3.1-5.7-3.5-11.2 10.8-18 2.7-1.3 11.1-6.4 14.4-8.5 3.5-2.2 6.9-4.8 9.9-7.8 1.3-1.2 2.6-2.5 3.7-3.9 1-1.1 1.6-2.7 2-4.1 0.9-2.8 0.5-5.7 0.9-8.5 0.1-0.3 0.1-0.5 0.3-0.7 0.2-0.2 0.4-0.4 0.6-0.4 2.3-0.9 4.7-0.6 7.1-0.4 2.4 0.2 4.8 0.8 7 1.6 1.3 0.5 2.6 1 3.3 2.2 0.5 0.8 0.6 1.8 0.6 2.7 0 1 0 1.9 0.1 2.9 0.1 0.3 0.1 0.7 0.4 0.9 0.5 0.5 1.2 0.1 1.7-0.3 1.5-1.4 2.6-3.1 3.8-4.7 0.7-0.9 3.7-1.5 4.6-2.1 0.8-0.7 1.8-1 2.5-1.7 0.8-0.9 0.4-2 0.4-3.2z"/>
						<path id="&lt;Path&gt;" class="s10" d="m754.3 751.6c-12.5 0-20.4-3.6-22.9-8.2-3.1-5.7-3.5-11.2 10.8-18 0.6-0.3 1.6-0.9 2.8-1.5 4.3 0.5 15.1 5.6 15 6.8-0.1 1.2-2.2 5 2.2 8 6.8 4.8 22.1-1.4 22.1-1.4-2.7 1.9-4.1 3.2-6.6 5.3-5.9 5-15.2 9-23.4 9z"/>
						<path id="&lt;Path&gt;" class="s11" d="m794.2 701.1c1.5-1.4 2.6-3.1 3.8-4.7 0.7-0.9 2.5-1.7 4.4-2.4 1-0.4 2-0.7 2.7-1.4l0.3-3.7c0 0 1.9 0.5 2.3 2.3 0.1 0.9 0.3 2.8 0.6 4.8-1.3 1.2-2.7 2.5-4 3.6-3.6 2.8-11.9 11.1-21.5 18.8-9.1 7.5-21.7 14.9-24.2 14.6-2.5-0.4-6.3-2.1 2.6-5.8 8.9-3.6 25.2-15.9 33-26.1z"/>
						<g id="&lt;Group&gt;">
							<g id="&lt;Group&gt;">
								<path id="&lt;Path&gt;" class="s5" d="m758.5 731.3c-2-2.5-8.6-6.7-14.7-6-0.6 0.1-1-0.3-1-0.8-0.1-0.5 0.3-0.9 0.8-1 6.5-0.7 13.8 3.5 16.3 6.6 0.3 0.4 0.3 1-0.1 1.3q-0.3 0.2-0.6 0.2c-0.2 0-0.5-0.1-0.7-0.3z"/>
							</g>
							<g id="&lt;Group&gt;">
								<path id="&lt;Path&gt;" class="s5" d="m766.3 726.8c-1.9-2.6-8.5-6.9-14.6-6.4-0.5 0.1-0.9-0.3-1-0.8 0-0.5 0.4-0.9 0.8-1 6.6-0.6 13.8 3.8 16.2 7 0.3 0.4 0.3 1-0.1 1.3q-0.3 0.2-0.6 0.2c-0.2 0-0.5-0.1-0.7-0.3z"/>
							</g>
							<g id="&lt;Group&gt;">
								<path id="&lt;Path&gt;" class="s5" d="m773.5 721.6c-2-2.5-8.6-6.6-14.8-5.9-0.5 0-0.9-0.3-0.9-0.8-0.1-0.5 0.3-1 0.8-1 6.5-0.8 13.8 3.4 16.3 6.6 0.3 0.4 0.3 0.9-0.1 1.3q-0.3 0.2-0.6 0.2c-0.2 0-0.5-0.1-0.7-0.4z"/>
							</g>
							<g id="&lt;Group&gt;">
								<path id="&lt;Path&gt;" class="s5" d="m779.9 717c-1.9-2.6-8.4-7.1-14.5-6.7-0.5 0.1-0.9-0.3-1-0.8 0-0.5 0.4-0.9 0.9-1 6.5-0.4 13.6 4.1 16 7.4 0.3 0.4 0.2 0.9-0.2 1.2q-0.2 0.2-0.5 0.2c-0.3 0-0.5-0.1-0.7-0.3z"/>
							</g>
							<g id="&lt;Group&gt;">
								<path id="&lt;Path&gt;" class="s5" d="m786.7 711.5c-2.9-4.1-10.1-7.1-16-6.7-0.5 0-0.9-0.3-0.9-0.8-0.1-0.5 0.3-1 0.8-1 6.6-0.5 14.3 2.8 17.6 7.4 0.3 0.4 0.2 1-0.2 1.3q-0.3 0.2-0.6 0.1c-0.2 0-0.5-0.1-0.7-0.3z"/>
							</g>
						</g>
					</g>
				</g>
				<g id="&lt;Group&gt;">
					<g id="&lt;Group&gt;">
						<path id="&lt;Path&gt;" class="s11" d="m917.6 753.6c1.4 8.3 1.8 13.5 0.2 21.3-1.5 7.7-9 11.9-14.9 13.5-5.9 1.6-11.7 0.1-14.8-5.1-3.2-5.2-4.6-11.1-5.2-20z"/>
						<path id="&lt;Path&gt;" class="s12" d="m907.8 700.3c2 0.7 2.7 12.9 4.3 24.9 1.6 12.8 3.9 16.7 5.4 27.2 1.7 12 0.9 16.1-3.1 23.4-4 7.4-18.5 14.7-25.8 4.4-5.9-8.4-6.1-16.5-5.7-28.6 0.4-12.4 0.1-19.2-0.5-28.7-0.6-9-5.2-17.5-3.1-18.5-0.4 0.2 1.3 6.2 1.5 6.7 0.3 1.1 0.7 2.4 1.3 3.3 1.2 1.7 1.7-1 1.7-2.1 0-1.8-0.6-3.2 0.7-4.7 0.9-1 2.4-1.6 3.6-2.2q2.1-0.9 4.4-1.3c3.1-0.7 6.2-0.7 9.3-0.7 1.3 0 2.9 0.4 3.7 1.5 0.1 0.3 0.3 0.6 0.3 0.9 0.3 1.2 0.2 2.4 0.4 3.6 0.1 0.3 0.2 1.2 0.5 1.4 0.1 0.1 0.8 0.1 0.9-0.1 0-0.1 0.4-8.3 0.2-10.4z"/>
						<path id="&lt;Path&gt;" class="s10" d="m917.5 752.4c1.7 12 0.9 16.1-3.1 23.4-4 7.4-18.5 14.7-25.8 4.4-5.8-8.2-6.1-16-5.7-27.5 0 0.1 1.1 12 4.2 13.2 3.1 1.3 4.8-4.9 4.2-6.8 11.2-5.2 19-2.9 19-2.9 0 0 1.9 9.1 5.2 6.8 3-2.2 1.7-13 1.4-14.7 0.2 1.1 0.4 2.9 0.6 4.1z"/>
						<path id="&lt;Path&gt;" class="s11" d="m910.6 739.4c0.3-9.3-2.2-19.8-3-28.7 0 0 0.3-8.3 0.2-10.4 2.4 0.2 2.7 12.9 4.3 24.9 0.1 10.5 2.4 19.3 1.7 28.5-0.5 6.1-4.3 7.7-4.4 3.3-0.1-4.3 1-9.5 1.2-17.6z"/>
						<path id="&lt;Path&gt;" class="s11" d="m887.6 756.9c-1.5-6-1.9-17-4.1-27.4-0.9-5.2-1.7-8.5-3-13.9-1.2-5.4-2.7-10.5-1.2-11.2 0 0.1 2.4 7 2.9 9.7 1.7 8.7 6.3 23.3 7.2 31.3 1 8.1 2.3 9.3 3.2 13.6 0.9 4.3-3.6 3.8-5-2.1z"/>
						<g id="&lt;Group&gt;">
							<g id="&lt;Group&gt;">
								<path id="&lt;Path&gt;" class="s5" d="m890.7 758.7c-0.2-0.4 0-1 0.4-1.2 0.4-0.2 9.4-5.2 20-2.4 0.4 0.1 0.7 0.6 0.6 1.1-0.1 0.5-0.6 0.8-1.1 0.7-9.8-2.6-18.5 2.2-18.6 2.2q-0.2 0.1-0.4 0.1c-0.3 0.1-0.7-0.1-0.9-0.5z"/>
							</g>
							<g id="&lt;Group&gt;">
								<path id="&lt;Path&gt;" class="s5" d="m888.2 750.1c-0.3-0.5-0.1-1 0.4-1.3 0.4-0.2 11.3-5.5 22.9-3 0.5 0.2 0.8 0.6 0.7 1.1-0.1 0.5-0.6 0.9-1.1 0.8-10.9-2.5-21.6 2.8-21.7 2.8q-0.2 0.1-0.3 0.1c-0.4 0-0.8-0.1-0.9-0.5z"/>
							</g>
							<g id="&lt;Group&gt;">
								<path id="&lt;Path&gt;" class="s5" d="m911.9 740.5c-10.2-3.4-24.1 1.9-24.2 1.9-0.4 0.3-1 0.1-1.2-0.3-0.2-0.5-0.1-1 0.4-1.3 0.4-0.2 14.6-5.7 25.6-2 0.4 0.1 0.7 0.6 0.5 1.1-0.1 0.4-0.4 0.6-0.7 0.7q-0.2 0-0.4-0.1z"/>
							</g>
							<g id="&lt;Group&gt;">
								<path id="&lt;Path&gt;" class="s5" d="m910 732.7c-11.2-3.9-23 2.7-23.1 2.8-0.4 0.3-0.9 0.1-1.2-0.3-0.3-0.4-0.1-1 0.3-1.3 0.4-0.2 12.6-7.2 24.6-2.9 0.5 0.1 0.7 0.7 0.6 1.2-0.1 0.3-0.4 0.5-0.8 0.6q-0.2 0-0.4-0.1z"/>
							</g>
							<g id="&lt;Group&gt;">
								<path id="&lt;Path&gt;" class="s2" d="m909.2 723.2c-10.5-3.8-23.2 3-23.3 3.1-0.4 0.2-1 0.1-1.2-0.3-0.3-0.5-0.2-1.1 0.3-1.3 0.4-0.3 13.5-7.4 24.8-3.2 0.4 0.2 0.7 0.7 0.5 1.2-0.1 0.3-0.4 0.5-0.7 0.6q-0.2 0-0.4-0.1z"/>
							</g>
						</g>
					</g>
				</g>
				<path id="&lt;Path&gt;" class="s10" d="m829.6 501.1l-9.3 57.7c0 0 2.8 17.3 2 33.9-0.8 16.7-10.5 66.2-14 83.9-18.5 11.2-35.3-0.8-35.3-0.8 0 0-4.9-96.9-6.3-120.3-1.4-23.3 2-118.1 3.1-155.2l118.2 0.4c0 0 2.2 19.9 4.2 49.7 1.9 29.8 6.4 109.6 6.4 109.6 12 35.4 7 58.7 9.1 124.8-16.8 12.1-32.7 3.9-32.7 3.9 0 0-17.4-64.9-24.1-91.3-3.2-12.6-14.9-67.3-21.3-96.3z"/>
				<path id="&lt;Path&gt;" class="s12" d="m783.5 458.2l-3.2 45.4c-0.2 7.3-1.8 23.2-1.9 30.4-0.1 7.3-0.4 14.5-0.1 21.7 0.4 7.2 3.7 66 3.2 80.6-2.1-16.2-5.6-65.9-6.4-80.5-0.4-14.7 1.3-31.3 3.2-52.4 1.8-21.1 3.4-30.8 5.2-45.2z"/>
				<path id="&lt;Path&gt;" class="s12" d="m848.9 450.4c5.6 23.8 14.7 85.4 16.8 101.9 2.1 16.5 17.3 81.5 18.9 98.1-2.9-16.5-20-81.1-22.2-97.7-2-16.6-10-72.1-13.5-102.3z"/>
				<path id="&lt;Path&gt;" class="s12" d="m820.1 456l9.5 45.1-9.3 57.7 3.8-48.3-10.3-49.3c0 0-19.3-5.9-24.3-26.1 9.8 16.2 30.6 20.9 30.6 20.9z"/>
			</g>
			<g id="Top 00000037681870966070978740000015225186394783484050 ">
				<g id="Top 9 ">
					<path id="&lt;Path&gt;" class="s18" d="m784.7 312.7c0 0-11.4 25.8-19.5 36.7-6.3 8.4-10.4 11.2-20.7 10.4-13.8-1.1-40.4-5.9-40.4-5.9l-7.9-28.5 44.6 0.8c10.6-21.3 12.2-33 19-46.5 8.2-16.4 18.8-21.9 29.7-23.7z"/>
					<path id="&lt;Path&gt;" class="s7" d="m790.2 294.8l-10 34.5c0 0-5.5 1.6-17.5-2.5-11.9-4.1-17-10.4-17-10.4 0 0 1-3 6.1-18.2 5.2-15.3 10.3-24.8 16-31.7 5.8-6.8 15.9-10.1 22.4-11.1z"/>
					<g id="Chest 6 ">
						<g id="Chest 00000052815521601968857240000002021660366035213743 ">
							<path id="&lt;Path&gt;" class="s0" d="m832.7 424.2c-6.2 0-12.6-0.3-19.1-1-36.2-3.7-42.8-16.4-43.5-18 0.2-3.8 2.4-57.5 2.1-85.6-0.3-37.8 14-57.9 18.6-63.4 2-0.7 18-3.2 27.8-4.7l32.1 0.7c17.5 3.9 25.2 5.7 33.7 7.7 1.7 3.8 13.7 31.8 6.7 60.4-1.3 5.3-2.2 18-3 30.2-0.3 4.8-0.6 9.6-0.9 13.9-1 12.7 0 30.5 1.3 48-3.3 1.9-22.2 11.8-55.8 11.8z"/>
							<path id="&lt;Compound Path&gt;" fill-rule="evenodd" class="s3" d="m850.8 251.2c18 4.1 25.8 5.8 34.3 7.8 0 0 14.6 30.2 7 61.5-1.8 7.2-2.7 28.7-3.9 44-1 12.6 0 30.5 1.4 48.4 0 0-19.2 12.3-56.9 12.3-6 0-12.3-0.3-19.2-1-39.6-4-44.4-18.8-44.4-18.8 0 0 2.4-56.5 2.1-85.8-0.4-38.9 14.5-59 19-64.2 1.4-0.8 28.3-4.9 28.3-4.9zm-59.4 5.9c-4.8 5.8-18.5 25.6-18.1 62.5 0.2 27.7-1.9 80-2.1 85.4 0.9 1.9 8 13.7 42.5 17.2 6.5 0.7 12.8 1 19 1 31.9 0 50.4-9 54.8-11.4-1.3-17.3-2.3-34.9-1.3-47.5 0.3-4.2 0.6-9.1 0.9-13.8 0.9-12.4 1.7-25.1 3-30.5 6.7-27.3-4.2-54.1-6.4-59.2-8.4-2-16.1-3.8-33.2-7.6l-31.9-0.7c-11.6 1.8-24.6 3.9-27.2 4.6z"/>
						</g>
					</g>
					<g id="Head 4 ">
						<g id="&lt;Group&gt;">
							<g id="&lt;Group&gt;">
								<path id="&lt;Path&gt;" class="s11" d="m863.6 212c-3.3 12.4-7.3 17.9-9 21.3-1.8 3.5-5.5 4.5-5.5 4.5l0.2-14.8 0.4-10.3c0 0-8.4-7.5-9.2-14.9-0.4-3.2-0.2-6 0.2-8.2q-3.2 0.2-6.5 0.5-12.6 0.9-25.2 1.9-5.8 0.5-11.6 0.9c-2 0.2-4.9 0.9-6.7-0.3-1.9-1.2-3-5.6-3.4-7.6-0.3-1.6-0.4-3.3-0.2-4.9 0-0.6 0.5-4.2 1.1-4.3-2.2 0.4-4.1 2.3-4.6 4.5-0.6-3.7-0.7-7.6 0.6-11.2 1.6-4.1 5.1-7.3 8.8-9.7 3.5-2.2 7.4-4 11.5-3.9-1.1-1-2.2-2.2-2.6-3.7-0.5-1.5-0.1-3.3 1.1-4.2 0.1-0.1 0.3-0.2 0.4-0.2 0.3-0.1 0.5 0.1 0.7 0.2 5.3 3.3 12.2 2.4 18.4 1.9 6.5-0.6 13.2-0.5 19.4 1.6 9.2 3.3 15.5 11.7 15.9 21.4 2.1 0.8 5.3 3.4 7.7 8.8 2.4 5.5 3.1 11.3-1.9 30.7z"/>
								<path id="&lt;Path&gt;" class="s18" d="m862.9 223.9c-7.7 3.8-11.2-2.2-11.2-2.2l-0.8 33.2c-14.5 19.9-53.9 12.5-37.9-2.5l-0.1-9.4c0 0-2.6 0-6.6-0.6-6.9-1-11.2-5.8-13.3-13.1-3.1-10.8-4.5-28.2-0.6-46.8 0.7-3.6 2.2-7.5 5.5-9.2 8.1-4.1 15.7 1.6 27.1 5.9 4.7 1.8 16.1 2.4 19.1 1-3.9 4.4-1.5 15.7-0.4 19.3 1.6 5.1 3.8 7.6 4.9 7.8 4.7 0.9 5.2-3 7.2-5.3 2.1-2.2 9.9-4.2 13.4 2.9 3.5 7.3 0.7 15.4-6.3 19z"/>
								<path id="&lt;Path&gt;" class="s19" d="m841.8 233.9c-1.5 7.5-11.6 12.6-28.9 13.2v-4.1c0 0 5.3 0 12.6-1.3 8.1-1.4 16.3-7.8 16.3-7.8z"/>
							</g>
							<g id="&lt;Group&gt;">
								<path id="&lt;Path&gt;" class="s11" d="m829.9 188.9c2.1 0.9 3.1 3.4 2.3 5.5l-7.5-3.1c0.8-2.2 3.1-3.2 5.2-2.4z"/>
								<path id="&lt;Path&gt;" class="s11" d="m799.2 188.2c2.1-0.7 4.4 0.6 5 2.8l-7.9 2.4c-0.6-2.2 0.7-4.6 2.9-5.2z"/>
								<path id="&lt;Path&gt;" class="s11" d="m829.5 199.3c-0.1 1.9-1.6 3.3-3.4 3.3-1.9-0.1-3.3-1.6-3.3-3.4 0-1.9 1.6-3.3 3.4-3.3 1.9 0.1 3.3 1.6 3.3 3.4z"/>
								<path id="&lt;Path&gt;" class="s11" d="m804.4 199c-0.1 1.9-1.6 3.3-3.5 3.3-1.8-0.1-3.2-1.6-3.2-3.4 0-1.9 1.6-3.3 3.4-3.3 2.1 0.1 3.3 1.3 3.3 3.4z"/>
								<path id="&lt;Path&gt;" class="s19" d="m814.8 195.2l-3.1 19.8-10.3-2.4c3.9-8.9 8.2-13.4 13.4-17.4z"/>
							</g>
						</g>
						<g id="&lt;Group&gt;">
							<path id="&lt;Path&gt;" class="s19" d="m819.1 225.7c-3.2 1.2-6.7-0.5-7.9-3.8l11.5-4.4c1.2 3.3-0.4 7-3.6 8.2z"/>
							<path id="&lt;Path&gt;" class="s20" d="m821.6 219.7q0.7-0.2 1.5-0.3c0.1 2.7-1.4 5.3-4 6.3-0.6 0.2-1.3 0.3-1.9 0.3-0.6-2.7 1.3-5.5 4.4-6.3z"/>
						</g>
					</g>
				</g>
				<g id="Tablet 5 ">
					<g id="&lt;Group&gt;">
						<g id="&lt;Group&gt;">
							<g id="&lt;Group&gt;">
								<g id="&lt;Group&gt;">
									<path id="&lt;Path&gt;" class="s7" d="m686.4 284.7h-0.1l2.9-2v0.1c0.7-0.4 1.6-0.5 2.8 0l74.8 30.7c2.6 1 5.1 4.1 5.7 6.8l13.3 61.6c0.3 1.5 0 2.5-0.7 3l-3 2c-0.7 0.4-1.6 0.5-2.8 0l-74.9-30.7c-2.5-1-5.1-4.1-5.7-6.8-2.6-12.1-10.6-49.5-13.2-61.6-0.4-1.6 0-2.6 0.9-3.1z"/>
									<path id="&lt;Path&gt;" class="s21" d="m686.4 284.7h-0.1l2.9-2v0.1c0.7-0.4 1.6-0.5 2.8 0l74.8 30.7c2.6 1 5.1 4.1 5.7 6.8l13.3 61.6c0.3 1.5 0 2.5-0.7 3l-3 2c-0.7 0.4-1.6 0.5-2.8 0l-74.9-30.7c-2.5-1-5.1-4.1-5.7-6.8-2.6-12.1-10.6-49.5-13.2-61.6-0.4-1.6 0-2.6 0.9-3.1z"/>
									<path id="&lt;Path&gt;" class="s7" d="m770 315.8c1.2 1.3 2.2 2.9 2.5 4.4l13.3 61.7c0.3 1.5 0 2.5-0.8 3h0.1l-2.8 1.9c0.6-0.5 0.9-1.5 0.6-2.9l-13.3-61.7c-0.3-1.6-1.4-3.4-2.8-4.7z"/>
									<path id="&lt;Path&gt;" class="s7" d="m779.3 386.9l-74.9-30.7c-2.5-1-5.1-4.1-5.7-6.8-2.6-12.1-10.6-49.5-13.2-61.6-0.6-2.7 1-4.1 3.5-3l74.9 30.6c2.6 1.1 5.1 4.1 5.7 6.8l13.3 61.7c0.6 2.7-1 4-3.6 3z"/>
									<path id="&lt;Path&gt;" class="s22" d="m779.3 386.9l-74.9-30.7c-2.5-1-5.1-4.1-5.7-6.8-2.6-12.1-10.6-49.5-13.2-61.6-0.6-2.7 1-4.1 3.5-3l74.9 30.6c2.6 1.1 5.1 4.1 5.7 6.8l13.3 61.7c0.6 2.7-1 4-3.6 3z"/>
								</g>
							</g>
						</g>
						<path id="&lt;Path&gt;" class="s10" d="m767.4 335.2l-5.2-2.1c-0.4-0.2-0.9-0.8-1-1.3-0.5-2.3-2-9.3-2.5-11.5-0.1-0.5 0.2-0.8 0.7-0.6l5.1 2.1c0.5 0.2 1 0.8 1.1 1.3l2.5 11.5c0.1 0.5-0.2 0.8-0.7 0.6z"/>
						<path id="&lt;Path&gt;" class="s11" d="m763.2 327c-1.2-0.5-2.4-1.9-2.7-3.1-0.3-1.3 0.5-1.9 1.8-1.3 1.2 0.5 2.4 1.9 2.7 3.1 0.2 1.2-0.5 1.8-1.8 1.3z"/>
						<path id="&lt;Path&gt;" class="s11" d="m764.4 332.8c-1.2-0.5-2.4-1.9-2.7-3.1-0.3-1.2 0.5-1.8 1.8-1.3 1.2 0.5 2.4 1.9 2.7 3.1 0.2 1.2-0.6 1.8-1.8 1.3z"/>
					</g>
					<g id="&lt;Group&gt;">
						<path id="&lt;Path&gt;" class="s18" d="m688 324.1c-2.4-3.8-2.1-4.2-0.6-6 1.5-1.8 4.8-4.7 9.6-4.3 3.2 0.2 6.5 0.3 8.1 1.3 1.6 0.9 0 4.3-4.2 5.1-6.7 1.1-6.8 2.9-6.8 2.9 0 0 6.2-1 8.6-1.1 2.5 0 6.9 1.4 9.6 2 2.8 0.6 3.2 4.2-1.6 5.2 0 0 3.5 0.7 5 1.1 3.6 0.7 4.7 2.7 1.8 4.8-0.7 0.5-1.7 1-3.3 1 0 0 3.8 0.2 3.8 1.5 0 3.6-2.4 4.4-10.2 6.3-7.4 1.7-9.1 5.6-7.8 8.4 0 0-2.9-1.9-5.4-3.9-1.9-1.4-3.4-3-2.4-5.9 0 0-4.2-0.2-4.3-2.8-0.1-2.6 1.3-5.5 1.3-5.5 0 0-2.4-1.3-2.1-4.4 0.3-3 1.8-4.4 1.8-4.4z"/>
						<path id="&lt;Path&gt;" class="s19" d="m706.2 329.5c-1.4 0.2-2.8 0.9-4.2 1.4-2.9 1.1-5.7 2.1-8.8 2.6 2.7-1.5 5.5-2.7 8.3-3.9 1.4-0.5 2.9-1.1 4.6-1.1 1.6 0 3 0.4 4.6 0.7-1.5 0.2-3.2 0.2-4.5 0.3z"/>
						<path id="&lt;Path&gt;" class="s19" d="m704.8 338.2c-3.1 1.1-6.2 2.2-9.4 3 2.8-1.8 5.8-3.1 8.9-4.2 1.6-0.6 3.2-1.1 4.9-1.3 1.6-0.3 3.4-0.1 5 0.4-3.4-0.1-6.3 1.1-9.4 2.1z"/>
					</g>
				</g>
				<g id="Arm 8 ">
					<g id="Arm 14 ">
						<path id="&lt;Path&gt;" class="s19" d="m822.4 317c0 0-5.2-7.2-8-8.9-2.8-1.7-9.1-5-11.5-7.3-3.1-3-1.8-7 0.7-6.2 4 1.2 14.3 6.3 17.2 7.3 3 1 6.1 3.1 12.2 8.3z"/>
						<path id="&lt;Path&gt;" class="s18" d="m930.1 371.5c0.1 10.9-2.2 21.3-20 18.7-18.2-2.7-44-25.8-64.1-34-5.4-2.1-9.6-2.3-11.6-2.9-9.4-2.9-9.1-13.1-16-18.7l-3.4-0.4c0 0 1 2.5-1.4 2.7-2.8 0.2-5-0.1-6.4-1.5-2-2.1-4.9-10.2-2.8-12.3 0.7-0.8 1.6-0.8 1.6-0.8 0 0-0.1-0.6 0.3-3.1 0.7-3.8 4.3-3.6 6.6-3.7 0 0 0-2.3 2-3.4 1.9-1 3.9-1.7 12.9-2.4 2.7-0.3 5.4-0.8 10.5 4.7 3.6 4 14.6 17.3 18.7 20.3 4.2 3.1 35.1 13.4 35.1 13.4l-13.5-38.4c0 0-8.7-36.8 6.8-50.1 14.4 4.7 19.8 8.9 25.4 22.9 5.5 14 19.1 71.4 19.3 89z"/>
						<g id="&lt;Group&gt;">
							<path id="&lt;Path&gt;" class="s19" d="m813.2 314.1l11.1 1-11.4 0.4q0-0.7 0.3-1.4z"/>
							<path id="&lt;Path&gt;" class="s19" d="m806.1 320.9l12.1 0.6-12.2 0.8q0-0.8 0.1-1.4z"/>
							<path id="&lt;Path&gt;" class="s19" d="m818.4 334.6l-3.4-0.4c0 0-0.6-1.4-3.3-2.2-0.5-0.1-1.1 0-1.6 0.2-0.5 0.3-1 0.8-1.4 1.3 0.3-0.6 0.6-1.2 1.2-1.5q0.6-0.4 1.3-0.4l-0.6-1.6c-0.6-0.2-1.2-0.4-1.8-0.7-0.6-0.4-1.2-0.9-1.5-1.5 0.4 0.5 1 0.9 1.7 1.2q0.7 0.3 1.6 0.6c1.2 0.3 4.2 0.5 4.2 0.5 0 0 0 0.9 1.3 2.4 0.7 0.9 2.3 2.1 2.3 2.1z"/>
						</g>
					</g>
					<g id="&lt;Group&gt;">
						<path id="&lt;Path&gt;" class="s19" d="m890.1 342.6c13.2 3.1 19 10.9 21.3 20.4-1.9-4.3-11.6-12.8-19.3-14.9z"/>
					</g>
				</g>
				<path id="&lt;Path&gt;" class="s7" d="m885.1 259c12.6 3.2 20.1 6.7 25 19.7 5 13 14.9 54.8 14.9 54.8 0 0-0.8 2.6-14.9 5.9-14 3.3-23.1 0-23.1 0 0 0-7.5-23.4-10-30.3-2.4-6.9-8.8-39.8 8.1-50.1z"/>
			</g>
		</g>
	</g>
	<g id="Speech Bubble">
		<g id="Speech Bubble 00000032614563375448966020000013663832492064658111 ">
			<g id="Speech Bubble 00000065071409747244119150000001705136734481716410 ">
				<g id="&lt;Group&gt;">
					<path id="&lt;Path&gt;" class="s7" d="m210 286l-15.1 51.6c-1 3.3-4.8 4.3-7.4 2.7-0.8-0.5-10.2-5.8-12.7-7.4-0.8-0.5-1.5-1.2-2-2.2l-11.6-31.3c1.9-8.8 37.9-29.6 36-20.8l-3.5 11c8.9-5.1 17.2-8 16.3-3.6z"/>
					<path id="&lt;Path&gt;" class="s17" d="m210 286l-15.1 51.6c-1 3.3-4.8 4.3-7.4 2.7-0.8-0.5-10.2-5.8-12.7-7.4-0.8-0.5-1.5-1.2-2-2.2l-11.6-31.3c1.9-8.8 37.9-29.6 36-20.8l-3.5 11c8.9-5.1 17.2-8 16.3-3.6z"/>
				</g>
				<g id="&lt;Group&gt;">
					<g id="&lt;Group&gt;">
						<path id="&lt;Path&gt;" class="s7" d="m248.9 81.4l8.4 4.7c2.6 1.5 4.7 5.1 4.7 8v162.3c0 2.9-2.1 6.5-4.6 8l-137 79c-2.5 1.4-6.7 1.5-9.3 0l-8.4-4.8c-2.6-1.4-4.7-5-4.7-8v-162.2c0-2.9 2.1-6.5 4.6-8l137-79c2.5-1.5 6.7-1.5 9.3 0z"/>
						<path id="&lt;Path&gt;" class="s17" d="m248.9 81.4l8.4 4.7c2.6 1.5 4.7 5.1 4.7 8v162.3c0 2.9-2.1 6.5-4.6 8l-137 79c-2.5 1.4-6.7 1.5-9.3 0l-8.4-4.8c-2.6-1.4-4.7-5-4.7-8v-162.2c0-2.9 2.1-6.5 4.6-8l137-79c2.5-1.5 6.7-1.5 9.3 0z"/>
					</g>
					<g id="&lt;Group&gt;">
						<path id="&lt;Path&gt;" class="s7" d="m262 94.1v162.3c0 2.9-2.1 6.5-4.6 8l-49.4 28.5-13.1 44.7c-1.4 4.4-7.5 4.7-9.3 0.4l-9.7-26.7-55.5 32.1c-2.5 1.4-4.6 0.2-4.6-2.7v-162.3c0-2.9 2.1-6.5 4.6-8l137-79c2.5-1.4 4.6-0.2 4.6 2.7z"/>
						<path id="&lt;Path&gt;" class="s22" d="m262 94.1v162.3c0 2.9-2.1 6.5-4.6 8l-49.4 28.5-13.1 44.7c-1.4 4.4-7.5 4.7-9.3 0.4l-9.7-26.7-55.5 32.1c-2.5 1.4-4.6 0.2-4.6-2.7v-162.3c0-2.9 2.1-6.5 4.6-8l137-79c2.5-1.4 4.6-0.2 4.6 2.7z"/>
					</g>
					<path id="&lt;Path&gt;" class="s21" d="m261.9 93.3c-0.3-2.4-2.2-3.2-4.6-1.9l-136.9 79c-1.2 0.8-2.4 2-3.2 3.5l-17.7-10.2c0.8-1.4 1.9-2.6 3.2-3.3l136.9-79c2.5-1.5 6.7-1.5 9.3 0l8.4 4.7c2.4 1.4 4.3 4.4 4.6 7.2z"/>
				</g>
			</g>
			<path id="&lt;Compound Path&gt;" fill-rule="evenodd" class="s0" d="m220.2 190.2v53.9c0 2.2-0.5 4.6-1.5 6.8-1 2.2-2.4 4.2-4 5.6-17 15.1-34.6 25.3-51.6 29.8-3.3 0.9-5.6-1.6-5.6-6v-53.9c0-5.2 3.2-11.3 7.2-13.6l4.5-2.6v-19.6c0-14.5 8.8-31.4 19.7-37.7 10.9-6.2 19.7 0.5 19.7 15v19.5l4.5-2.6c3.9-2.3 7.1 0.2 7.1 5.4zm-27.2 43.9c2.2-3.2 3.7-7.3 3.7-11 0-5.8-3.5-8.4-7.8-5.9-4.3 2.5-7.8 9.1-7.8 14.9 0 3.7 1.5 6.1 3.7 6.7l-2.2 20 12.6-7.3zm7.5-61.5c0-8.6-5.2-12.5-11.6-8.8-6.4 3.7-11.6 13.7-11.6 22.2v19.6l23.2-13.5z"/>
		</g>
	</g>
</svg>