<svg xmlns="http://www.w3.org/2000/svg" version="1.1" xmlns:xlink="http://www.w3.org/1999/xlink" xmlns:svgjs="http://svgjs.com/svgjs" width="1440" height="560" preserveAspectRatio="none" viewBox="0 0 1440 560"><g mask="url(&quot;#SvgjsMask1002&quot;)" fill="none"><path d="M-55.73 396.49L-55.73 396.49" stroke="#132e65" stroke-width="1.5"></path><path d="M-55.73 396.49L-60.01 498.16" stroke="#132e65" stroke-width="1.5"></path><path d="M-55.73 396.49L63.81 375.08" stroke="#132e65" stroke-width="1.5"></path><path d="M-55.73 396.49L108.68 557.24" stroke="#132e65" stroke-width="1.5"></path><path d="M-55.73 396.49L48.9 644.42" stroke="#132e65" stroke-width="1.5"></path><path d="M-60.01 498.16L-60.01 498.16" stroke="#132e65" stroke-width="1.5"></path><path d="M-60.01 498.16L63.81 375.08" stroke="#132e65" stroke-width="1.5"></path><path d="M-60.01 498.16L108.68 557.24" stroke="#132e65" stroke-width="1.5"></path><path d="M-60.01 498.16L48.9 644.42" stroke="#132e65" stroke-width="1.5"></path><path d="M-60.01 498.16L236.33 496.19" stroke="#132e65" stroke-width="1.5"></path><path d="M63.81 375.08L63.81 375.08" stroke="#132e65" stroke-width="1.5"></path><path d="M63.81 375.08L108.68 557.24" stroke="#132e65" stroke-width="1.5"></path><path d="M63.81 375.08L236.33 496.19" stroke="#132e65" stroke-width="1.5"></path><path d="M108.68 557.24L108.68 557.24" stroke="#132e65" stroke-width="1.5"></path><path d="M108.68 557.24L48.9 644.42" stroke="#132e65" stroke-width="1.5"></path><path d="M108.68 557.24L215.07 640.87" stroke="#132e65" stroke-width="1.5"></path><path d="M108.68 557.24L236.33 496.19" stroke="#132e65" stroke-width="1.5"></path><path d="M48.9 644.42L48.9 644.42" stroke="#132e65" stroke-width="1.5"></path><path d="M48.9 644.42L215.07 640.87" stroke="#132e65" stroke-width="1.5"></path><path d="M48.9 644.42L236.33 496.19" stroke="#132e65" stroke-width="1.5"></path><path d="M48.9 644.42L63.81 375.08" stroke="#132e65" stroke-width="1.5"></path><path d="M236.33 496.19L236.33 496.19" stroke="#132e65" stroke-width="1.5"></path><path d="M236.33 496.19L215.07 640.87" stroke="#132e65" stroke-width="1.5"></path><path d="M215.07 640.87L215.07 640.87" stroke="#132e65" stroke-width="1.5"></path><path d="M215.07 640.87L350.48 675.8" stroke="#132e65" stroke-width="1.5"></path><path d="M357.96 386.15L357.96 386.15" stroke="#132e65" stroke-width="1.5"></path><path d="M357.96 386.15L398.74 509.59" stroke="#132e65" stroke-width="1.5"></path><path d="M357.96 386.15L520.16 398.23" stroke="#132e65" stroke-width="1.5"></path><path d="M357.96 386.15L236.33 496.19" stroke="#132e65" stroke-width="1.5"></path><path d="M398.74 509.59L398.74 509.59" stroke="#132e65" stroke-width="1.5"></path><path d="M398.74 509.59L506.2 548.03" stroke="#132e65" stroke-width="1.5"></path><path d="M398.74 509.59L236.33 496.19" stroke="#132e65" stroke-width="1.5"></path><path d="M398.74 509.59L520.16 398.23" stroke="#132e65" stroke-width="1.5"></path><path d="M398.74 509.59L350.48 675.8" stroke="#132e65" stroke-width="1.5"></path><path d="M398.74 509.59L215.07 640.87" stroke="#132e65" stroke-width="1.5"></path><path d="M350.48 675.8L350.48 675.8" stroke="#132e65" stroke-width="1.5"></path><path d="M520.16 398.23L520.16 398.23" stroke="#132e65" stroke-width="1.5"></path><path d="M520.16 398.23L647.77 395.94" stroke="#132e65" stroke-width="1.5"></path><path d="M520.16 398.23L506.2 548.03" stroke="#132e65" stroke-width="1.5"></path><path d="M520.16 398.23L658.84 505.04" stroke="#132e65" stroke-width="1.5"></path><path d="M506.2 548.03L506.2 548.03" stroke="#132e65" stroke-width="1.5"></path><path d="M506.2 548.03L658.84 505.04" stroke="#132e65" stroke-width="1.5"></path><path d="M506.2 548.03L350.48 675.8" stroke="#132e65" stroke-width="1.5"></path><path d="M647.77 395.94L647.77 395.94" stroke="#132e65" stroke-width="1.5"></path><path d="M647.77 395.94L658.84 505.04" stroke="#132e65" stroke-width="1.5"></path><path d="M647.77 395.94L826.67 343.5" stroke="#132e65" stroke-width="1.5"></path><path d="M658.84 505.04L658.84 505.04" stroke="#132e65" stroke-width="1.5"></path><path d="M658.84 505.04L687.18 641.44" stroke="#132e65" stroke-width="1.5"></path><path d="M687.18 641.44L687.18 641.44" stroke="#132e65" stroke-width="1.5"></path><path d="M687.18 641.44L841.22 677.53" stroke="#132e65" stroke-width="1.5"></path><path d="M687.18 641.44L506.2 548.03" stroke="#132e65" stroke-width="1.5"></path><path d="M808.7 198.1L808.7 198.1" stroke="#132e65" stroke-width="1.5"></path><path d="M808.7 198.1L826.67 343.5" stroke="#132e65" stroke-width="1.5"></path><path d="M808.7 198.1L1007.32 74.02" stroke="#132e65" stroke-width="1.5"></path><path d="M808.7 198.1L647.77 395.94" stroke="#132e65" stroke-width="1.5"></path><path d="M808.7 198.1L853.48 488.4" stroke="#132e65" stroke-width="1.5"></path><path d="M808.7 198.1L949.51 -83.03" stroke="#132e65" stroke-width="1.5"></path><path d="M826.67 343.5L826.67 343.5" stroke="#132e65" stroke-width="1.5"></path><path d="M826.67 343.5L853.48 488.4" stroke="#132e65" stroke-width="1.5"></path><path d="M826.67 343.5L658.84 505.04" stroke="#132e65" stroke-width="1.5"></path><path d="M826.67 343.5L982.75 528.75" stroke="#132e65" stroke-width="1.5"></path><path d="M826.67 343.5L1124.01 357.34" stroke="#132e65" stroke-width="1.5"></path><path d="M853.48 488.4L853.48 488.4" stroke="#132e65" stroke-width="1.5"></path><path d="M853.48 488.4L982.75 528.75" stroke="#132e65" stroke-width="1.5"></path><path d="M853.48 488.4L841.22 677.53" stroke="#132e65" stroke-width="1.5"></path><path d="M841.22 677.53L841.22 677.53" stroke="#132e65" stroke-width="1.5"></path><path d="M841.22 677.53L941.56 698.88" stroke="#132e65" stroke-width="1.5"></path><path d="M841.22 677.53L982.75 528.75" stroke="#132e65" stroke-width="1.5"></path><path d="M841.22 677.53L658.84 505.04" stroke="#132e65" stroke-width="1.5"></path><path d="M949.51 -83.03L949.51 -83.03" stroke="#132e65" stroke-width="1.5"></path><path d="M949.51 -83.03L1097.75 -68.63" stroke="#132e65" stroke-width="1.5"></path><path d="M949.51 -83.03L1007.32 74.02" stroke="#132e65" stroke-width="1.5"></path><path d="M949.51 -83.03L1125.22 73.58" stroke="#132e65" stroke-width="1.5"></path><path d="M949.51 -83.03L1257.23 -76.18" stroke="#132e65" stroke-width="1.5"></path><path d="M1007.32 74.02L1007.32 74.02" stroke="#132e65" stroke-width="1.5"></path><path d="M1007.32 74.02L1125.22 73.58" stroke="#132e65" stroke-width="1.5"></path><path d="M1007.32 74.02L1097.75 -68.63" stroke="#132e65" stroke-width="1.5"></path><path d="M982.75 528.75L982.75 528.75" stroke="#132e65" stroke-width="1.5"></path><path d="M982.75 528.75L1089.17 552.7" stroke="#132e65" stroke-width="1.5"></path><path d="M982.75 528.75L941.56 698.88" stroke="#132e65" stroke-width="1.5"></path><path d="M941.56 698.88L941.56 698.88" stroke="#132e65" stroke-width="1.5"></path><path d="M941.56 698.88L1142.77 706.23" stroke="#132e65" stroke-width="1.5"></path><path d="M1097.75 -68.63L1097.75 -68.63" stroke="#132e65" stroke-width="1.5"></path><path d="M1097.75 -68.63L1125.22 73.58" stroke="#132e65" stroke-width="1.5"></path><path d="M1097.75 -68.63L1257.23 -76.18" stroke="#132e65" stroke-width="1.5"></path><path d="M1125.22 73.58L1125.22 73.58" stroke="#132e65" stroke-width="1.5"></path><path d="M1125.22 73.58L1141.88 199.54" stroke="#132e65" stroke-width="1.5"></path><path d="M1125.22 73.58L1278.05 50.4" stroke="#132e65" stroke-width="1.5"></path><path d="M1125.22 73.58L1257.23 -76.18" stroke="#132e65" stroke-width="1.5"></path><path d="M1141.88 199.54L1141.88 199.54" stroke="#132e65" stroke-width="1.5"></path><path d="M1141.88 199.54L1124.01 357.34" stroke="#132e65" stroke-width="1.5"></path><path d="M1141.88 199.54L1007.32 74.02" stroke="#132e65" stroke-width="1.5"></path><path d="M1141.88 199.54L1278.05 50.4" stroke="#132e65" stroke-width="1.5"></path><path d="M1141.88 199.54L1273.56 396.93" stroke="#132e65" stroke-width="1.5"></path><path d="M1141.88 199.54L1388.65 223.56" stroke="#132e65" stroke-width="1.5"></path><path d="M1124.01 357.34L1124.01 357.34" stroke="#132e65" stroke-width="1.5"></path><path d="M1124.01 357.34L1273.56 396.93" stroke="#132e65" stroke-width="1.5"></path><path d="M1124.01 357.34L1089.17 552.7" stroke="#132e65" stroke-width="1.5"></path><path d="M1124.01 357.34L982.75 528.75" stroke="#132e65" stroke-width="1.5"></path><path d="M1124.01 357.34L1267.88 527.23" stroke="#132e65" stroke-width="1.5"></path><path d="M1124.01 357.34L1405.34 367.82" stroke="#132e65" stroke-width="1.5"></path><path d="M1089.17 552.7L1089.17 552.7" stroke="#132e65" stroke-width="1.5"></path><path d="M1089.17 552.7L1142.77 706.23" stroke="#132e65" stroke-width="1.5"></path><path d="M1142.77 706.23L1142.77 706.23" stroke="#132e65" stroke-width="1.5"></path><path d="M1142.77 706.23L1302.45 651.28" stroke="#132e65" stroke-width="1.5"></path><path d="M1142.77 706.23L1267.88 527.23" stroke="#132e65" stroke-width="1.5"></path><path d="M1142.77 706.23L982.75 528.75" stroke="#132e65" stroke-width="1.5"></path><path d="M1142.77 706.23L1403.38 669.78" stroke="#132e65" stroke-width="1.5"></path><path d="M1257.23 -76.18L1257.23 -76.18" stroke="#132e65" stroke-width="1.5"></path><path d="M1257.23 -76.18L1278.05 50.4" stroke="#132e65" stroke-width="1.5"></path><path d="M1257.23 -76.18L1423.11 -71.62" stroke="#132e65" stroke-width="1.5"></path><path d="M1257.23 -76.18L1445.25 66.93" stroke="#132e65" stroke-width="1.5"></path><path d="M1257.23 -76.18L1007.32 74.02" stroke="#132e65" stroke-width="1.5"></path><path d="M1278.05 50.4L1278.05 50.4" stroke="#132e65" stroke-width="1.5"></path><path d="M1278.05 50.4L1445.25 66.93" stroke="#132e65" stroke-width="1.5"></path><path d="M1278.05 50.4L1423.11 -71.62" stroke="#132e65" stroke-width="1.5"></path><path d="M1273.56 396.93L1273.56 396.93" stroke="#132e65" stroke-width="1.5"></path><path d="M1273.56 396.93L1267.88 527.23" stroke="#132e65" stroke-width="1.5"></path><path d="M1273.56 396.93L1405.34 367.82" stroke="#132e65" stroke-width="1.5"></path><path d="M1273.56 396.93L1415.26 538.27" stroke="#132e65" stroke-width="1.5"></path><path d="M1273.56 396.93L1388.65 223.56" stroke="#132e65" stroke-width="1.5"></path><path d="M1267.88 527.23L1267.88 527.23" stroke="#132e65" stroke-width="1.5"></path><path d="M1267.88 527.23L1302.45 651.28" stroke="#132e65" stroke-width="1.5"></path><path d="M1267.88 527.23L1415.26 538.27" stroke="#132e65" stroke-width="1.5"></path><path d="M1267.88 527.23L1089.17 552.7" stroke="#132e65" stroke-width="1.5"></path><path d="M1302.45 651.28L1302.45 651.28" stroke="#132e65" stroke-width="1.5"></path><path d="M1302.45 651.28L1403.38 669.78" stroke="#132e65" stroke-width="1.5"></path><path d="M1302.45 651.28L1415.26 538.27" stroke="#132e65" stroke-width="1.5"></path><path d="M1302.45 651.28L1089.17 552.7" stroke="#132e65" stroke-width="1.5"></path><path d="M1302.45 651.28L1551 679.08" stroke="#132e65" stroke-width="1.5"></path><path d="M1423.11 -71.62L1423.11 -71.62" stroke="#132e65" stroke-width="1.5"></path><path d="M1423.11 -71.62L1445.25 66.93" stroke="#132e65" stroke-width="1.5"></path><path d="M1445.25 66.93L1445.25 66.93" stroke="#132e65" stroke-width="1.5"></path><path d="M1445.25 66.93L1546.28 79.71" stroke="#132e65" stroke-width="1.5"></path><path d="M1445.25 66.93L1388.65 223.56" stroke="#132e65" stroke-width="1.5"></path><path d="M1445.25 66.93L1588.97 -62.65" stroke="#132e65" stroke-width="1.5"></path><path d="M1388.65 223.56L1388.65 223.56" stroke="#132e65" stroke-width="1.5"></path><path d="M1388.65 223.56L1405.34 367.82" stroke="#132e65" stroke-width="1.5"></path><path d="M1405.34 367.82L1405.34 367.82" stroke="#132e65" stroke-width="1.5"></path><path d="M1405.34 367.82L1415.26 538.27" stroke="#132e65" stroke-width="1.5"></path><path d="M1405.34 367.82L1584.38 364.37" stroke="#132e65" stroke-width="1.5"></path><path d="M1405.34 367.82L1267.88 527.23" stroke="#132e65" stroke-width="1.5"></path><path d="M1405.34 367.82L1551.32 527.38" stroke="#132e65" stroke-width="1.5"></path><path d="M1415.26 538.27L1415.26 538.27" stroke="#132e65" stroke-width="1.5"></path><path d="M1415.26 538.27L1403.38 669.78" stroke="#132e65" stroke-width="1.5"></path><path d="M1415.26 538.27L1551.32 527.38" stroke="#132e65" stroke-width="1.5"></path><path d="M1415.26 538.27L1551 679.08" stroke="#132e65" stroke-width="1.5"></path><path d="M1403.38 669.78L1403.38 669.78" stroke="#132e65" stroke-width="1.5"></path><path d="M1588.97 -62.65L1588.97 -62.65" stroke="#132e65" stroke-width="1.5"></path><path d="M1588.97 -62.65L1546.28 79.71" stroke="#132e65" stroke-width="1.5"></path><path d="M1588.97 -62.65L1423.11 -71.62" stroke="#132e65" stroke-width="1.5"></path><path d="M1546.28 79.71L1546.28 79.71" stroke="#132e65" stroke-width="1.5"></path><path d="M1591.19 250.24L1591.19 250.24" stroke="#132e65" stroke-width="1.5"></path><path d="M1591.19 250.24L1584.38 364.37" stroke="#132e65" stroke-width="1.5"></path><path d="M1591.19 250.24L1546.28 79.71" stroke="#132e65" stroke-width="1.5"></path><path d="M1591.19 250.24L1388.65 223.56" stroke="#132e65" stroke-width="1.5"></path><path d="M1591.19 250.24L1405.34 367.82" stroke="#132e65" stroke-width="1.5"></path><path d="M1591.19 250.24L1445.25 66.93" stroke="#132e65" stroke-width="1.5"></path><path d="M1591.19 250.24L1551.32 527.38" stroke="#132e65" stroke-width="1.5"></path><path d="M1584.38 364.37L1584.38 364.37" stroke="#132e65" stroke-width="1.5"></path><path d="M1584.38 364.37L1551.32 527.38" stroke="#132e65" stroke-width="1.5"></path><path d="M1584.38 364.37L1388.65 223.56" stroke="#132e65" stroke-width="1.5"></path><path d="M1584.38 364.37L1415.26 538.27" stroke="#132e65" stroke-width="1.5"></path><path d="M1551.32 527.38L1551.32 527.38" stroke="#132e65" stroke-width="1.5"></path><path d="M1551.32 527.38L1551 679.08" stroke="#132e65" stroke-width="1.5"></path><path d="M1551.32 527.38L1403.38 669.78" stroke="#132e65" stroke-width="1.5"></path><path d="M1551 679.08L1551 679.08" stroke="#132e65" stroke-width="1.5"></path><path d="M1551 679.08L1403.38 669.78" stroke="#132e65" stroke-width="1.5"></path><circle r="5" cx="-55.73" cy="396.49" fill="#132e65"></circle><circle r="5" cx="-60.01" cy="498.16" fill="#132e65"></circle><circle r="5" cx="63.81" cy="375.08" fill="#132e65"></circle><circle r="5" cx="108.68" cy="557.24" fill="#132e65"></circle><circle r="5" cx="48.9" cy="644.42" fill="#132e65"></circle><circle r="5" cx="236.33" cy="496.19" fill="#132e65"></circle><circle r="5" cx="215.07" cy="640.87" fill="#132e65"></circle><circle r="5" cx="357.96" cy="386.15" fill="#132e65"></circle><circle r="5" cx="398.74" cy="509.59" fill="#132e65"></circle><circle r="5" cx="350.48" cy="675.8" fill="#132e65"></circle><circle r="5" cx="520.16" cy="398.23" fill="#132e65"></circle><circle r="5" cx="506.2" cy="548.03" fill="#132e65"></circle><circle r="5" cx="647.77" cy="395.94" fill="#132e65"></circle><circle r="5" cx="658.84" cy="505.04" fill="#132e65"></circle><circle r="5" cx="687.18" cy="641.44" fill="#132e65"></circle><circle r="5" cx="808.7" cy="198.1" fill="#132e65"></circle><circle r="5" cx="826.67" cy="343.5" fill="#132e65"></circle><circle r="5" cx="853.48" cy="488.4" fill="#132e65"></circle><circle r="5" cx="841.22" cy="677.53" fill="#132e65"></circle><circle r="5" cx="949.51" cy="-83.03" fill="#132e65"></circle><circle r="5" cx="1007.32" cy="74.02" fill="#132e65"></circle><circle r="5" cx="982.75" cy="528.75" fill="#132e65"></circle><circle r="5" cx="941.56" cy="698.88" fill="#132e65"></circle><circle r="5" cx="1097.75" cy="-68.63" fill="#132e65"></circle><circle r="5" cx="1125.22" cy="73.58" fill="#132e65"></circle><circle r="5" cx="1141.88" cy="199.54" fill="#132e65"></circle><circle r="5" cx="1124.01" cy="357.34" fill="#132e65"></circle><circle r="5" cx="1089.17" cy="552.7" fill="#132e65"></circle><circle r="5" cx="1142.77" cy="706.23" fill="#132e65"></circle><circle r="5" cx="1257.23" cy="-76.18" fill="#132e65"></circle><circle r="5" cx="1278.05" cy="50.4" fill="#132e65"></circle><circle r="5" cx="1273.56" cy="396.93" fill="#132e65"></circle><circle r="5" cx="1267.88" cy="527.23" fill="#132e65"></circle><circle r="5" cx="1302.45" cy="651.28" fill="#132e65"></circle><circle r="5" cx="1423.11" cy="-71.62" fill="#132e65"></circle><circle r="5" cx="1445.25" cy="66.93" fill="#132e65"></circle><circle r="5" cx="1388.65" cy="223.56" fill="#132e65"></circle><circle r="5" cx="1405.34" cy="367.82" fill="#132e65"></circle><circle r="5" cx="1415.26" cy="538.27" fill="#132e65"></circle><circle r="5" cx="1403.38" cy="669.78" fill="#132e65"></circle><circle r="5" cx="1588.97" cy="-62.65" fill="#132e65"></circle><circle r="5" cx="1546.28" cy="79.71" fill="#132e65"></circle><circle r="5" cx="1591.19" cy="250.24" fill="#132e65"></circle><circle r="5" cx="1584.38" cy="364.37" fill="#132e65"></circle><circle r="5" cx="1551.32" cy="527.38" fill="#132e65"></circle><circle r="5" cx="1551" cy="679.08" fill="#132e65"></circle><path d="M-93.2 549.27L-93.2 549.27" stroke="hsl(228.5, 77.2%, 51.5%)" stroke-width="1.5"></path><path d="M-93.2 549.27L-83.42 639.91" stroke="hsl(228.5, 77.2%, 51.5%)" stroke-width="1.5"></path><path d="M-93.2 549.27L78.23 498.97" stroke="hsl(228.5, 77.2%, 51.5%)" stroke-width="1.5"></path><path d="M-93.2 549.27L45.53 683.64" stroke="hsl(228.5, 77.2%, 51.5%)" stroke-width="1.5"></path><path d="M510.85 696.91L510.85 696.91" stroke="hsl(228.5, 77.2%, 51.5%)" stroke-width="1.5"></path><path d="M510.85 696.91L398.52 677.21" stroke="hsl(228.5, 77.2%, 51.5%)" stroke-width="1.5"></path><path d="M510.85 696.91L505.41 548.85" stroke="hsl(228.5, 77.2%, 51.5%)" stroke-width="1.5"></path><path d="M510.85 696.91L662.55 644.63" stroke="hsl(228.5, 77.2%, 51.5%)" stroke-width="1.5"></path><path d="M510.85 696.91L667.43 548.98" stroke="hsl(228.5, 77.2%, 51.5%)" stroke-width="1.5"></path><path d="M847.97 360.46L847.97 360.46" stroke="hsl(228.5, 77.2%, 51.5%)" stroke-width="1.5"></path><path d="M847.97 360.46L980.27 397.96" stroke="hsl(228.5, 77.2%, 51.5%)" stroke-width="1.5"></path><path d="M847.97 360.46L979.45 238.09" stroke="hsl(228.5, 77.2%, 51.5%)" stroke-width="1.5"></path><path d="M857.94 640L857.94 640" stroke="hsl(228.5, 77.2%, 51.5%)" stroke-width="1.5"></path><path d="M857.94 640L938.44 641.9" stroke="hsl(228.5, 77.2%, 51.5%)" stroke-width="1.5"></path><path d="M857.94 640L815.9 545.91" stroke="hsl(228.5, 77.2%, 51.5%)" stroke-width="1.5"></path><path d="M857.94 640L980.17 560.6" stroke="hsl(228.5, 77.2%, 51.5%)" stroke-width="1.5"></path><path d="M857.94 640L662.55 644.63" stroke="hsl(228.5, 77.2%, 51.5%)" stroke-width="1.5"></path><path d="M857.94 640L667.43 548.98" stroke="hsl(228.5, 77.2%, 51.5%)" stroke-width="1.5"></path><path d="M857.94 640L980.27 397.96" stroke="hsl(228.5, 77.2%, 51.5%)" stroke-width="1.5"></path><path d="M1106.56 409.89L1106.56 409.89" stroke="hsl(228.5, 77.2%, 51.5%)" stroke-width="1.5"></path><path d="M1106.56 409.89L1137.26 521.42" stroke="hsl(228.5, 77.2%, 51.5%)" stroke-width="1.5"></path><path d="M1106.56 409.89L980.27 397.96" stroke="hsl(228.5, 77.2%, 51.5%)" stroke-width="1.5"></path><path d="M1106.56 409.89L1251.13 489.79" stroke="hsl(228.5, 77.2%, 51.5%)" stroke-width="1.5"></path><path d="M1106.56 409.89L1143.55 225.49" stroke="hsl(228.5, 77.2%, 51.5%)" stroke-width="1.5"></path><path d="M1106.56 409.89L980.17 560.6" stroke="hsl(228.5, 77.2%, 51.5%)" stroke-width="1.5"></path><path d="M1106.56 409.89L1305.2 370.17" stroke="hsl(228.5, 77.2%, 51.5%)" stroke-width="1.5"></path><path d="M1585.68 518.64L1585.68 518.64" stroke="hsl(228.5, 77.2%, 51.5%)" stroke-width="1.5"></path><path d="M1585.68 518.64L1578.42 346.49" stroke="hsl(228.5, 77.2%, 51.5%)" stroke-width="1.5"></path><path d="M1585.68 518.64L1402.61 524.53" stroke="hsl(228.5, 77.2%, 51.5%)" stroke-width="1.5"></path><path d="M-83.42 639.91L-83.42 639.91" stroke="hsl(228.5, 77.2%, 51.5%)" stroke-width="1.5"></path><path d="M-83.42 639.91L45.53 683.64" stroke="hsl(228.5, 77.2%, 51.5%)" stroke-width="1.5"></path><path d="M78.23 498.97L78.23 498.97" stroke="hsl(228.5, 77.2%, 51.5%)" stroke-width="1.5"></path><path d="M78.23 498.97L45.53 683.64" stroke="hsl(228.5, 77.2%, 51.5%)" stroke-width="1.5"></path><path d="M78.23 498.97L-83.42 639.91" stroke="hsl(228.5, 77.2%, 51.5%)" stroke-width="1.5"></path><path d="M78.23 498.97L361.68 517.85" stroke="hsl(228.5, 77.2%, 51.5%)" stroke-width="1.5"></path><path d="M78.23 498.97L398.52 677.21" stroke="hsl(228.5, 77.2%, 51.5%)" stroke-width="1.5"></path><path d="M45.53 683.64L45.53 683.64" stroke="hsl(228.5, 77.2%, 51.5%)" stroke-width="1.5"></path><path d="M361.68 517.85L361.68 517.85" stroke="hsl(228.5, 77.2%, 51.5%)" stroke-width="1.5"></path><path d="M361.68 517.85L505.41 548.85" stroke="hsl(228.5, 77.2%, 51.5%)" stroke-width="1.5"></path><path d="M361.68 517.85L398.52 677.21" stroke="hsl(228.5, 77.2%, 51.5%)" stroke-width="1.5"></path><path d="M398.52 677.21L398.52 677.21" stroke="hsl(228.5, 77.2%, 51.5%)" stroke-width="1.5"></path><path d="M398.52 677.21L505.41 548.85" stroke="hsl(228.5, 77.2%, 51.5%)" stroke-width="1.5"></path><path d="M398.52 677.21L662.55 644.63" stroke="hsl(228.5, 77.2%, 51.5%)" stroke-width="1.5"></path><path d="M505.41 548.85L505.41 548.85" stroke="hsl(228.5, 77.2%, 51.5%)" stroke-width="1.5"></path><path d="M505.41 548.85L667.43 548.98" stroke="hsl(228.5, 77.2%, 51.5%)" stroke-width="1.5"></path><path d="M505.41 548.85L662.55 644.63" stroke="hsl(228.5, 77.2%, 51.5%)" stroke-width="1.5"></path><path d="M505.41 548.85L658.35 387.2" stroke="hsl(228.5, 77.2%, 51.5%)" stroke-width="1.5"></path><path d="M658.35 387.2L658.35 387.2" stroke="hsl(228.5, 77.2%, 51.5%)" stroke-width="1.5"></path><path d="M658.35 387.2L667.43 548.98" stroke="hsl(228.5, 77.2%, 51.5%)" stroke-width="1.5"></path><path d="M658.35 387.2L847.97 360.46" stroke="hsl(228.5, 77.2%, 51.5%)" stroke-width="1.5"></path><path d="M667.43 548.98L667.43 548.98" stroke="hsl(228.5, 77.2%, 51.5%)" stroke-width="1.5"></path><path d="M667.43 548.98L662.55 644.63" stroke="hsl(228.5, 77.2%, 51.5%)" stroke-width="1.5"></path><path d="M667.43 548.98L815.9 545.91" stroke="hsl(228.5, 77.2%, 51.5%)" stroke-width="1.5"></path><path d="M662.55 644.63L662.55 644.63" stroke="hsl(228.5, 77.2%, 51.5%)" stroke-width="1.5"></path><path d="M662.55 644.63L815.9 545.91" stroke="hsl(228.5, 77.2%, 51.5%)" stroke-width="1.5"></path><path d="M815.9 545.91L815.9 545.91" stroke="hsl(228.5, 77.2%, 51.5%)" stroke-width="1.5"></path><path d="M815.9 545.91L938.44 641.9" stroke="hsl(228.5, 77.2%, 51.5%)" stroke-width="1.5"></path><path d="M979.45 238.09L979.45 238.09" stroke="hsl(228.5, 77.2%, 51.5%)" stroke-width="1.5"></path><path d="M979.45 238.09L980.27 397.96" stroke="hsl(228.5, 77.2%, 51.5%)" stroke-width="1.5"></path><path d="M979.45 238.09L1143.55 225.49" stroke="hsl(228.5, 77.2%, 51.5%)" stroke-width="1.5"></path><path d="M979.45 238.09L1106.56 409.89" stroke="hsl(228.5, 77.2%, 51.5%)" stroke-width="1.5"></path><path d="M979.45 238.09L1294.69 192.42" stroke="hsl(228.5, 77.2%, 51.5%)" stroke-width="1.5"></path><path d="M980.27 397.96L980.27 397.96" stroke="hsl(228.5, 77.2%, 51.5%)" stroke-width="1.5"></path><path d="M980.17 560.6L980.17 560.6" stroke="hsl(228.5, 77.2%, 51.5%)" stroke-width="1.5"></path><path d="M980.17 560.6L938.44 641.9" stroke="hsl(228.5, 77.2%, 51.5%)" stroke-width="1.5"></path><path d="M980.17 560.6L1137.26 521.42" stroke="hsl(228.5, 77.2%, 51.5%)" stroke-width="1.5"></path><path d="M980.17 560.6L980.27 397.96" stroke="hsl(228.5, 77.2%, 51.5%)" stroke-width="1.5"></path><path d="M980.17 560.6L815.9 545.91" stroke="hsl(228.5, 77.2%, 51.5%)" stroke-width="1.5"></path><path d="M938.44 641.9L938.44 641.9" stroke="hsl(228.5, 77.2%, 51.5%)" stroke-width="1.5"></path><path d="M1143.55 225.49L1143.55 225.49" stroke="hsl(228.5, 77.2%, 51.5%)" stroke-width="1.5"></path><path d="M1143.55 225.49L1294.69 192.42" stroke="hsl(228.5, 77.2%, 51.5%)" stroke-width="1.5"></path><path d="M1143.55 225.49L1272.75 108.44" stroke="hsl(228.5, 77.2%, 51.5%)" stroke-width="1.5"></path><path d="M1137.26 521.42L1137.26 521.42" stroke="hsl(228.5, 77.2%, 51.5%)" stroke-width="1.5"></path><path d="M1137.26 521.42L1251.13 489.79" stroke="hsl(228.5, 77.2%, 51.5%)" stroke-width="1.5"></path><path d="M1137.26 521.42L1132.14 694.17" stroke="hsl(228.5, 77.2%, 51.5%)" stroke-width="1.5"></path><path d="M1137.26 521.42L980.27 397.96" stroke="hsl(228.5, 77.2%, 51.5%)" stroke-width="1.5"></path><path d="M1137.26 521.42L1267.66 679.52" stroke="hsl(228.5, 77.2%, 51.5%)" stroke-width="1.5"></path><path d="M1132.14 694.17L1132.14 694.17" stroke="hsl(228.5, 77.2%, 51.5%)" stroke-width="1.5"></path><path d="M1132.14 694.17L1267.66 679.52" stroke="hsl(228.5, 77.2%, 51.5%)" stroke-width="1.5"></path><path d="M1303.34 -84.59L1303.34 -84.59" stroke="hsl(228.5, 77.2%, 51.5%)" stroke-width="1.5"></path><path d="M1303.34 -84.59L1431.51 -83.2" stroke="hsl(228.5, 77.2%, 51.5%)" stroke-width="1.5"></path><path d="M1303.34 -84.59L1398.85 84.63" stroke="hsl(228.5, 77.2%, 51.5%)" stroke-width="1.5"></path><path d="M1303.34 -84.59L1272.75 108.44" stroke="hsl(228.5, 77.2%, 51.5%)" stroke-width="1.5"></path><path d="M1303.34 -84.59L1559.28 -39.43" stroke="hsl(228.5, 77.2%, 51.5%)" stroke-width="1.5"></path><path d="M1303.34 -84.59L1294.69 192.42" stroke="hsl(228.5, 77.2%, 51.5%)" stroke-width="1.5"></path><path d="M1272.75 108.44L1272.75 108.44" stroke="hsl(228.5, 77.2%, 51.5%)" stroke-width="1.5"></path><path d="M1272.75 108.44L1294.69 192.42" stroke="hsl(228.5, 77.2%, 51.5%)" stroke-width="1.5"></path><path d="M1272.75 108.44L1398.85 84.63" stroke="hsl(228.5, 77.2%, 51.5%)" stroke-width="1.5"></path><path d="M1272.75 108.44L1450.82 259.07" stroke="hsl(228.5, 77.2%, 51.5%)" stroke-width="1.5"></path><path d="M1294.69 192.42L1294.69 192.42" stroke="hsl(228.5, 77.2%, 51.5%)" stroke-width="1.5"></path><path d="M1294.69 192.42L1398.85 84.63" stroke="hsl(228.5, 77.2%, 51.5%)" stroke-width="1.5"></path><path d="M1305.2 370.17L1305.2 370.17" stroke="hsl(228.5, 77.2%, 51.5%)" stroke-width="1.5"></path><path d="M1305.2 370.17L1251.13 489.79" stroke="hsl(228.5, 77.2%, 51.5%)" stroke-width="1.5"></path><path d="M1251.13 489.79L1251.13 489.79" stroke="hsl(228.5, 77.2%, 51.5%)" stroke-width="1.5"></path><path d="M1251.13 489.79L1402.61 524.53" stroke="hsl(228.5, 77.2%, 51.5%)" stroke-width="1.5"></path><path d="M1267.66 679.52L1267.66 679.52" stroke="hsl(228.5, 77.2%, 51.5%)" stroke-width="1.5"></path><path d="M1267.66 679.52L1402.78 702.42" stroke="hsl(228.5, 77.2%, 51.5%)" stroke-width="1.5"></path><path d="M1267.66 679.52L1251.13 489.79" stroke="hsl(228.5, 77.2%, 51.5%)" stroke-width="1.5"></path><path d="M1267.66 679.52L1402.61 524.53" stroke="hsl(228.5, 77.2%, 51.5%)" stroke-width="1.5"></path><path d="M1431.51 -83.2L1431.51 -83.2" stroke="hsl(228.5, 77.2%, 51.5%)" stroke-width="1.5"></path><path d="M1398.85 84.63L1398.85 84.63" stroke="hsl(228.5, 77.2%, 51.5%)" stroke-width="1.5"></path><path d="M1450.82 259.07L1450.82 259.07" stroke="hsl(228.5, 77.2%, 51.5%)" stroke-width="1.5"></path><path d="M1450.82 259.07L1540.22 238.22" stroke="hsl(228.5, 77.2%, 51.5%)" stroke-width="1.5"></path><path d="M1450.82 259.07L1438.98 386.87" stroke="hsl(228.5, 77.2%, 51.5%)" stroke-width="1.5"></path><path d="M1438.98 386.87L1438.98 386.87" stroke="hsl(228.5, 77.2%, 51.5%)" stroke-width="1.5"></path><path d="M1438.98 386.87L1305.2 370.17" stroke="hsl(228.5, 77.2%, 51.5%)" stroke-width="1.5"></path><path d="M1402.61 524.53L1402.61 524.53" stroke="hsl(228.5, 77.2%, 51.5%)" stroke-width="1.5"></path><path d="M1402.61 524.53L1438.98 386.87" stroke="hsl(228.5, 77.2%, 51.5%)" stroke-width="1.5"></path><path d="M1402.78 702.42L1402.78 702.42" stroke="hsl(228.5, 77.2%, 51.5%)" stroke-width="1.5"></path><path d="M1402.78 702.42L1555.98 709.08" stroke="hsl(228.5, 77.2%, 51.5%)" stroke-width="1.5"></path><path d="M1402.78 702.42L1402.61 524.53" stroke="hsl(228.5, 77.2%, 51.5%)" stroke-width="1.5"></path><path d="M1402.78 702.42L1585.68 518.64" stroke="hsl(228.5, 77.2%, 51.5%)" stroke-width="1.5"></path><path d="M1402.78 702.42L1251.13 489.79" stroke="hsl(228.5, 77.2%, 51.5%)" stroke-width="1.5"></path><path d="M1402.78 702.42L1132.14 694.17" stroke="hsl(228.5, 77.2%, 51.5%)" stroke-width="1.5"></path><path d="M1559.28 -39.43L1559.28 -39.43" stroke="hsl(228.5, 77.2%, 51.5%)" stroke-width="1.5"></path><path d="M1559.28 -39.43L1431.51 -83.2" stroke="hsl(228.5, 77.2%, 51.5%)" stroke-width="1.5"></path><path d="M1559.28 -39.43L1583.14 106.92" stroke="hsl(228.5, 77.2%, 51.5%)" stroke-width="1.5"></path><path d="M1559.28 -39.43L1398.85 84.63" stroke="hsl(228.5, 77.2%, 51.5%)" stroke-width="1.5"></path><path d="M1583.14 106.92L1583.14 106.92" stroke="hsl(228.5, 77.2%, 51.5%)" stroke-width="1.5"></path><path d="M1583.14 106.92L1540.22 238.22" stroke="hsl(228.5, 77.2%, 51.5%)" stroke-width="1.5"></path><path d="M1540.22 238.22L1540.22 238.22" stroke="hsl(228.5, 77.2%, 51.5%)" stroke-width="1.5"></path><path d="M1540.22 238.22L1578.42 346.49" stroke="hsl(228.5, 77.2%, 51.5%)" stroke-width="1.5"></path><path d="M1578.42 346.49L1578.42 346.49" stroke="hsl(228.5, 77.2%, 51.5%)" stroke-width="1.5"></path><path d="M1578.42 346.49L1438.98 386.87" stroke="hsl(228.5, 77.2%, 51.5%)" stroke-width="1.5"></path><path d="M1578.42 346.49L1450.82 259.07" stroke="hsl(228.5, 77.2%, 51.5%)" stroke-width="1.5"></path><path d="M1578.42 346.49L1583.14 106.92" stroke="hsl(228.5, 77.2%, 51.5%)" stroke-width="1.5"></path><path d="M1555.98 709.08L1555.98 709.08" stroke="hsl(228.5, 77.2%, 51.5%)" stroke-width="1.5"></path><path d="M1555.98 709.08L1585.68 518.64" stroke="hsl(228.5, 77.2%, 51.5%)" stroke-width="1.5"></path><circle r="25" cx="-93.2" cy="549.27" fill="url(#SvgjsRadialGradient1003)"></circle><circle r="25" cx="510.85" cy="696.91" fill="url(#SvgjsRadialGradient1003)"></circle><circle r="25" cx="847.97" cy="360.46" fill="url(#SvgjsRadialGradient1003)"></circle><circle r="25" cx="857.94" cy="640" fill="url(#SvgjsRadialGradient1003)"></circle><circle r="25" cx="1106.56" cy="409.89" fill="url(#SvgjsRadialGradient1003)"></circle><circle r="25" cx="1585.68" cy="518.64" fill="url(#SvgjsRadialGradient1003)"></circle><circle r="5" cx="-83.42" cy="639.91" fill="#8b9ad9"></circle><circle r="5" cx="78.23" cy="498.97" fill="#8b9ad9"></circle><circle r="5" cx="45.53" cy="683.64" fill="#8b9ad9"></circle><circle r="5" cx="361.68" cy="517.85" fill="#8b9ad9"></circle><circle r="5" cx="398.52" cy="677.21" fill="#8b9ad9"></circle><circle r="5" cx="505.41" cy="548.85" fill="#8b9ad9"></circle><circle r="5" cx="658.35" cy="387.2" fill="#8b9ad9"></circle><circle r="5" cx="667.43" cy="548.98" fill="#8b9ad9"></circle><circle r="5" cx="662.55" cy="644.63" fill="#8b9ad9"></circle><circle r="5" cx="815.9" cy="545.91" fill="#8b9ad9"></circle><circle r="5" cx="979.45" cy="238.09" fill="#8b9ad9"></circle><circle r="5" cx="980.27" cy="397.96" fill="#8b9ad9"></circle><circle r="5" cx="980.17" cy="560.6" fill="#8b9ad9"></circle><circle r="5" cx="938.44" cy="641.9" fill="#8b9ad9"></circle><circle r="5" cx="1143.55" cy="225.49" fill="#8b9ad9"></circle><circle r="5" cx="1137.26" cy="521.42" fill="#8b9ad9"></circle><circle r="5" cx="1132.14" cy="694.17" fill="#8b9ad9"></circle><circle r="5" cx="1303.34" cy="-84.59" fill="#8b9ad9"></circle><circle r="5" cx="1272.75" cy="108.44" fill="#8b9ad9"></circle><circle r="5" cx="1294.69" cy="192.42" fill="#8b9ad9"></circle><circle r="5" cx="1305.2" cy="370.17" fill="#8b9ad9"></circle><circle r="5" cx="1251.13" cy="489.79" fill="#8b9ad9"></circle><circle r="5" cx="1267.66" cy="679.52" fill="#8b9ad9"></circle><circle r="5" cx="1431.51" cy="-83.2" fill="#8b9ad9"></circle><circle r="5" cx="1398.85" cy="84.63" fill="#8b9ad9"></circle><circle r="5" cx="1450.82" cy="259.07" fill="#8b9ad9"></circle><circle r="5" cx="1438.98" cy="386.87" fill="#8b9ad9"></circle><circle r="5" cx="1402.61" cy="524.53" fill="#8b9ad9"></circle><circle r="5" cx="1402.78" cy="702.42" fill="#8b9ad9"></circle><circle r="5" cx="1559.28" cy="-39.43" fill="#8b9ad9"></circle><circle r="5" cx="1583.14" cy="106.92" fill="#8b9ad9"></circle><circle r="5" cx="1540.22" cy="238.22" fill="#8b9ad9"></circle><circle r="5" cx="1578.42" cy="346.49" fill="#8b9ad9"></circle><circle r="5" cx="1555.98" cy="709.08" fill="#8b9ad9"></circle></g><defs><mask id="SvgjsMask1002"><rect width="1440" height="560" fill="#ffffff"></rect></mask><radialGradient id="SvgjsRadialGradient1003"><stop stop-color="#ffffff" offset="0.1"></stop><stop stop-color="#1735b3" offset="0.2"></stop><stop stop-color="rgba(23, 53, 179, 0)" offset="1"></stop></radialGradient></defs></svg>