<svg version="1.2" xmlns="http://www.w3.org/2000/svg" viewBox="0 0 1000 1000" width="1000" height="1000">
	<title>20602851_6333211-ai</title>
	<style>
		.s0 { fill: #fafafa } 
		.s1 { fill: #e0e0e0 } 
		.s2 { fill: #f0f0f0 } 
		.s3 { fill: #e6e6e6 } 
		.s4 { fill: #ba68c8 } 
		.s5 { fill: #455a64 } 
		.s6 { fill: #263238 } 
		.s7 { fill: #37474f } 
		.s8 { fill: #ffffff } 
		.s9 { opacity: .1;fill: #000000 } 
		.s10 { opacity: .5;fill: #ffffff } 
		.s11 { fill: #ebebeb } 
		.s12 { opacity: .5;fill: #37474f } 
		.s13 { fill: #000000 } 
		.s14 { opacity: .2;fill: #000000 } 
		.s15 { opacity: .3;fill: #000000 } 
		.s16 { opacity: .3;fill: #ffffff } 
		.s17 { opacity: .4;fill: #ffffff } 
		.s18 { opacity: .7;fill: #ffffff } 
		.s19 { fill: #f5f5f5 } 
		.s20 { opacity: .8;fill: #ffffff } 
		.s21 { opacity: .6;fill: #ffffff } 
		.s22 { fill: #f28f8f } 
		.s23 { fill: #ffa8a7 } 
		.s24 { opacity: .2;fill: #ffffff } 
		.s25 { fill: #b16668 } 
	</style>
	<g id="Floor">
		<path id="Floor 00000179625644849314774300000015814262264470321310 " class="s0" d="m844.7 500.4c190.3 109.9 190.3 288.1 0 398-190.4 109.9-499 109.9-689.4 0-190.3-109.9-190.3-288.1 0-398 190.4-109.9 499-109.9 689.4 0z"/>
	</g>
	<g id="Shadows">
		<path id="Shadow 00000118397305953867657750000017669217427353575600 " class="s1" d="m227.5 918.3l-193.1-110.3c-2.5-1.4-2.5-3.8 0-5.3l554-319.9c2.6-1.4 6.7-1.4 9.2 0l193.2 110.4c2.5 1.4 2.5 3.8 0 5.3l-554.1 319.8c-2.5 1.5-6.6 1.5-9.2 0z"/>
		<path id="Shadow 00000007410957984957790360000012950394606764267690 " class="s1" d="m137.3 860c19.8 11.6 19.8 30.5 0 42.1-19.9 11.6-52.2 11.6-72.1 0-19.9-11.6-19.9-30.5 0-42.1 19.9-11.6 52.2-11.6 72.1 0z"/>
		<path id="Shadow 00000023995369099770995190000000710823276395126945 " class="s1" d="m423.7 961.2l-85.8-49.5c-4.1-2.3-4.1-6.2 0-8.5l243.2-140.5c4.1-2.4 10.8-2.4 14.9 0l85.7 49.5c4.1 2.4 4.1 6.2 0 8.6l-243.2 140.4c-4.1 2.4-10.7 2.4-14.8 0z"/>
		<path id="Shadow 29 " class="s1" d="m938.8 635.6c41.4 23.9 41.4 62.6 0 86.4-41.3 23.9-108.3 23.9-149.6 0-41.3-23.8-41.3-62.5 0-86.4 41.3-23.8 108.3-23.8 149.6 0z"/>
	</g>
	<g id="Check Mark">
		<g id="Check Mark 00000074431934071647444260000008825636023988711312 ">
			<g id="&lt;Group&gt;">
				<path id="&lt;Path&gt;" class="s2" d="m349.6 902.3v-3.4c0-3 2.1-6.7 4.7-8.2l232.6-134.1c2.6-1.5 6.9-1.5 9.5 0l73.3 42.1c2.6 1.6 4.7 5.2 4.7 8.3l0.1 3.4c0 3-2.1 6.7-4.8 8.2l-232.7 134.2c-2.6 1.5-6.9 1.5-9.5 0l-73.1-42.3c-2.6-1.5-4.8-5.2-4.8-8.2z"/>
				<g id="&lt;Group&gt;">
					<path id="&lt;Path&gt;" class="s0" d="m587.2 756.4c3.6-2.1 7.4-0.8 11 1.3l69.6 40c3.7 2.1 3.7 5.5 0 7.6l-229.1 132.1c-4 2.3-9 2.3-13.1 0l-69.7-40.1c-2.9-1.7-2.9-5.9 0-7.6z"/>
				</g>
				<path id="&lt;Compound Path&gt;" fill-rule="evenodd" class="s1" d="m355.9 889.7l231.3-133.3c3.6-2.1 7.4-0.8 11 1.3l69.6 40c1.1 0.6 1.8 1.3 2.3 2.1 1.1 1.9 0.3 4-2.3 5.5l-229.1 132.1c-4 2.3-9 2.3-13.1 0l-69.7-40.1c-0.7-0.4-1.2-0.9-1.6-1.6-1.1-2-0.6-4.7 1.6-6zm1 6l69.6 40.1c3.5 2 7.8 2 11.3 0l229.1-132.1c0.8-0.4 2.4-1.6 1.6-3-0.3-0.5-0.8-1-1.6-1.4l-69.6-40.1c-3.9-2.2-6.7-2.6-9.2-1.2l-231.2 133.3c-1.4 0.8-1.6 2.4-1 3.5q0.4 0.6 1 0.9z"/>
				<path id="&lt;Path&gt;" class="s3" d="m354.3 890.7l1.6-1c-2.9 1.7-2.9 5.9 0.1 7.6l69.6 40.1c2.1 1.1 4.3 1.7 6.6 1.7q0 0 0.1 0v14.8c-1.7 0-3.5-0.3-4.8-1.1l-73.1-42.3c-2.7-1.5-4.8-5.2-4.8-8.2v-3.4c0-3 2.1-6.7 4.7-8.2z"/>
			</g>
			<g id="&lt;Group&gt;">
				<path id="&lt;Path&gt;" class="s4" d="m441.1 906.5l-22.4 1v-7.2l14.1-0.5-1.4-30.4 7.9-0.3z"/>
				<path id="&lt;Compound Path&gt;" fill-rule="evenodd" class="s4" d="m491.5 891.5l-57.9 33.5-58-33.5 58-33.4zm-112.2 0l54.2 31.3 54.2-31.3-54.2-31.3z"/>
			</g>
			<g id="&lt;Group&gt;">
				<path id="&lt;Path&gt;" class="s1" d="m594.2 773.8l3.8 2.1c0.5 0.4 0.4 0.9-0.3 1.4l-138.4 79.7c-0.7 0.5-1.7 0.5-2.2 0.2l-1.4-0.8-2.4-1.3c-0.5-0.3-0.4-0.9 0.3-1.3l138.3-79.8c0.7-0.4 1.8-0.5 2.3-0.2z"/>
				<path id="&lt;Path&gt;" class="s1" d="m606.9 781.1l3.8 2.1c0.5 0.4 0.4 0.9-0.4 1.4l-138.3 79.7c-0.7 0.5-1.7 0.5-2.2 0.2l-1.4-0.8-2.4-1.3c-0.6-0.3-0.4-0.9 0.3-1.3l138.3-79.8c0.7-0.4 1.8-0.5 2.3-0.2z"/>
				<path id="&lt;Path&gt;" class="s1" d="m619.6 788.4l3.8 2.1c0.5 0.4 0.4 0.9-0.4 1.4l-138.3 79.7c-0.7 0.5-1.7 0.5-2.2 0.2l-1.5-0.8-2.3-1.3c-0.6-0.3-0.4-0.9 0.3-1.3l138.3-79.8c0.7-0.4 1.8-0.5 2.3-0.2z"/>
				<path id="&lt;Path&gt;" class="s1" d="m632.3 795.7l3.8 2.1c0.5 0.4 0.4 0.9-0.4 1.4l-138.3 79.7c-0.7 0.5-1.7 0.5-2.3 0.2l-1.4-0.7-2.3-1.4c-0.6-0.3-0.4-0.9 0.3-1.3l138.3-79.8c0.7-0.4 1.7-0.5 2.3-0.2z"/>
			</g>
		</g>
	</g>
	<g id="Lock">
		<path id="Lock" fill-rule="evenodd" class="s1" d="m739.5 718.9l45.4 26.2c1.8 1 2.8 2.5 2.9 4 0.2 1.5-0.6 3.1-2.3 4.6-17.6 15.2-40.5 28.5-66.9 38.6-5.1 2-11.3 1.8-15-0.3l-45.3-26.2c-4.4-2.6-3.9-7 1.2-10l5.8-3.3-16.4-9.5c-12.2-7.1-10.7-19.4 3.4-27.6 14.1-8.1 35.5-9 47.7-1.9l16.5 9.5 5.8-3.4c5.1-2.9 12.8-3.3 17.2-0.7zm-11.6 34c1.3-2.5 0.5-5.2-2.6-7-4.9-2.8-13.4-2.5-19 0.8-5.5 3.2-6.1 8.1-1.3 10.9 3.2 1.8 7.8 2.2 12.3 1.5l12.9 10.7 16.3-9.4zm-38.4-33.4c-7.2-4.2-19.8-3.7-28.1 1.1-8.3 4.8-9.2 12.1-2 16.3l16.4 9.5 30.2-17.4z"/>
	</g>
	<g id="Device">
		<g id="Device 00000052082049837312071530000010195923117846342032 ">
			<g id="Case 00000035520528741655163070000010619836650578753439 ">
				<g id="&lt;Group&gt;">
					<path id="&lt;Path&gt;" class="s5" d="m732.4 581.8l-528.4 305.1-137-79.3c-3.3-1.9-5.3-7.1-3.6-10.9 0 0 69.8-147.2 78.4-164 8.7-16.7 11.7-24.4 21.4-30l505.2-291.3c9.7-5.6 18.7-0.4 13.7 9.8-5 10.2-80.8 173.1-80.8 173.1l-10.1 5.8z"/>
					<path id="&lt;Path&gt;" class="s6" d="m169.5 606.8l505.2-291.3c9.7-5.6 19.1-0.8 13.7 9.8-5.3 10.5-80.7 165.3-80.7 165.3l-538.6 311c0 0 72.5-152.1 79.1-164.8 6.5-12.7 11.6-24.4 21.3-30z"/>
					<path id="&lt;Path&gt;" class="s7" d="m736.4 576.8l-528.4 305-138.9-80.2 528.4-305.1z"/>
				</g>
				<path id="&lt;Path&gt;" class="s4" d="m680 137.7l60 421.1c2 13.8-5.5 30.2-16.7 36.6l-504.5 291.2c-11.2 6.4-22.1-1.6-24.1-15.4l-60.2-422.7c-2-13.8 1.5-24.2 12.6-30.7l509.1-293.3c11.2-6.5 21.8-0.6 23.8 13.2z"/>
			</g>
			<g id="Tablet 00000085213489888910560280000014979617683061136556 ">
				<g id="&lt;Group&gt;">
					<path id="&lt;Path&gt;" class="s7" d="m690.5 133.4c-4-1.5-8.8-1.1-13.7 1.7l-504.6 291.2c-5.3 3.1-9.8 8.5-12.9 14.8l-16.2-6.9c3.5-7.8 9.8-10.7 15.1-13.8l504.6-291.2c5.1-2.9 10.1-3.3 14.2-1.4v-0.1z"/>
				</g>
				<g id="&lt;Group&gt;">
					<path id="&lt;Path&gt;" class="s6" d="m211.1 890.8c-5-2-8.8-7.2-9.8-14.8l-59.7-419c-1.3-8.6-1.7-16.3 1.5-22.8l16.2 6.9q-0.6 1.4-1.2 2.8-0.4 1.1-0.8 2.2 0 0.2-0.1 0.4-0.4 1.3-0.7 2.6-0.4 1.4-0.6 2.8-0.2 1-0.3 2.1c-0.4 3-0.4 6 0 8.9l60 421.1c1.1 7.7 4.9 12.9 9.9 14.9z"/>
				</g>
				<g id="&lt;Group&gt;">
					<path id="&lt;Path&gt;" class="s5" d="m700.6 148.4l60 421.1c1.9 13.8-5.5 30.2-16.7 36.6l-504.5 291.2c-11.2 6.4-21.8 0.5-23.8-13.2l-60.6-424.9c-1.9-13.8 1.6-24.2 12.7-30.7l509.1-293.3c11.1-6.5 21.8-0.6 23.8 13.2z"/>
				</g>
				<g id="&lt;Group&gt;">
					<path id="&lt;Path&gt;" class="s7" d="m712.9 604.2l-450.3 259.9c-5.8 3.3-11.3 0.2-12.4-6.9l-59.4-416.8c-1-7.1 2.9-15.6 8.7-18.9l450.3-259.9c5.8-3.4 11.3-0.3 12.4 6.8l59.4 416.8c1 7.1-2.9 15.6-8.7 19z"/>
					<path id="&lt;Path&gt;" class="s6" d="m719.3 597.2c-1.6 2.9-3.8 5.5-6.4 7l-450.3 259.9c-5.6 3.2-10.9 0.5-12.2-6.1l450.4-259.9c2.8-1.6 5.1-4.4 6.7-7.7z"/>
					<path id="&lt;Path&gt;" class="s0" d="m199.5 421.5l450.3-259.9 59.6 417.6c1 7.1-2.8 15.6-8.6 18.9l-450.4 259.9q-0.1-0.4-0.2-0.8l-59.4-416.8c-1-7.1 2.9-15.6 8.7-18.9z"/>
				</g>
				<g id="&lt;Group&gt;">
					<path id="&lt;Path&gt;" class="s6" d="m213.8 698.5c0.5 3.6-1.4 7.8-4.3 9.5-2.9 1.7-5.7 0.2-6.2-3.4-0.5-3.6 1.4-7.9 4.3-9.5 2.9-1.7 5.7-0.2 6.2 3.4z"/>
					<path id="&lt;Path&gt;" class="s6" d="m198.9 603.6l9.9 68.6c0.4 2.8-1.1 6.1-3.4 7.4-2.3 1.3-4.4 0.1-4.8-2.7l-9.9-68.6c-0.4-2.8 1.2-6.1 3.4-7.4 2.3-1.3 4.4-0.1 4.8 2.7z"/>
				</g>
			</g>
		</g>
		<g id="Window 00000169526162212740584580000011652375141104075926 ">
			<g id="Window 00000068637809214072597050000010411423553080470186 ">
				<g id="&lt;Group&gt;">
					<path id="&lt;Path&gt;" class="s0" d="m280.8 854.2q-0.4 0-0.9-0.1-0.4 0-0.6-0.1-0.3-0.1-0.5-0.2l-0.4-0.2c-2-0.8-3.3-2.3-3.5-4l-0.3-1.8c-0.2-1.3-0.3-2.3-0.4-2.9l-56.4-393.7c-1.4-9.5 2.5-15.4 6.5-17.8l438.4-252.4q2-1.1 3.8-1.1 0.8 0 1.6 0.3 0.4 0.1 0.7 0.2c0.2 0.2 0.4 0.3 0.5 0.4l0.1 0.2h0.2l0.2 0.3 0.1 0.1 0.1 0.1q0.3 0.3 0.5 0.7 0.1 0.2 0.2 0.3l-0.1 0.1 0.3 0.6c0.1 0.1 0.1 0.2 0.2 0.5q0.1 0.4 0.2 0.9l57.6 402.6c0.7 4.9-2.5 11-7.1 13.7l-429.3 247.4-9 5.1c-0.9 0.5-1.7 0.8-2.5 0.8z"/>
					<path id="&lt;Compound Path&gt;" fill-rule="evenodd" class="s4" d="m668.5 178.9q0.5 0.2 0.9 0.4 0.1 0.1 0.1 0.1c0.3 0.1 0.5 0.3 0.7 0.5 0.2 0.1 0.2 0.2 0.4 0.3 0.1 0.1 0.2 0.2 0.3 0.4q0.5 0.5 0.8 1.1c0.1 0.2 0.2 0.4 0.3 0.7 0 0.1 0.1 0.1 0.1 0.2 0.1 0.2 0.2 0.5 0.2 0.7q0.2 0.5 0.2 1.1l57.7 402.6c0.8 5.4-2.7 12.1-7.8 15l-429.3 247.4-8.7 5q0 0 0 0l-0.3 0.2c-1 0.6-2.1 0.9-3.1 0.9q-0.1 0-0.2 0-0.5 0-1.1-0.1-0.4 0-0.9-0.2-0.3-0.1-0.5-0.2-0.2-0.1-0.5-0.2c-2.2-0.9-3.9-2.7-4.2-5l-0.3-1.8c0 0-0.4-2.9-0.4-2.9 0 0 0 0.3 0.1 1.1l-56.5-394.8c-1.3-9.4 2.1-16.2 7.2-19.1l438.3-252.4c1.6-0.9 3.1-1.3 4.5-1.3q1.1 0 2 0.3zm-5.2 3.3l-438.3 252.4c-3.7 2.1-7.2 7.5-5.9 16.4l56.5 394.5q0.1 0.9 0.3 2.1l0.3 1.9c0.1 1.2 1.1 2.2 2.6 2.8l0.1 0.1h0.1l0.1 0.1 0.3 0.1q0.1 0.1 0.3 0.1 0.1 0.1 0.4 0.1 0.4 0.1 0.7 0.1h0.2c0.5 0 1.2-0.2 1.8-0.6l0.2-0.1 0.2-0.1 0.1-0.1 8.5-4.9 429.3-247.3c4.2-2.4 7.1-8.1 6.5-12.4l-57.6-402.6q-0.1-0.5-0.2-0.8 0-0.1-0.1-0.2v-0.1l-0.1-0.1v-0.1l-0.5-0.8 0.1-0.1q-0.1-0.1-0.2-0.2l-0.2-0.2v-0.1h-0.1v-0.1l-0.3-0.2c0-0.1-0.1-0.1-0.2-0.2h-0.1l-0.1-0.1q-0.1 0-0.3-0.1-0.6-0.2-1.2-0.2c-1 0-2.1 0.3-3.2 1zm-390.3 664q0.1 0.1 0.1 0.3z"/>
				</g>
				<g id="&lt;Group&gt;">
					<g id="&lt;Group&gt;">
						<path id="&lt;Path&gt;" class="s4" d="m668.5 178.9c-1.9-0.6-4.1-0.3-6.5 1l-438.3 252.4c-5.1 2.9-8.5 9.7-7.8 15l2.4 16.4-13.5-5.8-2.3-16.2c-0.8-5.4 2.7-12.1 7.7-15l438.4-252.4c2.6-1.5 5.1-1.6 7-0.8 1.9 0.9 10.7 4.6 12.9 5.4z"/>
					</g>
					<path id="&lt;Path&gt;" class="s4" d="m674.9 200.8l-456.6 262.9-2.4-16.4c-0.7-5.4 2.7-12.1 7.8-15l438.3-252.4c5-2.9 9.7-0.9 10.5 4.4z"/>
					<g id="&lt;Group&gt;" style="opacity: .2">
						<path id="&lt;Path&gt;" class="s8" d="m662 179.9l-438.3 252.4c-2.5 1.5-4.7 3.9-6.1 6.6l-13.3-5.7c1.4-2.7 3.5-5.1 5.9-6.5l438.4-252.4c2.6-1.5 5.1-1.6 7-0.8 1.9 0.9 10.7 4.5 12.9 5.4-1.9-0.6-4.1-0.3-6.5 1z"/>
					</g>
					<path id="&lt;Path&gt;" class="s9" d="m204.8 457.9l-2.3-16.2c-0.4-2.7 0.3-5.8 1.8-8.5l13.4 5.6c-1.5 2.8-2.2 5.8-1.8 8.5l2.4 16.4z"/>
				</g>
				<g id="&lt;Group&gt;">
					<path id="&lt;Path&gt;" class="s0" d="m637.2 208.4c0.4 2.6-1 5.8-3.2 7-2.1 1.3-4.2 0.1-4.5-2.5-0.4-2.6 1-5.8 3.2-7 2.1-1.3 4.1-0.1 4.5 2.5z"/>
					<path id="&lt;Path&gt;" class="s0" d="m651.2 200.3c0.4 2.7-1.1 5.8-3.2 7.1-2.2 1.2-4.2 0.1-4.6-2.6-0.4-2.6 1.1-5.8 3.2-7 2.2-1.2 4.2-0.1 4.6 2.5z"/>
					<path id="&lt;Path&gt;" class="s0" d="m665.1 192.3c0.4 2.6-1 5.7-3.2 7-2.1 1.2-4.1 0.1-4.5-2.6-0.4-2.6 1-5.7 3.2-7 2.1-1.2 4.2-0.1 4.5 2.6z"/>
				</g>
				<path id="&lt;Path&gt;" class="s4" d="m277.9 854.8l-0.6-0.2-11.1-4.8c-3-1.2-5.3-3.6-6.1-6.3q-0.2-0.6-0.3-1.2l-55-384.4 13.5 5.8 55.2 386.1c0.3 2.1 1.8 3.8 3.8 4.7 0.1 0.1 0.6 0.3 0.6 0.3z"/>
				<path id="&lt;Path&gt;" class="s10" d="m277.9 854.8l-0.6-0.2-11.1-4.8c-3-1.2-5.3-3.6-6.1-6.3q-0.2-0.6-0.3-1.2l-55-384.4 13.5 5.8 55.2 386.1c0.3 2.1 1.8 3.8 3.8 4.7 0.1 0.1 0.6 0.3 0.6 0.3z"/>
			</g>
			<g id="&lt;Group&gt;">
				<g id="&lt;Group&gt;">
					<g id="&lt;Group&gt;">
						<path id="&lt;Path&gt;" class="s1" d="m456.5 385.6l-200.6 115.8-5-34.5 200.6-115.8z"/>
					</g>
					<g id="&lt;Group&gt;">
						<path id="&lt;Path&gt;" class="s1" d="m250.9 529.8c-0.8 0-1.5-0.4-2-1.1-0.6-1.1-0.2-2.5 0.9-3.1l413.3-238.7c1.1-0.6 2.5-0.2 3.1 0.9 0.7 1.1 0.3 2.5-0.8 3.1l-413.3 238.6q-0.6 0.3-1.2 0.3z"/>
					</g>
					<path id="&lt;Path&gt;" class="s1" d="m351.6 503.3l-79 45.6c-2.9 1.7-5.6 0.2-6.1-3.4l-0.2-0.9c-0.5-3.6 1.4-7.8 4.3-9.5l79-45.5c2.9-1.7 5.6-0.2 6.1 3.4l0.1 0.9c0.6 3.6-1.4 7.8-4.2 9.4z"/>
					<path id="&lt;Path&gt;" class="s1" d="m501.5 416.8l-78.9 45.5c-2.9 1.7-5.6 0.2-6.1-3.4l-0.2-0.9c-0.5-3.6 1.4-7.8 4.3-9.5l79-45.5c2.8-1.7 5.6-0.2 6.1 3.4l0.1 0.9c0.5 3.6-1.4 7.8-4.3 9.5z"/>
					<path id="&lt;Path&gt;" class="s1" d="m651.5 330.2l-78.9 45.5c-2.9 1.7-5.7 0.2-6.2-3.4l-0.1-0.9c-0.5-3.6 1.4-7.8 4.3-9.5l78.9-45.5c2.9-1.7 5.7-0.2 6.2 3.4l0.1 0.9c0.5 3.6-1.4 7.8-4.3 9.5z"/>
					<g id="&lt;Group&gt;">
						<path id="&lt;Path&gt;" class="s1" d="m477.6 605.7l-190.3 109.9-18.3-127.8 190.3-109.8z"/>
						<g id="&lt;Group&gt;">
							<path id="&lt;Path&gt;" class="s0" d="m400.2 585.2l-31.8 50.3c-2.2 3.6-7.7 2.4-8.3-1.8l-8.4-59c-0.5-3.1 2.3-5.7 5.4-5.1l40.2 8.8c3.1 0.7 4.5 4.2 2.9 6.8z"/>
						</g>
						<path id="&lt;Path&gt;" class="s1" d="m583.7 422l-99.6 57.5c-3 1.7-5.9 0.1-6.5-3.6l-0.1-1c-0.6-3.8 1.5-8.3 4.5-10l99.6-57.5c3.1-1.8 6-0.2 6.5 3.6l0.2 1c0.5 3.7-1.5 8.2-4.6 10z"/>
						<g id="&lt;Group&gt;">
							<path id="&lt;Path&gt;" class="s1" d="m481 501.5c-0.8 0-1.6-0.4-2-1.1-0.6-1.1-0.3-2.5 0.8-3.1l188.4-108.8c1.1-0.6 2.5-0.2 3.1 0.8 0.6 1.1 0.3 2.5-0.8 3.2l-188.4 108.7q-0.5 0.3-1.1 0.3z"/>
						</g>
						<g id="&lt;Group&gt;">
							<path id="&lt;Path&gt;" class="s1" d="m483.6 519.8c-0.8 0-1.6-0.4-2-1.1-0.6-1.1-0.2-2.5 0.9-3.1l188.3-108.8c1.1-0.6 2.5-0.2 3.1 0.9 0.7 1.1 0.3 2.5-0.8 3.1l-188.4 108.7q-0.5 0.3-1.1 0.3z"/>
						</g>
						<g id="&lt;Group&gt;">
							<path id="&lt;Path&gt;" class="s1" d="m486.2 538.2c-0.8 0-1.5-0.4-2-1.2-0.6-1.1-0.2-2.5 0.9-3.1l128.9-74.4c1.1-0.6 2.5-0.3 3.1 0.8 0.6 1.1 0.2 2.5-0.8 3.2l-128.9 74.4q-0.6 0.3-1.2 0.3z"/>
						</g>
						<g id="&lt;Group&gt;">
							<path id="&lt;Path&gt;" class="s1" d="m488.8 556.5c-0.7 0-1.5-0.4-1.9-1.1-0.7-1.1-0.3-2.5 0.8-3.2l188.3-108.7c1.1-0.6 2.5-0.2 3.2 0.8 0.6 1.1 0.2 2.5-0.9 3.2l-188.3 108.7q-0.6 0.3-1.2 0.3z"/>
						</g>
						<g id="&lt;Group&gt;">
							<path id="&lt;Path&gt;" class="s1" d="m491.5 574.8c-0.8 0-1.6-0.4-2-1.1-0.6-1.1-0.3-2.5 0.8-3.1l188.4-108.8c1.1-0.6 2.5-0.2 3.1 0.9 0.6 1.1 0.3 2.5-0.8 3.1l-188.4 108.7q-0.5 0.3-1.1 0.3z"/>
						</g>
						<g id="&lt;Group&gt;">
							<path id="&lt;Path&gt;" class="s1" d="m494.1 593.2c-0.8 0-1.6-0.4-2-1.2-0.6-1.1-0.2-2.5 0.8-3.1l79.4-45.8c1.1-0.6 2.5-0.3 3.1 0.8 0.7 1.1 0.3 2.5-0.8 3.2l-79.4 45.8q-0.5 0.3-1.1 0.3z"/>
						</g>
					</g>
					<g id="&lt;Group&gt;">
						<path id="&lt;Path&gt;" class="s1" d="m305 839.5l-11-77.4 190.2-109.9 11.1 77.4z"/>
						<path id="&lt;Path&gt;" class="s0" d="m414.4 776.3l-31.3 18.1-6.5-45.5c-0.4-3.1 2.4-5.7 5.4-5.1l40.2 8.8c3.1 0.7 4.6 4.2 2.9 6.8z"/>
						<path id="&lt;Path&gt;" class="s1" d="m608.7 596.2l-99.6 57.5c-3.1 1.8-6 0.1-6.5-3.6l-0.2-1c-0.5-3.8 1.5-8.3 4.6-10l99.6-57.5c3-1.8 5.9-0.2 6.5 3.6l0.1 1c0.5 3.8-1.5 8.2-4.5 10z"/>
						<g id="&lt;Group&gt;">
							<path id="&lt;Path&gt;" class="s1" d="m505.9 675.7c-0.8 0-1.5-0.4-2-1.1-0.6-1.1-0.2-2.5 0.9-3.1l188.3-108.8c1.1-0.6 2.5-0.2 3.1 0.9 0.7 1 0.3 2.4-0.8 3.1l-188.3 108.7q-0.6 0.3-1.2 0.3z"/>
						</g>
						<g id="&lt;Group&gt;">
							<path id="&lt;Path&gt;" class="s1" d="m508.5 694.1c-0.8 0-1.5-0.5-1.9-1.2-0.7-1.1-0.3-2.5 0.8-3.1l188.3-108.8c1.1-0.6 2.5-0.2 3.2 0.9 0.6 1.1 0.2 2.5-0.9 3.1l-188.3 108.8q-0.6 0.3-1.2 0.3z"/>
						</g>
						<g id="&lt;Group&gt;">
							<path id="&lt;Path&gt;" class="s1" d="m511.2 712.4c-0.8 0-1.6-0.4-2-1.2-0.6-1-0.3-2.4 0.8-3.1l128.9-74.4c1.1-0.6 2.5-0.2 3.1 0.8 0.7 1.1 0.3 2.5-0.8 3.2l-128.9 74.4q-0.5 0.3-1.1 0.3z"/>
						</g>
					</g>
				</g>
				<g id="&lt;Group&gt;">
					<path id="&lt;Path&gt;" class="s1" d="m516 314.5c-0.8 0-1.5-0.5-1.9-1.2-0.7-1.1-0.3-2.5 0.8-3.1l118.2-68.3c1.1-0.6 2.5-0.2 3.2 0.9 0.6 1.1 0.2 2.5-0.9 3.1l-118.2 68.2q-0.6 0.4-1.2 0.4z"/>
				</g>
				<g id="&lt;Group&gt;">
					<path id="&lt;Path&gt;" class="s1" d="m518.7 332.8c-0.8 0-1.6-0.4-2-1.2-0.7-1-0.3-2.4 0.8-3.1l118.3-68.2c1.1-0.7 2.5-0.3 3.1 0.8 0.6 1.1 0.2 2.5-0.9 3.1l-118.2 68.3q-0.5 0.3-1.1 0.3z"/>
				</g>
				<g id="&lt;Group&gt;">
					<path id="&lt;Path&gt;" class="s1" d="m521.3 351.1c-0.8 0-1.6-0.4-2-1.1-0.6-1.1-0.3-2.5 0.8-3.1l118.3-68.3c1.1-0.6 2.5-0.3 3.1 0.8 0.6 1.1 0.2 2.5-0.8 3.2l-118.3 68.2q-0.5 0.3-1.1 0.3z"/>
				</g>
			</g>
		</g>
	</g>
	<g id="Tab">
		<g id="Tab">
			<g id="Screen">
				<g id="&lt;Group&gt;">
					<g id="&lt;Group&gt;">
						<path id="&lt;Path&gt;" class="s11" d="m253.2 486.3q0.2-0.5 0.4-0.9-0.2 0.4-0.4 0.9z"/>
						<path id="&lt;Path&gt;" class="s12" d="m663.7 250.6c-0.5-1-1.4-1.5-2.4-1.5-0.6 0.1-1.3 0.3-2 0.7l-403 232.6c-1.1 0.6-2 1.7-2.7 3l-14.1-6.1c0.6-1.2 1.5-2.2 2.6-2.8l403-232.6c2.3-1.4 6.2-1.5 8.8-0.4l4.8 1.9c2.2 0.9 4.3 3.1 5 5.2z"/>
					</g>
					<g id="&lt;Group&gt;" style="opacity: .9">
						<path id="&lt;Path&gt;" class="s6" d="m304.1 815.8c-2.2 1.3-6.5 1.5-8.9 0.4l-4.8-2.1c-2.6-1.1-5-3.9-5.4-6.4l-46.4-324.4c-0.2-1.3 0.2-2.7 0.9-4l14.1 6.1c-0.6 1.2-0.9 2.5-0.7 3.7l46.4 324.7c0.4 2.2 2.3 3.4 4.8 2z"/>
					</g>
				</g>
				<g id="&lt;Group&gt;" style="opacity: .9">
					<path id="&lt;Compound Path&gt;" class="s7" d="m664.1 251.8l46.4 324.6c0.4 2.5-1.2 5.5-3.4 6.8l-403 232.6q-1 0.6-1.9 0.6c-1.5 0.1-2.6-0.9-2.9-2.6l-46.4-324.7c-0.4-2.4 1.2-5.4 3.4-6.7l403-232.6q1-0.6 1.9-0.6c1.5-0.1 2.6 0.9 2.9 2.6z"/>
				</g>
				<g id="&lt;Group&gt;">
					<path id="&lt;Compound Path&gt;" fill-rule="evenodd" class="s5" d="m664.1 251.8l46.4 324.6c0.4 2.5-1.2 5.5-3.4 6.8l-403 232.6q-1 0.6-1.9 0.6c-1.5 0.1-2.6-0.9-2.9-2.6l-46.4-324.7c-0.4-2.4 1.2-5.4 3.4-6.7l403-232.6q1-0.6 1.9-0.6c1.5-0.1 2.6 0.9 2.9 2.6zm-405.9 232.9c-1.3 0.7-2.4 2.9-2.2 4.3l46.4 324.4 402.8-232.5c1.3-0.8 2.4-2.9 2.2-4.3l-46.4-324.4z"/>
				</g>
			</g>
			<g id="&lt;Group&gt;">
				<g id="&lt;Group&gt;">
					<path id="&lt;Compound Path&gt;" class="s0" d="m397.3 443.6q2.6-1.5 5-1.9 2.3-0.3 4.1 0.2 1.8 0.6 2.9 1.8 1.2 1.3 1.5 2.9 0 0.4-0.2 0.9-0.2 0.5-0.5 0.7l-5.4 3.1q-0.6 0.3-0.9 0.3-0.4 0-0.8-0.2-0.2-0.1-0.5-0.3-0.3-0.2-0.9-0.3-0.5-0.1-1.3 0.1-0.8 0.1-1.8 0.7-0.8 0.5-1.5 1-0.7 0.6-1.2 1.2-0.5 0.6-0.8 1.3-0.3 0.7-0.2 1.4 0.1 0.8 0.6 1.1 0.5 0.2 1.4 0.1 1-0.1 2.6-0.5 1.6-0.5 3.9-1.3 2.3-0.7 4.1-0.8 1.8-0.1 3.1 0.5 1.3 0.6 2.1 2.1 0.8 1.4 1.2 3.7 0.4 2.6-0.3 5.2-0.7 2.5-2.1 5-1.5 2.4-3.7 4.5-2.2 2-5 3.6-2.8 1.6-5.2 2.1-2.4 0.4-4.3-0.2-1.8-0.5-3.1-1.8-1.2-1.3-1.5-3.2 0-0.5 0.2-1 0.2-0.4 0.5-0.6l5.4-3.1q0.6-0.4 0.9-0.4 0.4 0 0.7 0.2 0.2 0.1 0.6 0.4 0.4 0.2 1 0.4 0.7 0.1 1.5 0 0.9-0.1 2.2-0.8 2.1-1.3 3.5-2.7 1.4-1.4 1.2-2.9-0.2-0.8-0.8-1-0.6-0.2-1.7 0-1.1 0.2-2.8 0.7-1.7 0.6-4.1 1.3-4.4 1.3-6.7-0.2-2.3-1.4-2.9-5.8-0.3-2.1 0.2-4.5 0.5-2.5 1.8-4.9 1.3-2.3 3.3-4.5 2.1-2.1 4.7-3.6z"/>
					<path id="&lt;Compound Path&gt;" class="s0" d="m420.5 468.9q-0.5 0.3-0.9 0.1-0.3-0.2-0.4-0.8l-4.7-32.5q-0.1-0.6 0.2-1.2 0.3-0.6 0.7-0.8l5.4-3.1q0.4-0.3 0.8-0.1 0.4 0.2 0.5 0.8l4.6 32.5q0.1 0.6-0.1 1.2-0.3 0.6-0.8 0.8z"/>
					<path id="&lt;Compound Path&gt;" class="s0" d="m440.4 427.4q-1.3 0.8-2.2 1.8-0.9 1.1-1.4 2.2-0.4 1.1-0.6 2.4-0.1 1.2-0.1 2.4 0 0.7 0.2 1.9 0.1 1.2 0.3 2.4 0.2 1.2 0.4 2.4 0.2 1.2 0.3 1.8 0.3 1.1 0.7 2 0.5 0.9 1.2 1.3 0.7 0.5 1.7 0.4 1.1-0.1 2.4-0.8 1.1-0.7 2-1.5 0.9-0.8 1.5-1.9 0.6-1.1 0.8-2.4 0.3-1.2 0.1-2.8l-3.4 2q-0.5 0.3-0.9 0.1-0.4-0.2-0.4-0.8l-0.8-5.3q-0.1-0.6 0.2-1.2 0.2-0.6 0.7-0.8l9.9-5.8q0.4-0.2 0.8 0 0.4 0.2 0.5 0.8l0.9 6.4q0.5 3.2-0.1 6.4-0.6 3.1-2.1 5.9-1.5 2.8-3.6 5.1-2.2 2.3-4.9 3.8-3 1.7-5.4 2-2.5 0.2-4.4-0.7-1.9-0.9-3.1-2.9-1.3-2-1.8-4.7-0.4-2-0.7-4.4-0.3-2.3-0.6-4.6-0.3-2.8 0.3-5.8 0.5-3 1.8-5.8 1.4-2.8 3.6-5.2 2.1-2.5 5.1-4.2 2.9-1.6 5.3-1.9 2.4-0.3 4.3 0.4 1.8 0.6 2.9 2 1.2 1.4 1.5 3 0.1 0.5-0.1 1-0.2 0.5-0.6 0.7l-5.4 3.1q-0.7 0.4-1.1 0.1-0.4-0.2-0.8-0.5-0.7-0.6-1.8-0.8-1.1-0.2-3.1 1z"/>
					<path id="&lt;Compound Path&gt;" class="s0" d="m480.4 434.4q-0.7 0.4-1.2 0.1-0.5-0.2-0.7-0.3l-11.8-11.9 2.4 17.1q0.1 0.5-0.2 1.1-0.2 0.6-0.7 0.9l-5.3 3.1q-0.5 0.2-0.9 0-0.4-0.2-0.4-0.8l-4.7-32.5q-0.1-0.6 0.2-1.2 0.3-0.5 0.7-0.8l4.3-2.5q0.7-0.4 1.2-0.2 0.4 0.3 0.6 0.4l11.8 11.8-2.4-17q-0.1-0.5 0.2-1.1 0.3-0.6 0.7-0.9l5.4-3.1q0.4-0.2 0.8 0 0.4 0.2 0.5 0.8l4.6 32.5q0.1 0.6-0.2 1.1-0.2 0.6-0.7 0.9z"/>
					<path id="&lt;Compound Path&gt;" class="s0" d="m518.6 374.1q0.4-0.2 0.8 0 0.4 0.2 0.5 0.7l2.8 20.1q0.5 3.5 0 6.7-0.5 3.2-1.9 6-1.4 2.7-3.6 5-2.1 2.3-4.9 3.8-2.7 1.6-5.2 2-2.4 0.4-4.3-0.4-1.9-0.9-3.2-3.1-1.2-2.1-1.7-5.6l-2.9-20.1q-0.1-0.5 0.2-1.1 0.2-0.6 0.7-0.9l5.4-3.1q0.4-0.2 0.8 0 0.4 0.2 0.5 0.7l2.8 19.9q0.4 3.1 1.9 4.1 1.4 1 3.9-0.4 2.4-1.4 3.4-3.9 1-2.4 0.5-5.4l-2.8-19.9q-0.1-0.5 0.2-1.1 0.2-0.6 0.7-0.9z"/>
					<path id="&lt;Compound Path&gt;" fill-rule="evenodd" class="s0" d="m537.9 363q2.6-1.6 4.8-2 2.2-0.5 3.9 0.1 1.7 0.7 2.8 2.4 1.1 1.8 1.5 4.7 0.4 3 0 5.7-0.5 2.6-1.8 4.9-1.2 2.4-3.2 4.3-2 2-4.6 3.5l-5.2 3 1.4 10.3q0.1 0.5-0.2 1.1-0.2 0.6-0.7 0.9l-5.3 3.1q-0.5 0.2-0.9 0-0.4-0.2-0.4-0.8l-4.7-32.5q-0.1-0.5 0.2-1.1 0.3-0.6 0.7-0.9zm-3 18.8l5.1-2.9q1.7-1 2.7-2.6 1-1.6 0.7-3.7-0.3-2.1-1.6-2.4-1.3-0.3-3 0.7l-5 2.9z"/>
				</g>
				<g id="&lt;Group&gt;">
					<path id="&lt;Compound Path&gt;" class="s0" d="m347.5 540.2q0.1 1.1 0.3 2 0.1 1 0.3 2 0.3 1.9 1.4 2.6 1.1 0.7 2.8-0.3 1-0.5 1.6-1.1 0.6-0.7 0.9-1.4 0.4-0.7 0.5-1.4 0.1-0.7 0.2-1.4 0-0.2 0.1-0.5 0.1-0.2 0.3-0.3l0.9-0.5q0.2-0.1 0.3 0 0.1 0.1 0.2 0.3 0.1 0.8-0.1 1.9-0.2 1.1-0.7 2.3-0.5 1.2-1.5 2.3-0.9 1.2-2.4 2-1.2 0.7-2.3 0.8-1 0.1-1.8-0.4-0.9-0.4-1.4-1.4-0.6-0.9-0.8-2.3-0.4-2.1-0.6-4.2-0.2-1.4 0-2.9 0.3-1.4 0.8-2.6 0.6-1.3 1.5-2.3 0.9-1.1 2.2-1.8 1.4-0.9 2.5-0.9 1.1 0 1.9 0.4 0.8 0.5 1.2 1.2 0.4 0.8 0.6 1.5 0 0.2-0.1 0.5-0.1 0.2-0.3 0.3l-0.9 0.5q-0.1 0.1-0.3 0.1-0.2-0.1-0.2-0.3-0.2-0.6-0.6-1-0.3-0.5-0.7-0.7-0.5-0.2-1.2-0.1-0.7 0.1-1.6 0.6-1.7 1-2.5 2.8-0.7 1.7-0.5 3.7z"/>
					<path id="&lt;Compound Path&gt;" class="s0" d="m363.7 528.7q0.2-0.1 0.3 0 0.2 0.1 0.3 0.3l0.1 0.8q0 0.3-0.1 0.5-0.1 0.3-0.4 0.4l-1.1 0.7q-2.2 1.3-1.8 4l1 6.9q0 0.3-0.1 0.6-0.1 0.3-0.3 0.4l-0.7 0.4q-0.3 0.1-0.4 0-0.2-0.1-0.3-0.3l-1.5-11.1q-0.1-0.3 0-0.6 0.2-0.2 0.4-0.4l0.7-0.4q0.2-0.1 0.4 0 0.2 0.1 0.2 0.4l0.1 0.7q0.3-0.9 0.8-1.6 0.5-0.6 1.4-1.1z"/>
					<path id="&lt;Compound Path&gt;" fill-rule="evenodd" class="s0" d="m365.9 532.8q-0.1-1.1 0.1-2.3 0.2-1.1 0.7-2.2 0.4-1 1.2-1.9 0.7-0.8 1.7-1.4 1-0.6 1.9-0.6 0.9-0.1 1.6 0.4 0.6 0.4 1.1 1.4 0.5 0.9 0.7 2.3l0.1 0.6q0 0.3-0.1 0.5-0.1 0.3-0.4 0.5l-6.6 3.8v0.1q0.3 1.6 1.2 2 0.9 0.5 2-0.2 1.1-0.6 1.5-1.3 0.5-0.6 0.8-1.3 0.1-0.3 0.2-0.4 0.1-0.1 0.4-0.3l0.5-0.3q0.2-0.1 0.4 0 0.2 0 0.2 0.3 0.1 0.5-0.1 1.2-0.2 0.6-0.7 1.4-0.4 0.7-1.2 1.4-0.7 0.8-1.7 1.4-1 0.5-1.8 0.5-0.8 0.1-1.5-0.3-0.7-0.4-1.2-1.2-0.5-0.8-0.7-1.9-0.2-1-0.3-2.2zm1.7-0.9l5.4-3.1v-0.1q-0.2-1.5-1-1.9-0.9-0.4-2.1 0.3-0.6 0.3-1.1 0.8-0.4 0.5-0.7 1.1-0.3 0.7-0.4 1.4-0.2 0.7-0.1 1.4z"/>
					<path id="&lt;Compound Path&gt;" fill-rule="evenodd" class="s0" d="m377 531q-0.1-0.9 0.1-1.8 0.2-0.9 0.6-1.7 0.5-0.9 1.2-1.6 0.7-0.7 1.5-1.3l2.6-2.2v-0.3q-0.2-1.2-1-1.4-0.7-0.2-1.6 0.3-0.9 0.5-1.3 1.1-0.4 0.7-0.6 1.4-0.1 0.2-0.2 0.4-0.1 0.1-0.4 0.3l-0.5 0.3q-0.3 0.1-0.4 0-0.2-0.1-0.3-0.4 0-0.5 0.2-1.2 0.3-0.7 0.7-1.5 0.5-0.7 1.1-1.3 0.6-0.7 1.4-1.1 0.8-0.5 1.6-0.7 0.8-0.1 1.4 0.2 0.6 0.3 1.1 1 0.4 0.7 0.5 1.9l1.1 7.2q0 0.3-0.1 0.5-0.1 0.3-0.3 0.4l-0.8 0.5q-0.2 0.1-0.4 0-0.1-0.1-0.2-0.4l-0.1-1q-0.1 0.6-0.4 1.2-0.4 0.5-0.8 1-0.4 0.5-0.9 0.9-0.5 0.5-1 0.7-0.7 0.4-1.4 0.5-0.6 0.1-1.1 0-0.5-0.2-0.9-0.7-0.3-0.5-0.4-1.2zm3.7-0.7q0.7-0.4 1.3-1 0.5-0.6 0.9-1.3 0.3-0.7 0.4-1.5 0.2-0.8 0.1-1.6l-0.1-0.6-2.2 1.8q-1.2 0.9-1.9 1.9-0.6 0.9-0.5 1.7 0.1 0.3 0.2 0.5 0.1 0.2 0.4 0.3 0.2 0.2 0.6 0.1 0.3-0.1 0.8-0.3z"/>
					<path id="&lt;Compound Path&gt;" class="s0" d="m390.6 522q0.1 0.5 0.2 0.8 0.1 0.4 0.3 0.6 0.2 0.1 0.6 0.1 0.3 0 0.8-0.3l1-0.6q0.3-0.1 0.4 0 0.2 0.1 0.3 0.3l0.1 0.8q0 0.3-0.1 0.5-0.1 0.3-0.4 0.4l-1.2 0.7q-1.7 1-2.6 0.4-0.9-0.7-1.2-2.7l-0.8-6.1-1.5 0.8q-0.2 0.1-0.4 0-0.1-0.1-0.2-0.3l-0.1-0.8q0-0.3 0.1-0.5 0.1-0.3 0.3-0.4l1.5-0.9-0.6-3.8q0-0.3 0.1-0.6 0.1-0.3 0.3-0.4l0.8-0.4q0.2-0.1 0.4 0 0.1 0.1 0.2 0.3l0.5 3.9 2.5-1.4q0.2-0.1 0.4 0 0.2 0.1 0.2 0.3l0.1 0.8q0 0.3-0.1 0.5-0.1 0.3-0.3 0.4l-2.5 1.5z"/>
					<path id="&lt;Compound Path&gt;" fill-rule="evenodd" class="s0" d="m394.8 516.1q-0.1-1.1 0.1-2.3 0.2-1.1 0.7-2.1 0.4-1.1 1.2-1.9 0.7-0.9 1.6-1.4 1.1-0.6 2-0.7 0.8-0.1 1.5 0.4 0.7 0.4 1.2 1.4 0.5 0.9 0.7 2.3v0.6q0.1 0.3 0 0.6-0.2 0.3-0.4 0.4l-6.6 3.8v0.2q0.3 1.5 1.2 2 0.8 0.4 2-0.3 1-0.6 1.5-1.2 0.5-0.7 0.8-1.4 0.1-0.2 0.2-0.4 0.1-0.1 0.3-0.2l0.6-0.4q0.2-0.1 0.4 0 0.2 0.1 0.2 0.4 0 0.4-0.2 1.1-0.2 0.7-0.6 1.4-0.5 0.7-1.2 1.5-0.7 0.7-1.7 1.3-1 0.5-1.8 0.6-0.8 0-1.5-0.4-0.7-0.4-1.2-1.2-0.5-0.8-0.7-1.9-0.3-1-0.3-2.2zm1.7-0.9l5.4-3.1v-0.1q-0.2-1.4-1.1-1.9-0.8-0.4-2.1 0.3-0.5 0.3-1 0.8-0.4 0.5-0.7 1.2-0.3 0.6-0.5 1.3-0.1 0.7 0 1.4z"/>
					<path id="&lt;Compound Path&gt;" fill-rule="evenodd" class="s0" d="m410.6 511.6q-0.2-0.9 0.1-1.8 0.2-0.9 0.6-1.7 0.5-0.8 1.2-1.6 0.7-0.7 1.4-1.3l2.7-2.1-0.1-0.4q-0.1-1.2-0.9-1.4-0.7-0.2-1.7 0.3-0.8 0.5-1.2 1.1-0.4 0.7-0.6 1.4-0.1 0.2-0.2 0.4-0.1 0.1-0.4 0.3l-0.6 0.3q-0.2 0.1-0.4 0-0.1-0.1-0.2-0.3 0-0.6 0.2-1.3 0.2-0.7 0.7-1.4 0.4-0.8 1.1-1.4 0.6-0.7 1.3-1.1 0.9-0.5 1.7-0.6 0.8-0.2 1.4 0.1 0.6 0.3 1 1 0.5 0.7 0.6 1.9l1.1 7.2q0 0.3-0.1 0.6-0.2 0.2-0.4 0.4l-0.7 0.4q-0.2 0.1-0.4 0-0.2-0.1-0.2-0.4l-0.1-0.9q-0.1 0.5-0.5 1.1-0.3 0.5-0.7 1-0.4 0.5-0.9 1-0.5 0.4-1 0.6-0.7 0.5-1.4 0.6-0.7 0.1-1.2-0.1-0.5-0.2-0.8-0.7-0.3-0.5-0.4-1.2zm3.7-0.7q0.7-0.4 1.3-1 0.5-0.6 0.8-1.3 0.4-0.7 0.5-1.5 0.2-0.8 0-1.6v-0.5l-2.3 1.7q-1.1 1-1.8 1.9-0.6 0.9-0.5 1.8 0 0.2 0.2 0.4 0.1 0.2 0.4 0.3 0.2 0.2 0.6 0.1 0.3 0 0.8-0.3z"/>
					<path id="&lt;Compound Path&gt;" class="s0" d="m436.1 500.3q-0.3 0.1-0.5 0-0.2-0.1-0.4-0.3l-7.9-8 1.6 11.7q0.1 0.3-0.1 0.5-0.1 0.3-0.3 0.4l-0.8 0.5q-0.2 0.1-0.4 0-0.2-0.1-0.2-0.4l-2.2-15.3q0-0.3 0.1-0.5 0.1-0.3 0.3-0.4l0.7-0.4q0.3-0.2 0.5-0.1 0.2 0.2 0.4 0.3l7.9 8-1.7-11.7q0-0.2 0.1-0.5 0.2-0.3 0.4-0.4l0.8-0.5q0.2-0.1 0.4 0 0.1 0.1 0.2 0.4l2.2 15.3q0 0.3-0.1 0.6-0.1 0.3-0.4 0.4z"/>
					<path id="&lt;Compound Path&gt;" fill-rule="evenodd" class="s0" d="m438.9 490.7q-0.1-1.2 0.1-2.3 0.2-1.2 0.7-2.2 0.4-1 1.1-1.9 0.8-0.8 1.7-1.4 1.1-0.6 1.9-0.7 0.9 0 1.6 0.4 0.7 0.5 1.2 1.4 0.4 1 0.6 2.3l0.1 0.7q0.1 0.2-0.1 0.5-0.1 0.3-0.3 0.4l-6.6 3.9v0.1q0.3 1.6 1.1 2 0.9 0.4 2.1-0.2 1-0.6 1.5-1.3 0.5-0.7 0.7-1.3 0.2-0.3 0.3-0.4 0.1-0.2 0.3-0.3l0.6-0.3q0.2-0.2 0.4-0.1 0.2 0.1 0.2 0.4 0 0.5-0.2 1.1-0.2 0.7-0.6 1.4-0.5 0.8-1.2 1.5-0.7 0.7-1.7 1.3-1 0.6-1.8 0.6-0.9 0.1-1.5-0.3-0.7-0.4-1.2-1.2-0.5-0.8-0.7-1.9-0.3-1.1-0.3-2.2zm1.7-0.9l5.4-3.2q-0.2-1.5-1.1-1.9-0.8-0.5-2.1 0.3-0.5 0.3-1 0.8-0.4 0.5-0.8 1.1-0.3 0.6-0.4 1.4-0.1 0.7 0 1.4z"/>
					<path id="&lt;Compound Path&gt;" class="s0" d="m459.7 482.4l1-9.1q0.1-0.3 0.2-0.5 0.1-0.3 0.4-0.5l0.6-0.3q0.2-0.2 0.4-0.1 0.2 0.1 0.2 0.4 0 0 0 0.2l-1.4 12.6q0 0.3-0.1 0.6-0.1 0.2-0.4 0.4l-0.6 0.3q-0.2 0.2-0.4 0-0.1-0.1-0.3-0.3l-3.4-6.6-1.2 9.3q0 0.3-0.1 0.6-0.1 0.2-0.4 0.4l-0.6 0.3q-0.2 0.2-0.4 0-0.1-0.1-0.2-0.3l-4.5-9.2q-0.1-0.1-0.1-0.2 0-0.3 0.1-0.5 0.1-0.2 0.3-0.4l0.6-0.3q0.3-0.2 0.5-0.1 0.2 0.1 0.3 0.3l3.3 6.7 1.1-9.3q0.1-0.2 0.2-0.5 0.1-0.3 0.4-0.4l0.4-0.3q0.3-0.1 0.4 0 0.2 0.1 0.3 0.3z"/>
					<path id="&lt;Compound Path&gt;" fill-rule="evenodd" class="s0" d="m478 472l-6.7 3.9-0.6 3.7q0 0.2-0.1 0.5-0.1 0.3-0.5 0.5l-0.7 0.4q-0.2 0.1-0.4 0.1-0.1-0.1-0.1-0.3 0-0.2 0-0.4l2.6-17.7q0-0.4 0.2-0.7 0.1-0.4 0.5-0.6l1.2-0.7q0.4-0.2 0.6-0.1 0.2 0.2 0.4 0.4l6.8 12.3q0.1 0.1 0.2 0.3 0 0.2-0.1 0.4-0.1 0.2-0.3 0.3l-0.7 0.4q-0.4 0.3-0.6 0.1-0.2-0.1-0.3-0.2zm-6.3 1.3l5.4-3.1-3.9-6.9z"/>
					<path id="&lt;Compound Path&gt;" class="s0" d="m483.6 467q0.2 0.9 0.6 1.5 0.3 0.5 0.8 0.7 0.4 0.2 0.9 0.1 0.5 0 1-0.3 0.9-0.6 1.5-1.4 0.6-0.8 0.8-2 0.1-0.4 0.2-0.7 0.1-0.2 0.4-0.3l0.5-0.3q0.2-0.1 0.4 0 0.2 0 0.3 0.3 0 0.6-0.2 1.4-0.2 0.9-0.6 1.8-0.5 0.9-1.2 1.7-0.8 0.9-1.8 1.5-1.1 0.6-2 0.7-0.9 0-1.5-0.4-0.7-0.4-1.2-1.2-0.4-0.8-0.6-1.9-0.1-0.4-0.2-1-0.1-0.5-0.1-0.9-0.1-1.2 0.1-2.4 0.2-1.2 0.6-2.2 0.5-1.1 1.2-2 0.8-0.9 1.8-1.5 1.1-0.6 2-0.7 0.8 0 1.4 0.2 0.7 0.3 1.1 0.8 0.3 0.5 0.4 1.1 0.1 0.2 0 0.5-0.2 0.3-0.4 0.4l-0.6 0.4q-0.2 0.1-0.4 0-0.1 0-0.3-0.3-0.5-0.8-1.2-0.9-0.8 0-1.7 0.5-0.5 0.3-0.9 0.8-0.4 0.5-0.8 1.1-0.3 0.7-0.4 1.5-0.2 0.8-0.1 1.8 0 0.9 0.2 1.6z"/>
					<path id="&lt;Compound Path&gt;" class="s0" d="m494.3 460.8q0.2 1 0.6 1.5 0.3 0.5 0.8 0.7 0.4 0.2 0.9 0.1 0.5 0 1-0.3 0.9-0.5 1.5-1.3 0.6-0.9 0.8-2.1 0.1-0.4 0.2-0.6 0.2-0.2 0.4-0.4l0.5-0.3q0.3-0.1 0.4 0 0.2 0.1 0.3 0.3 0 0.6-0.2 1.5-0.1 0.8-0.6 1.7-0.5 0.9-1.2 1.8-0.8 0.8-1.8 1.4-1.1 0.7-2 0.7-0.8 0-1.5-0.4-0.7-0.4-1.2-1.2-0.4-0.8-0.6-1.9-0.1-0.4-0.2-0.9-0.1-0.6-0.1-1-0.1-1.2 0.1-2.4 0.2-1.2 0.6-2.2 0.5-1.1 1.2-2 0.8-0.9 1.8-1.5 1.1-0.6 2-0.7 0.8 0 1.4 0.2 0.7 0.3 1.1 0.8 0.3 0.5 0.4 1.1 0.1 0.3 0 0.5-0.2 0.3-0.4 0.4l-0.6 0.4q-0.2 0.1-0.3 0.1-0.2-0.1-0.4-0.4-0.5-0.8-1.2-0.8-0.7-0.1-1.7 0.5-0.5 0.2-0.9 0.7-0.4 0.5-0.8 1.1-0.3 0.7-0.4 1.5-0.2 0.8-0.1 1.8 0 0.9 0.2 1.6z"/>
					<path id="&lt;Compound Path&gt;" fill-rule="evenodd" class="s0" d="m506.8 445.8q1-0.6 1.9-0.7 0.9-0.1 1.6 0.3 0.6 0.4 1.1 1.1 0.5 0.8 0.7 2 0.1 0.2 0.1 0.5 0.1 0.2 0.1 0.6 0.1 0.3 0.1 0.6 0 0.3 0.1 0.5 0 1.2-0.2 2.4-0.2 1.2-0.6 2.2-0.5 1-1.3 1.9-0.7 0.8-1.8 1.4-1 0.6-1.9 0.7-0.8 0.1-1.5-0.3-0.7-0.3-1.2-1.1-0.4-0.8-0.7-1.9 0-0.2-0.1-0.5 0-0.3-0.1-0.6 0-0.3-0.1-0.6 0-0.3 0-0.6-0.1-1.2 0.1-2.4 0.2-1.1 0.7-2.2 0.5-1 1.2-1.8 0.8-0.9 1.8-1.5zm3.9 5.8q0-0.4-0.1-1-0.1-0.6-0.2-1-0.2-0.7-0.4-1.2-0.3-0.5-0.7-0.8-0.5-0.2-1-0.2-0.5 0-1.2 0.4-0.7 0.4-1.1 1-0.5 0.5-0.8 1.2-0.3 0.6-0.4 1.4-0.1 0.7 0 1.4 0 0.5 0.1 1.1 0.1 0.6 0.1 0.9 0.2 0.7 0.5 1.2 0.3 0.5 0.7 0.8 0.4 0.2 0.9 0.2 0.6 0 1.2-0.4 0.7-0.4 1.2-1 0.5-0.5 0.7-1.2 0.3-0.6 0.4-1.3 0.1-0.8 0.1-1.5z"/>
					<path id="&lt;Compound Path&gt;" class="s0" d="m513.9 442.7q-0.1-0.3 0-0.6 0.2-0.2 0.4-0.4l0.7-0.4q0.2-0.1 0.4 0 0.2 0.1 0.2 0.4l0.9 6.2q0.3 1.9 1.1 2.4 0.8 0.5 2-0.2 1.2-0.7 1.8-2 0.6-1.3 0.3-3.2l-0.9-6.2q0-0.3 0.1-0.6 0.1-0.3 0.3-0.4l0.8-0.4q0.2-0.1 0.4 0 0.1 0.1 0.2 0.3l1.6 11.1q0 0.3-0.1 0.6-0.2 0.2-0.4 0.4l-0.7 0.4q-0.2 0.1-0.4 0-0.2-0.1-0.2-0.4l-0.1-0.7q-0.3 0.8-0.9 1.7-0.6 0.9-1.8 1.6-0.9 0.5-1.7 0.6-0.8 0-1.4-0.3-0.7-0.4-1.1-1.2-0.4-0.8-0.6-2.1z"/>
					<path id="&lt;Compound Path&gt;" class="s0" d="m536 441.9q0 0.3-0.1 0.5-0.2 0.3-0.4 0.4l-0.7 0.4q-0.2 0.2-0.4 0.1-0.2-0.1-0.2-0.4l-0.9-6.3q-0.2-1.8-1.1-2.3-0.8-0.5-2.1 0.3-1.2 0.7-1.8 2-0.7 1.3-0.4 3.2l0.9 6.2q0 0.3-0.1 0.6-0.1 0.2-0.3 0.4l-0.7 0.4q-0.2 0.1-0.4 0-0.2-0.1-0.2-0.4l-1.6-11q-0.1-0.3 0.1-0.6 0.1-0.3 0.3-0.4l0.7-0.4q0.2-0.1 0.4 0 0.2 0.1 0.2 0.4l0.1 0.7q0.3-0.8 1-1.7 0.6-1 1.8-1.7 0.9-0.5 1.7-0.5 0.8-0.1 1.5 0.2 0.6 0.4 1.1 1.2 0.4 0.8 0.6 2.1z"/>
					<path id="&lt;Compound Path&gt;" class="s0" d="m540.7 435.3q0.1 0.5 0.2 0.8 0.1 0.4 0.4 0.6 0.2 0.2 0.5 0.1 0.4 0 0.9-0.3l1-0.6q0.2-0.1 0.4 0 0.1 0.1 0.2 0.4l0.1 0.7q0 0.3-0.1 0.6-0.1 0.2-0.3 0.4l-1.2 0.7q-1.7 0.9-2.6 0.3-0.9-0.6-1.2-2.6l-0.9-6.2-1.4 0.8q-0.2 0.1-0.4 0-0.2-0.1-0.2-0.3l-0.2-0.8q0-0.2 0.1-0.5 0.2-0.3 0.4-0.4l1.4-0.8-0.6-3.9q0-0.3 0.1-0.6 0.2-0.2 0.4-0.4l0.7-0.4q0.2-0.1 0.4 0 0.2 0.1 0.2 0.4l0.6 3.8 2.4-1.4q0.2-0.1 0.4 0 0.2 0.1 0.2 0.4l0.1 0.7q0.1 0.3-0.1 0.6-0.1 0.2-0.3 0.4l-2.4 1.4z"/>
					<path id="&lt;Compound Path&gt;" class="s0" d="m550.9 417.8q0.1 0.3 0 0.6-0.2 0.3-0.4 0.4l-1.1 0.6q-0.2 0.1-0.4 0-0.2-0.1-0.2-0.3l-0.2-1.4q0-0.2 0.1-0.5 0.1-0.3 0.3-0.4l1.1-0.7q0.2-0.1 0.4 0 0.2 0.1 0.2 0.4zm1.9 14.3q0 0.3-0.1 0.6-0.1 0.2-0.3 0.4l-0.7 0.4q-0.3 0.1-0.4 0-0.2-0.1-0.3-0.4l-1.5-11q-0.1-0.3 0-0.6 0.2-0.3 0.4-0.4l0.7-0.4q0.2-0.1 0.4 0 0.2 0.1 0.2 0.4z"/>
					<path id="&lt;Compound Path&gt;" class="s0" d="m561 424.4q-0.1-0.4-0.3-0.6-0.3-0.2-0.7-0.2-0.4 0.1-1.1 0.2-0.6 0.2-1.5 0.5-1.6 0.5-2.4-0.1-0.7-0.6-0.9-1.8-0.1-0.8 0-1.5 0.2-0.8 0.5-1.6 0.4-0.7 1.1-1.4 0.7-0.7 1.6-1.3 1-0.5 1.7-0.7 0.7-0.1 1.3 0 0.5 0.1 0.8 0.5 0.4 0.3 0.4 0.7 0.1 0.3 0 0.5-0.2 0.3-0.4 0.4l-0.6 0.4q-0.1 0.1-0.3 0.1-0.2 0-0.4-0.1-0.3-0.2-0.8-0.2-0.5 0-1.4 0.5-0.9 0.5-1.4 1.2-0.5 0.7-0.4 1.4 0.1 0.5 0.3 0.7 0.2 0.2 0.6 0.2 0.3 0 0.9-0.2 0.6-0.2 1.5-0.4 0.9-0.3 1.6-0.3 0.6 0.1 1.1 0.3 0.4 0.3 0.6 0.7 0.3 0.5 0.4 1.1 0.1 0.7-0.1 1.6-0.2 0.8-0.7 1.6-0.4 0.8-1.1 1.5-0.7 0.8-1.7 1.3-0.9 0.6-1.7 0.7-0.8 0.1-1.3 0-0.6-0.1-1-0.4-0.3-0.4-0.4-0.8 0-0.2 0.1-0.5 0.1-0.3 0.3-0.4l0.7-0.4q0.1-0.1 0.3-0.1 0.2-0.1 0.3 0.1 0.4 0.3 1 0.3 0.6 0 1.4-0.5 0.5-0.3 0.9-0.6 0.4-0.4 0.7-0.8 0.2-0.4 0.4-0.8 0.1-0.4 0.1-0.8z"/>
					<path id="&lt;Compound Path&gt;" class="s0" d="m576.3 401.3q0.2-0.1 0.3 0 0.2 0.1 0.3 0.4l0.1 0.8q0 0.3-0.1 0.6-0.1 0.2-0.3 0.4l-6.4 3.6 0.8 5.5 6-3.4q0.2-0.1 0.4 0 0.1 0.1 0.2 0.3l0.1 0.9q0 0.2-0.1 0.5-0.1 0.3-0.3 0.4l-6 3.5 0.9 6.2q0 0.2-0.1 0.5-0.1 0.3-0.3 0.4l-0.8 0.5q-0.2 0.1-0.4 0-0.2-0.1-0.2-0.4l-2.2-15.3q-0.1-0.3 0.1-0.6 0.1-0.2 0.3-0.4z"/>
					<path id="&lt;Compound Path&gt;" class="s0" d="m584.4 401.3q0.2-0.2 0.4-0.1 0.2 0.1 0.2 0.4l0.1 0.8q0.1 0.2-0.1 0.5-0.1 0.3-0.3 0.4l-1.1 0.6q-2.3 1.3-1.9 4.1l1 6.9q0.1 0.3-0.1 0.5-0.1 0.3-0.3 0.4l-0.7 0.4q-0.2 0.2-0.4 0.1-0.2-0.1-0.2-0.4l-1.6-11.1q0-0.2 0.1-0.5 0.1-0.3 0.3-0.4l0.7-0.4q0.2-0.1 0.4 0 0.2 0.1 0.2 0.3l0.1 0.8q0.3-1 0.8-1.6 0.5-0.7 1.4-1.2z"/>
					<path id="&lt;Compound Path&gt;" fill-rule="evenodd" class="s0" d="m586.6 405.4q0-1.2 0.2-2.3 0.2-1.2 0.6-2.2 0.5-1 1.2-1.9 0.7-0.9 1.7-1.4 1-0.6 1.9-0.7 0.9 0 1.6 0.4 0.7 0.5 1.2 1.4 0.4 0.9 0.6 2.3l0.1 0.7q0 0.2-0.1 0.5-0.1 0.3-0.3 0.4l-6.7 3.8 0.1 0.2q0.2 1.6 1.1 2 0.9 0.4 2-0.2 1.1-0.6 1.6-1.3 0.5-0.7 0.7-1.3 0.2-0.3 0.3-0.4 0.1-0.2 0.3-0.3l0.6-0.4q0.2-0.1 0.4 0 0.2 0.1 0.2 0.4 0 0.5-0.2 1.1-0.2 0.7-0.7 1.4-0.4 0.8-1.1 1.5-0.7 0.7-1.8 1.3-0.9 0.6-1.8 0.6-0.8 0-1.5-0.4-0.6-0.4-1.1-1.1-0.5-0.8-0.8-2-0.2-1-0.3-2.1zm1.8-1l5.4-3.1v-0.1q-0.2-1.4-1.1-1.8-0.9-0.5-2.1 0.2-0.6 0.4-1 0.9-0.5 0.5-0.8 1.1-0.3 0.6-0.4 1.3-0.1 0.7-0.1 1.5z"/>
					<path id="&lt;Compound Path&gt;" fill-rule="evenodd" class="s0" d="m597.4 399.2q-0.1-1.2 0.1-2.3 0.2-1.2 0.7-2.2 0.4-1 1.2-1.9 0.7-0.9 1.6-1.4 1.1-0.6 2-0.7 0.8 0 1.5 0.4 0.7 0.5 1.2 1.4 0.5 0.9 0.7 2.3l0.1 0.7q0 0.2-0.1 0.5-0.2 0.3-0.4 0.4l-6.6 3.8v0.2q0.3 1.6 1.2 2 0.8 0.4 2-0.2 1.1-0.6 1.5-1.3 0.5-0.7 0.8-1.3 0.1-0.3 0.2-0.4 0.1-0.2 0.3-0.3l0.6-0.4q0.2-0.1 0.4 0 0.2 0.1 0.2 0.4 0 0.4-0.2 1.1-0.2 0.7-0.6 1.4-0.5 0.7-1.2 1.5-0.7 0.7-1.7 1.3-1 0.6-1.8 0.6-0.8 0-1.5-0.4-0.7-0.4-1.2-1.1-0.5-0.8-0.7-2-0.3-1-0.3-2.1zm1.7-1l5.4-3.1v-0.1q-0.2-1.4-1.1-1.8-0.8-0.5-2.1 0.2-0.5 0.3-1 0.9-0.4 0.5-0.7 1.1-0.3 0.6-0.5 1.3-0.1 0.7 0 1.5z"/>
				</g>
				<path id="&lt;Path&gt;" class="s10" d="m614 432.6l4.4 31.2c0.2 1.4-0.7 3.2-2 4l-259.7 149.7c-1.3 0.8-2.6 0.3-2.8-1.2l-3.6-24.8-0.9-6.3c-0.2-1.5 0.7-3.3 2.1-4.1l259.7-149.7c1.3-0.8 2.6-0.2 2.8 1.2z"/>
				<g id="Button 00000021798289567424111300000004772852761545812883 ">
					<g id="Shadow 00000026854907186853792280000011287032534481520039 " style="opacity: .2">
						<path id="&lt;Path&gt;" class="s13" d="m364.3 693.9l268.9-155.1c1.2-0.7 2.4-0.2 2.5 1.1l5.1 35.2c0.2 1.3-0.7 2.9-1.9 3.6l-268.9 155.1c-1.2 0.7-2.4 0.2-2.6-1.1l-5-35.1c-0.2-1.3 0.7-3 1.9-3.7z"/>
					</g>
					<g id="Speech Bubble 00000013892365919651316080000018265703705100452481 ">
						<path id="&lt;Path&gt;" class="s4" d="m636.4 547.7l5.3 2.3c1.6 0.6 3 2.3 3.2 3.8l4.5 31.2c0.2 1.4-0.7 3.2-2.1 4l-259.6 149.7c-1.4 0.8-3.7 0.9-5.3 0.3l-5.4-2.3c-1.5-0.6-3-2.3-3.2-3.8l-4.4-31.2c-0.3-1.4 0.7-3.2 2-4l259.7-149.7c1.3-0.8 3.7-0.9 5.3-0.3z"/>
						<path id="&lt;Path&gt;" class="s14" d="m387.7 738.7c-1.3 0.8-3.9 0.9-5.3 0.3l-5.4-2.3c-1.5-0.6-3-2.3-3.2-3.8l-4.4-31.2c-0.2-0.7 0.1-1.6 0.5-2.3l11 4.7c-0.4 0.7-0.6 1.5-0.5 2.2l4.5 31.2c0.1 1.3 1.3 2 2.8 1.2z"/>
						<g id="&lt;Group&gt;" style="opacity: .2">
							<path id="&lt;Path&gt;" class="s8" d="m644.8 553.4c-0.3-1.2-1.5-1.5-2.7-0.8l-259.6 149.7c-0.7 0.4-1.3 1-1.6 1.8l-11-4.7c0.3-0.7 0.9-1.3 1.5-1.7l259.7-149.7c1.3-0.8 3.7-0.9 5.3-0.3l5.3 2.3c1.4 0.6 2.8 2 3.1 3.4z"/>
						</g>
						<path id="&lt;Path&gt;" class="s4" d="m644.9 553.8l4.5 31.2c0.2 1.4-0.7 3.2-2.1 4l-259.6 149.7c-1.4 0.8-2.6 0.3-2.8-1.2l-3.6-24.9-0.9-6.3c-0.2-1.4 0.7-3.2 2.1-4l259.6-149.7c1.4-0.8 2.6-0.3 2.8 1.2z"/>
						<path id="&lt;Path&gt;" class="s10" d="m644.9 553.8l4.5 31.2c0.2 1.4-0.7 3.2-2.1 4l-259.6 149.7c-1.4 0.8-2.6 0.3-2.8-1.2l-3.6-24.9-0.9-6.3c-0.2-1.4 0.7-3.2 2.1-4l259.6-149.7c1.4-0.8 2.6-0.3 2.8 1.2z"/>
					</g>
					<g id="&lt;Group&gt;">
						<path id="&lt;Compound Path&gt;" fill-rule="evenodd" class="s8" d="m472.2 661.5q2.6-1.5 4.1-0.8 1.5 0.7 1.9 3.3 0.2 1.8-0.3 3.5-0.5 1.6-1.7 3l3.7 4.6q0.1 0.1 0.1 0.2 0 0.2-0.1 0.5-0.1 0.2-0.3 0.3l-1.7 1q-0.4 0.3-0.6 0.1-0.3-0.1-0.4-0.3l-3.5-4.2-2.6 1.5 0.8 5.8q0 0.3-0.1 0.6-0.1 0.3-0.4 0.4l-1.6 1q-0.2 0.1-0.4 0-0.2-0.1-0.3-0.4l-2.3-16.1q0-0.3 0.1-0.6 0.2-0.3 0.4-0.4zm-1.9 9.6l2.9-1.7q1.2-0.6 1.8-1.5 0.6-0.9 0.4-2.3-0.2-1.4-1-1.5-0.7-0.1-1.9 0.6l-2.9 1.7z"/>
						<path id="&lt;Compound Path&gt;" class="s8" d="m491.5 665.9q0.3-0.2 0.4 0 0.2 0.1 0.3 0.3l0.2 1.8q0.1 0.3-0.1 0.6-0.1 0.3-0.3 0.4l-8.9 5.1q-0.2 0.2-0.4 0.1-0.2-0.1-0.3-0.4l-2.3-16.2q0-0.2 0.1-0.5 0.2-0.3 0.4-0.4l8.7-5.1q0.2-0.1 0.4 0 0.2 0.1 0.3 0.4l0.2 1.7q0 0.3-0.1 0.6-0.1 0.3-0.3 0.4l-6.6 3.8 0.6 4 6.1-3.5q0.2-0.2 0.4-0.1 0.2 0.1 0.2 0.4l0.3 1.8q0 0.3-0.1 0.6-0.2 0.2-0.4 0.4l-6.1 3.5 0.6 4.2z"/>
						<path id="&lt;Compound Path&gt;" class="s8" d="m492.8 656.6q-0.1-1.5 0.1-3 0.2-1.5 0.9-2.8 0.6-1.3 1.7-2.5 1-1.1 2.5-2 1.8-1 3-1.1 1.2-0.1 2 0.3 0.8 0.4 1.2 1.1 0.4 0.6 0.5 1.2 0.1 0.3-0.1 0.6-0.1 0.3-0.3 0.4l-1.7 0.9q-0.2 0.2-0.3 0.1-0.2-0.1-0.3-0.2 0-0.1-0.3-0.3-0.2-0.2-0.6-0.4-0.4-0.1-1.1-0.1-0.6 0.1-1.5 0.6-1.6 0.9-2.3 2.5-0.8 1.5-0.6 3.2 0.1 1 0.2 2.1 0.2 1.1 0.4 2 0.3 2 1.4 2.4 1 0.4 2.5-0.4 0.8-0.5 1.4-1 0.6-0.6 1-1.3 0.4-0.7 0.5-1.6 0.2-0.9 0-2v-0.2l-2.5 1.5q-0.2 0.1-0.4 0-0.2-0.1-0.2-0.4l-0.3-1.8q0-0.2 0.1-0.5 0.1-0.3 0.4-0.4l4.6-2.7q0.3-0.2 0.4-0.1 0.2 0.1 0.3 0.4l0.4 2.8q0.2 1.5 0 2.9-0.2 1.5-0.9 2.9-0.6 1.3-1.7 2.5-1.1 1.2-2.6 2.1-1.6 0.9-2.8 1-1.2 0.2-2-0.3-0.9-0.4-1.5-1.5-0.6-1-0.8-2.5-0.1-0.4-0.2-1-0.1-0.6-0.2-1.2-0.1-0.6-0.1-1.2-0.1-0.5-0.2-1z"/>
						<path id="&lt;Compound Path&gt;" class="s8" d="m509.8 658.7q-0.2 0.1-0.4 0-0.2-0.1-0.2-0.4l-2.3-16.1q-0.1-0.3 0.1-0.6 0.1-0.3 0.3-0.4l1.7-0.9q0.2-0.2 0.4-0.1 0.2 0.2 0.2 0.4l2.3 16.2q0 0.2-0.1 0.5-0.1 0.3-0.3 0.4z"/>
						<path id="&lt;Compound Path&gt;" class="s8" d="m517.5 635.1q1.4-0.8 2.5-1 1.1-0.1 1.8 0.2 0.8 0.2 1.3 0.8 0.5 0.7 0.6 1.4 0.1 0.2-0.1 0.5-0.1 0.3-0.3 0.4l-1.5 0.9q-0.3 0.2-0.5 0.1-0.2-0.1-0.4-0.3-0.4-0.4-1.1-0.5-0.6-0.1-1.9 0.6-0.5 0.3-0.9 0.7-0.5 0.4-0.8 0.9-0.3 0.5-0.5 0.9-0.1 0.5-0.1 1 0.1 0.6 0.4 0.8 0.2 0.3 0.7 0.3 0.5 0 1.3-0.2 0.8-0.2 1.9-0.6 1.3-0.4 2.2-0.4 1-0.1 1.6 0.2 0.7 0.3 1.1 0.9 0.3 0.7 0.5 1.7 0.1 1.1-0.1 2.3-0.3 1.2-0.9 2.3-0.7 1.1-1.7 2.2-1.1 1-2.4 1.8-1.2 0.6-2.2 0.9-1.1 0.3-2 0.1-0.9-0.2-1.5-0.8-0.6-0.6-0.9-1.7 0-0.3 0.1-0.6 0.2-0.3 0.4-0.4l1.4-0.8q0.4-0.2 0.6-0.2 0.2 0.1 0.3 0.3 0.2 0.3 0.5 0.5 0.2 0.2 0.6 0.2 0.4 0.1 0.9-0.1 0.6-0.1 1.3-0.5 0.6-0.4 1.2-0.8 0.5-0.5 0.9-1 0.4-0.5 0.6-1 0.2-0.6 0.1-1.1 0-0.6-0.4-0.8-0.3-0.2-0.9-0.1-0.6 0.1-1.5 0.4-0.9 0.2-2.1 0.5-1 0.3-1.8 0.4-0.9 0-1.4-0.3-0.6-0.3-1-1-0.3-0.7-0.5-1.8-0.2-1.1 0.1-2.3 0.3-1.2 0.9-2.3 0.6-1.1 1.5-2 1-1 2.1-1.6z"/>
						<path id="&lt;Compound Path&gt;" class="s8" d="m535.1 625.2q0.2-0.2 0.4-0.1 0.2 0.1 0.3 0.4l0.2 1.8q0.1 0.3-0.1 0.6-0.1 0.3-0.3 0.4l-3.7 2.1 2 13.7q0 0.3-0.1 0.5-0.2 0.3-0.4 0.5l-1.6 0.9q-0.2 0.1-0.4 0-0.2-0.1-0.3-0.3l-1.9-13.7-3.7 2.1q-0.2 0.1-0.4 0-0.2-0.1-0.2-0.4l-0.3-1.8q0-0.2 0.1-0.5 0.2-0.3 0.4-0.4z"/>
						<path id="&lt;Compound Path&gt;" class="s8" d="m549.2 632.6q0.2-0.1 0.4 0 0.2 0.1 0.2 0.3l0.3 1.8q0 0.3-0.1 0.6-0.1 0.3-0.4 0.4l-8.9 5.1q-0.2 0.2-0.4 0.1-0.2-0.1-0.2-0.4l-2.3-16.1q-0.1-0.3 0.1-0.6 0.1-0.3 0.3-0.4l8.8-5.1q0.2-0.1 0.4 0 0.2 0.1 0.2 0.4l0.3 1.7q0 0.3-0.1 0.6-0.2 0.3-0.4 0.4l-6.5 3.8 0.5 4 6.1-3.5q0.3-0.2 0.5-0.1 0.1 0.2 0.2 0.4l0.2 1.8q0.1 0.3-0.1 0.6-0.1 0.3-0.3 0.4l-6.1 3.5 0.6 4.2z"/>
						<path id="&lt;Compound Path&gt;" fill-rule="evenodd" class="s8" d="m556 613.1q2.5-1.4 4-0.8 1.6 0.7 1.9 3.3 0.3 1.8-0.2 3.5-0.5 1.7-1.7 3.1l3.7 4.5q0 0.1 0.1 0.3 0 0.2-0.1 0.4-0.1 0.3-0.3 0.4l-1.7 1q-0.4 0.2-0.7 0.1-0.2-0.2-0.3-0.3l-3.5-4.3-2.7 1.6 0.8 5.8q0.1 0.3-0.1 0.5-0.1 0.3-0.3 0.5l-1.7 0.9q-0.2 0.1-0.4 0-0.2-0.1-0.2-0.3l-2.3-16.2q0-0.2 0.1-0.5 0.1-0.3 0.3-0.5zm-1.9 9.7l3-1.7q1.1-0.7 1.7-1.6 0.7-0.9 0.5-2.3-0.2-1.4-1-1.5-0.8 0-1.9 0.6l-2.9 1.7z"/>
					</g>
				</g>
				<path id="&lt;Path&gt;" class="s10" d="m623.3 489l4.4 31.2c0.3 1.4-0.7 3.2-2 4l-259.7 149.7c-1.3 0.8-2.6 0.3-2.8-1.2l-3.6-24.8-0.9-6.4c-0.2-1.4 0.8-3.2 2.1-4l259.7-149.7c1.3-0.8 2.6-0.3 2.8 1.2z"/>
				<g id="&lt;Group&gt;">
					<path id="&lt;Compound Path&gt;" class="s7" d="m419.2 566.9q0.2-0.1 0.4 0 0.1 0.1 0.2 0.3l0.1 0.8q0 0.2-0.1 0.5-0.1 0.2-0.3 0.4l-7.6 4.3q-0.2 0.2-0.4 0.1-0.2-0.1-0.2-0.4l-2-14q0-0.3 0.1-0.5 0.1-0.3 0.3-0.4l7.4-4.3q0.2-0.1 0.4 0 0.2 0.1 0.2 0.3l0.1 0.8q0.1 0.2 0 0.5-0.2 0.2-0.4 0.4l-6.1 3.5 0.6 4.6 5.8-3.3q0.2-0.1 0.3 0 0.2 0.1 0.3 0.3l0.1 0.8q0 0.2-0.1 0.5-0.1 0.2-0.4 0.4l-5.7 3.3 0.7 4.7z"/>
					<path id="&lt;Compound Path&gt;" class="s7" d="m430.9 561.6q0 0.3-0.1 0.5-0.1 0.3-0.4 0.4l-0.6 0.4q-0.3 0.1-0.4 0.1-0.2-0.1-0.2-0.4l-0.9-5.7q-0.2-1.7-1-2.1-0.8-0.4-2.1 0.3-1.1 0.6-1.8 1.9-0.6 1.2-0.3 2.9l0.8 5.8q0 0.2-0.1 0.5-0.1 0.2-0.3 0.3l-0.7 0.4q-0.2 0.2-0.4 0.1-0.2-0.1-0.2-0.4l-1.5-10.1q0-0.2 0.1-0.5 0.2-0.3 0.4-0.4l0.7-0.4q0.2-0.1 0.3 0 0.2 0.1 0.3 0.3l0.1 0.7q0.2-0.8 0.9-1.6 0.6-0.9 1.7-1.6 0.9-0.5 1.7-0.6 0.8-0.1 1.5 0.2 0.6 0.4 1 1.1 0.4 0.7 0.6 1.9z"/>
					<path id="&lt;Compound Path&gt;" class="s7" d="m435.5 555.5q0.1 0.4 0.2 0.7 0.1 0.3 0.3 0.5 0.2 0.1 0.6 0.1 0.3 0 0.8-0.3l1-0.6q0.2-0.1 0.4 0 0.1 0.1 0.2 0.3l0.1 0.7q0 0.3-0.1 0.5-0.2 0.3-0.4 0.4l-1.1 0.7q-1.7 0.9-2.5 0.4-0.9-0.6-1.2-2.4l-0.8-5.7-1.4 0.8q-0.2 0.1-0.4 0-0.1 0-0.2-0.3l-0.1-0.7q0-0.2 0.1-0.5 0.1-0.2 0.4-0.4l1.3-0.8-0.5-3.5q0-0.3 0.1-0.5 0.1-0.3 0.4-0.4l0.7-0.4q0.2-0.1 0.3 0 0.2 0.1 0.2 0.3l0.5 3.6 2.4-1.4q0.2-0.1 0.4-0.1 0.2 0.1 0.2 0.4l0.1 0.7q0.1 0.2-0.1 0.5-0.1 0.2-0.3 0.4l-2.4 1.3z"/>
					<path id="&lt;Compound Path&gt;" fill-rule="evenodd" class="s7" d="m439.6 549.9q-0.1-1 0.1-2.1 0.3-1.1 0.7-2 0.5-1 1.2-1.8 0.7-0.8 1.6-1.3 1-0.6 1.9-0.7 0.8-0.1 1.5 0.3 0.7 0.4 1.1 1.3 0.5 0.8 0.6 2.1l0.1 0.6q0.1 0.2-0.1 0.5-0.1 0.2-0.3 0.3l-6.5 3.8 0.1 0.1q0.2 1.4 1.1 1.8 0.8 0.4 1.9-0.3 1.1-0.6 1.5-1.2 0.5-0.6 0.8-1.2 0.1-0.3 0.2-0.4 0.1-0.1 0.3-0.3l0.6-0.3q0.2-0.1 0.4 0 0.2 0 0.2 0.3 0 0.4-0.2 1-0.2 0.7-0.7 1.4-0.4 0.6-1.1 1.3-0.7 0.7-1.7 1.3-0.9 0.6-1.7 0.6-0.8 0.1-1.5-0.3-0.6-0.3-1.1-1-0.5-0.7-0.7-1.8-0.2-0.9-0.3-2zm1.7-0.9l5.3-3-0.1-0.1q-0.1-1.3-1-1.7-0.8-0.4-2 0.3-0.6 0.3-1 0.8-0.4 0.5-0.7 1.1-0.3 0.6-0.5 1.2-0.1 0.7 0 1.4z"/>
					<path id="&lt;Compound Path&gt;" class="s7" d="m454.8 536.2q0.2-0.1 0.4 0 0.2 0.1 0.2 0.3l0.1 0.7q0 0.2-0.1 0.5-0.1 0.3-0.3 0.4l-1.1 0.6q-2.2 1.3-1.8 3.8l0.9 6.3q0 0.3-0.1 0.5-0.1 0.3-0.3 0.4l-0.7 0.4q-0.2 0.1-0.4 0-0.2-0.1-0.2-0.3l-1.5-10.2q0-0.2 0.1-0.5 0.1-0.2 0.4-0.3l0.6-0.4q0.3-0.1 0.4-0.1 0.2 0.1 0.2 0.4l0.1 0.6q0.3-0.8 0.8-1.4 0.5-0.6 1.3-1.1z"/>
					<path id="&lt;Compound Path&gt;" class="s7" d="m465.6 546.1q0 0.2-0.1 0.5-0.1 0.2-0.4 0.4l-0.7 0.4q-0.2 0.1-0.4 0.1-0.1-0.1-0.2-0.3 0-0.1 0-0.2l1.2-5.6-5.1-7.4q0-0.1 0-0.2-0.1-0.2 0-0.4 0.1-0.2 0.3-0.3l0.8-0.5q0.2-0.1 0.4 0 0.1 0.1 0.2 0.2l4 5.8 1.8-9.1q0.1-0.2 0.2-0.5 0.1-0.2 0.3-0.4l0.8-0.4q0.2-0.1 0.3 0 0.2 0 0.2 0.3 0 0 0 0.1z"/>
					<path id="&lt;Compound Path&gt;" fill-rule="evenodd" class="s7" d="m474.6 524.5q1-0.6 1.9-0.7 0.8-0.1 1.5 0.2 0.6 0.4 1.1 1.1 0.4 0.7 0.7 1.7 0 0.2 0.1 0.5 0 0.2 0 0.5 0.1 0.3 0.1 0.6 0.1 0.3 0.1 0.5 0 1.1-0.2 2.2-0.2 1.1-0.6 2-0.5 1-1.2 1.8-0.8 0.8-1.8 1.4-1 0.6-1.8 0.7-0.9 0.1-1.5-0.3-0.7-0.3-1.1-1-0.5-0.7-0.7-1.7-0.1-0.2-0.1-0.4-0.1-0.3-0.1-0.6-0.1-0.3-0.1-0.6 0-0.3 0-0.5-0.1-1.1 0.1-2.2 0.2-1.1 0.7-2 0.4-1 1.2-1.8 0.7-0.8 1.7-1.4zm3.7 5.2q0-0.4 0-0.9-0.1-0.5-0.2-0.9-0.2-0.6-0.4-1.1-0.3-0.4-0.7-0.7-0.4-0.2-0.9-0.1-0.5 0-1.2 0.4-0.7 0.4-1.1 0.9-0.5 0.5-0.7 1.1-0.3 0.6-0.4 1.3-0.1 0.7-0.1 1.4 0 0.4 0.1 0.9 0.1 0.5 0.2 0.9 0.1 0.6 0.4 1.1 0.3 0.4 0.6 0.6 0.4 0.3 1 0.2 0.5 0 1.1-0.4 0.7-0.4 1.2-0.9 0.4-0.5 0.7-1.1 0.3-0.6 0.4-1.3 0.1-0.7 0-1.4z"/>
					<path id="&lt;Compound Path&gt;" class="s7" d="m481.5 521.4q-0.1-0.2 0.1-0.5 0.1-0.2 0.3-0.3l0.7-0.4q0.2-0.2 0.4-0.1 0.2 0.1 0.2 0.4l0.8 5.7q0.2 1.7 1 2.1 0.8 0.5 2-0.2 1.2-0.7 1.8-1.9 0.5-1.2 0.3-2.9l-0.9-5.8q0-0.2 0.1-0.5 0.2-0.2 0.4-0.4l0.7-0.4q0.2-0.1 0.3 0 0.2 0.1 0.3 0.3l1.4 10.2q0 0.2-0.1 0.5-0.1 0.3-0.3 0.4l-0.7 0.4q-0.2 0.1-0.4 0-0.2-0.1-0.2-0.3l-0.1-0.7q-0.3 0.8-0.9 1.6-0.6 0.8-1.7 1.5-0.9 0.5-1.7 0.6-0.7 0.1-1.4-0.2-0.6-0.3-1-1.1-0.4-0.7-0.6-1.9z"/>
					<path id="&lt;Compound Path&gt;" class="s7" d="m497.6 511.5q0.2-0.1 0.4-0.1 0.2 0.1 0.2 0.4l0.1 0.7q0.1 0.2-0.1 0.5-0.1 0.2-0.3 0.3l-1.1 0.7q-2.1 1.2-1.8 3.7l0.9 6.4q0.1 0.2-0.1 0.5-0.1 0.2-0.3 0.4l-0.7 0.4q-0.2 0.1-0.4 0-0.1-0.1-0.2-0.3l-1.4-10.2q-0.1-0.2 0.1-0.5 0.1-0.2 0.3-0.4l0.7-0.4q0.2-0.1 0.4 0 0.1 0.1 0.2 0.3l0.1 0.7q0.3-0.9 0.7-1.5 0.5-0.6 1.4-1.1z"/>
					<path id="&lt;Compound Path&gt;" class="s7" d="m513.5 512.4q0.3-0.1 0.4 0 0.2 0.1 0.2 0.3l0.2 0.8q0 0.2-0.1 0.5-0.2 0.3-0.4 0.4l-7.5 4.4q-0.3 0.1-0.4 0-0.2-0.1-0.2-0.3l-2.1-14.1q0-0.2 0.1-0.5 0.2-0.3 0.4-0.4l7.4-4.3q0.2-0.1 0.4 0 0.2 0.1 0.2 0.3l0.1 0.8q0 0.2-0.1 0.5-0.1 0.3-0.3 0.4l-6.2 3.5 0.7 4.6 5.7-3.3q0.2-0.1 0.4 0 0.2 0.1 0.2 0.3l0.1 0.8q0.1 0.2-0.1 0.5-0.1 0.3-0.3 0.4l-5.7 3.3 0.6 4.8z"/>
					<path id="&lt;Compound Path&gt;" class="s7" d="m515.9 507.1q-0.2 0.1-0.4 0-0.1 0-0.2-0.3l-0.1-0.7q0-0.2 0.1-0.5 0.1-0.2 0.3-0.4l5.6-3.1q0.2-0.2 0.4-0.1 0.1 0.1 0.2 0.3l0.1 0.7q0 0.3-0.1 0.5-0.1 0.3-0.4 0.4z"/>
					<path id="&lt;Compound Path&gt;" class="s7" d="m525.7 496.6q0.1-0.3 0.3-0.7 0.2-0.4 0.5-0.8 0.2-0.4 0.6-0.7 0.4-0.4 0.9-0.7 1.2-0.7 2-0.6 0.8 0.1 1.4 0.7 0.1-0.5 0.4-1 0.2-0.5 0.5-1 0.3-0.5 0.8-0.9 0.4-0.4 1-0.7 1.9-1.1 3-0.3 1 0.8 1.4 3.1l0.8 6q0.1 0.3-0.1 0.5-0.1 0.3-0.3 0.4l-0.7 0.4q-0.2 0.1-0.4 0-0.1 0-0.2-0.3l-0.8-5.8q-0.3-1.7-0.9-2.1-0.7-0.5-1.8 0.1-1 0.6-1.5 1.7-0.5 1.1-0.3 2.7l0.9 6q0 0.2-0.1 0.5-0.1 0.2-0.3 0.3l-0.7 0.4q-0.2 0.2-0.4 0.1-0.2-0.1-0.2-0.3l-0.8-5.9q-0.3-1.6-1-2.1-0.6-0.5-1.7 0.1-1 0.6-1.5 1.7-0.5 1.1-0.3 2.7l0.9 6q0 0.2-0.1 0.5-0.2 0.3-0.4 0.4l-0.7 0.4q-0.2 0.1-0.3 0-0.2-0.1-0.2-0.3l-1.5-10.2q0-0.2 0.1-0.5 0.1-0.2 0.3-0.3l0.7-0.4q0.2-0.2 0.4-0.1 0.2 0.1 0.2 0.4z"/>
					<path id="&lt;Compound Path&gt;" fill-rule="evenodd" class="s7" d="m541 495.6q-0.1-0.9 0.1-1.7 0.2-0.8 0.7-1.6 0.4-0.8 1.1-1.4 0.7-0.7 1.4-1.3l2.6-2.1v-0.3q-0.2-1.1-0.9-1.3-0.7-0.1-1.7 0.4-0.8 0.5-1.1 1.1-0.4 0.6-0.7 1.2 0 0.2-0.2 0.4-0.1 0.1-0.3 0.3l-0.6 0.3q-0.2 0.1-0.4 0-0.1-0.1-0.2-0.3 0-0.5 0.2-1.2 0.2-0.7 0.7-1.3 0.4-0.7 1-1.3 0.6-0.7 1.4-1.1 0.8-0.5 1.6-0.6 0.7-0.1 1.3 0.1 0.6 0.3 1 0.9 0.5 0.6 0.6 1.7l0.9 6.6q0.1 0.3 0 0.5-0.2 0.3-0.4 0.4l-0.7 0.4q-0.2 0.1-0.3 0-0.2-0.1-0.3-0.3l-0.1-0.9q-0.1 0.5-0.4 1-0.3 0.6-0.7 1.1-0.5 0.4-1 0.8-0.4 0.4-0.9 0.7-0.7 0.4-1.3 0.5-0.7 0.1-1.2 0-0.4-0.2-0.8-0.6-0.3-0.5-0.4-1.1zm3.7-0.8q0.6-0.4 1.2-1 0.5-0.5 0.8-1.2 0.4-0.6 0.5-1.4 0.1-0.7 0-1.4l-0.1-0.5-2.1 1.7q-1.2 0.9-1.8 1.7-0.6 0.9-0.5 1.7 0 0.2 0.2 0.4 0.1 0.2 0.3 0.3 0.3 0.1 0.6 0 0.4 0 0.9-0.3z"/>
					<path id="&lt;Compound Path&gt;" class="s7" d="m552.3 477.4q0 0.2-0.1 0.5-0.1 0.3-0.3 0.4l-1.1 0.6q-0.2 0.1-0.4 0-0.1-0.1-0.2-0.3l-0.1-1.2q-0.1-0.3 0-0.5 0.2-0.3 0.4-0.4l1-0.6q0.3-0.2 0.4-0.1 0.2 0.1 0.2 0.4zm1.7 13.1q0.1 0.3-0.1 0.5-0.1 0.3-0.3 0.4l-0.7 0.4q-0.2 0.1-0.4 0-0.2-0.1-0.2-0.3l-1.4-10.1q-0.1-0.3 0-0.5 0.2-0.3 0.4-0.4l0.7-0.4q0.2-0.1 0.4-0.1 0.1 0.1 0.2 0.4z"/>
					<path id="&lt;Compound Path&gt;" class="s7" d="m558.5 487.9q0 0.3-0.1 0.5-0.1 0.3-0.3 0.4l-0.7 0.4q-0.2 0.1-0.4 0.1-0.2-0.1-0.2-0.4l-2-14.3q-0.1-0.2 0.1-0.5 0.1-0.2 0.3-0.3l0.7-0.4q0.2-0.2 0.4-0.1 0.1 0.1 0.2 0.4z"/>
				</g>
				<g id="&lt;Group&gt;">
					<path id="&lt;Compound Path&gt;" class="s7" d="m413.2 633.7q0.2-0.2 0.3-0.1 0.2 0.1 0.3 0.4l0.1 0.7q0 0.3-0.1 0.5-0.1 0.3-0.4 0.4l-7.5 4.4q-0.2 0.1-0.4 0-0.2-0.1-0.2-0.3l-2-14.1q-0.1-0.2 0.1-0.5 0.1-0.2 0.3-0.3l7.4-4.3q0.2-0.2 0.4-0.1 0.2 0.1 0.2 0.4l0.1 0.7q0.1 0.3-0.1 0.5-0.1 0.3-0.3 0.4l-6.2 3.6 0.7 4.6 5.7-3.3q0.2-0.2 0.4-0.1 0.2 0.1 0.2 0.4l0.1 0.7q0.1 0.3 0 0.5-0.2 0.3-0.4 0.4l-5.7 3.3 0.7 4.8z"/>
					<path id="&lt;Compound Path&gt;" class="s7" d="m424.8 628.4q0.1 0.3-0.1 0.5-0.1 0.3-0.3 0.4l-0.7 0.4q-0.2 0.1-0.4 0-0.1-0.1-0.2-0.3l-0.8-5.8q-0.2-1.6-1-2.1-0.9-0.4-2.1 0.3-1.2 0.7-1.8 2-0.6 1.2-0.3 2.9l0.8 5.7q0 0.3-0.1 0.5-0.1 0.3-0.3 0.4l-0.7 0.4q-0.2 0.1-0.4 0-0.2 0-0.2-0.3l-1.5-10.1q0-0.3 0.1-0.5 0.1-0.3 0.3-0.4l0.7-0.4q0.2-0.1 0.4 0 0.2 0 0.2 0.3l0.1 0.7q0.3-0.8 0.9-1.7 0.7-0.8 1.8-1.5 0.9-0.5 1.7-0.6 0.8-0.1 1.4 0.2 0.6 0.3 1.1 1.1 0.4 0.7 0.6 1.8z"/>
					<path id="&lt;Compound Path&gt;" class="s7" d="m429.5 622.2q0.1 0.4 0.2 0.8 0.1 0.3 0.3 0.5 0.2 0.1 0.5 0.1 0.4-0.1 0.9-0.3l0.9-0.6q0.3-0.1 0.4 0 0.2 0 0.2 0.3l0.1 0.7q0.1 0.2-0.1 0.5-0.1 0.2-0.3 0.4l-1.2 0.6q-1.6 1-2.5 0.4-0.8-0.5-1.1-2.4l-0.8-5.6-1.4 0.8q-0.2 0.1-0.4 0-0.2-0.1-0.2-0.3l-0.1-0.7q0-0.3 0.1-0.5 0.1-0.3 0.3-0.4l1.4-0.8-0.5-3.5q0-0.3 0.1-0.5 0.1-0.3 0.3-0.4l0.7-0.4q0.2-0.1 0.4-0.1 0.2 0.1 0.2 0.4l0.5 3.5 2.4-1.4q0.2-0.1 0.4 0 0.2 0.1 0.2 0.3l0.1 0.7q0 0.3-0.1 0.5-0.1 0.3-0.3 0.4l-2.4 1.4z"/>
					<path id="&lt;Compound Path&gt;" fill-rule="evenodd" class="s7" d="m433.6 616.7q-0.1-1 0.1-2.1 0.2-1.1 0.7-2.1 0.4-0.9 1.1-1.7 0.7-0.8 1.7-1.4 1-0.6 1.9-0.6 0.8-0.1 1.5 0.3 0.6 0.4 1.1 1.2 0.4 0.9 0.6 2.1l0.1 0.6q0 0.3-0.1 0.5-0.1 0.3-0.3 0.4l-6.5 3.7v0.2q0.3 1.4 1.1 1.8 0.9 0.3 2-0.3 1-0.6 1.5-1.2 0.5-0.7 0.7-1.3 0.2-0.2 0.3-0.3 0.1-0.2 0.3-0.3l0.5-0.3q0.3-0.1 0.4-0.1 0.2 0.1 0.2 0.4 0 0.4-0.2 1-0.2 0.6-0.6 1.3-0.4 0.7-1.1 1.4-0.7 0.7-1.7 1.3-1 0.5-1.8 0.6-0.8 0-1.4-0.3-0.7-0.4-1.1-1.1-0.5-0.7-0.7-1.7-0.3-0.9-0.3-2zm1.7-0.9l5.2-3v-0.1q-0.2-1.3-1-1.7-0.8-0.4-2 0.3-0.6 0.3-1 0.8-0.5 0.5-0.8 1.1-0.3 0.5-0.4 1.2-0.1 0.7-0.1 1.3z"/>
					<path id="&lt;Compound Path&gt;" class="s7" d="m448.8 603q0.2-0.1 0.4-0.1 0.1 0.1 0.2 0.4l0.1 0.7q0 0.2-0.1 0.5-0.2 0.2-0.4 0.3l-1 0.7q-2.2 1.2-1.8 3.7l0.9 6.4q0 0.2-0.1 0.5-0.2 0.2-0.4 0.4l-0.7 0.4q-0.2 0.1-0.3 0-0.2-0.1-0.2-0.3l-1.5-10.2q0-0.2 0.1-0.5 0.1-0.2 0.3-0.4l0.7-0.4q0.2-0.1 0.4 0 0.2 0.1 0.2 0.3l0.1 0.7q0.3-0.9 0.8-1.5 0.5-0.6 1.3-1.1z"/>
					<path id="&lt;Compound Path&gt;" class="s7" d="m459.6 612.9q-0.1 0.2-0.2 0.5-0.1 0.2-0.3 0.3l-0.8 0.5q-0.2 0.1-0.3 0-0.2-0.1-0.2-0.3 0-0.1 0-0.1l1.2-5.6-5.1-7.4q-0.1-0.1-0.1-0.2 0-0.2 0.1-0.4 0.1-0.3 0.3-0.4l0.8-0.4q0.2-0.1 0.4 0 0.1 0.1 0.2 0.2l3.9 5.7 1.9-9.1q0-0.2 0.1-0.4 0.2-0.3 0.4-0.4l0.7-0.4q0.2-0.2 0.4-0.1 0.1 0.1 0.2 0.3 0 0.1 0 0.2z"/>
					<path id="&lt;Compound Path&gt;" fill-rule="evenodd" class="s7" d="m468.6 591.3q1-0.6 1.9-0.7 0.8-0.1 1.4 0.2 0.7 0.3 1.2 1 0.4 0.8 0.6 1.8 0.1 0.2 0.1 0.4 0.1 0.3 0.1 0.6 0.1 0.3 0.1 0.6 0 0.2 0 0.4 0.1 1.2-0.1 2.2-0.2 1.1-0.7 2.1-0.4 0.9-1.2 1.7-0.7 0.9-1.7 1.4-1 0.6-1.9 0.7-0.8 0.1-1.5-0.2-0.6-0.3-1.1-1-0.4-0.7-0.7-1.7 0-0.2 0-0.5-0.1-0.2-0.1-0.5-0.1-0.3-0.1-0.6 0-0.3 0-0.5-0.1-1.1 0.1-2.2 0.2-1.1 0.6-2 0.5-1 1.3-1.8 0.7-0.8 1.7-1.4zm3.7 5.2q0-0.4-0.1-0.9-0.1-0.6-0.1-0.9-0.2-0.6-0.5-1.1-0.2-0.5-0.6-0.7-0.4-0.2-1-0.2-0.5 0.1-1.1 0.5-0.7 0.3-1.1 0.9-0.5 0.5-0.8 1.1-0.2 0.6-0.4 1.3-0.1 0.6 0 1.3 0 0.4 0.1 1 0 0.5 0.1 0.9 0.2 0.6 0.5 1 0.2 0.5 0.6 0.7 0.4 0.2 0.9 0.2 0.6 0 1.2-0.4 0.7-0.4 1.1-0.9 0.5-0.5 0.8-1.2 0.2-0.6 0.3-1.2 0.2-0.7 0.1-1.4z"/>
					<path id="&lt;Compound Path&gt;" class="s7" d="m475.4 588.2q0-0.2 0.1-0.5 0.2-0.3 0.4-0.4l0.7-0.4q0.2-0.1 0.3 0 0.2 0.1 0.3 0.3l0.8 5.8q0.2 1.6 1 2.1 0.8 0.5 2-0.3 1.2-0.6 1.7-1.9 0.6-1.2 0.3-2.9l-0.8-5.7q0-0.2 0.1-0.5 0.1-0.3 0.3-0.4l0.7-0.4q0.2-0.1 0.4 0 0.2 0.1 0.2 0.3l1.5 10.2q0 0.2-0.1 0.5-0.1 0.2-0.3 0.3l-0.7 0.4q-0.2 0.2-0.4 0.1-0.2-0.1-0.2-0.4l-0.1-0.6q-0.3 0.7-0.9 1.6-0.6 0.8-1.7 1.5-0.9 0.5-1.7 0.6-0.8 0.1-1.4-0.3-0.6-0.3-1-1-0.4-0.8-0.6-1.9z"/>
					<path id="&lt;Compound Path&gt;" class="s7" d="m491.6 578.2q0.2-0.1 0.4 0 0.2 0.1 0.2 0.3l0.1 0.7q0 0.3-0.1 0.5-0.1 0.3-0.3 0.4l-1.1 0.6q-2.2 1.3-1.8 3.8l0.9 6.3q0 0.3-0.1 0.5-0.1 0.3-0.3 0.4l-0.7 0.4q-0.2 0.1-0.4 0.1-0.2-0.1-0.2-0.4l-1.5-10.1q0-0.3 0.1-0.5 0.2-0.3 0.4-0.4l0.7-0.4q0.2-0.1 0.3 0 0.2 0.1 0.2 0.3l0.1 0.7q0.3-0.9 0.8-1.5 0.5-0.6 1.3-1.1z"/>
					<path id="&lt;Compound Path&gt;" fill-rule="evenodd" class="s7" d="m502.8 567.6q0.9-0.6 1.7-0.8 0.9-0.2 1.6 0 0.7 0.2 1.2 0.9 0.5 0.7 0.6 1.9 0.2 1.2 0 2.3-0.3 1-0.8 2-0.5 0.9-1.3 1.7-0.8 0.7-1.7 1.3l-3.4 2 0.7 5.3q0.1 0.2-0.1 0.5-0.1 0.3-0.3 0.4l-0.8 0.4q-0.2 0.1-0.4 0.1-0.1-0.1-0.2-0.4l-2-14q0-0.3 0.1-0.5 0.1-0.3 0.3-0.4zm-2.4 9.3l3.4-1.9q1.4-0.8 2-1.9 0.6-1.1 0.4-2.5-0.2-1.4-1-1.6-0.8-0.2-2.2 0.6l-3.3 1.9z"/>
					<path id="&lt;Compound Path&gt;" fill-rule="evenodd" class="s7" d="m510.2 576.7q-0.1-0.9 0.1-1.7 0.2-0.9 0.7-1.6 0.4-0.8 1.1-1.5 0.7-0.7 1.4-1.3l2.6-2v-0.3q-0.2-1.1-0.9-1.3-0.7-0.2-1.7 0.4-0.8 0.4-1.2 1-0.3 0.6-0.6 1.3 0 0.2-0.2 0.4-0.1 0.1-0.3 0.2l-0.6 0.4q-0.2 0.1-0.4 0-0.2-0.1-0.2-0.3 0-0.5 0.2-1.2 0.2-0.7 0.7-1.4 0.4-0.6 1-1.3 0.6-0.6 1.4-1 0.8-0.5 1.6-0.6 0.7-0.2 1.3 0.1 0.6 0.2 1 0.9 0.4 0.6 0.6 1.7l0.9 6.6q0.1 0.2 0 0.5-0.2 0.3-0.4 0.4l-0.7 0.4q-0.2 0.1-0.4 0-0.1-0.1-0.2-0.3l-0.1-0.9q-0.1 0.5-0.4 1-0.3 0.5-0.7 1-0.5 0.5-1 0.9-0.4 0.4-0.9 0.6-0.7 0.5-1.3 0.6-0.7 0.1-1.2-0.1-0.4-0.1-0.8-0.6-0.3-0.4-0.4-1zm3.7-0.8q0.6-0.4 1.2-1 0.5-0.6 0.8-1.2 0.4-0.7 0.5-1.4 0.1-0.7 0-1.4l-0.1-0.6-2.1 1.7q-1.2 0.9-1.8 1.8-0.6 0.9-0.5 1.7 0 0.2 0.2 0.4 0.1 0.2 0.3 0.3 0.3 0.1 0.6 0 0.4-0.1 0.9-0.3z"/>
					<path id="&lt;Compound Path&gt;" class="s7" d="m526.7 566.9q-0.1-0.5-0.3-0.6-0.3-0.2-0.7-0.1-0.4 0-1 0.2-0.7 0.1-1.5 0.4-1.6 0.5-2.3 0-0.7-0.5-0.9-1.6-0.1-0.7 0-1.4 0.2-0.7 0.6-1.5 0.3-0.7 1-1.3 0.6-0.7 1.6-1.2 0.9-0.5 1.6-0.7 0.7-0.2 1.2-0.1 0.6 0.1 0.9 0.4 0.3 0.3 0.3 0.7 0.1 0.2 0 0.5-0.2 0.3-0.4 0.4l-0.6 0.3q-0.1 0.1-0.3 0.1-0.1 0.1-0.3-0.1-0.3-0.2-0.8-0.2-0.5 0.1-1.4 0.6-0.8 0.5-1.3 1.1-0.5 0.7-0.4 1.4 0.1 0.4 0.2 0.5 0.2 0.2 0.6 0.2 0.4 0 0.9-0.2 0.6-0.1 1.5-0.4 0.9-0.3 1.5-0.3 0.6 0 1 0.2 0.4 0.3 0.7 0.7 0.2 0.4 0.3 1 0.1 0.6-0.1 1.4-0.2 0.8-0.6 1.5-0.5 0.8-1.2 1.5-0.6 0.7-1.6 1.2-0.9 0.5-1.6 0.7-0.8 0.1-1.3 0-0.6-0.1-0.9-0.3-0.4-0.3-0.5-0.7 0-0.2 0.1-0.5 0.1-0.3 0.4-0.4l0.6-0.4q0.2-0.1 0.3-0.1 0.2-0.1 0.3 0.1 0.4 0.3 1 0.2 0.5 0 1.4-0.5 0.4-0.2 0.8-0.6 0.4-0.3 0.6-0.7 0.3-0.4 0.5-0.7 0.1-0.4 0.1-0.7z"/>
					<path id="&lt;Compound Path&gt;" class="s7" d="m536.2 561.4q-0.1-0.4-0.3-0.6-0.3-0.1-0.7-0.1-0.4 0-1 0.2-0.7 0.2-1.5 0.4-1.6 0.5-2.3 0-0.8-0.5-0.9-1.6-0.1-0.7 0-1.4 0.2-0.7 0.6-1.4 0.3-0.7 1-1.4 0.6-0.7 1.6-1.2 0.9-0.5 1.6-0.7 0.7-0.1 1.2 0 0.6 0.1 0.9 0.3 0.3 0.3 0.3 0.7 0.1 0.2 0 0.5-0.2 0.3-0.4 0.4l-0.6 0.4q-0.1 0-0.3 0.1-0.2 0-0.3-0.1-0.3-0.3-0.8-0.2-0.5 0-1.4 0.5-0.8 0.5-1.3 1.2-0.5 0.6-0.4 1.3 0 0.4 0.2 0.6 0.2 0.1 0.6 0.1 0.3 0 0.9-0.2 0.6-0.1 1.5-0.4 0.8-0.3 1.5-0.3 0.6 0 1 0.3 0.4 0.2 0.7 0.6 0.2 0.4 0.3 1 0.1 0.6-0.1 1.4-0.2 0.8-0.6 1.5-0.5 0.8-1.2 1.5-0.7 0.7-1.6 1.2-0.9 0.5-1.6 0.7-0.8 0.1-1.4 0.1-0.5-0.1-0.8-0.4-0.4-0.3-0.5-0.7 0-0.2 0.1-0.5 0.1-0.2 0.4-0.4l0.6-0.4q0.1 0 0.3-0.1 0.2 0 0.3 0.1 0.4 0.3 1 0.3 0.5-0.1 1.4-0.6 0.4-0.2 0.8-0.5 0.3-0.4 0.6-0.8 0.3-0.3 0.5-0.7 0.1-0.4 0.1-0.7z"/>
					<path id="&lt;Compound Path&gt;" class="s7" d="m549 553.6l1-8.5q0-0.2 0.2-0.5 0.1-0.2 0.4-0.4l0.6-0.4q0.2-0.1 0.3 0 0.2 0.1 0.2 0.3 0 0.1 0 0.2l-1.4 11.7q0 0.3-0.1 0.5-0.1 0.3-0.4 0.4l-0.6 0.3q-0.2 0.2-0.4 0.1-0.1-0.2-0.2-0.3l-3.3-6-1.2 8.5q-0.1 0.3-0.2 0.6 0 0.2-0.3 0.4l-0.6 0.3q-0.2 0.2-0.4 0.1-0.1-0.2-0.2-0.4l-4.3-8.3q-0.1-0.1-0.1-0.2 0-0.2 0.1-0.4 0.1-0.3 0.3-0.4l0.6-0.3q0.3-0.2 0.5-0.1 0.2 0.1 0.2 0.2l3.2 6.1 1.2-8.6q0-0.2 0.1-0.4 0.1-0.3 0.4-0.5l0.4-0.2q0.3-0.2 0.4 0 0.2 0.1 0.3 0.2z"/>
					<path id="&lt;Compound Path&gt;" fill-rule="evenodd" class="s7" d="m557.4 540q1-0.6 1.9-0.7 0.8-0.1 1.5 0.2 0.6 0.3 1.1 1.1 0.4 0.7 0.7 1.7 0 0.2 0.1 0.5 0 0.2 0 0.5 0.1 0.3 0.1 0.6 0.1 0.3 0.1 0.4 0 1.2-0.2 2.3-0.2 1-0.6 2-0.5 0.9-1.2 1.8-0.8 0.8-1.8 1.4-1 0.5-1.8 0.6-0.9 0.1-1.5-0.2-0.7-0.3-1.1-1-0.5-0.7-0.7-1.7-0.1-0.2-0.1-0.5-0.1-0.2-0.1-0.5-0.1-0.3-0.1-0.6 0-0.3 0-0.5-0.1-1.1 0.1-2.2 0.2-1.1 0.7-2 0.4-1 1.2-1.8 0.7-0.8 1.7-1.4zm3.7 5.2q0-0.4-0.1-0.9 0-0.5-0.1-0.9-0.2-0.6-0.4-1.1-0.3-0.5-0.7-0.7-0.4-0.2-0.9-0.1-0.5 0-1.2 0.4-0.7 0.4-1.1 0.9-0.5 0.5-0.7 1.1-0.3 0.6-0.4 1.3-0.1 0.7-0.1 1.3 0 0.5 0.1 1 0.1 0.5 0.2 0.9 0.1 0.6 0.4 1.1 0.2 0.4 0.6 0.6 0.4 0.3 1 0.2 0.5 0 1.1-0.4 0.7-0.4 1.2-0.9 0.4-0.5 0.7-1.1 0.3-0.6 0.4-1.3 0.1-0.7 0-1.4z"/>
					<path id="&lt;Compound Path&gt;" class="s7" d="m569.2 533.4q0.2-0.1 0.4 0 0.2 0.1 0.2 0.3l0.1 0.7q0.1 0.3-0.1 0.5-0.1 0.3-0.3 0.4l-1.1 0.6q-2.1 1.3-1.8 3.8l0.9 6.3q0.1 0.3-0.1 0.5-0.1 0.3-0.3 0.4l-0.7 0.4q-0.2 0.1-0.4 0-0.1 0-0.2-0.3l-1.4-10.1q-0.1-0.3 0.1-0.5 0.1-0.3 0.3-0.4l0.7-0.4q0.2-0.1 0.4 0 0.1 0 0.2 0.3l0.1 0.7q0.3-0.9 0.7-1.5 0.5-0.6 1.4-1.1z"/>
					<path id="&lt;Compound Path&gt;" fill-rule="evenodd" class="s7" d="m574.9 529.9q1.2-0.7 1.9-0.6 0.8 0.1 1.2 0.4l-0.7-4.8q0-0.2 0.1-0.5 0.2-0.3 0.4-0.4l0.7-0.4q0.2-0.1 0.3 0 0.2 0.1 0.2 0.3l2.1 14.3q0 0.2-0.1 0.5-0.1 0.3-0.3 0.4l-0.7 0.4q-0.2 0.1-0.4 0-0.2-0.1-0.2-0.3l-0.1-0.7q-0.3 0.8-0.9 1.7-0.7 0.8-1.8 1.5-0.9 0.5-1.7 0.6-0.8 0-1.5-0.3-0.6-0.4-1.1-1.1-0.5-0.8-0.7-2-0.1-0.3-0.1-0.7-0.1-0.3-0.1-0.7-0.1-1.2 0.1-2.4 0.2-1.1 0.6-2.1 0.5-1 1.2-1.8 0.7-0.8 1.6-1.3zm3.9 5.1q0-0.3-0.1-0.8-0.1-0.6-0.2-0.9-0.2-1.5-1.1-1.9-0.9-0.4-2 0.3-1.3 0.7-1.9 2-0.5 1.3-0.4 3 0.1 0.6 0.2 1.2 0.3 1.5 1.1 2 0.9 0.5 2.1-0.2 1.2-0.7 1.8-1.9 0.6-1.3 0.5-2.8z"/>
				</g>
			</g>
		</g>
	</g>
	<g id="Plants">
		<g id="Plant 00000024709687358910816440000007067742439610846882 ">
			<g id="Pot 00000018934816274698707570000008475954829290007982 ">
				<path id="&lt;Path&gt;" class="s7" d="m70.7 882.6c-16.3-16.8-25.9-59.2-10-72.6h81.1c15.9 13.4 6.3 55.7-10 72.6q-0.2 0.2-0.4 0.5-0.3 0.3-0.6 0.5-0.7 0.7-1.5 1.4-0.2 0.1-0.4 0.3-0.6 0.4-1.2 0.9-1.1 0.8-2.1 1.4c-13.5 7.8-35.2 7.8-48.7 0q-1.1-0.6-2.1-1.4-0.6-0.4-1.2-0.9-0.2-0.2-0.4-0.4-0.8-0.6-1.5-1.2-0.3-0.4-0.6-0.7-0.2-0.2-0.4-0.4z"/>
				<path id="&lt;Path&gt;" class="s5" d="m134.7 804.6c18.5 10.8 18.5 28.3 0 39.1-18.5 10.8-48.4 10.8-66.9 0-18.5-10.7-18.5-28.3 0-39.1 18.5-10.8 48.4-10.8 66.9 0z"/>
				<path id="&lt;Path&gt;" class="s6" d="m125.8 809.8c13.6 8 13.6 20.8 0 28.8-13.5 7.9-35.6 7.9-49.1 0-13.6-8-13.6-20.8 0-28.8 13.5-7.9 35.6-7.9 49.1 0z"/>
				<path id="&lt;Path&gt;" class="s0" d="m76.7 823.5c13.5-8 35.6-8 49.1 0 3.8 2.2 6.5 4.8 8.2 7.5-1.7 2.8-4.4 5.4-8.2 7.6-13.5 7.9-35.6 7.9-49.1 0-3.8-2.2-6.5-4.8-8.2-7.6 1.7-2.7 4.4-5.3 8.2-7.5z"/>
			</g>
			<g id="&lt;Group&gt;">
				<g id="&lt;Group&gt;">
					<path id="&lt;Path&gt;" class="s4" d="m95.8 715.4c-6.2 6.7-23.5 8.5-30.6-9.6-6.7-17.1-14-33.3-16-39.5-2.1-6.3 4.1-8.4 4.1-8.4 0 0 0.5-9.3 16.4-3 15.7 6.3 27.1 16 34 31.6 6.8 15.4 2.7 26.8-7.9 28.9z"/>
					<path id="&lt;Path&gt;" class="s10" d="m95.8 715.4c-6.2 6.7-23.5 8.5-30.6-9.6-6.7-17.1-14-33.3-16-39.5-2.1-6.3 4.1-8.4 4.1-8.4 0 0 0.5-9.3 16.4-3 15.7 6.3 27.1 16 34 31.6 6.8 15.4 2.7 26.8-7.9 28.9z"/>
				</g>
				<g id="&lt;Group&gt;">
					<path id="&lt;Path&gt;" class="s4" d="m103.1 749.5c0 0.5-0.5 0.3-0.6-0.1-0.6-3.5-1-7.1-1.6-10.6-0.6-3.5-1.4-7-2.2-10.4-2.8-12.4-7.2-24.3-13.1-35.5-6-11.6-13.8-21.8-22.6-31.3-0.1-0.2 0-0.5 0.2-0.4 5.3 5 10.1 10.6 14.4 16.4 7.7 10.4 14 21.9 18.4 34 2.2 6 4 12.1 5.3 18.3 0.6 3.1 1.1 6.3 1.4 9.5 0.3 3.3 0.6 6.8 0.4 10.1z"/>
					<path id="&lt;Path&gt;" class="s15" d="m103.1 749.5c0 0.5-0.5 0.3-0.6-0.1-0.6-3.5-1-7.1-1.6-10.6-0.6-3.5-1.4-7-2.2-10.4-2.8-12.4-7.2-24.3-13.1-35.5-6-11.6-13.8-21.8-22.6-31.3-0.1-0.2 0-0.5 0.2-0.4 5.3 5 10.1 10.6 14.4 16.4 7.7 10.4 14 21.9 18.4 34 2.2 6 4 12.1 5.3 18.3 0.6 3.1 1.1 6.3 1.4 9.5 0.3 3.3 0.6 6.8 0.4 10.1z"/>
				</g>
				<g id="&lt;Group&gt;">
					<path id="&lt;Path&gt;" class="s4" d="m108 710.6c-14.3 4.4-24.9-6.7-21.2-24.1 3.7-17.5 22-36.9 28.9-31.7 4.3-4.3 13.9-2.8 18.4 11.4 4.4 14.2 0.4 50.6-26.1 44.4z"/>
					<path id="&lt;Path&gt;" class="s16" d="m108 710.6c-14.3 4.4-24.9-6.7-21.2-24.1 3.7-17.5 22-36.9 28.9-31.7 4.3-4.3 13.9-2.8 18.4 11.4 4.4 14.2 0.4 50.6-26.1 44.4z"/>
				</g>
				<g id="&lt;Group&gt;">
					<path id="&lt;Path&gt;" class="s4" d="m116.7 665.7c-1.6 6.1-3.4 12.1-4.8 18.3-1.4 5.8-2.6 11.7-3.6 17.7-3.6 21.2-5.2 42.7-5.7 64.3-0.3 10.5-0.4 21.1-0.2 31.7 0.1 10.7 0.6 21.4 0.4 32.1 0 2.2-3.3 2.8-3.5 0.4-0.5-6-0.5-12.2-0.6-18.3q-0.1-8.9-0.2-17.9c-0.1-21.4 0.3-43 2.9-64.3 1.3-11.1 2.9-22.1 5.5-32.9 2.4-10.6 5.2-21.3 9.4-31.4 0.2-0.3 0.5 0 0.4 0.3z"/>
					<path id="&lt;Path&gt;" class="s15" d="m116.7 665.7c-1.6 6.1-3.4 12.1-4.8 18.3-1.4 5.8-2.6 11.7-3.6 17.7-3.6 21.2-5.2 42.7-5.7 64.3-0.3 10.5-0.4 21.1-0.2 31.7 0.1 10.7 0.6 21.4 0.4 32.1 0 2.2-3.3 2.8-3.5 0.4-0.5-6-0.5-12.2-0.6-18.3q-0.1-8.9-0.2-17.9c-0.1-21.4 0.3-43 2.9-64.3 1.3-11.1 2.9-22.1 5.5-32.9 2.4-10.6 5.2-21.3 9.4-31.4 0.2-0.3 0.5 0 0.4 0.3z"/>
				</g>
				<g id="&lt;Group&gt;">
					<path id="&lt;Path&gt;" class="s4" d="m84.8 761.8c-6.3 7.1-20.6 6.5-30.1-6.1-9.6-12.6-15.4-59.9-1.9-56.9 2.9-6.3 40.1 8.8 44.9 39.7 3.5 22.5-12.9 23.3-12.9 23.3z"/>
					<path id="&lt;Path&gt;" class="s16" d="m84.8 761.8c-6.3 7.1-20.6 6.5-30.1-6.1-9.6-12.6-15.4-59.9-1.9-56.9 2.9-6.3 40.1 8.8 44.9 39.7 3.5 22.5-12.9 23.3-12.9 23.3z"/>
				</g>
				<g id="&lt;Group&gt;">
					<path id="&lt;Path&gt;" class="s4" d="m96.7 792.9c0 0.6-0.6 0.5-0.7 0-0.8-3.4-2.1-6.6-3.1-10-0.9-3.1-1.7-6.4-2.6-9.6-3.2-11.3-7.3-22.3-12.3-33-2.5-5.5-5.3-10.9-8.4-16.2-3-5.1-6.4-9.9-9.7-14.7-0.1-0.1 0-0.4 0.2-0.3 4.3 5.2 8.1 11 11.8 16.7 6.6 10.4 12.3 21.2 16.6 32.7q3.2 8.4 5.6 17.1c0.7 2.8 1.4 5.7 1.8 8.6 0.4 2.9 0.5 5.8 0.8 8.7z"/>
					<path id="&lt;Path&gt;" class="s15" d="m96.7 792.9c0 0.6-0.6 0.5-0.7 0-0.8-3.4-2.1-6.6-3.1-10-0.9-3.1-1.7-6.4-2.6-9.6-3.2-11.3-7.3-22.3-12.3-33-2.5-5.5-5.3-10.9-8.4-16.2-3-5.1-6.4-9.9-9.7-14.7-0.1-0.1 0-0.4 0.2-0.3 4.3 5.2 8.1 11 11.8 16.7 6.6 10.4 12.3 21.2 16.6 32.7q3.2 8.4 5.6 17.1c0.7 2.8 1.4 5.7 1.8 8.6 0.4 2.9 0.5 5.8 0.8 8.7z"/>
				</g>
				<g id="&lt;Group&gt;">
					<path id="&lt;Path&gt;" class="s4" d="m107.6 754.8c-8.2-1.8-8.6-11.6 1.6-23.6 10.2-12 35.9-17.3 37.1-12.2 5.7 0 5.7 17.9-6.9 34.3-12.7 16.4-31.1 12.6-31.8 1.5z"/>
					<path id="&lt;Path&gt;" class="s16" d="m107.6 754.8c-8.2-1.8-8.6-11.6 1.6-23.6 10.2-12 35.9-17.3 37.1-12.2 5.7 0 5.7 17.9-6.9 34.3-12.7 16.4-31.1 12.6-31.8 1.5z"/>
				</g>
				<g id="&lt;Group&gt;">
					<path id="&lt;Path&gt;" class="s4" d="m123.6 737.5c-10 8.1-17.9 19.3-22.4 31.3-0.3 0.8-1.5-0.3-1.3-1 2.4-6.1 5.5-11.8 9.5-17 4.1-5.2 8.8-9.6 14.1-13.4 0.1-0.1 0.2 0.1 0.1 0.1z"/>
					<path id="&lt;Path&gt;" class="s15" d="m123.6 737.5c-10 8.1-17.9 19.3-22.4 31.3-0.3 0.8-1.5-0.3-1.3-1 2.4-6.1 5.5-11.8 9.5-17 4.1-5.2 8.8-9.6 14.1-13.4 0.1-0.1 0.2 0.1 0.1 0.1z"/>
				</g>
				<g id="&lt;Group&gt;">
					<path id="&lt;Path&gt;" class="s4" d="m138.7 806.2c17.5 4.7 24.8 18.7 26.6 28.6 1.3 7.1 0 18.7 0 18.7 0 0-1.9 1.1-9.5 1.6-7.6 0.5-23.3-2.1-34.3-12.4-11.1-10.2-15.9-23.6-4.6-28.2 0-6.7 4.2-13.1 21.8-8.3z"/>
					<path id="&lt;Path&gt;" class="s10" d="m138.7 806.2c17.5 4.7 24.8 18.7 26.6 28.6 1.3 7.1 0 18.7 0 18.7 0 0-1.9 1.1-9.5 1.6-7.6 0.5-23.3-2.1-34.3-12.4-11.1-10.2-15.9-23.6-4.6-28.2 0-6.7 4.2-13.1 21.8-8.3z"/>
				</g>
				<g id="&lt;Group&gt;">
					<path id="&lt;Path&gt;" class="s4" d="m148.1 834.5c-6.1-6-12.3-12.3-19.9-16.3-4.8-2.5-10.5-4.2-15.9-3.6-2.1 0.2-4.3 0.9-6 2.3-1.7 1.3-2.7 3.1-4.1 4.7-0.4 0.5-1.1-0.4-1.1-0.7-0.6-3.7 4.1-6.7 7-7.7 7.8-2.7 16.3 0.9 22.8 5.2 6.6 4.3 12 10.1 17.3 16 0 0-0.1 0.2-0.1 0.1z"/>
					<path id="&lt;Path&gt;" class="s15" d="m148.1 834.5c-6.1-6-12.3-12.3-19.9-16.3-4.8-2.5-10.5-4.2-15.9-3.6-2.1 0.2-4.3 0.9-6 2.3-1.7 1.3-2.7 3.1-4.1 4.7-0.4 0.5-1.1-0.4-1.1-0.7-0.6-3.7 4.1-6.7 7-7.7 7.8-2.7 16.3 0.9 22.8 5.2 6.6 4.3 12 10.1 17.3 16 0 0-0.1 0.2-0.1 0.1z"/>
				</g>
				<g id="&lt;Group&gt;">
					<path id="&lt;Path&gt;" class="s4" d="m70.7 791.7c-13.2 0.5-28.3-16.1-36.2-22.4-7.8-6.3-21.1-11-24.7-13.1-3.7-2.1-0.9-6.1 3.4-9.5 4.3-3.4 22.9-8.5 44-0.9 21.2 7.6 25.3 20.9 23.1 25.5 4.9 6.3 3.7 19.9-9.6 20.4z"/>
					<path id="&lt;Path&gt;" class="s10" d="m70.7 791.7c-13.2 0.5-28.3-16.1-36.2-22.4-7.8-6.3-21.1-11-24.7-13.1-3.7-2.1-0.9-6.1 3.4-9.5 4.3-3.4 22.9-8.5 44-0.9 21.2 7.6 25.3 20.9 23.1 25.5 4.9 6.3 3.7 19.9-9.6 20.4z"/>
				</g>
				<g id="&lt;Group&gt;">
					<path id="&lt;Path&gt;" class="s4" d="m92.6 792.2c-4.5-21.2-26.6-32.9-45.9-37.6-6.4-1.5-12.9-2.3-19.4-2.2-0.1 0-0.2 0.2-0.1 0.2 10.8 0.9 21.6 3.3 31.5 7.5 9.8 4.2 19.1 9.9 25.9 18.3 3.4 4.1 5.9 9 7.4 14 0.2 0.6 0.6 0.2 0.6-0.2z"/>
					<path id="&lt;Path&gt;" class="s15" d="m92.6 792.2c-4.5-21.2-26.6-32.9-45.9-37.6-6.4-1.5-12.9-2.3-19.4-2.2-0.1 0-0.2 0.2-0.1 0.2 10.8 0.9 21.6 3.3 31.5 7.5 9.8 4.2 19.1 9.9 25.9 18.3 3.4 4.1 5.9 9 7.4 14 0.2 0.6 0.6 0.2 0.6-0.2z"/>
				</g>
				<g id="&lt;Group&gt;">
					<path id="&lt;Path&gt;" class="s4" d="m119.3 717.1c3.7-8.6 13.2-20.7 40.1-24 26.8-3.3 32 6.8 35.2 10.9 3.2 4-1.6 12.3-11.8 15-10.2 2.6-21.8 9.4-32.8 16.4-11.1 7-22.5 2.3-22.2-5.8-4 2.4-12.2-4-8.5-12.5z"/>
					<path id="&lt;Path&gt;" class="s10" d="m119.3 717.1c3.7-8.6 13.2-20.7 40.1-24 26.8-3.3 32 6.8 35.2 10.9 3.2 4-1.6 12.3-11.8 15-10.2 2.6-21.8 9.4-32.8 16.4-11.1 7-22.5 2.3-22.2-5.8-4 2.4-12.2-4-8.5-12.5z"/>
				</g>
				<g id="&lt;Group&gt;">
					<path id="&lt;Path&gt;" class="s4" d="m171.5 704.2c-2.5-0.1-4.9 0.5-7.3 1.1-2.3 0.5-4.5 1.2-6.7 2-4 1.4-7.8 3.3-11.5 5.5-3.7 2.3-7.2 5.1-10.3 8.2q-2.3 2.3-4.3 5c-1.3 1.6-2.3 3.4-3.6 5-0.5 0.5-1.3-0.3-1.1-0.9 0.6-1.7 1.8-3.2 2.9-4.7 1.1-1.6 2.4-3.1 3.8-4.5 4.7-5.1 10.5-9.3 16.8-12.2q4.7-2.2 9.8-3.6c3.7-0.9 7.8-1.8 11.6-1.2 0.1 0.1 0 0.4-0.1 0.3z"/>
					<path id="&lt;Path&gt;" class="s15" d="m171.5 704.2c-2.5-0.1-4.9 0.5-7.3 1.1-2.3 0.5-4.5 1.2-6.7 2-4 1.4-7.8 3.3-11.5 5.5-3.7 2.3-7.2 5.1-10.3 8.2q-2.3 2.3-4.3 5c-1.3 1.6-2.3 3.4-3.6 5-0.5 0.5-1.3-0.3-1.1-0.9 0.6-1.7 1.8-3.2 2.9-4.7 1.1-1.6 2.4-3.1 3.8-4.5 4.7-5.1 10.5-9.3 16.8-12.2q4.7-2.2 9.8-3.6c3.7-0.9 7.8-1.8 11.6-1.2 0.1 0.1 0 0.4-0.1 0.3z"/>
				</g>
				<g id="&lt;Group&gt;">
					<path id="&lt;Path&gt;" class="s4" d="m128.4 785.2c0.6 10.1-7.5 18.8-15.7 20.4-8.2 1.6-11.9 0-16.5 2.7-1.2-3.4-11.3-15.6-6.5-26.7 4.9-11.1 15.1-12 18.8-8.2 15.1-5.2 19.4 1.6 19.9 11.8z"/>
					<path id="&lt;Path&gt;" class="s10" d="m128.4 785.2c0.6 10.1-7.5 18.8-15.7 20.4-8.2 1.6-11.9 0-16.5 2.7-1.2-3.4-11.3-15.6-6.5-26.7 4.9-11.1 15.1-12 18.8-8.2 15.1-5.2 19.4 1.6 19.9 11.8z"/>
				</g>
				<g id="&lt;Group&gt;">
					<path id="&lt;Path&gt;" class="s4" d="m109.1 773.3c-0.5 0.8-1.4 1.4-2.1 2.2q-1.2 1.2-2.3 2.6-2 2.6-3.4 5.6c-2 4.4-2.7 9.2-2.4 14 0 0.1-0.1 0.3-0.1 0.1-1-4.7-0.3-9.7 1.4-14.2 0.8-2.2 1.9-4.3 3.2-6.2 1.3-1.8 3-4.2 5-5.2 0.6-0.2 1 0.7 0.7 1.1z"/>
					<path id="&lt;Path&gt;" class="s15" d="m109.1 773.3c-0.5 0.8-1.4 1.4-2.1 2.2q-1.2 1.2-2.3 2.6-2 2.6-3.4 5.6c-2 4.4-2.7 9.2-2.4 14 0 0.1-0.1 0.3-0.1 0.1-1-4.7-0.3-9.7 1.4-14.2 0.8-2.2 1.9-4.3 3.2-6.2 1.3-1.8 3-4.2 5-5.2 0.6-0.2 1 0.7 0.7 1.1z"/>
				</g>
				<g id="&lt;Group&gt;">
					<path id="&lt;Path&gt;" class="s4" d="m90.8 818c-11 6.5-25.5 5.5-36.6 2.1-11-3.5-27.9-9.7-31.7-12.1-3.8-2.4 1-11.1 10.3-21.2 9.4-10.1 23.2-13.3 35.9-9.5 12.8 3.8 21.8 10.3 22.1 18.6 10.4 4.1 11.1 15.5 0 22.1z"/>
					<path id="&lt;Path&gt;" class="s16" d="m90.8 818c-11 6.5-25.5 5.5-36.6 2.1-11-3.5-27.9-9.7-31.7-12.1-3.8-2.4 1-11.1 10.3-21.2 9.4-10.1 23.2-13.3 35.9-9.5 12.8 3.8 21.8 10.3 22.1 18.6 10.4 4.1 11.1 15.5 0 22.1z"/>
				</g>
				<g id="&lt;Group&gt;">
					<path id="&lt;Path&gt;" class="s4" d="m91.4 796.3c-4.3-1.3-8.5-2.7-13-3.2-4.8-0.6-9.7-0.6-14.5-0.1-4.8 0.5-9.5 1.5-14.1 2.7q-3.8 1-7.5 2.1c-2.3 0.7-4.6 1.6-6.9 2.1-0.1 0.1-0.1-0.2 0-0.3 2.1-1.1 4.4-1.9 6.7-2.7q3.6-1.3 7.3-2.4c4.7-1.4 9.5-2.5 14.4-3.1 4.6-0.5 9.2-0.6 13.9-0.1 4.6 0.4 9.7 1.3 13.8 3.7 0.5 0.3 0.8 1.5-0.1 1.3z"/>
					<path id="&lt;Path&gt;" class="s15" d="m91.4 796.3c-4.3-1.3-8.5-2.7-13-3.2-4.8-0.6-9.7-0.6-14.5-0.1-4.8 0.5-9.5 1.5-14.1 2.7q-3.8 1-7.5 2.1c-2.3 0.7-4.6 1.6-6.9 2.1-0.1 0.1-0.1-0.2 0-0.3 2.1-1.1 4.4-1.9 6.7-2.7q3.6-1.3 7.3-2.4c4.7-1.4 9.5-2.5 14.4-3.1 4.6-0.5 9.2-0.6 13.9-0.1 4.6 0.4 9.7 1.3 13.8 3.7 0.5 0.3 0.8 1.5-0.1 1.3z"/>
				</g>
				<g id="&lt;Group&gt;">
					<path id="&lt;Path&gt;" class="s4" d="m117.2 783.6c-9.1-7.3-6.1-24.7 25.8-25.6 32-0.9 54.8 7.4 53.8 17.7 5.1 5.1 2.5 19.5-23.3 24-25.9 4.5-62.9 2.3-56.3-16.1z"/>
					<path id="&lt;Path&gt;" class="s16" d="m117.2 783.6c-9.1-7.3-6.1-24.7 25.8-25.6 32-0.9 54.8 7.4 53.8 17.7 5.1 5.1 2.5 19.5-23.3 24-25.9 4.5-62.9 2.3-56.3-16.1z"/>
				</g>
				<g id="&lt;Group&gt;">
					<path id="&lt;Path&gt;" class="s4" d="m181.7 776.2c-5.2-0.5-10.5-0.9-15.7-0.9-9-0.1-18.1 0.3-27 1.5-3.7 0.4-7.5 1.1-11.1 2.1q-2.8 0.9-5.5 2.1c-1.8 0.8-3.7 2.3-5.6 2.7-0.5 0.1-1.1-0.5-0.9-1 0.2-0.8 1-1.2 1.7-1.7q1.4-0.8 2.9-1.5 3.1-1.4 6.4-2.4c8.5-2.3 17.6-2.7 26.3-3 9.5-0.2 19.2 0 28.6 1.7 0.1 0 0.1 0.4-0.1 0.4z"/>
					<path id="&lt;Path&gt;" class="s15" d="m181.7 776.2c-5.2-0.5-10.5-0.9-15.7-0.9-9-0.1-18.1 0.3-27 1.5-3.7 0.4-7.5 1.1-11.1 2.1q-2.8 0.9-5.5 2.1c-1.8 0.8-3.7 2.3-5.6 2.7-0.5 0.1-1.1-0.5-0.9-1 0.2-0.8 1-1.2 1.7-1.7q1.4-0.8 2.9-1.5 3.1-1.4 6.4-2.4c8.5-2.3 17.6-2.7 26.3-3 9.5-0.2 19.2 0 28.6 1.7 0.1 0 0.1 0.4-0.1 0.4z"/>
				</g>
			</g>
		</g>
	</g>
	<g id="Icons">
		<g id="Envelope">
			<g id="&lt;Group&gt;">
				<path id="&lt;Path&gt;" class="s4" d="m74.9 296l141.3-81.5 5.6 3.2c1.5 0.9 2.7 2.9 2.7 4.6v104.3c0 1.6-1.2 3.7-2.7 4.6l-135.9 78.4c-1.5 0.9-3.9 0.9-5.4 0l-3-1.7c-1.4-0.8-2.6-2.9-2.6-4.6z"/>
			</g>
			<g id="&lt;Group&gt;">
				<path id="&lt;Path&gt;" class="s4" d="m216.2 207.7v6.8l-139.2 82.8-2.1-1.3c0 0 0-3.8 0-6.7 0-1.8 0.8-4.4 1.8-5.8l69.5-101.6c1-1.4 3.2-2.1 4.8-1.5l62.2 23q0.3 0.2 0.6 0.3l2.2 1.3-0.6 0.3c0.5 0.8 0.8 1.6 0.8 2.4z"/>
				<path id="&lt;Path&gt;" class="s17" d="m149.1 182.4q-0.4 0.3-0.7 0.8l-69.6 101.5c-0.5 0.8-0.9 1.9-1.3 2.9l-2.1-1.2q0.2-0.8 0.5-1.5 0.1-0.1 0.1-0.1 0.1-0.3 0.3-0.6 0 0 0-0.1 0.2-0.3 0.4-0.6l69.5-101.6q0.2-0.2 0.4-0.4 0.2-0.2 0.3-0.3z"/>
				<path id="&lt;Path&gt;" class="s18" d="m215.9 205q-0.3-0.2-0.6-0.3l-62.1-23c-1.4-0.5-3-0.2-4.1 0.7l-2.2-1.2c1.2-0.9 2.8-1.3 4.1-0.8l62.2 23q0.3 0.1 0.6 0.3z"/>
				<path id="&lt;Path&gt;" class="s4" d="m153.2 181.7l62.1 23c1.7 0.6 3 2.5 3 4.3v6.7l-141.3 81.6c0 0 0-3.9 0-6.8 0-1.7 0.8-4.3 1.8-5.8l69.6-101.5c1-1.5 3.1-2.2 4.8-1.5z"/>
			</g>
			<g id="&lt;Group&gt;">
				<path id="&lt;Path&gt;" class="s0" d="m87.2 404.7v-154.2l127.3-73.5v154.2z"/>
				<path id="&lt;Compound Path&gt;" fill-rule="evenodd" class="s11" d="m214.8 331.4l-128 73.9v-155l128-73.9zm-127.3-80.7v153.3l126.6-73v-153.4z"/>
				<path id="&lt;Path&gt;" class="s19" d="m86.8 250.3l-2.8-1.6 128-74 2.8 1.7z"/>
				<path id="&lt;Path&gt;" class="s1" d="m86.8 250.3v155l-2.8-1.6v-155z"/>
				<path id="&lt;Path&gt;" class="s1" d="m97.5 269.3c-0.4-0.6-0.2-1.4 0.4-1.7l104.5-60.4c0.7-0.3 1.4-0.1 1.8 0.5 0.3 0.6 0.1 1.4-0.5 1.7l-104.5 60.4q-0.3 0.2-0.6 0.2c-0.5 0-0.9-0.3-1.1-0.7z"/>
				<path id="&lt;Path&gt;" class="s1" d="m97.5 289.7c-0.4-0.6-0.2-1.4 0.4-1.7l104.5-60.4c0.7-0.4 1.4-0.1 1.8 0.5 0.3 0.6 0.1 1.4-0.5 1.7l-104.5 60.4q-0.3 0.1-0.6 0.1c-0.5 0-0.9-0.2-1.1-0.6z"/>
				<path id="&lt;Path&gt;" class="s1" d="m97.5 310.1c-0.4-0.6-0.2-1.4 0.4-1.8l104.5-60.3c0.7-0.4 1.4-0.2 1.8 0.5 0.3 0.6 0.1 1.4-0.5 1.7l-104.5 60.4q-0.3 0.1-0.6 0.1c-0.5 0-0.9-0.2-1.1-0.6z"/>
			</g>
			<g id="&lt;Group&gt;">
				<path id="&lt;Path&gt;" class="s4" d="m224.4 221.7c-0.1-0.8-0.5-1-1-0.6q-0.3 0.2-0.7 0.7l-0.3 0.4-58.1 88.3-8.7 12.1c-1 1.4-3.1 2.1-4.8 1.8l-7.5-1.8-57.1-21.1q-0.6-0.1-1.2 0-0.2 0-0.4 0.1l2.1-1.2 54.8 20.1 7.3 2.6c1.6 0.3 3.8-0.4 4.7-1.8l8.7-12.1 58.4-88.7q0.3-0.4 0.7-0.7l-5.1-2.9 2.1-1.2 3.5 2c1.3 0.8 2.4 2.4 2.6 4z"/>
				<path id="&lt;Path&gt;" class="s4" d="m220.9 327.9q-0.1 0.1-0.2 0.3l-58.8-18.7c-4.7-2.1-10.1-0.4-12.8 3.9l-62.9 93.5-2.3 1.4c-0.7 0.4-1.4 0.4-1.8 0.2l64.7-96.4c2.7-4.3 8.1-6 12.7-3.9z"/>
				<path id="&lt;Path&gt;" class="s17" d="m224.4 221.7c-0.1-0.8-0.5-1-1-0.6q-0.4 0.2-0.7 0.7l-0.3 0.4-58 88.1-2-0.7-0.4-0.1 0.3-0.5 58.3-88.5q0.3-0.4 0.7-0.7v0.1q0-0.1-0.1-0.1l-5-2.9 2.1-1.2 3.5 2c1.3 0.8 2.3 2.4 2.6 4z"/>
				<path id="&lt;Path&gt;" class="s4" d="m87.3 408.8l-1.4 0.8c-1.5 0.9-3.9 0.9-5.4 0l-3-1.7c-1.4-0.8-2.6-2.9-2.6-4.6v-107.3l12.4 7.2z"/>
				<path id="&lt;Path&gt;" class="s16" d="m87.3 408.8l-1.4 0.8c-1.5 0.9-3.9 0.9-5.4 0l-3-1.7c-1.4-0.8-2.6-2.9-2.6-4.6v-107.3l12.4 7.2z"/>
				<path id="&lt;Path&gt;" class="s4" d="m224.5 222.3v104.2c0 0.9-0.3 1.9-0.9 2.7-0.4 0.7-0.9 1.4-1.5 1.8h-0.1q-0.1 0.1-0.2 0.2l-135.9 78.4c-0.8 0.5-1.4 0.5-1.9 0.3-0.4-0.2-0.7-0.7-0.8-1.3q0-0.2 0-0.5v-104.2c0-1.7 1.3-2.7 3-2.4l57.1 21.1 7.5 1.8c1.7 0.3 3.8-0.4 4.8-1.8l8.7-12.1 58.1-88.3 0.3-0.4c1-1.4 1.8-1.2 1.8 0.5z"/>
				<path id="&lt;Path&gt;" class="s10" d="m224.5 222.3v104.2c0 0.9-0.3 1.9-0.9 2.7-0.4 0.7-0.9 1.4-1.5 1.8h-0.1q-0.1 0.1-0.2 0.2l-135.9 78.4c-0.8 0.5-1.4 0.5-1.9 0.3-0.4-0.2-0.7-0.7-0.8-1.3q0-0.2 0-0.5v-104.2c0-1.7 1.3-2.7 3-2.4l57.1 21.1 7.5 1.8c1.7 0.3 3.8-0.4 4.8-1.8l8.7-12.1 58.1-88.3 0.3-0.4c1-1.4 1.8-1.2 1.8 0.5z"/>
				<path id="&lt;Path&gt;" class="s4" d="m220.6 328.3l-58.6-18.8c-4.6-2.1-10.2-0.4-12.9 3.9l-2.3-1.4c2.7-4.2 7.4-5.8 12.9-4.1z"/>
				<path id="&lt;Path&gt;" class="s20" d="m220.6 328.3l-58.6-18.8c-4.6-2.1-10.2-0.4-12.9 3.9l-2.3-1.4c2.7-4.2 7.4-5.8 12.9-4.1z"/>
				<path id="&lt;Path&gt;" class="s4" d="m204.6 341.1l-40.3-30.6 60.2 16.1c0 0.9-0.4 1.8-0.9 2.6-0.4 0.7-0.9 1.4-1.5 1.8h-0.1q-0.1 0.1-0.2 0.2z"/>
				<path id="&lt;Path&gt;" class="s4" d="m223.6 329.2c-0.4 0.7-0.9 1.4-1.5 1.8h-0.1l-136.1 78.6-0.1 0.1c-0.7 0.4-1.3 0.4-1.8 0.2l65.1-96.5c2.7-4.3 8.2-6 12.8-4z"/>
				<path id="&lt;Path&gt;" class="s21" d="m223.6 329.2c-0.4 0.7-0.9 1.4-1.5 1.8l-136.1 78.6-0.2 0.1c-0.7 0.4-1.3 0.4-1.8 0.2l65.1-96.5c2.7-4.3 8.2-6 12.8-4z"/>
				<path id="&lt;Path&gt;" class="s16" d="m75.4 286.4l2.1 1.2c-0.3 1.1-0.5 2.1-0.5 2.9 0 2.9 0 6.8 0 6.8l-2.1-1.3c0 0 0-3.8 0-6.7 0-0.9 0.2-1.9 0.5-2.9z"/>
				<path id="&lt;Path&gt;" class="s4" d="m86.7 300.4l-2.1 1.2-2.2-1.2-5.4-3.1 2.1-1.3z"/>
				<path id="&lt;Path&gt;" class="s17" d="m141.2 320.4l-0.8 1.1-49.9-18.4-4.3-1.6q-0.6-0.1-1.2 0-0.2 0-0.4 0.1l-2.2-1.2-5.4-3.1 2.1-1.3 7.7 4.4z"/>
				<path id="&lt;Path&gt;" class="s4" d="m149.1 313.4l-65.1 96.5c-0.5-0.3-0.8-0.9-0.8-1.8v-1.7l63.6-94.3q0 0 0-0.1z"/>
				<path id="&lt;Path&gt;" class="s16" d="m149.1 313.4l-65.1 96.5c-0.5-0.3-0.8-0.9-0.8-1.8v-1.7l63.6-94.3q0 0 0-0.1z"/>
			</g>
		</g>
		<g id="Notification">
			<g id="&lt;Group&gt;">
				<path id="&lt;Path&gt;" class="s7" d="m361.9 149.1c1 4.3 1.7 8.9 1.7 14.1 0 35.4-24.8 78.5-55.5 96.2-5.6 3.2-10.9 5-15.9 6.2l-4.9 8.2-16.1-9.2c-10-5.8-16.2-18.2-16.2-35.9 0-35.4 24.9-78.4 55.5-96.1 15.3-8.8 29-9.7 39.1-4.1l18.2 10.6z"/>
				<path id="&lt;Path&gt;" class="s6" d="m323.2 248.2c-4.8 4.4-9.9 8.2-15.1 11.2-5.6 3.2-10.9 5-15.9 6.2l-4.9 8.2-16.1-9.2c-10-5.8-16.2-18.2-16.2-35.9 0-6 0.8-12.3 2.1-18.6z"/>
				<path id="&lt;Path&gt;" class="s5" d="m383 174.3c-0.1 35.4-24.9 78.5-55.6 96.2-30.6 17.7-55.5 3.4-55.5-32.1 0-35.4 24.9-78.4 55.5-96.1 30.7-17.7 55.6-3.4 55.6 32z"/>
				<g id="&lt;Group&gt;">
					<path id="&lt;Path&gt;" class="s8" d="m356.6 205.8q0 0 0.1 0c0.9 0.7 1.5 2.2 1.5 4.1 0 3.9-2.4 8.5-5.3 10.2l-49.2 28.4c-3 1.7-5.3-0.1-5.3-4 0-2.1 0.6-4.3 1.7-6.2q0-0.1 0-0.1c4.5-7.4 7.1-16.1 7.1-23.7v-12.2c0-15.5 9.4-33.5 21.1-40.3 11.6-6.7 21.1 0.5 21.1 16v13.6c0 7.3 2.8 12.2 7.2 14.2z"/>
					<path id="&lt;Path&gt;" class="s8" d="m338.4 232.6c0 7.5-4.5 16.2-10.1 19.4-5.6 3.2-10.1-0.2-10.1-7.7z"/>
				</g>
			</g>
		</g>
		<g id="Icon 00000037670323948434044830000011384260428786757822 ">
			<path id="&lt;Path&gt;" class="s1" d="m409.9 209.4l1.4-13.8c1.8-17.5 12.3-35.8 24.8-43l32.5-18.8c6.2-3.6 12-3.8 16.4-1.3 2 1.1 9.8 5.7 11.8 6.8 4.4 2.6 7.5 8 8.4 15.7l1.4 12.2-84.9 49z"/>
			<g id="&lt;Group&gt;">
				<path id="&lt;Path&gt;" class="s0" d="m506.6 167.9l-84.9 49 1.4-13.8c1.8-17.5 12.3-35.8 24.8-43l32.5-18.8c6.2-3.6 12-3.8 16.4-1.3 4.4 2.6 7.5 8 8.4 15.7z"/>
				<path id="&lt;Compound Path&gt;" fill-rule="evenodd" class="s1" d="m496.8 140c4.4 2.6 7.5 8 8.4 15.7l1.4 12.2-84.9 49 1.4-13.8c1.8-17.5 12.3-35.8 24.8-43l32.5-18.8c3.5-2 6.9-3 9.9-3 2.4 0 4.6 0.6 6.5 1.7zm-15.4 3.1l-32.5 18.7c-11.9 6.9-22.1 24.7-23.8 41.5l-1 9.9 80.3-46.4-1.2-10.9c-0.8-6.8-3.4-11.8-7.4-14.2q-2.5-1.4-5.5-1.4c-2.8 0-5.8 1-8.9 2.8z"/>
			</g>
			<g id="&lt;Group&gt;">
				<path id="&lt;Path&gt;" class="s1" d="m482.5 87.3c4.2 2.4 6.8 7.6 6.8 15 0 14.7-10.4 32.6-23.1 40-6.4 3.6-12.2 4-16.3 1.6-2.6-1.5-9.1-5.3-11.6-6.7-4.2-2.4-6.8-7.6-6.8-15 0-14.7 10.3-32.6 23.1-39.9 6.4-3.7 12.1-4.1 16.3-1.7 2.5 1.5 9.1 5.3 11.6 6.7z"/>
				<g id="&lt;Group&gt;">
					<path id="&lt;Path&gt;" class="s0" d="m466.2 142.3c-6.4 3.6-12.2 4-16.3 1.6-4.2-2.4-6.8-7.6-6.8-15 0-14.7 10.3-32.6 23.1-40 6.4-3.6 12.1-4 16.3-1.6 4.2 2.4 6.8 7.6 6.8 15 0 14.7-10.4 32.6-23.1 40z"/>
					<path id="&lt;Compound Path&gt;" fill-rule="evenodd" class="s1" d="m482.5 87.3c4.2 2.4 6.8 7.6 6.8 15 0 14.7-10.4 32.6-23.1 40-3.7 2.1-7.2 3.1-10.3 3.1-2.3 0-4.3-0.5-6-1.5-4.2-2.4-6.8-7.6-6.8-15 0-14.7 10.3-32.6 23.1-40 3.7-2.1 7.2-3.1 10.3-3.1 2.2 0 4.3 0.5 6 1.5zm-15.3 3.4c-12.2 7-22.1 24.2-22.1 38.2 0 6.4 2 11.1 5.8 13.2q2.1 1.3 5 1.3c2.8 0 6-1 9.3-2.9 12.2-7 22.1-24.2 22.1-38.2 0-6.4-2.1-11.1-5.8-13.2q-2.2-1.3-5-1.3c-2.8 0-6.1 1-9.3 2.9z"/>
				</g>
			</g>
		</g>
	</g>
	<g id="Character">
		<g id="Chartacter 00000018941856450483751070000001423180261342994835 ">
			<g id="Bottom 00000014617555724739986790000001857695619172715959 ">
				<g id="&lt;Group&gt;">
					<path id="&lt;Path&gt;" class="s13" d="m831.2 665.4l-9.3-3.5 3.1-6.3 5.7 5.4z"/>
					<path id="&lt;Path&gt;" class="s6" d="m840.8 648.7c0 0 0.4 6.1 0.5 8 0 1.9-8.1 7.8-10.1 8.7l-0.5-4.4c-1.8 1.7-2.8 3.9-4.7 7.2-1.6 2.7-3.6 7.8-7.9 11.3-6.5 5.2-16.4 7.8-26.6 8.1-10.1 0.3-15.9-2.2-18.8-4.4-2.8-2.2-3.7-4.8-3-7.4 0.7-2.6 71.1-27.1 71.1-27.1z"/>
					<g id="&lt;Group&gt;">
						<path id="&lt;Path&gt;" class="s7" d="m827.5 634.1c6.7-1.1 9-4.1 10-6l0.2-2.2c2.4-0.5 2.5 6 3.1 10.3 0.6 4.7 1.2 10.2 0 12.5-2 4.3-9.1 7.8-12.4 11.3-3.3 3.6-5.9 11.1-10 16-4.1 4.8-18.7 8.9-26.9 9.3-16.6 0.8-27.4-8.2-21.2-13.8 4.6-4.2 13.8-10.1 24.2-19.4 5.2-4.7 10.6-12.2 14.3-18.2 2.8-4.4 3-9.5 4.9-9.4l0.1 3.5c0.6 6.9 10.4 6.7 13.7 6.1z"/>
						<path id="&lt;Path&gt;" class="s9" d="m822.2 634.3c-4.5 0.1-6 0.8-11 6.4-3.4 3.7-20.9 23.8-20.9 23.8 0 0 18.8-24.3 21.8-27.8 3-3.4 2.2-6.7 2.2-6.7q0 0 0.1 0.1c1.3 2.8 4.7 3.9 7.8 4.2q0 0 0 0z"/>
					</g>
					<g id="&lt;Group&gt;">
						<path id="&lt;Path&gt;" class="s9" d="m819 639.6c0.5 0 1 0.4 1.1 0.9 0 0.6-0.4 1.1-0.9 1.1-0.6 0.1-1.1-0.3-1.1-0.9-0.1-0.5 0.3-1 0.9-1.1z"/>
						<path id="&lt;Path&gt;" class="s9" d="m814 645c0.6-0.1 1.1 0.3 1.2 0.9 0 0.6-0.4 1.1-0.9 1.1-0.6 0.1-1.1-0.3-1.2-0.9 0-0.5 0.4-1 0.9-1.1z"/>
						<path id="&lt;Path&gt;" class="s9" d="m809.1 650.4c0.6-0.1 1.1 0.3 1.1 0.9 0.1 0.5-0.3 1-0.9 1.1-0.5 0.1-1-0.4-1.1-0.9 0-0.6 0.4-1.1 0.9-1.1z"/>
						<path id="&lt;Path&gt;" class="s9" d="m804.2 655.8c0.6-0.1 1.1 0.3 1.1 0.9 0.1 0.5-0.3 1-0.9 1.1-0.5 0-1-0.4-1.1-0.9 0-0.6 0.4-1.1 0.9-1.1z"/>
						<path id="&lt;Path&gt;" class="s9" d="m799.3 661.1c0.6 0 1.1 0.4 1.1 0.9 0.1 0.6-0.3 1.1-0.9 1.2-0.5 0-1-0.4-1.1-1 0-0.5 0.4-1 0.9-1.1z"/>
					</g>
					<g id="&lt;Group&gt;">
						<path id="&lt;Path&gt;" class="s6" d="m818.8 640.9c-0.1 0-4.8-4.6-10.8-4.3-0.3 0-0.4-0.2-0.5-0.4 0-0.2 0.2-0.4 0.4-0.4q0 0 0 0c6.4-0.4 11.2 4.3 11.5 4.5 0.1 0.2 0.1 0.5 0 0.6q-0.2 0.1-0.3 0.1-0.2 0-0.3-0.1z"/>
					</g>
					<g id="&lt;Group&gt;">
						<path id="&lt;Path&gt;" class="s6" d="m813.9 646.3c-0.1-0.1-4.8-4.7-10.8-4.4-0.3 0-0.5-0.1-0.5-0.4 0-0.2 0.2-0.4 0.4-0.4q0 0 0 0c6.4-0.3 11.2 4.4 11.4 4.6 0.2 0.2 0.2 0.4 0 0.6q-0.1 0.1-0.2 0.1-0.2 0-0.3-0.1z"/>
					</g>
					<g id="&lt;Group&gt;">
						<path id="&lt;Path&gt;" class="s6" d="m809 651.7c-0.1-0.1-4.8-4.7-10.9-4.4-0.2 0-0.4-0.1-0.4-0.4 0-0.2 0.2-0.4 0.4-0.4q0 0 0 0c6.4-0.3 11.2 4.4 11.4 4.6 0.2 0.2 0.2 0.4 0 0.6q-0.1 0.1-0.2 0.1-0.2 0-0.3-0.1z"/>
					</g>
					<g id="&lt;Group&gt;">
						<path id="&lt;Path&gt;" class="s6" d="m804 657.1c0-0.1-4.8-4.7-10.8-4.4-0.2 0-0.4-0.2-0.4-0.4 0-0.2 0.2-0.4 0.4-0.4q0 0 0 0c6.4-0.3 11.2 4.4 11.4 4.6 0.2 0.1 0.2 0.4 0 0.6q-0.1 0.1-0.2 0.1-0.2 0-0.4-0.1z"/>
					</g>
					<g id="&lt;Group&gt;">
						<path id="&lt;Path&gt;" class="s6" d="m799.1 662.4c0 0-4.8-4.6-10.8-4.3-0.2 0-0.4-0.2-0.4-0.4 0-0.2 0.1-0.4 0.4-0.4q0 0 0 0c6.4-0.4 11.2 4.4 11.4 4.6 0.2 0.1 0.2 0.4 0 0.5q-0.1 0.1-0.3 0.1-0.1 0.1-0.3-0.1z"/>
					</g>
				</g>
				<g id="&lt;Group&gt;">
					<g id="&lt;Group&gt;">
						<path id="&lt;Path&gt;" class="s6" d="m941.1 682.2c2.1 7.2 3.1 13.5 1.6 18.9-2.4 9.1-8.7 13.5-15 14.8-4.5 1-10.6 0.5-14-3.8-3.4-4.4-5.2-9.5-6.6-17.4z"/>
						<path id="&lt;Path&gt;" class="s7" d="m924.7 633.9c2.2-0.1 4.2 10.5 6.7 21.1 2.8 11.3 7 17.3 9.1 24.9 2.9 10.5 2.7 15.5-0.3 22.4-3 7-18.6 15.5-26.3 6.9-6.2-6.9-7.4-15.3-8.2-26.1-0.9-11.2-1.3-19.1-2.8-27.4-1.4-8-2.9-15.8-1-16.9 0.2 1.2 0.6 2.7 0.9 3.8 0.2 0.9 0.9 5.2 2.2 5.1 0-1-0.2-2-0.3-3-0.2-0.9-0.3-1.9 0.3-2.7 0.5-0.8 1.4-1.1 2.3-1.4 2.1-0.7 4.3-1.4 6.5-1.8q1.6-0.4 3.3-0.6c0.9-0.1 5-0.6 5.9-0.4 0.5 0.1 1 0.4 1.3 0.9 0.2 0.4 0.2 0.8 0.3 1.3q0.1 1.1 0.5 2.1c0.1 0.3 0.4 0.7 0.7 0.6 0.3-0.1 0.3-0.4 0.3-0.7-0.2-1.3-0.4-2.2-0.7-3.7-0.1-0.7-0.3-1.7-0.4-2.4q-0.1-1-0.3-2z"/>
						<path id="&lt;Path&gt;" class="s9" d="m932.7 683.5c0.1 0.5-0.2 0.9-0.6 1-0.5 0.1-0.9-0.2-1-0.6-0.1-0.4 0.2-0.9 0.6-1 0.5-0.1 0.9 0.2 1 0.6z"/>
						<path id="&lt;Path&gt;" class="s9" d="m931 676.2c0.1 0.4-0.1 0.8-0.6 0.9-0.4 0.1-0.8-0.1-0.9-0.6-0.1-0.4 0.2-0.8 0.6-0.9 0.4-0.1 0.8 0.2 0.9 0.6z"/>
						<path id="&lt;Path&gt;" class="s9" d="m929.5 669.3c0.1 0.4-0.2 0.8-0.6 0.9-0.4 0.1-0.8-0.2-0.9-0.6-0.1-0.4 0.1-0.8 0.6-0.9 0.4-0.1 0.8 0.2 0.9 0.6z"/>
						<path id="&lt;Path&gt;" class="s9" d="m928 662.5c0.1 0.4-0.2 0.8-0.6 0.9-0.4 0.1-0.9-0.2-1-0.6 0-0.4 0.2-0.9 0.6-0.9 0.5-0.1 0.9 0.1 1 0.6z"/>
						<path id="&lt;Path&gt;" class="s9" d="m910.5 665.6c0.1 0.5-0.2 0.9-0.6 1-0.4 0.1-0.8-0.2-0.9-0.6-0.1-0.4 0.1-0.9 0.6-0.9 0.4-0.1 0.8 0.1 0.9 0.5z"/>
						<path id="&lt;Path&gt;" class="s9" d="m912 672.5c0.1 0.4-0.2 0.9-0.6 1-0.4 0-0.8-0.2-0.9-0.6-0.1-0.5 0.2-0.9 0.6-1 0.4-0.1 0.8 0.2 0.9 0.6z"/>
						<path id="&lt;Path&gt;" class="s9" d="m913.6 679.4c0.1 0.5-0.2 0.9-0.6 1-0.5 0.1-0.9-0.2-1-0.6-0.1-0.4 0.2-0.9 0.6-1 0.4 0 0.9 0.2 1 0.6z"/>
						<path id="&lt;Path&gt;" class="s9" d="m915.2 686.8c0.1 0.4-0.2 0.8-0.6 0.9-0.4 0.1-0.8-0.2-0.9-0.6-0.1-0.4 0.1-0.8 0.6-0.9 0.4-0.1 0.8 0.2 0.9 0.6z"/>
						<path id="&lt;Path&gt;" class="s9" d="m922.2 689.5l-12.2-51.1 2.9-0.4z"/>
					</g>
					<g id="&lt;Group&gt;">
						<g id="&lt;Group&gt;">
							<path id="&lt;Path&gt;" class="s6" d="m932 684.1q-0.1 0-0.1 0c-5.3-0.5-14 1-17.3 3.1-0.2 0.2-0.4 0.1-0.5-0.1-0.1-0.2-0.1-0.4 0.1-0.5 3.4-2.2 12.2-3.8 17.7-3.3 0.3 0 0.4 0.2 0.4 0.4 0 0.2-0.2 0.4-0.3 0.4z"/>
						</g>
						<g id="&lt;Group&gt;">
							<path id="&lt;Path&gt;" class="s6" d="m930.4 676.8q-0.2 0-0.3-0.1c-4.1-1.3-13.4 0.8-17.1 3.2-0.2 0.1-0.4 0.1-0.6-0.1-0.1-0.2 0-0.4 0.2-0.6 3.8-2.5 13.4-4.7 17.8-3.2 0.2 0.1 0.3 0.3 0.2 0.5q0 0.2-0.2 0.3z"/>
						</g>
						<g id="&lt;Group&gt;">
							<path id="&lt;Path&gt;" class="s6" d="m928.8 669.8q-0.1 0.1-0.2 0c-4.1-1.4-13.4 0.8-17.1 3.2-0.2 0.1-0.5 0-0.6-0.1-0.1-0.2-0.1-0.5 0.1-0.6 3.9-2.5 13.5-4.7 17.9-3.2 0.2 0 0.3 0.3 0.2 0.5q-0.1 0.2-0.3 0.2z"/>
						</g>
						<g id="&lt;Group&gt;">
							<path id="&lt;Path&gt;" class="s6" d="m927.3 663q-0.1 0-0.2 0c-4.2-1.4-13.5 0.8-17.2 3.2-0.1 0.1-0.4 0-0.5-0.2-0.1-0.2-0.1-0.4 0.1-0.5 3.9-2.5 13.5-4.7 17.8-3.3 0.2 0.1 0.4 0.3 0.3 0.5q-0.1 0.3-0.3 0.3z"/>
						</g>
					</g>
				</g>
				<g id="&lt;Group&gt;">
					<path id="&lt;Path&gt;" class="s6" d="m912.6 373.4c5.2 65.8 8.4 155.5 8.4 155.5 0.5 5 5.3 26.3 7.7 51 2.5 26 4.6 74.7 4.6 74.7 0 0-18.2 9.8-32.9 4.9 0 0-15.8-82.1-23.4-112.7-7.2-29.1-18.4-84.1-18.4-84.1l-7.6 54.5c0 0 1 18.7 0.5 31.9-0.7 15.2-10.4 88.6-10.4 88.6 0 0-19.8 11.7-35.1 0 0 0-2.7-101.3-3.1-119.6-0.9-36.1 3.4-105.9 4.7-152.5z"/>
					<path id="&lt;Path&gt;" class="s13" d="m892.6 496.2q1.6 11.7 3 23.5l1.5 11.8 0.7 5.9c0.3 1.9 0.7 3.9 1 5.8 2.7 15.6 6.5 44 8.9 59.7q3.7 23.4 6.8 47-4.8-23.3-9.1-46.7c-2.8-15.6-6.8-43.9-9.4-59.6-0.3-1.9-0.7-3.9-0.9-5.8l-0.7-5.9-1.4-11.8q-1.3-11.8-2.5-23.7-2.6-23.6-4.6-47.3 3.5 23.5 6.7 47.1z"/>
					<path id="&lt;Path&gt;" class="s13" d="m812.4 466.9l-0.4 22.2-0.3 22.1v5.6l-0.1 2.7 0.1 2.8 0.3 11.1c0.3 14.8 0.6 39.6 0.7 54.4q0.2 22.2-0.2 44.4-1.3-22.2-2.1-44.4c-0.5-14.8-0.9-39.6-1.3-54.4-0.5-14.8 0.1-29.6 0.7-44.4 0.6-14.8 1.5-29.6 3.1-44.3-0.2 7.4-0.5 14.8-0.5 22.2z"/>
					<path id="&lt;Path&gt;" class="s13" d="m851 517.2l3.3-54.4-6.4-31.8c-16.8-4.3-22.7-15.2-22.7-15.2 9.1 8.3 27 10.9 27 10.9l6.4 36z"/>
				</g>
			</g>
			<g id="Top 00000056428702580538435840000011380801809929446021 ">
				<g id="Arm 00000139999823774583512110000006437915912726529199 ">
					<g id="&lt;Group&gt;">
						<path id="&lt;Path&gt;" class="s22" d="m783.3 241.6c2.1-4.5 10.5-8.8 14.3-9.2 3.7-0.4 6.3 2 4.1 3.8-2.1 1.7-5.6 6.9-7.7 9.7-2.1 2.8-3.9 4.2-7.7 6.7-3.7 2.5-5.2 5-5.3 8.1-1.1-5 0.3-14.6 2.3-19.1z"/>
						<path id="&lt;Path&gt;" class="s23" d="m825.2 291.2c0 0-23 36.7-36.2 49.9-13.2 13.2-22.2 2-26.7-7.9-4.5-9.9-5.2-27.7-5.2-40.8 0-18.8 0.8-31.1 3.8-43.3 0.5-2.3 1.1-4.5 2.9-6.2 1.4-1.4 3.2-2.6 3.9-4.5 0.5-1.1 0.4-2.4 1-3.5 0.9-1.9 3.2-2.8 5.2-3.7 0.9-0.4 1.9-1 2.3-2 0.3-0.7 0.3-1.4 0.6-2.1 0.5-0.9 1.5-1.4 2.5-1.7 2.1-0.7 13.9-2.7 19.7-2.7-0.5 1.3-9.5 16.8-14.4 23.1-3.7 6.8-4 11.9-3.3 23.7 0.7 11.8 3.6 23.9 3.6 23.9 0 0 7.7-13.4 16.9-30.4 8.9-16.5 19.2-16.5 27.8-17.1z"/>
						<path id="&lt;Path&gt;" class="s22" d="m779.7 257.1c-1.8 1.1-3.6 2.9-3.5 6-0.8-3.8 2.2-5.4 3.8-9.4 1.6-4-0.1-6.6-0.1-6.6 0 0 1.8-1.7 6.2-3.6 0.5 2.4-2 10.9-6.4 13.6z"/>
					</g>
					<g id="&lt;Group&gt;">
						<path id="&lt;Path&gt;" class="s7" d="m829.6 289.8c0 0-36.8 52.6-41.5 56-4.8 3.4-8.1 1-8.1 1 2.8-0.9 3.9-1.7 3.9-1.7 0 0 10.4-9.9 9-26.6-1.3-16.7-8-25.1-8-25.1l-0.3-1.3c0 0 11.4-23.3 19.4-34.4 8.1-11 16.5-11.5 24.6-12.3z"/>
						<path id="&lt;Path&gt;" class="s6" d="m783.7 287.7c0 0 3.6 6 5.7 8.8 2 2.8 5 11.1 5 24.2 0 13-4.6 22.9-11.8 26.9-7.2 4-15.7-2.6-18.2-7.1-2.5-4.6-5.4-11.4-6.2-14-0.8-2.7 1-3.9 1-3.9l0.8 3.9c0 0 1.5 5.5 6.1 5.9 4.1 0.3 12.1-0.8 17.6-12.3 5.5-11.5 1.2-26.7 1.2-26.7l-0.5-2.3z"/>
					</g>
				</g>
				<g id="Top 00000064326006224836929970000006338920161265914506 ">
					<g id="Chest 00000028307400762816490250000017565191284922978235 ">
						<path id="&lt;Path&gt;" class="s5" d="m909 254.8c0 0 9.9 8.8 7.3 32.6-2.3 20.8-3.4 38.2-3.6 46.2-0.4 12.3 1.3 54.4 1.3 54.4-17.8 23-97.1 19.8-107.5-0.1 0 0 0.5-28.5 0.5-56.1 0.1-20.2 1.8-38.8 4.3-50.7 3.4-15.9 8.9-26.8 12.2-30l26.2-7.2 24-1.2z"/>
					</g>
				</g>
				<g id="Pen 00000082326949007542118060000016291790520419518377 ">
					<g id="&lt;Group&gt;">
						<path id="&lt;Path&gt;" class="s5" d="m903.5 118.6l-4.5 7.2c-0.6 1-1.9 1.7-3.8 1.6-3.8-0.1-8.3-2.9-10.1-6.2-0.9-1.7-1-3.2-0.3-4.2l4.4-7.2q0 0 0 0c2.4-4 7.6-5.2 11.5-2.8 4 2.5 5.2 7.6 2.8 11.6q0 0 0 0z"/>
						<path id="&lt;Path&gt;" class="s7" d="m885.1 121.2c-0.9-1.7-1-3.2-0.3-4.2l0.5-0.8c-0.7 1.3-1.2 3.9 3.2 6.4 6 3.4 9 1.5 11.5-2.5 2.5-4 4.6-7.4 3.8-9.7 1.3 2.6 1.3 5.6-0.3 8.2q0 0 0 0l-4.5 7.2c-0.6 1-1.9 1.7-3.8 1.6-3.8-0.1-8.3-2.9-10.1-6.2z"/>
					</g>
					<path id="&lt;Path&gt;" class="s4" d="m903 153c-2 3.3-6.2 5.2-12.1 5.1-11.7-0.4-25.7-9-31.3-19.4-2.8-5.1-3-9.7-0.9-13q0 0 0 0c7.5-12.3 23.5-16.1 35.8-8.5 12.2 7.5 16.1 23.6 8.5 35.8q0 0 0 0z"/>
					<g id="&lt;Group&gt;">
						<path id="&lt;Path&gt;" class="s4" d="m903 153l-97.5 158.3c-2 3.3-6.2 5.2-12.1 5-11.7-0.3-25.7-9-31.3-19.3-2.8-5.2-3-9.8-0.9-13l97.5-158.3c2-3.3 6.2-5.2 12-5.1 11.8 0.4 25.8 9 31.4 19.4 2.8 5.1 2.9 9.7 0.9 13z"/>
						<path id="&lt;Path&gt;" class="s24" d="m903 153l-97.5 158.3c-2 3.3-6.2 5.2-12.1 5-11.7-0.3-25.7-9-31.3-19.3-2.8-5.2-3-9.8-0.9-13l97.5-158.3c2-3.3 6.2-5.2 12-5.1 11.8 0.4 25.8 9 31.4 19.4 2.8 5.1 2.9 9.7 0.9 13z"/>
					</g>
					<g id="&lt;Group&gt;">
						<g id="&lt;Group&gt;">
							<path id="&lt;Path&gt;" class="s4" d="m787.9 326.2c-12-0.3-26.5-9.2-32.2-19.8-2.9-5.3-3-10.1-0.9-13.4l7.5-12.2c2-3.4 6.3-5.4 12.4-5.2 12 0.4 26.5 9.2 32.2 19.9 2.9 5.3 3 10 1 13.4l-7.5 12.2c-2.1 3.3-6.4 5.3-12.5 5.1z"/>
							<path id="&lt;Path&gt;" class="s16" d="m787.9 326.2c-12-0.3-26.5-9.2-32.2-19.8-2.9-5.3-3-10.1-0.9-13.4l7.5-12.2c2-3.4 6.3-5.4 12.4-5.2 12 0.4 26.5 9.2 32.2 19.9 2.9 5.3 3 10 1 13.4l-7.5 12.2c-2.1 3.3-6.4 5.3-12.5 5.1z"/>
						</g>
						<path id="&lt;Path&gt;" class="s4" d="m767.2 287.8c12 0.3 26.5 9.2 32.2 19.8 2.9 5.3 3 10.1 1 13.5-2.1 3.3-6.4 5.3-12.5 5.1-12-0.3-26.5-9.2-32.2-19.8-2.9-5.3-3-10.1-0.9-13.4 2-3.4 6.3-5.4 12.4-5.2z"/>
						<path id="&lt;Path&gt;" class="s9" d="m767.2 287.8c12 0.3 26.5 9.2 32.2 19.8 2.9 5.3 3 10.1 1 13.5-2.1 3.3-6.4 5.3-12.5 5.1-12-0.3-26.5-9.2-32.2-19.8-2.9-5.3-3-10.1-0.9-13.4 2-3.4 6.3-5.4 12.4-5.2z"/>
					</g>
					<g id="&lt;Group&gt;">
						<g id="&lt;Group&gt;">
							<g id="&lt;Group&gt;">
								<path id="&lt;Path&gt;" class="s4" d="m668.2 440.4c1.8-2.9 5.5-4.7 10.7-4.5 10.5 0.3 23 8 27.9 17.2 2.5 4.6 2.7 8.7 0.9 11.6l-6 5.9h-0.1c-1.8 1.9-4.8 3-8.8 2.9-9.7-0.3-21.2-7.4-25.8-15.9-1.8-3.5-2.2-6.7-1.4-9.2z"/>
							</g>
							<g id="&lt;Group&gt;" style="opacity: .1">
								<path id="&lt;Path&gt;" class="s13" d="m668.2 440.4c1.8-2.9 5.5-4.7 10.7-4.5 10.5 0.3 23 8 27.9 17.2 2.5 4.6 2.7 8.7 0.9 11.6l-6 5.9h-0.1c-1.8 1.9-4.8 3-8.8 2.9-9.7-0.3-21.2-7.4-25.8-15.9-1.8-3.5-2.2-6.7-1.4-9.2z"/>
							</g>
						</g>
						<g id="&lt;Group&gt;">
							<path id="&lt;Path&gt;" class="s4" d="m668.2 440.4l87.9-142.8c1.8-2.9 5.5-4.6 10.7-4.5 10.5 0.3 23 8 28 17.2 2.5 4.6 2.6 8.8 0.8 11.7l-87.9 142.7c1.8-2.9 1.6-7-0.9-11.6-4.9-9.2-17.4-16.9-27.9-17.2-5.2-0.2-8.9 1.6-10.7 4.5z"/>
						</g>
						<path id="&lt;Path&gt;" class="s4" d="m662.5 507.7l-0.1-0.1q-0.8 0.4-2.1 0.4c-3.5-0.1-7.6-2.6-9.3-5.6-0.4-0.8-0.6-1.5-0.6-2.2l-0.3-0.1c-1.3-13.8 9.7-41.5 15.3-50.7q0 0 0 0 0 0 0 0 0.1-0.1 0.1-0.1c1.6-2.6 4.9-4.1 9.6-4 9.4 0.2 20.7 7.1 25.1 15.3 2.3 4.2 2.4 7.9 0.7 10.5-5.6 9.1-25.5 31.5-38.4 36.6z"/>
					</g>
					<path id="&lt;Compound Path&gt;" class="s24" d="m795.2 311.2l-87.9 142.8q-0.2-0.5-0.5-0.9c-0.9-1.7-2-3.3-3.3-4.8l87.9-142.7c1.3 1.5 2.5 3.1 3.4 4.7q0.2 0.5 0.4 0.9zm6.3 2.2q-0.6-3-2.1-5.8l7.5-12.1q-0.5-1-1.1-1.9c0 0 76.5-124.1 87.5-142 1.3-2.2 11.8-19 9.3-26.5 4.1 7.6 4.2 15.4-7.2 33.9-10.6 17.2-86.7 140.8-86.7 140.8q0.2 0.7 0.3 1.4zm-146.1 193.2c4.2-2.9 9.1-7 14.5-12.8 14.5-15.9 26.1-38.3 26.2-38.6 1.7 1.7 3.1 3.6 4.1 5.5-10.4 16.8-16.4 26.6-26.2 35.6-9.9 9-13.2 8.6-13.2 8.6l-4.6 2.1q-0.4-0.2-0.8-0.4z"/>
					<g id="&lt;Group&gt;">
						<path id="&lt;Path&gt;" class="s5" d="m658 501.7c2.7 1.7 2.8 3.2 2.8 3.2l-3.7 5.9c-1.6 2.6-6.9 8.1-9 6.9-2-1.3 0.5-8.6 2.1-11.1l3.7-5.9c0 0 1.4-0.7 4.1 1z"/>
						<path id="&lt;Path&gt;" class="s6" d="m648.1 517.7c-0.6-0.4-0.8-1.4-0.7-2.6 0.7-0.2 1.5-0.1 2.1 0.3 0.7 0.4 1.1 1.1 1.3 1.8-1.1 0.6-2 0.9-2.7 0.5z"/>
					</g>
				</g>
				<g id="Hand 00000178912585638704008350000004247336575228454590 ">
					<path id="&lt;Path&gt;" class="s23" d="m798.9 222.7c2.2 0.1 6.4 2.4 9.6 4.5 3.2 2.1 6.3 2.3 5.2 4.6-0.5 1.2-2.3 2-4.3 2-2.1 0-4.3-0.7-5.3-1 3.9 3.3 4.7 4.6 3.6 5.8-1.6 1.7-4.4 1.4-6.7 0.3 1.3 1.3 2.7 2 2 3.3-0.6 1.3-3 1.6-5.7 1.1-2.8-0.4-3.6-1.1-5.1-1.7-2.9 0.8-6.1 1.9-6.1 1.9 2.9-7.4 7.1-14.3 12.8-20.8z"/>
					<path id="&lt;Path&gt;" class="s22" d="m801 238.9c-1.6-0.9-3.1-2-4.7-2.9-1.5-1.1-3.3-0.9-5.1-0.6-1.8 0.2-3.6 0.6-5.4 0.9-1.8 0.3-3.6 0.6-5.4 0.9 1.7-0.5 3.5-1 5.3-1.4q2.7-0.7 5.4-1.1c0.9-0.1 1.8-0.2 2.8-0.1 1 0 1.9 0.4 2.7 0.9 1.5 1.1 2.9 2.3 4.4 3.4z"/>
					<path id="&lt;Path&gt;" class="s22" d="m804.1 232.8c-1.4-0.9-2.8-1.8-4.2-2.6-0.7-0.4-1.4-0.9-2.1-1.2-0.7-0.2-1.5-0.2-2.3-0.2-1.7 0.1-3.3 0.3-4.9 0.5-1.7 0.2-3.3 0.4-5 0.6q2.4-0.6 4.9-1.1c1.6-0.3 3.2-0.5 4.9-0.6 0.9 0 1.7 0 2.6 0.3 0.8 0.4 1.5 0.8 2.2 1.3q2.1 1.3 3.9 3z"/>
				</g>
				<g id="Head 00000141431633550990526490000005308690974653958558 ">
					<path id="&lt;Path&gt;" class="s6" d="m863.3 205.7c-0.3-0.3-2.5-0.5-3-0.7q-3.7-0.8-7.4-1.7c-6.3-1.5-12.8-2.6-18.6-5.5-1.8-1-3.3-2.6-4.4-4.3-0.7-1.1-1-2.3-1.3-3.5-0.1-0.5 0-1.6-0.3-1.9-0.3-0.3-1.1-2-1.1-2.5-0.3-4.6 0.1-9.8 1.7-13 4.3-8.6 9.5-11.2 13.7-13 11.1-4.6 19.9-3.9 30.6-1 9.2 2.5 22.8 9.5 22.1 23.1 3.2 2.8 4.1 6.4 4.3 10.2 0.2 6.3-2 11.4-5.6 18-3.8 6.8-11.9 14.9-13.5 22.8 0 0-17.2-27-17.2-27z"/>
					<g id="&lt;Group&gt;">
						<path id="&lt;Path&gt;" class="s23" d="m890.1 222.7c-5.6 3.2-9.3-0.5-9.3-0.5l1.4 23.9c-4.7 10.7-17.6 6.1-32.5 24.8 0 0-4.7-7.8-0.8-23.3l-0.8-8c0 0-5.7-0.1-9.4-0.7-6.7-1-10-6.9-12.1-15.7-1.6-7.1-2-15.6-0.3-24 0.5-2.2 0.7-4.4 0.6-6.6-0.5-5.8 0.6-9.1 2.3-14 7-5.3 22.9-6.7 37.4 2.7-1.9 8.7 1.3 15.8 7.6 19.3-0.4 2.4-0.8 8.4 3.1 8.4 2.8 0 3.1-3.6 6.1-6.6 3-3.1 9.7-3.7 12.2 1 3.5 6.5 0.8 15.9-5.5 19.3z"/>
						<path id="&lt;Path&gt;" class="s22" d="m848.1 239.6c10-0.9 17.8-1.9 23.1-8.9 3.4-4.4 6.3-11.5 6.3-11.5 0 0-1.2 8.7-4.6 14.5-2.6 4.5-8.9 8.5-24.4 9.5z"/>
					</g>
					<path id="&lt;Path&gt;" class="s22" d="m844.4 213.8l-11.4-3.8 13.7-16z"/>
					<path id="&lt;Path&gt;" class="s6" d="m858.8 189.3c1.6 1 2.2 3.1 1.3 4.8l-5.9-3.4c0.9-1.7 3-2.3 4.6-1.4z"/>
					<path id="&lt;Path&gt;" class="s6" d="m832.1 188c1.7-0.8 3.7 0 4.4 1.8l-6.2 2.8c-0.8-1.8 0.1-3.8 1.8-4.6z"/>
					<g id="&lt;Group&gt;">
						<path id="&lt;Path&gt;" class="s6" d="m856.3 197.4c1.5 0.2 2.6 1.6 2.3 3.2-0.2 1.6-1.6 2.7-3.1 2.5-1.5-0.2-2.6-1.7-2.4-3.3 0.3-1.5 1.7-2.7 3.2-2.4z"/>
						<path id="&lt;Path&gt;" class="s25" d="m850.7 224.9c-3.1 0.4-6.1-1.8-6.6-5.1l11.4-1.5c0.5 3.2-1.6 6.2-4.8 6.6z"/>
						<path id="&lt;Path&gt;" class="s22" d="m847.6 224.4c1.1-3.2 4.5-5.2 7.9-4.4-0.3 2.5-2.2 4.5-4.8 4.9-1.1 0.1-2.1-0.1-3.1-0.5z"/>
						<path id="&lt;Path&gt;" class="s6" d="m837.5 199c-0.1 1.6-1.4 2.8-2.9 2.7-1.6-0.1-2.7-1.4-2.6-3 0-1.6 1.4-2.8 2.9-2.8 1.5 0.1 2.7 1.5 2.6 3.1z"/>
					</g>
				</g>
				<g id="Tie 00000053526133862786507870000002938141430722563223 ">
					<g id="&lt;Group&gt;">
						<g id="&lt;Group&gt;">
							<path id="&lt;Path&gt;" class="s7" d="m858 258.6c1.8-1.7 9.2-5.4 13.9-9.5 4.6-3.9 9.4-6.9 9.7-10.2v-2.7c2.2-0.3 2.1 1.2 4.2 5 1.1 2 4.8 7.1 4.8 7.1 0 0-1.5 5.5-5.9 11.8-3.1 4.5-8.4 10-14.8 14.2-3.2 2.2-3 2.2-4.1-0.2-1-2.4-4.9-9.4-6.2-10.7-0.9-0.9-2.1 0.3-4.5 2.9-2.4 2.6-5.4 4.6-5.4 4.6 0 0 7-11 8.3-12.3z"/>
							<path id="&lt;Path&gt;" class="s7" d="m836.8 256.7c0.6-4.1 4.4-10.2 6.5-13.5 0.5-0.9 2.4-3.1 2.9-3.6 0.7 0 1.4 0 1.9 0l0.8 8c0 0-1.5 6.2-1.1 9.8 0.3 2.1 0.6 10.3 1.9 13.5-0.7-1.3-1.3-2.2-2.4-4.1-1-2-2.9-7.2-3.9-7.3-2.1-0.2-6.4 10.3-6.9 9-0.2-0.5-0.8-5.4 0.3-11.8z"/>
						</g>
					</g>
				</g>
				<g id="&lt;Group&gt;">
					<path id="&lt;Path&gt;" class="s7" d="m904.7 253.3c15 4.8 24.8 7 30.1 18.1 5.4 11.2 14.6 38.7 19.7 55.4 4.3 14.3 6.6 27.3 3.4 33.8l-31.5-11.4-17.1-44.8c0 0-14.5-35.8-4.6-51.1z"/>
					<path id="&lt;Path&gt;" class="s6" d="m920.5 324.8c0 0 11.4 4.4 19.2 8.3 7.9 3.8 11.4 6.7 12.8 12.8-4-6.5-11.3-8.8-17.5-11.3-6.7-2.7-9.8-4-12.6-7.4z"/>
					<path id="&lt;Path&gt;" class="s23" d="m922.4 327.2c2.8 3.4 5.9 4.7 12.6 7.4 6.2 2.5 13.5 4.8 17.5 11.3 3.6 5.6 7.3 10.3 5.4 14.7-1.3 3-9.7 5.3-17.8 5.2-8.2-0.1-14-6.5-22.5-11.9-7.2-4.5-11.1-7.5-11.1-7.5z"/>
					<g id="&lt;Group&gt;">
						<path id="&lt;Path&gt;" class="s23" d="m909.1 335.5c3-3 3.6-6 8-8.6 4.4-2.5 7.2-2.4 11.9-4.8 4.8-2.4 8.6-3.7 12.1-2.5 3.6 1.1 3.1 3.2 0.4 4.9-2.7 1.7-7.3 3.9-10.5 6.2-3.2 2.4-6.3 3.7-6.3 7.7 0 4.1 0.6 12.4 1.5 19.2 0.8 6.7 2.2 12.2 1.7 13-0.5 0.7-3.4 1-5.2-2.8-1.8-3.7-4.2-17.5-4.2-17.5 0 0-1.3 9.5-1.8 16.1-0.5 6.6-0.7 11.7-0.9 13.1-0.2 1.4-4.9 0.3-5.6-4.7-0.8-4.9 0.2-19.7 0.2-19.7 0 0-3.9 6.7-6.4 11.1-2.5 4.3-5.6 10.3-6.6 11.7-1 1.5-4-1.1-3.3-5.1 0.8-3.9 5.8-13.6 5.8-13.6 0 0-6.1 6.4-7.2 7-1.1 0.7-4.3 0.2-3.2-4.2 0.7-2.9 2.6-4.8 7.5-10.4 4.9-5.6 4.9-8 6.4-10.5 2-3.4 3.6-3.4 5.7-5.6z"/>
						<g id="&lt;Group&gt;">
							<path id="&lt;Path&gt;" class="s22" d="m942.9 320.4c0.6 0.4 1 1 0.8 1.8-0.3 1.3-1.6 2.1-2.6 2.8l-6.7 4q-1.6 1-3.2 2.2c-1 0.7-2.1 1.4-3.1 2.2-1 0.8-1.9 1.6-2.4 2.7-0.5 1.1-0.5 2.3-0.4 3.6 0.1 5.1 0.5 10.3 1 15.4q0.4 3.9 0.9 7.7l0.5 3.9c0.1 1.3 0.5 2.6 0.2 3.9 0.2-1.3-0.2-2.6-0.4-3.9l-0.8-3.8q-0.7-3.8-1.3-7.7-0.9-7.7-1.2-15.5c-0.1-1.2-0.1-2.7 0.6-4 0.6-1.3 1.6-2.3 2.7-3.1 1-0.8 2.1-1.5 3.2-2.2 1-0.8 2.1-1.5 3.3-2.1l6.8-3.7c1.1-0.6 2.3-1.3 2.7-2.5 0.2-0.6-0.2-1.2-0.7-1.6-0.4-0.4-1-0.7-1.7-0.9 0.7 0.2 1.3 0.4 1.8 0.8z"/>
						</g>
						<path id="&lt;Path&gt;" class="s22" d="m921.4 337.8c-4.9 2.2-9.7 0-10.4-1.2 0.3 3.3 7 5.3 10.4 1.2z"/>
						<path id="&lt;Path&gt;" class="s22" d="m889.4 364.5c0.4 0.6 1.8 0.8 3.1-0.2 1.2-1 4.2-4.4 5.6-6 1.4-1.6 6.1-7.2 6.1-7.2l-4.3 8.1c0 0-6.1 6.4-7.2 7.1-0.8 0.4-2.9 0.2-3.3-1.8z"/>
					</g>
				</g>
			</g>
		</g>
	</g>
	<g id="Speech Bubble">
		<g id="Speech Bubble 1 ">
			<g id="Speech Bubble 2 ">
				<path id="&lt;Path&gt;" class="s8" d="m797.5 107.1c7.7 7.7 11.7 17.7 12.1 27.8l-0.1 4.7c-0.7 9.5-4.7 18.7-11.8 25.9-16.1 16.2-42.3 16.3-58.5 0.2-7.2-7.1-11.2-16.3-12-25.8l-0.1-4.7c0.3-10.1 4.2-20.2 11.9-27.9 16.1-16.2 42.3-16.3 58.5-0.2z"/>
				<path id="&lt;Compound Path&gt;" fill-rule="evenodd" class="s5" d="m799.9 104.6c15.7 15.6 17.5 40 5.1 57.6l5.7 12.7c1 2.2-1.2 4.4-3.4 3.5l-12.8-5.6c-17.4 12.6-41.9 11.1-57.7-4.5-17.6-17.4-17.7-45.8-0.3-63.4 17.4-17.6 45.8-17.7 63.4-0.3zm-60.9 2.8c-7.7 7.7-11.7 17.7-11.9 27.9l0.1 4.7c0.8 9.4 4.8 18.6 12.1 25.8 16.2 16 42.4 15.9 58.4-0.3 7.2-7.3 11.1-16.5 11.8-25.9l0.1-4.8c-0.4-10.1-4.4-20.1-12.2-27.8-16.2-16-42.4-15.8-58.4 0.4z"/>
			</g>
			<g id="Check 1 ">
				<path id="&lt;Path&gt;" class="s4" d="m762.4 159c-1.7 0-3.4-0.7-4.5-2l-14-14.9c-2.3-2.5-2.2-6.4 0.3-8.7 2.5-2.3 6.4-2.2 8.7 0.3l9.1 9.7 21.4-27.2c2.1-2.6 6-3.1 8.7-1 2.6 2.1 3.1 6 1 8.6l-25.9 32.8c-1.1 1.4-2.8 2.3-4.6 2.4q-0.1 0-0.2 0z"/>
			</g>
		</g>
	</g>
</svg>