<svg xmlns="http://www.w3.org/2000/svg" version="1.1" xmlns:xlink="http://www.w3.org/1999/xlink" xmlns:svgjs="http://svgjs.com/svgjs" width="1440" height="560" preserveAspectRatio="none" viewBox="0 0 1440 560"><g mask="url(&quot;#SvgjsMask1001&quot;)" fill="none"><g transform="translate(0, 0)" stroke-linecap="round"><path d="M260 221.04 L260 338.96" stroke-width="15" stroke="#dd1133"></path><path d="M280 118.93 L280 441.07" stroke-width="15" stroke="#3a7cc3"></path><path d="M300 249.67 L300 310.33" stroke-width="15" stroke="#3a7cc3"></path><path d="M320 156.87 L320 403.13" stroke-width="15" stroke="#3a7cc3"></path><path d="M340 253.02 L340 306.98" stroke-width="15" stroke="#3a7cc3"></path><path d="M360 121.31 L360 438.69" stroke-width="15" stroke="#3a7cc3"></path><path d="M380 216.63 L380 343.37" stroke-width="15" stroke="#3a7cc3"></path><path d="M400 123.04 L400 436.96" stroke-width="15" stroke="#3a7cc3"></path><path d="M420 141.66 L420 418.34" stroke-width="15" stroke="#dd1133"></path><path d="M440 113.75 L440 446.25" stroke-width="15" stroke="#dd1133"></path><path d="M460 115.59 L460 444.4" stroke-width="15" stroke="#dd1133"></path><path d="M480 254.34 L480 305.66" stroke-width="15" stroke="#3a7cc3"></path><path d="M500 255.11 L500 304.89" stroke-width="15" stroke="#3a7cc3"></path><path d="M520 135.27 L520 424.73" stroke-width="15" stroke="#3a7cc3"></path><path d="M540 234.84 L540 325.16" stroke-width="15" stroke="#dd1133"></path><path d="M560 165.55 L560 394.45" stroke-width="15" stroke="#dd1133"></path><path d="M580 232.76 L580 327.24" stroke-width="15" stroke="#3a7cc3"></path><path d="M600 239.25 L600 320.75" stroke-width="15" stroke="#dd1133"></path><path d="M620 167.53 L620 392.47" stroke-width="15" stroke="#3a7cc3"></path><path d="M640 218.95 L640 341.05" stroke-width="15" stroke="#dd1133"></path><path d="M660 161.13 L660 398.88" stroke-width="15" stroke="#dd1133"></path><path d="M680 230.19 L680 329.81" stroke-width="15" stroke="#dd1133"></path><path d="M700 109.93 L700 450.07" stroke-width="15" stroke="#3a7cc3"></path><path d="M720 180.99 L720 379.01" stroke-width="15" stroke="#3a7cc3"></path><path d="M740 230.35 L740 329.64" stroke-width="15" stroke="#dd1133"></path><path d="M760 178.09 L760 381.91" stroke-width="15" stroke="#dd1133"></path><path d="M780 253.39 L780 306.61" stroke-width="15" stroke="#3a7cc3"></path><path d="M800 127.81 L800 432.19" stroke-width="15" stroke="#dd1133"></path><path d="M820 113.46 L820 446.54" stroke-width="15" stroke="#dd1133"></path><path d="M840 181.86 L840 378.14" stroke-width="15" stroke="#dd1133"></path><path d="M860 143.28 L860 416.73" stroke-width="15" stroke="#3a7cc3"></path><path d="M880 148.61 L880 411.39" stroke-width="15" stroke="#dd1133"></path><path d="M900 204.03 L900 355.97" stroke-width="15" stroke="#dd1133"></path><path d="M920 229.59 L920 330.41" stroke-width="15" stroke="#dd1133"></path><path d="M940 204.27 L940 355.73" stroke-width="15" stroke="#dd1133"></path><path d="M960 251.22 L960 308.78" stroke-width="15" stroke="#3a7cc3"></path><path d="M980 140.16 L980 419.84" stroke-width="15" stroke="#dd1133"></path><path d="M1000 109.69 L1000 450.31" stroke-width="15" stroke="#3a7cc3"></path><path d="M1020 226.31 L1020 333.69" stroke-width="15" stroke="#dd1133"></path><path d="M1040 146.1 L1040 413.89" stroke-width="15" stroke="#dd1133"></path><path d="M1060 227.97 L1060 332.03" stroke-width="15" stroke="#3a7cc3"></path><path d="M1080 252.97 L1080 307.02" stroke-width="15" stroke="#dd1133"></path><path d="M1100 174.18 L1100 385.82" stroke-width="15" stroke="#3a7cc3"></path><path d="M1120 254.63 L1120 305.37" stroke-width="15" stroke="#dd1133"></path><path d="M1140 188.74 L1140 371.26" stroke-width="15" stroke="#dd1133"></path><path d="M1160 155.39 L1160 404.61" stroke-width="15" stroke="#3a7cc3"></path><path d="M1180 209.44 L1180 350.56" stroke-width="15" stroke="#dd1133"></path></g></g><defs><mask id="SvgjsMask1001"><rect width="1440" height="560" fill="#ffffff"></rect></mask></defs></svg>