<svg xmlns="http://www.w3.org/2000/svg" version="1.1" xmlns:xlink="http://www.w3.org/1999/xlink" xmlns:svgjs="http://svgjs.com/svgjs" width="1440" height="560" preserveAspectRatio="none" viewBox="0 0 1440 560"><g mask="url(&quot;#SvgjsMask1001&quot;)" fill="none"><path d="M 0,387 C 57.6,314.4 172.8,7 288,24 C 403.2,41 460.8,458.4 576,472 C 691.2,485.6 748.8,117 864,92 C 979.2,67 1036.8,314.2 1152,347 C 1267.2,379.8 1382.4,274.2 1440,256L1440 560L0 560z" fill="#184a7e"></path><path d="M 0,103 C 96,146.2 288,314 480,319 C 672,324 768,95.6 960,128 C 1152,160.4 1344,410.4 1440,481L1440 560L0 560z" fill="#2264ab"></path></g><defs><mask id="SvgjsMask1001"><rect width="1440" height="560" fill="#ffffff"></rect></mask></defs></svg>